<svg width="300" height="300" viewBox="0 0 300 300" fill="none" xmlns="http://www.w3.org/2000/svg">
<circle cx="150" cy="150" r="150" fill="#A5CEE4"/>
<path d="M150 0C67.1556 0 0 67.1556 0 150C0 232.844 67.1556 300 150 300C232.844 300 300 232.844 300 150C300 67.1556 232.844 0 150 0V0ZM149.218 64.1709C151.263 63.9442 153.306 64.6119 154.826 66.002C156.343 67.3921 157.187 69.3676 157.142 71.4254V142.854H228.571C230.484 142.827 232.325 143.566 233.688 144.909C235.051 146.252 235.815 148.083 235.815 149.996C235.815 151.91 235.051 153.741 233.688 155.083C232.325 156.426 230.484 157.166 228.571 157.139H157.142V228.567C157.17 230.481 156.43 232.322 155.087 233.684C153.744 235.047 151.913 235.812 150 235.812C148.087 235.812 146.256 235.047 144.913 233.684C143.57 232.322 142.83 230.481 142.858 228.567V157.139H71.429C69.5331 157.228 67.6821 156.561 66.2796 155.285C64.877 154.007 64.0375 152.226 63.9503 150.33C63.8606 148.437 64.5283 146.583 65.8063 145.181C67.0818 143.781 68.8631 142.941 70.7589 142.854C70.9831 142.844 71.2048 142.844 71.429 142.854H142.858V71.4256C142.778 67.7236 145.538 64.5748 149.218 64.1711V64.1709Z" fill="#212121"/>
</svg>
