<svg width="460" height="460" viewBox="0 0 460 460" fill="none" xmlns="http://www.w3.org/2000/svg">
<circle cx="230" cy="230" r="230" fill="#212121"/>
<path d="M258.019 153.387L304.807 200.402L186.376 319.397L139.613 272.398L258.019 153.387ZM340.309 142.044L319.443 121.077C315.57 117.187 310.308 115 304.818 115C299.329 115 294.067 117.187 290.194 121.077L270.209 141.163L316.993 188.178L340.307 164.751C343.312 161.736 345 157.653 345 153.396C345 149.14 343.312 145.057 340.307 142.042L340.309 142.044ZM115.13 338.488C114.726 340.285 115.276 342.164 116.585 343.459C117.896 344.754 119.781 345.282 121.572 344.855L173.707 332.151L126.944 285.136L115.13 338.488Z" fill="#A5CEE4"/>
</svg>
