<svg width="300" height="300" viewBox="0 0 300 300" fill="none" xmlns="http://www.w3.org/2000/svg">
<circle cx="281.247" cy="179.465" r="6.96429" fill="#343434"/>
<path d="M150 300C67.2911 300 0 232.709 0 150C0 67.2911 67.2911 0 150 0C232.709 0 300 67.2911 300 150C300 232.709 232.709 300 150 300Z" fill="#212121"/>
<path d="M157.497 84.561C157.497 88.7045 154.138 92.061 149.997 92.061C145.856 92.061 142.497 88.7045 142.497 84.561C142.497 80.4197 145.856 77.061 149.997 77.061C154.138 77.061 157.497 80.4197 157.497 84.561Z" fill="#A5CEE4"/>
<path d="M157.497 84.561C157.497 88.7045 154.138 92.061 149.997 92.061C145.856 92.061 142.497 88.7045 142.497 84.561C142.497 80.4197 145.856 77.061 149.997 77.061C154.138 77.061 157.497 80.4197 157.497 84.561Z" stroke="#A5CEE4"/>
<path d="M149.997 230.436C145.854 230.436 142.497 227.079 142.497 222.936V122.746C142.497 118.603 145.854 115.246 149.997 115.246C154.141 115.246 157.497 118.603 157.497 122.746V222.936C157.497 227.073 154.141 230.433 149.997 230.433V230.436Z" fill="#A5CEE4"/>
<path d="M149.997 230.436C145.854 230.436 142.497 227.079 142.497 222.936V122.746C142.497 118.603 145.854 115.246 149.997 115.246C154.141 115.246 157.497 118.603 157.497 122.746V222.936C157.497 227.073 154.141 230.433 149.997 230.433V230.436Z" stroke="#A5CEE4"/>
</svg>
