<svg width="30" height="300" viewBox="0 0 30 300" fill="none" xmlns="http://www.w3.org/2000/svg">
<path d="M29.3399 14.67C29.3399 22.7745 22.7704 29.3399 14.67 29.3399C6.56952 29.3399 0 22.7745 0 14.67C0 6.56952 6.56952 0 14.67 0C22.7704 0 29.3399 6.56952 29.3399 14.67Z" fill="#A5CEE4"/>
<path d="M29.3399 14.67C29.3399 22.7745 22.7704 29.3399 14.67 29.3399C6.56952 29.3399 0 22.7745 0 14.67C0 6.56952 6.56952 0 14.67 0C22.7704 0 29.3399 6.56952 29.3399 14.67Z" stroke="#A5CEE4"/>
<path d="M14.67 300C6.56544 300 0 293.434 0 285.33V89.3601C0 81.2556 6.56544 74.6902 14.67 74.6902C22.7745 74.6902 29.3399 81.2556 29.3399 89.3601V285.33C29.3399 293.422 22.7745 299.996 14.67 299.996V300Z" fill="#A5CEE4"/>
<path d="M14.67 300C6.56544 300 0 293.434 0 285.33V89.3601C0 81.2556 6.56544 74.6902 14.67 74.6902C22.7745 74.6902 29.3399 81.2556 29.3399 89.3601V285.33C29.3399 293.422 22.7745 299.996 14.67 299.996V300Z" stroke="#A5CEE4"/>
</svg>
