<svg width="250" height="300" viewBox="0 0 250 300" fill="none" xmlns="http://www.w3.org/2000/svg">
<path d="M137.5 50.6273V37.5023H143.75C147.201 37.5023 150.001 34.7023 150.001 31.2515V6.25074C150.001 2.79997 147.201 0 143.75 0H106.25C102.799 0 99.9994 2.79997 99.9994 6.25074V31.2515C99.9994 34.7023 102.799 37.5023 106.25 37.5023H112.501V50.6777C101.239 51.8286 90.4133 54.4779 80.2133 58.414L67.1258 45.7764L44.2887 22.9522L0.313929 66.927L28.7005 95.3136C10.7749 116.939 0 144.702 0 175.001C0 244.039 55.9609 300 124.999 300C194.036 300 249.997 244.039 249.997 175.001C249.997 110.174 200.672 56.9027 137.497 50.6241L137.5 50.6273ZM112.501 12.5015H137.502V25.0008H112.501V12.5015ZM17.9845 66.9249L44.285 40.6244L58.8725 55.1997L32.5721 81.5001L17.9845 66.9249ZM124.999 275.002C69.8633 275.002 24.9971 230.14 24.9971 175C24.9971 119.864 69.859 74.9981 124.999 74.9981C180.135 74.9981 225.001 119.86 225.001 175C225.001 230.136 180.139 275.002 124.999 275.002ZM115.086 118.241C110.198 113.353 102.298 113.353 97.4119 118.241C92.5235 123.13 92.5235 131.029 97.4119 135.915L121.963 160.479L89.1126 206.379C85.7247 212.392 87.8507 220.017 93.8755 223.393C95.8133 224.493 97.9122 225.006 99.988 225.006C104.364 225.006 108.601 222.706 110.889 218.632L148.389 164.46C151.151 159.572 150.302 153.459 146.338 149.498L115.089 118.248L115.086 118.241Z" fill="#A5CEE4"/>
</svg>
