<svg width="492" height="302" viewBox="0 0 492 302" fill="none" xmlns="http://www.w3.org/2000/svg">
<path d="M454.408 8.04755L246.007 235.488L36.7419 8.04224C36.7418 8.04214 36.7418 8.04205 36.7417 8.04196C32.7404 3.68039 27.3091 1.22134 21.6393 1.22134C15.9694 1.22134 10.538 3.6806 6.53656 8.04221L6.53635 8.04245C2.53546 12.414 0.295074 18.3309 0.295074 24.4927C0.295074 30.6598 2.53555 36.5767 6.53635 40.9484L6.53674 40.9488L245.816 301.169L246 301.369L246.184 301.169L485.462 40.9488L485.463 40.9484C489.464 36.5767 491.704 30.6598 491.704 24.4927C491.704 18.3323 489.465 12.4166 485.465 8.04517C481.435 3.39273 475.821 0.75 469.938 0.75C464.06 0.75 458.441 3.39258 454.41 8.04483C454.41 8.04575 454.409 8.04663 454.408 8.04755Z" fill="#A5CEE4" stroke="#A5CEE4" stroke-width="0.5"/>
</svg>
