<svg width="328" height="300" viewBox="0 0 328 300" fill="none" xmlns="http://www.w3.org/2000/svg">
<path d="M156.262 30.9221L224.745 99.4053L177.281 146.869L105.157 74.7453L152.621 27.2812L156.262 30.9221ZM210.242 99.3414L152.684 41.7833L119.722 74.7453L177.28 132.303L210.242 99.3414Z" fill="#274B73"/>
<path d="M157.864 6.32481C162.017 10.4774 164.125 15.9718 164.125 21.4655C164.125 26.9592 162.017 32.4536 157.864 36.6062L114.489 79.9815C110.336 84.1341 104.842 86.1785 99.3481 86.1785C93.8539 86.1785 88.36 84.0702 84.2074 79.9176C80.0548 75.765 77.9465 70.2706 77.9465 64.7769C77.9465 59.2827 80.0547 53.7888 84.2074 49.6362L127.583 6.26087C131.735 2.10829 137.23 0 142.723 0C148.217 0 153.712 2.10822 157.864 6.26087V6.32481ZM153.903 21.4655C153.903 18.5906 152.817 15.7158 150.645 13.5435C148.473 11.3713 145.598 10.2853 142.723 10.2853C139.848 10.2853 136.973 11.3714 134.801 13.5435L91.4257 56.9189C89.2536 59.091 88.1675 61.9659 88.1675 64.8408C88.1675 67.7157 89.2536 70.5906 91.4257 72.7628C93.5979 74.935 96.4727 76.021 99.3477 76.021C102.223 76.021 105.034 74.935 107.27 72.7628L150.645 29.3875C152.817 27.2153 153.903 24.3404 153.903 21.4655V21.4655Z" fill="#274B73"/>
<path d="M245.7 94.17C249.853 98.3226 251.961 103.817 251.961 109.311C251.961 114.805 249.853 120.299 245.7 124.451L202.325 167.827C198.172 171.979 192.678 174.024 187.184 174.024C181.69 174.024 176.196 171.915 172.044 167.763C167.891 163.61 165.783 158.116 165.783 152.622C165.783 147.128 167.891 141.634 172.044 137.481L215.419 94.1061C219.572 89.9535 225.066 87.8452 230.56 87.8452C236.054 87.8452 241.548 89.9534 245.7 94.1061V94.17ZM241.739 109.311C241.739 106.436 240.653 103.561 238.481 101.389C236.309 99.2166 233.434 98.1305 230.559 98.1305C227.684 98.1305 224.81 99.2166 222.637 101.389L179.262 144.764C177.09 146.936 176.004 149.811 176.004 152.686C176.004 155.561 177.09 158.436 179.262 160.608C181.434 162.78 184.309 163.866 187.184 163.866C190.059 163.866 192.87 162.78 195.106 160.608L238.481 117.233C240.653 115.061 241.739 112.186 241.739 109.311V109.311Z" fill="#274B73"/>
<path d="M137.544 92.6907L162.842 117.989L159.456 121.567L40.759 247.289C40.4396 247.608 40.5674 247.481 40.4396 247.608C37.5009 250.547 33.6038 251.953 29.7069 251.953C25.8738 251.953 21.9767 250.483 19.0381 247.672C18.7187 247.353 18.8465 247.544 18.7187 247.353L4.5998 233.234C4.47203 233.106 4.5998 233.234 4.28037 232.914C1.46936 229.976 0.0638617 226.079 0 222.246C0 218.349 1.4055 214.451 4.34423 211.513C4.472 211.385 4.34423 211.513 4.66366 211.194L130.386 92.4963L133.963 89.1104L137.544 92.6907ZM148.596 118.181L133.838 103.423L11.6908 218.67C11.4992 218.862 11.8186 218.543 11.6269 218.798C10.6686 219.756 10.2214 220.97 10.2214 222.312C10.2214 223.653 10.7325 224.995 11.6908 226.017C11.8186 226.145 11.563 225.826 11.8186 226.145L25.9375 240.264C26.193 240.519 25.9375 240.264 26.0652 240.392C27.0874 241.35 28.429 241.861 29.7706 241.861C31.0483 241.861 32.326 241.414 33.2843 240.456C33.5399 240.2 33.2204 240.519 33.4121 240.392L148.659 118.244L148.596 118.181Z" fill="#274B73"/>
<path d="M167.315 259.815H313.605C317.311 259.815 320.697 261.349 323.188 263.776C325.616 266.204 327.149 269.59 327.149 273.359V286.456C327.149 290.161 325.616 293.547 323.188 296.039C320.761 298.467 317.375 300 313.605 300H167.315C163.61 300 160.224 298.467 157.732 296.039C155.304 293.611 153.771 290.225 153.771 286.456V273.359C153.771 269.654 155.304 266.268 157.732 263.776C160.16 261.349 163.546 259.815 167.315 259.815V259.815ZM313.605 270.037H167.315C166.421 270.037 165.59 270.421 164.951 270.996C164.376 271.57 163.993 272.401 163.993 273.359V286.456C163.993 287.35 164.376 288.181 164.951 288.819C165.526 289.394 166.357 289.778 167.315 289.778H313.605C314.5 289.778 315.33 289.394 315.969 288.819C316.544 288.245 316.927 287.414 316.927 286.456V273.359C316.927 272.465 316.544 271.634 315.969 270.996C315.394 270.421 314.564 270.037 313.605 270.037Z" fill="#274B73"/>
<path d="M188.888 229.853H291.994C295.699 229.853 299.085 231.386 301.577 233.814C304.004 236.242 305.538 239.628 305.538 243.397V256.493C305.538 260.199 304.004 263.585 301.577 266.077C299.149 268.504 295.763 270.037 291.994 270.037H188.888C185.183 270.037 181.797 268.504 179.305 266.077C176.877 263.649 175.344 260.263 175.344 256.493V243.397C175.344 239.692 176.877 236.306 179.305 233.814C181.733 231.386 185.119 229.853 188.888 229.853ZM291.994 240.075H188.888C187.994 240.075 187.163 240.458 186.524 241.033C185.949 241.608 185.566 242.439 185.566 243.397V256.493C185.566 257.388 185.949 258.218 186.524 258.857C187.099 259.432 187.93 259.815 188.888 259.815H291.994C292.888 259.815 293.719 259.432 294.357 258.857C294.932 258.282 295.316 257.452 295.316 256.493V243.397C295.316 242.503 294.932 241.672 294.357 241.033C293.782 240.458 292.952 240.075 291.994 240.075Z" fill="#274B73"/>
</svg>
