<svg width="294" height="302" viewBox="0 0 294 302" fill="none" xmlns="http://www.w3.org/2000/svg">
<path d="M152.935 47.7093L152.869 47.6479H152.779H82.9506V19.7043C82.9506 14.8087 88.0085 10.6027 94.3526 10.6027H210.932V57.1939C210.932 67.8537 221.534 76.2273 234.488 76.2273H280.988V235.438C280.988 240.405 275.91 244.521 269.539 244.521H223.063V118.187V113.5V113.401L222.991 113.334L152.935 47.7093ZM70.82 47.6592H24.386C11.3976 47.6592 0.772727 56.1359 0.772727 66.7011V282.185C0.772727 292.739 11.3157 301.227 24.318 301.227H199.518C212.474 301.227 223.063 292.751 223.063 282.334V254.353H269.574C282.53 254.353 293.119 245.876 293.119 235.459V66.6245V66.526L293.047 66.4587L222.991 0.834134L222.926 0.772727H222.836H94.4333C81.4449 0.772727 70.82 9.24945 70.82 19.8147V47.6592ZM24.2966 57.4769H140.876V104.062C140.876 114.722 151.478 123.096 164.432 123.096H210.932V282.306C210.932 287.273 205.854 291.389 199.483 291.389H24.3433C18.0529 291.389 12.8946 287.272 12.8946 282.288V66.5785C12.8946 61.6829 17.9525 57.4769 24.2966 57.4769ZM223.063 57.166V15.5878L277.139 66.3973H234.477C228.178 66.3973 223.063 62.2192 223.063 57.166ZM153.007 104.041V62.4625L207.083 113.272H164.421C158.122 113.272 153.007 109.094 153.007 104.041Z" fill="#A5CEE4" stroke="#A5CEE4" stroke-width="0.454545"/>
</svg>
