<svg width="259" height="300" viewBox="0 0 259 300" fill="none" xmlns="http://www.w3.org/2000/svg">
<path d="M242.859 0.00125966H102.247V49.549C102.247 64.5819 89.8145 76.8288 74.5539 76.8288L24.2932 76.8263V137.703H138.324C149.502 137.703 158.6 146.666 158.6 157.676V210.752C158.6 221.763 149.502 230.725 138.324 230.725L24.2932 230.728V284.332C24.2932 292.977 31.4229 300 40.1987 300H242.858C251.634 300 258.763 292.977 258.763 284.332V15.6681C258.763 7.0227 251.633 0 242.858 0L242.859 0.00125966Z" fill="#A5CEE4"/>
<path d="M90.4949 49.5455V8.18506L32.6022 65.2136H74.5893C83.3657 65.2136 90.4949 58.1903 90.4949 49.5455Z" fill="#A5CEE4"/>
<path d="M36.9382 170.765C35.9361 170.588 33.892 170.482 30.8483 170.482H26.7651V182.199H31.3856C34.7167 182.199 36.9733 181.988 38.0855 181.564C39.195 181.141 40.0921 180.471 40.7368 179.519C41.3815 178.601 41.7039 177.542 41.7039 176.306C41.7039 174.79 41.2391 173.554 40.342 172.565C39.4449 171.646 38.3354 171.011 36.9385 170.765L36.9382 170.765Z" fill="#A5CEE4"/>
<path d="M80.5446 172.854C79.505 171.901 78.2156 171.232 76.6388 170.914C75.4567 170.668 73.1277 170.525 69.6894 170.525H65.8911V197.911H72.2309C74.5948 197.911 76.3141 197.771 77.3536 197.522C78.7156 197.17 79.8626 196.604 80.7922 195.794C81.6868 194.982 82.439 193.642 83.0138 191.806C83.586 189.972 83.8734 187.429 83.8734 184.219C83.8734 181.007 83.586 178.572 83.0138 176.844C82.3715 175.148 81.5819 173.807 80.5448 172.854L80.5446 172.854Z" fill="#A5CEE4"/>
<path d="M146.847 210.722V157.647C146.847 153.024 143.013 149.248 138.32 149.248H8.52627C3.8333 149.248 0 153.024 0 157.647V210.722C0 215.345 3.83337 219.121 8.52627 219.121H138.32C143.016 219.121 146.849 215.345 146.849 210.722H146.847ZM49.0452 182.633C48.1132 184.361 46.9311 185.739 45.4618 186.692C44.0299 187.679 42.5605 188.314 41.0562 188.669C39.0495 189.058 36.1132 189.269 32.2797 189.269H26.7621V204.869H18.271L18.2735 163.506H31.8875C37.0453 163.506 40.4138 163.717 41.953 164.141C44.3545 164.776 46.3586 166.117 48.0079 168.2C49.6197 170.283 50.4443 172.963 50.4443 176.247C50.4418 178.785 49.977 180.902 49.0449 182.633L49.0452 182.633ZM91.2819 193.395C90.2423 196.396 88.7379 198.83 86.8038 200.701C85.3344 202.112 83.3653 203.207 80.8563 204.019C78.9946 204.62 76.4857 204.901 73.3696 204.901H57.4264L57.4289 163.506H72.9045C76.4155 163.506 79.0668 163.752 80.8934 164.281C83.3648 164.988 85.4789 166.258 87.2332 168.092C88.9874 169.926 90.3144 172.151 91.2464 174.797C92.1785 177.444 92.6084 180.691 92.6084 184.573C92.5359 187.997 92.1061 190.926 91.2814 193.395L91.2819 193.395ZM128.576 170.492H108.265V180.267H125.782V187.256H108.265V204.83H99.7736V163.506H128.541V170.492L128.576 170.492Z" fill="#A5CEE4"/>
</svg>
