<?xml version="1.0" standalone="no"?>
<!DOCTYPE svg PUBLIC "-//W3C//DTD SVG 20010904//EN"
 "http://www.w3.org/TR/2001/REC-SVG-20010904/DTD/svg10.dtd">
<svg version="1.0" xmlns="http://www.w3.org/2000/svg"
 width="340.000000pt" height="302.000000pt" viewBox="0 0 340.000000 302.000000"
 preserveAspectRatio="xMidYMid meet">

<g transform="translate(0.000000,302.000000) scale(0.100000,-0.100000)"
fill="#000000" stroke="none">
<path d="M10 1520 l0 -1490 853 -5 c468 -3 1194 -7 1612 -10 l760 -5 45 22
c24 13 58 40 74 61 l31 39 3 446 c2 300 0 459 -8 484 -14 50 -56 97 -105 119
-34 16 -68 19 -237 19 l-198 0 0 58 c0 77 -31 139 -85 169 -34 20 -55 23 -147
23 l-108 0 0 780 0 780 -1245 0 -1245 0 0 -1490z m2450 690 l0 -760 -100 0
c-118 0 -156 -12 -196 -66 -24 -31 -29 -48 -32 -111 l-4 -73 -197 0 c-184 0
-200 -1 -241 -23 -25 -12 -58 -41 -75 -64 l-30 -42 -625 0 c-636 -1 -657 -2
-643 -37 4 -12 109 -14 634 -14 l629 0 0 -110 0 -110 -628 0 c-346 0 -631 -3
-635 -6 -3 -3 -3 -12 0 -20 4 -12 104 -14 634 -14 l629 0 0 -110 0 -110 -628
0 c-346 0 -631 -3 -635 -6 -3 -3 -3 -12 0 -20 4 -12 104 -14 634 -14 l629 0 0
-173 c0 -150 3 -178 19 -210 l19 -37 -784 0 -784 0 0 1438 c0 791 3 1442 7
1445 3 4 546 7 1205 7 l1198 0 0 -760z m266 -816 c46 -22 64 -60 64 -134 l0
-60 -305 0 -305 0 0 68 c0 74 14 100 65 126 45 24 432 23 481 0z m462 -414 c2
-116 -1 -184 -9 -203 -25 -59 4 -57 -690 -57 l-637 0 -31 26 -31 26 0 194 0
194 698 -2 697 -3 3 -175z m-1446 -22 c5 -289 -4 -282 351 -286 l247 -3 0 -40
c0 -36 -2 -39 -29 -39 -41 0 -53 -20 -49 -82 3 -52 3 -53 38 -58 33 -5 35 -7
38 -47 5 -65 23 -73 164 -73 138 0 158 10 158 80 0 33 3 40 20 40 24 0 40 28
40 74 0 36 -21 66 -46 66 -10 0 -14 12 -14 39 l0 39 238 4 c263 3 272 5 312
71 18 29 20 51 20 220 0 103 3 187 8 187 20 0 73 -43 88 -71 14 -28 16 -84 18
-480 1 -437 1 -448 -20 -476 -11 -15 -40 -38 -65 -51 l-44 -22 -747 2 c-736 3
-747 3 -774 24 -15 11 -37 33 -48 48 -20 27 -21 39 -21 480 0 419 1 454 18
479 16 25 72 67 89 67 3 0 8 -87 10 -192z m878 -328 l0 -40 -120 0 -120 0 0
40 0 40 120 0 120 0 0 -40z m58 -112 l-3 -33 -190 0 -190 0 -3 33 -3 32 196 0
196 0 -3 -32z m-60 -105 l-3 -38 -117 -3 -118 -3 0 41 0 40 121 0 120 0 -3
-37z"/>
<path d="M280 2230 l0 -500 535 0 535 0 0 500 0 500 -535 0 -535 0 0 -500z
m1025 0 l0 -455 -490 0 -490 0 -3 445 c-1 245 0 451 3 458 3 10 107 12 492 10
l488 -3 0 -455z"/>
<path d="M765 2593 c-70 -17 -132 -114 -121 -187 27 -169 251 -206 325 -54 26
54 26 91 2 143 -36 80 -119 119 -206 98z m123 -61 c32 -21 52 -64 52 -112 0
-32 -7 -48 -33 -76 -28 -31 -41 -37 -85 -42 -50 -4 -53 -3 -92 36 -34 34 -40
46 -40 81 0 60 24 99 73 122 45 20 84 18 125 -9z"/>
<path d="M579 2217 c-83 -44 -111 -114 -107 -259 l3 -93 340 0 340 0 0 116 c0
111 -1 118 -30 164 -20 32 -45 56 -74 72 -42 22 -54 23 -236 23 -181 0 -194
-1 -236 -23z m458 -43 c59 -44 73 -78 73 -180 l0 -94 -295 0 -295 0 0 90 c0
96 10 128 52 167 41 38 66 42 255 40 167 -2 184 -4 210 -23z"/>
<path d="M1631 2541 c-8 -5 -11 -16 -8 -25 6 -14 41 -16 312 -16 271 0 306 2
312 16 3 9 0 20 -8 25 -18 11 -590 11 -608 0z"/>
<path d="M1622 2263 c3 -17 26 -18 313 -18 287 0 310 1 313 18 3 16 -17 17
-313 17 -296 0 -316 -1 -313 -17z"/>
<path d="M1622 2003 c3 -17 26 -18 313 -18 287 0 310 1 313 18 3 16 -17 17
-313 17 -296 0 -316 -1 -313 -17z"/>
<path d="M322 1318 c-8 -8 -9 -15 -1 -25 9 -11 148 -13 743 -13 750 0 774 1
745 37 -16 18 -1469 19 -1487 1z"/>
<path d="M1737 440 c-23 -18 -27 -29 -27 -68 1 -85 48 -173 114 -213 40 -25
68 -24 92 2 43 48 6 188 -67 254 -22 19 -43 35 -48 35 -5 0 -16 2 -23 5 -8 3
-26 -4 -41 -15z m73 -40 c32 -22 90 -130 90 -166 0 -56 -28 -69 -73 -34 -36
29 -77 116 -77 165 0 61 13 69 60 35z"/>
<path d="M3165 446 c-66 -29 -124 -128 -125 -213 0 -97 59 -121 132 -55 53 48
88 122 88 187 0 56 -5 67 -37 84 -26 13 -21 13 -58 -3z m56 -50 c17 -37 -13
-127 -60 -176 -42 -44 -65 -50 -81 -20 -22 42 36 176 88 204 37 20 41 20 53
-8z"/>
</g>
</svg>
