<svg width="328" height="301" viewBox="0 0 328 301" fill="none" xmlns="http://www.w3.org/2000/svg">
<path d="M156.263 30.9222L224.746 99.4058L177.282 146.87L105.157 74.7457L152.622 27.2812L156.263 30.9222ZM210.243 99.342L152.685 41.7834L119.722 74.7457L177.281 132.304L210.243 99.342Z" fill="#A5CEE4"/>
<path d="M157.865 6.32485C162.018 10.4775 164.126 15.9719 164.126 21.4656C164.126 26.9594 162.018 32.4538 157.865 36.6064L114.489 79.9821C110.337 84.1347 104.842 86.1791 99.3485 86.1791C93.8542 86.1791 88.3603 84.0709 84.2077 79.9182C80.0551 75.7656 77.9468 70.2711 77.9468 64.7774C77.9468 59.2831 80.055 53.7892 84.2077 49.6366L127.583 6.26091C131.736 2.10831 137.23 0 142.724 0C148.218 0 153.712 2.10823 157.865 6.26091V6.32485ZM153.904 21.4656C153.904 18.5908 152.818 15.7159 150.646 13.5436C148.474 11.3714 145.599 10.2854 142.724 10.2854C139.849 10.2854 136.974 11.3714 134.802 13.5436L91.4261 56.9193C89.2539 59.0915 88.1678 61.9664 88.1678 64.8413C88.1678 67.7162 89.2539 70.5911 91.4261 72.7634C93.5982 74.9355 96.4731 76.0216 99.3481 76.0216C102.223 76.0216 105.034 74.9355 107.27 72.7634L150.646 29.3877C152.818 27.2155 153.904 24.3406 153.904 21.4656V21.4656Z" fill="#A5CEE4"/>
<path d="M245.702 94.1706C249.855 98.3232 251.963 103.818 251.963 109.311C251.963 114.806 249.855 120.3 245.702 124.452L202.326 167.828C198.174 171.98 192.679 174.025 187.185 174.025C181.691 174.025 176.197 171.917 172.045 167.764C167.892 163.611 165.784 158.117 165.784 152.623C165.784 147.129 167.892 141.635 172.045 137.482L215.42 94.1066C219.573 89.954 225.067 87.8457 230.561 87.8457C236.055 87.8457 241.549 89.9539 245.702 94.1066V94.1706ZM241.741 109.311C241.741 106.436 240.655 103.562 238.483 101.389C236.311 99.2171 233.436 98.1311 230.561 98.1311C227.686 98.1311 224.811 99.2171 222.639 101.389L179.263 144.765C177.091 146.937 176.005 149.812 176.005 152.687C176.005 155.562 177.091 158.437 179.263 160.609C181.435 162.781 184.31 163.867 187.185 163.867C190.06 163.867 192.871 162.781 195.107 160.609L238.483 117.233C240.655 115.061 241.741 112.186 241.741 109.311V109.311Z" fill="#A5CEE4"/>
<path d="M137.545 92.6912L162.843 117.99L159.457 121.568L40.7593 247.291C40.4399 247.61 40.5677 247.482 40.4399 247.61C37.5012 250.549 33.6041 251.954 29.7072 251.954C25.8739 251.954 21.9769 250.485 19.0383 247.674C18.7188 247.354 18.8466 247.546 18.7188 247.354L4.59983 233.235C4.47206 233.108 4.59984 233.235 4.2804 232.916C1.46937 229.977 0.0638622 226.08 0 222.247C0 218.35 1.40551 214.453 4.34426 211.514C4.47203 211.387 4.34426 211.514 4.6637 211.195L130.387 92.4969L133.964 89.1108L137.545 92.6912ZM148.597 118.182L133.839 103.424L11.6909 218.672C11.4992 218.864 11.8187 218.544 11.627 218.8C10.6687 219.758 10.2215 220.972 10.2215 222.313C10.2215 223.655 10.7326 224.997 11.6909 226.019C11.8186 226.147 11.5631 225.827 11.8186 226.147L25.9376 240.266C26.1932 240.521 25.9376 240.266 26.0654 240.393C27.0876 241.352 28.4293 241.863 29.7708 241.863C31.0485 241.863 32.3263 241.416 33.2846 240.457C33.5401 240.202 33.2207 240.521 33.4123 240.393L148.66 118.245L148.597 118.182Z" fill="#A5CEE4"/>
<path d="M167.317 259.817H313.608C317.313 259.817 320.699 261.351 323.191 263.778C325.619 266.206 327.152 269.592 327.152 273.362V286.458C327.152 290.163 325.619 293.549 323.191 296.041C320.763 298.469 317.377 300.002 313.608 300.002H167.317C163.611 300.002 160.225 298.469 157.733 296.041C155.306 293.614 153.772 290.228 153.772 286.458V273.362C153.772 269.656 155.306 266.27 157.733 263.778C160.161 261.351 163.547 259.817 167.317 259.817V259.817ZM313.608 270.039H167.317C166.422 270.039 165.592 270.423 164.953 270.998C164.378 271.573 163.994 272.403 163.994 273.361V286.458C163.994 287.352 164.378 288.183 164.953 288.822C165.528 289.397 166.358 289.78 167.317 289.78H313.608C314.502 289.78 315.333 289.397 315.972 288.822C316.547 288.247 316.93 287.416 316.93 286.458V273.361C316.93 272.467 316.547 271.636 315.972 270.998C315.397 270.423 314.566 270.039 313.608 270.039Z" fill="#A5CEE4"/>
<path d="M188.889 229.855H291.996C295.701 229.855 299.087 231.388 301.579 233.816C304.007 236.244 305.54 239.63 305.54 243.399V256.496C305.54 260.201 304.007 263.587 301.579 266.079C299.151 268.506 295.765 270.04 291.996 270.04H188.889C185.184 270.04 181.798 268.506 179.306 266.079C176.878 263.651 175.345 260.265 175.345 256.496V243.399C175.345 239.694 176.879 236.308 179.306 233.816C181.734 231.388 185.12 229.855 188.889 229.855ZM291.996 240.077H188.889C187.995 240.077 187.164 240.46 186.526 241.035C185.951 241.61 185.567 242.441 185.567 243.399V256.495C185.567 257.39 185.951 258.22 186.526 258.859C187.101 259.434 187.931 259.818 188.889 259.818H291.996C292.89 259.818 293.721 259.434 294.36 258.859C294.935 258.284 295.318 257.454 295.318 256.495V243.399C295.318 242.505 294.935 241.674 294.36 241.035C293.785 240.46 292.954 240.077 291.996 240.077Z" fill="#A5CEE4"/>
</svg>
