<svg width="290" height="300" viewBox="0 0 290 300" fill="none" xmlns="http://www.w3.org/2000/svg">
<path d="M289.267 123V118.185C289.279 116.016 288.329 113.961 286.688 112.599L156.214 4.21734C152.938 1.48749 148.851 0 144.633 0C140.416 0 136.328 1.48744 133.053 4.21734L2.57869 112.555C0.937784 113.918 -0.0124153 115.973 0.000122537 118.139V282.329C0.0357033 286.516 1.43801 290.568 3.98518 293.837C4.07728 294.024 4.18821 294.203 4.31378 294.366C4.64866 294.807 5.00867 295.224 5.39166 295.619C5.81026 296.075 6.26444 296.492 6.75213 296.87L7.73582 297.689H8.1586C8.54162 297.979 8.94977 298.237 9.37671 298.459C9.7681 298.697 10.1762 298.906 10.5948 299.086H11.1578C12.1018 299.469 13.0729 299.776 14.065 300H271.22C272.225 299.979 273.229 299.882 274.221 299.712H275.816L277.784 299.856L278.91 299.278C279.391 299.067 279.862 298.826 280.316 298.556H280.645L281.771 297.737L282.38 297.255L283.129 296.533L284.021 295.667C284.49 295.138 285.005 294.56 285.568 293.837V293.5L285.896 292.971L286.271 292.393V291.959H286.269C287.845 289.162 288.684 285.994 288.707 282.763V123.008L289.267 123ZM141.914 15.4825C143.499 14.1606 145.768 14.1606 147.352 15.4825L273.936 120.639L151.338 222.187C149.846 223.405 147.996 224.067 146.087 224.067C144.18 224.067 142.33 223.405 140.838 222.187L15.3302 120.546L141.914 15.4825ZM14.0174 276.834V137.923L98.8302 206.581L14.0174 276.834ZM24.5202 286.752L110.174 215.783L132.115 233.551V233.549C136.096 236.857 141.06 238.66 146.18 238.66C151.299 238.66 156.264 236.857 160.245 233.549L181.905 215.637L267.934 286.897L24.5202 286.752ZM275.251 274.28L193.015 206.201L275.203 138.116L275.251 274.28Z" fill="#A5CEE4"/>
<path d="M204.738 119.291C204.738 102.92 198.405 87.2203 187.135 75.6431C175.862 64.0682 160.575 57.564 144.634 57.564C128.694 57.564 113.407 64.0682 102.134 75.6431C90.8635 87.2203 84.5303 102.92 84.5303 119.291C84.5303 135.661 90.8635 151.361 102.134 162.938C113.407 174.513 128.694 181.017 144.634 181.017C160.57 181.005 175.852 174.496 187.12 162.923C198.389 151.35 204.726 135.656 204.739 119.29L204.738 119.291ZM98.5952 119.291C98.5952 106.751 103.447 94.7238 112.08 85.8573C120.714 76.9908 132.424 72.008 144.635 72.008C156.845 72.008 168.556 76.9906 177.189 85.8573C185.823 94.7238 190.675 106.751 190.675 119.291C190.675 131.831 185.823 143.858 177.189 152.724C168.556 161.591 156.845 166.573 144.635 166.573C132.424 166.573 120.714 161.591 112.08 152.724C103.447 143.858 98.5952 131.831 98.5952 119.291V119.291Z" fill="#A5CEE4"/>
<path d="M152.272 146.473C152.387 144.214 151.548 142.011 149.966 140.433C148.385 138.857 146.219 138.058 144.021 138.24C141.773 138.161 139.584 138.991 137.927 140.551C136.472 142.155 135.697 144.285 135.769 146.473C135.718 148.805 136.581 151.06 138.161 152.733C139.697 154.244 141.752 155.076 143.881 155.045C146.15 155.097 148.346 154.211 149.976 152.589C151.508 150.951 152.337 148.745 152.272 146.473V146.473Z" fill="#A5CEE4"/>
<path d="M135.951 100.564L136.42 100.18C138.747 98.3246 141.705 97.5099 144.624 97.9162C146.912 97.9011 148.959 99.3671 149.735 101.577C150.432 103.743 149.551 106.116 147.626 107.258C146.994 107.84 146.32 108.371 145.608 108.846L144.765 109.472C141.885 111.512 139.687 114.413 138.471 117.784C137.255 121.152 137.079 124.823 137.967 128.299C139.139 132.679 141.202 133.642 142.655 133.642C144.202 133.642 146.265 132.727 147.343 128.49C148.059 125.418 149.7 122.654 152.031 120.595C153.063 119.728 154.187 118.862 155.267 118.043C156.345 117.224 157.331 116.502 158.315 115.683C161.492 113.246 163.666 109.677 164.412 105.677C165.159 101.677 164.422 97.5346 162.346 94.0634C160.347 90.6414 157.492 87.8278 154.08 85.9145C150.669 84.0014 146.822 83.0599 142.937 83.1825H141.531C140.288 83.2749 139.051 83.4361 137.826 83.664C133.684 84.4163 129.85 86.4089 126.809 89.3945C125.34 90.8755 124.477 92.8767 124.398 94.9897C124.32 97.1026 125.032 99.1661 126.386 100.757C127.627 102.038 129.314 102.76 131.074 102.76C132.835 102.76 134.524 102.038 135.763 100.757L135.951 100.564Z" fill="#A5CEE4"/>
</svg>
