<svg width="300" height="300" viewBox="0 0 300 300" fill="none" xmlns="http://www.w3.org/2000/svg">
<circle cx="150" cy="150" r="150" fill="#264257"/>
<path d="M150.001 87.4998C143.998 87.4998 139.132 92.3655 139.132 98.3687V139.131H98.3702C92.367 139.131 87.5012 143.997 87.5012 150C87.5012 156.003 92.367 160.869 98.3702 160.869H139.132V201.631C139.132 207.634 143.998 212.5 150.001 212.5C156.004 212.5 160.87 207.634 160.87 201.631V160.869H201.632C207.635 160.869 212.501 156.003 212.501 150C212.501 143.997 207.635 139.131 201.632 139.131H160.87V98.3687C160.87 92.3655 156.004 87.4998 150.001 87.4998V87.4998Z" fill="#A5CEE4"/>
</svg>
