<svg width="294" height="302" viewBox="0 0 294 302" fill="none" xmlns="http://www.w3.org/2000/svg">
<path d="M153.944 148.518H153.944H51.7282C49.7903 148.518 48.0388 150.27 48.0388 152.208V275.335C48.0388 277.273 49.7903 279.025 51.7282 279.025H153.944C155.882 279.025 157.634 277.273 157.634 275.335V152.208C157.634 150.27 155.882 148.521 153.944 148.518ZM55.4175 155.894H150.257V271.645H55.4175V155.894Z" fill="#A5CEE4" stroke="#A5CEE4" stroke-width="0.4"/>
<path d="M31.9498 0.801246L31.9425 0.793986L31.8514 0.80051C30.5197 0.895815 29.2769 1.7687 28.7383 2.99004L28.7378 2.99123L1.16349 66.6439C0.7688 67.3322 0.78734 67.8606 0.808682 68.4689C0.813697 68.6119 0.818866 68.7592 0.818866 68.9141V107.613C0.818866 120.033 10.1344 129.84 22.1859 132.521V297.511C22.1859 299.449 23.9374 301.2 25.8753 301.2H267.77C269.708 301.2 271.457 299.448 271.459 297.511V132.521C283.511 129.841 292.826 120.036 292.826 107.613V68.9141C292.826 67.817 292.682 67.2732 292.526 66.6872C292.516 66.6495 292.506 66.6116 292.496 66.5733L292.492 66.5586L292.486 66.5447L264.9 2.99371L264.899 2.99225C264.312 1.66846 262.891 0.767635 261.444 0.802616H32.199C32.1175 0.800792 32.0335 0.800336 31.9498 0.801246ZM264.085 133.424V293.823H245.844V193.732C245.844 191.794 244.092 190.045 242.154 190.043H242.154H178.491C176.553 190.043 174.804 191.795 174.802 193.732V193.732V293.823H29.5615V133.424C39.2017 132.933 47.4547 127.623 51.928 119.901C56.6093 128.011 65.3383 133.65 75.5852 133.65C85.8499 133.65 94.663 128.009 99.3487 119.901C104.042 128.012 112.869 133.65 123.112 133.65C133.346 133.65 142.178 128.076 146.876 120.005C151.583 128.044 160.319 133.65 170.532 133.65C180.797 133.65 189.61 128.009 194.296 119.902C198.982 128.012 207.795 133.65 218.062 133.65C228.308 133.65 237.028 128.011 241.719 119.901C246.192 127.623 254.444 132.932 264.085 133.424ZM34.6127 8.17615H259.027L283.491 64.5721H10.1563L34.6127 8.17615ZM8.19274 71.9514H48.2369V107.616C48.2369 117.81 39.2877 126.274 28.16 126.274C16.9953 126.274 8.19274 117.816 8.19274 107.616V71.9514ZM55.613 71.9514H95.6571V107.616C95.6571 117.815 86.7464 126.274 75.5803 126.274C64.454 126.274 55.613 117.816 55.613 107.616V71.9514ZM103.033 71.9514H143.187V107.616C143.187 117.815 134.276 126.274 123.11 126.274C111.982 126.274 103.033 117.807 103.033 107.616V71.9514ZM150.563 71.9514H190.607V107.616C190.607 117.815 181.697 126.274 170.53 126.274C159.366 126.274 150.563 117.816 150.563 107.616V71.9514ZM197.983 71.9514H238.028V107.616C238.028 117.811 229.187 126.274 218.06 126.274C206.894 126.274 197.983 117.815 197.983 107.616V71.9514ZM245.404 71.9514H285.448V107.616C285.448 117.816 276.645 126.274 265.481 126.274C254.353 126.274 245.404 117.807 245.404 107.616V71.9514ZM182.177 197.42H238.463V293.823H182.177V197.42Z" fill="#A5CEE4" stroke="#A5CEE4" stroke-width="0.4"/>
<path d="M198.039 234.542C197.266 233.833 196.214 233.412 195.148 233.543H195.146L195.133 233.545C193.319 233.774 191.837 235.516 191.907 237.343V243.878C191.872 245.833 193.642 247.618 195.596 247.618C197.552 247.618 199.311 245.832 199.286 243.879V237.343C199.327 236.267 198.815 235.252 198.039 234.542Z" fill="#A5CEE4" stroke="#A5CEE4" stroke-width="0.4"/>
</svg>
