<svg width="300" height="300" viewBox="0 0 300 300" fill="none" xmlns="http://www.w3.org/2000/svg">
<path d="M150 0C135.592 0 123.915 11.6778 123.915 26.0855V123.915H26.0855C11.6778 123.915 0 135.592 0 150C0 164.408 11.6778 176.085 26.0855 176.085H123.915V273.915C123.915 288.322 135.592 300 150 300C164.408 300 176.085 288.322 176.085 273.915V176.085H273.915C288.322 176.085 300 164.408 300 150C300 135.592 288.322 123.915 273.915 123.915H176.085V26.0855C176.085 11.6778 164.408 0 150 0V0Z" fill="#A5CEE4"/>
</svg>
