<svg width="290" height="300" viewBox="0 0 290 300" fill="none" xmlns="http://www.w3.org/2000/svg">
<path d="M289.267 123V118.185C289.279 116.016 288.329 113.961 286.688 112.599L156.214 4.21734C152.938 1.48749 148.851 0 144.633 0C140.416 0 136.328 1.48744 133.053 4.21734L2.57869 112.555C0.937784 113.918 -0.0124153 115.973 0.000122537 118.139V282.329C0.0357033 286.516 1.43801 290.568 3.98518 293.837C4.07728 294.024 4.18821 294.203 4.31378 294.366C4.64866 294.807 5.00867 295.224 5.39166 295.619C5.81026 296.075 6.26444 296.492 6.75213 296.87L7.73582 297.689H8.1586C8.54162 297.979 8.94977 298.237 9.37671 298.459C9.7681 298.697 10.1762 298.906 10.5948 299.086H11.1578C12.1018 299.469 13.0729 299.776 14.065 300H271.22C272.225 299.979 273.229 299.882 274.221 299.712H275.816L277.784 299.856L278.91 299.278C279.391 299.067 279.862 298.826 280.316 298.556H280.645L281.771 297.737L282.38 297.255L283.129 296.533L284.021 295.667C284.49 295.138 285.005 294.56 285.568 293.837V293.5L285.896 292.971L286.271 292.393V291.959H286.269C287.845 289.162 288.684 285.994 288.707 282.763V123.008L289.267 123ZM141.914 15.4825C143.499 14.1606 145.768 14.1606 147.352 15.4825L273.936 120.639L151.338 222.187C149.846 223.405 147.996 224.067 146.087 224.067C144.18 224.067 142.33 223.405 140.838 222.187L15.3302 120.546L141.914 15.4825ZM14.0174 276.834V137.923L98.8302 206.581L14.0174 276.834ZM24.5202 286.752L110.174 215.783L132.115 233.551V233.549C136.096 236.857 141.06 238.66 146.18 238.66C151.299 238.66 156.264 236.857 160.245 233.549L181.905 215.637L267.934 286.897L24.5202 286.752ZM275.251 274.28L193.015 206.201L275.203 138.116L275.251 274.28Z" fill="#274B73"/>
<path d="M204.741 119.291C204.741 102.92 198.407 87.2203 187.137 75.6431C175.864 64.0682 160.577 57.564 144.637 57.564C128.696 57.564 113.409 64.0682 102.136 75.6431C90.8657 87.2203 84.5325 102.92 84.5325 119.291C84.5325 135.661 90.8657 151.361 102.136 162.938C113.409 174.513 128.696 181.017 144.637 181.017C160.573 181.005 175.854 174.496 187.122 162.923C198.391 151.35 204.728 135.656 204.741 119.29L204.741 119.291ZM98.5974 119.291C98.5974 106.751 103.449 94.7238 112.083 85.8573C120.716 76.9908 132.427 72.008 144.637 72.008C156.848 72.008 168.558 76.9906 177.192 85.8573C185.825 94.7238 190.677 106.751 190.677 119.291C190.677 131.831 185.825 143.858 177.192 152.724C168.558 161.591 156.848 166.573 144.637 166.573C132.427 166.573 120.716 161.591 112.083 152.724C103.449 143.858 98.5974 131.831 98.5974 119.291V119.291Z" fill="#274B73"/>
<path d="M152.27 146.473C152.385 144.214 151.546 142.011 149.964 140.433C148.383 138.857 146.217 138.058 144.019 138.24C141.771 138.161 139.582 138.991 137.925 140.551C136.47 142.155 135.696 144.285 135.767 146.473C135.716 148.805 136.579 151.06 138.159 152.733C139.695 154.244 141.751 155.076 143.879 155.045C146.148 155.097 148.344 154.211 149.974 152.589C151.506 150.951 152.335 148.745 152.27 146.473V146.473Z" fill="#274B73"/>
<path d="M135.951 100.564L136.42 100.18C138.747 98.3246 141.705 97.5099 144.624 97.9162C146.912 97.9011 148.959 99.3671 149.735 101.577C150.432 103.743 149.551 106.116 147.625 107.258C146.993 107.84 146.319 108.371 145.608 108.846L144.764 109.472C141.884 111.512 139.687 114.413 138.471 117.784C137.255 121.152 137.079 124.823 137.966 128.299C139.138 132.679 141.202 133.642 142.655 133.642C144.201 133.642 146.265 132.727 147.343 128.49C148.059 125.418 149.7 122.654 152.031 120.595C153.063 119.728 154.187 118.862 155.267 118.043C156.345 117.224 157.331 116.502 158.314 115.683C161.492 113.246 163.666 109.677 164.411 105.677C165.159 101.677 164.422 97.5346 162.346 94.0634C160.347 90.6414 157.492 87.8278 154.08 85.9145C150.669 84.0014 146.822 83.0599 142.937 83.1825H141.531C140.287 83.2749 139.05 83.4361 137.826 83.664C133.684 84.4163 129.849 86.4089 126.809 89.3945C125.339 90.8755 124.477 92.8767 124.398 94.9897C124.32 97.1026 125.032 99.1661 126.386 100.757C127.627 102.038 129.314 102.76 131.074 102.76C132.834 102.76 134.523 102.038 135.763 100.757L135.951 100.564Z" fill="#274B73"/>
</svg>
