<svg width="302" height="302" viewBox="0 0 302 302" fill="none" xmlns="http://www.w3.org/2000/svg">
<mask id="path-1-outside-1_365_203" maskUnits="userSpaceOnUse" x="0" y="0" width="302" height="302" fill="black">
<rect fill="white" width="302" height="302"/>
<path d="M175.047 301H126.95C122.251 300.995 117.749 299.126 114.426 295.806C111.103 292.482 109.234 287.98 109.231 283.281V257.022C107.996 256.539 106.778 256.026 105.565 255.499L87.0001 274.075C83.6745 277.39 79.1694 279.254 74.4707 279.254C69.7747 279.256 65.2666 277.395 61.9386 274.08L27.9302 240.071C24.6224 236.738 22.7663 232.233 22.7638 227.537C22.7613 222.841 24.6148 218.335 27.9175 214.999L46.4929 196.421C45.9692 195.214 45.4632 193.996 44.9751 192.768H18.7186C14.02 192.763 9.51709 190.894 6.19435 187.573C2.87382 184.25 1.00508 179.748 1 175.049V126.951C1.00508 122.252 2.87382 117.746 6.19435 114.424C9.51741 111.101 14.0199 109.232 18.7186 109.227H44.9829C45.466 107.999 45.9719 106.786 46.4957 105.578L27.9306 87.0132C24.6178 83.68 22.7566 79.1747 22.7566 74.476C22.7566 69.7773 24.6127 65.2693 27.923 61.9335L61.9393 27.9251C65.2649 24.6071 69.7726 22.7435 74.4713 22.7435C79.1673 22.7435 83.6754 24.6072 87.0008 27.9251L105.561 46.5005C106.774 45.9717 107.997 45.4606 109.233 44.9776V18.7211C109.235 14.0225 111.104 9.51702 114.427 6.19688C117.75 2.87382 122.252 1.00508 126.951 1H175.05H175.047C179.746 1.00508 184.251 2.87382 187.574 6.19435C190.897 9.51741 192.769 14.0225 192.774 18.7212V44.9777C194.002 45.4607 195.227 45.9743 196.44 46.5006L215 27.9251H214.998C218.326 24.6097 222.831 22.7461 227.527 22.7461C232.226 22.7435 236.731 24.6047 240.059 27.9201L274.07 61.9311V61.9286C277.381 65.2618 279.242 69.7697 279.242 74.4684C279.244 79.1644 277.386 83.6751 274.075 87.0083L255.505 105.579C256.029 106.786 256.535 107.999 257.018 109.227H283.28C287.978 109.232 292.484 111.101 295.804 114.424C299.127 117.747 300.996 122.252 300.998 126.951V175.049C300.996 179.748 299.127 184.251 295.804 187.574C292.483 190.894 287.978 192.763 283.28 192.768H257.023C256.535 193.996 256.027 195.214 255.505 196.422L274.07 214.987C277.381 218.32 279.242 222.828 279.242 227.527C279.244 232.223 277.386 236.733 274.075 240.066L240.059 274.077V274.075C236.734 277.393 232.226 279.257 227.53 279.257C222.831 279.257 218.323 277.393 214.998 274.075L196.437 255.499C195.224 256.028 194.004 256.537 192.771 257.022V283.279L192.774 283.281C192.768 287.98 190.897 292.483 187.574 295.806C184.251 299.126 179.746 300.995 175.047 301L175.047 301ZM104.342 242.975H104.344C105.201 242.973 106.048 243.168 106.818 243.542C110.073 245.111 113.411 246.499 116.818 247.697C119.098 248.498 120.624 250.654 120.624 253.069V283.281C120.626 286.775 123.459 289.607 126.952 289.61H175.051H175.048C178.544 289.61 181.379 286.777 181.384 283.281V253.069C181.387 250.654 182.91 248.5 185.188 247.697C188.597 246.499 191.935 245.111 195.187 243.542C197.371 242.495 199.975 242.937 201.691 244.643L223.053 266.023C225.529 268.492 229.534 268.489 232.008 266.018L266.019 232.02H266.016C268.482 229.531 268.48 225.521 266.011 223.037L244.654 201.685C242.948 199.979 242.503 197.383 243.543 195.207C245.104 191.942 246.49 188.597 247.698 185.185C248.499 182.904 250.652 181.379 253.07 181.381H283.28C286.773 181.376 289.606 178.544 289.608 175.05V126.951C289.608 123.456 286.776 120.623 283.28 120.618H253.07C250.655 120.616 248.504 119.095 247.698 116.82C246.49 113.408 245.102 110.062 243.541 106.797C242.501 104.618 242.948 102.023 244.654 100.317L266.016 78.9599C268.483 76.4733 268.48 72.4638 266.011 69.9797L232.008 35.979C229.529 33.5179 225.527 33.5205 223.053 35.9867L201.689 57.359C199.975 59.0701 197.369 59.5099 195.187 58.4599C191.931 56.8911 188.587 55.5004 185.178 54.2953C182.902 53.4918 181.382 51.3409 181.384 48.9281V18.7233C181.379 15.2274 178.544 12.395 175.048 12.3925H126.952C123.458 12.3976 120.626 15.2274 120.623 18.7233V48.9281C120.621 51.3409 119.1 53.4944 116.822 54.3004C113.413 55.5004 110.069 56.8912 106.812 58.4599C104.631 59.5175 102.02 59.0751 100.311 57.359L78.9492 35.9789C77.7619 34.7915 76.1499 34.1228 74.4694 34.1254C72.7888 34.1254 71.1793 34.794 69.9946 35.9865L35.9835 69.9845C33.5198 72.4711 33.5224 76.4806 35.9886 78.9673L57.3452 100.319V100.317C59.0538 102.023 59.4987 104.619 58.4588 106.798C56.8978 110.062 55.5096 113.408 54.3044 116.82C53.4984 119.095 51.3449 120.616 48.9321 120.618H18.7195C15.2236 120.624 12.3912 123.456 12.3912 126.952V175.051C12.3938 178.544 15.2261 181.376 18.7195 181.379H48.9321C51.3474 181.379 53.5009 182.904 54.3044 185.182C55.5096 188.594 56.8978 191.941 58.4588 195.205C59.4987 197.384 59.0538 199.979 57.3452 201.686L35.9834 223.042C33.5222 225.534 33.5273 229.543 35.9961 232.03L69.9941 266.024C72.4705 268.487 76.4724 268.487 78.9489 266.024L100.316 244.644C101.384 243.576 102.833 242.976 104.343 242.976L104.342 242.975Z"/>
</mask>
<path d="M175.047 301H126.95C122.251 300.995 117.749 299.126 114.426 295.806C111.103 292.482 109.234 287.98 109.231 283.281V257.022C107.996 256.539 106.778 256.026 105.565 255.499L87.0001 274.075C83.6745 277.39 79.1694 279.254 74.4707 279.254C69.7747 279.256 65.2666 277.395 61.9386 274.08L27.9302 240.071C24.6224 236.738 22.7663 232.233 22.7638 227.537C22.7613 222.841 24.6148 218.335 27.9175 214.999L46.4929 196.421C45.9692 195.214 45.4632 193.996 44.9751 192.768H18.7186C14.02 192.763 9.51709 190.894 6.19435 187.573C2.87382 184.25 1.00508 179.748 1 175.049V126.951C1.00508 122.252 2.87382 117.746 6.19435 114.424C9.51741 111.101 14.0199 109.232 18.7186 109.227H44.9829C45.466 107.999 45.9719 106.786 46.4957 105.578L27.9306 87.0132C24.6178 83.68 22.7566 79.1747 22.7566 74.476C22.7566 69.7773 24.6127 65.2693 27.923 61.9335L61.9393 27.9251C65.2649 24.6071 69.7726 22.7435 74.4713 22.7435C79.1673 22.7435 83.6754 24.6072 87.0008 27.9251L105.561 46.5005C106.774 45.9717 107.997 45.4606 109.233 44.9776V18.7211C109.235 14.0225 111.104 9.51702 114.427 6.19688C117.75 2.87382 122.252 1.00508 126.951 1H175.05H175.047C179.746 1.00508 184.251 2.87382 187.574 6.19435C190.897 9.51741 192.769 14.0225 192.774 18.7212V44.9777C194.002 45.4607 195.227 45.9743 196.44 46.5006L215 27.9251H214.998C218.326 24.6097 222.831 22.7461 227.527 22.7461C232.226 22.7435 236.731 24.6047 240.059 27.9201L274.07 61.9311V61.9286C277.381 65.2618 279.242 69.7697 279.242 74.4684C279.244 79.1644 277.386 83.6751 274.075 87.0083L255.505 105.579C256.029 106.786 256.535 107.999 257.018 109.227H283.28C287.978 109.232 292.484 111.101 295.804 114.424C299.127 117.747 300.996 122.252 300.998 126.951V175.049C300.996 179.748 299.127 184.251 295.804 187.574C292.483 190.894 287.978 192.763 283.28 192.768H257.023C256.535 193.996 256.027 195.214 255.505 196.422L274.07 214.987C277.381 218.32 279.242 222.828 279.242 227.527C279.244 232.223 277.386 236.733 274.075 240.066L240.059 274.077V274.075C236.734 277.393 232.226 279.257 227.53 279.257C222.831 279.257 218.323 277.393 214.998 274.075L196.437 255.499C195.224 256.028 194.004 256.537 192.771 257.022V283.279L192.774 283.281C192.768 287.98 190.897 292.483 187.574 295.806C184.251 299.126 179.746 300.995 175.047 301L175.047 301ZM104.342 242.975H104.344C105.201 242.973 106.048 243.168 106.818 243.542C110.073 245.111 113.411 246.499 116.818 247.697C119.098 248.498 120.624 250.654 120.624 253.069V283.281C120.626 286.775 123.459 289.607 126.952 289.61H175.051H175.048C178.544 289.61 181.379 286.777 181.384 283.281V253.069C181.387 250.654 182.91 248.5 185.188 247.697C188.597 246.499 191.935 245.111 195.187 243.542C197.371 242.495 199.975 242.937 201.691 244.643L223.053 266.023C225.529 268.492 229.534 268.489 232.008 266.018L266.019 232.02H266.016C268.482 229.531 268.48 225.521 266.011 223.037L244.654 201.685C242.948 199.979 242.503 197.383 243.543 195.207C245.104 191.942 246.49 188.597 247.698 185.185C248.499 182.904 250.652 181.379 253.07 181.381H283.28C286.773 181.376 289.606 178.544 289.608 175.05V126.951C289.608 123.456 286.776 120.623 283.28 120.618H253.07C250.655 120.616 248.504 119.095 247.698 116.82C246.49 113.408 245.102 110.062 243.541 106.797C242.501 104.618 242.948 102.023 244.654 100.317L266.016 78.9599C268.483 76.4733 268.48 72.4638 266.011 69.9797L232.008 35.979C229.529 33.5179 225.527 33.5205 223.053 35.9867L201.689 57.359C199.975 59.0701 197.369 59.5099 195.187 58.4599C191.931 56.8911 188.587 55.5004 185.178 54.2953C182.902 53.4918 181.382 51.3409 181.384 48.9281V18.7233C181.379 15.2274 178.544 12.395 175.048 12.3925H126.952C123.458 12.3976 120.626 15.2274 120.623 18.7233V48.9281C120.621 51.3409 119.1 53.4944 116.822 54.3004C113.413 55.5004 110.069 56.8912 106.812 58.4599C104.631 59.5175 102.02 59.0751 100.311 57.359L78.9492 35.9789C77.7619 34.7915 76.1499 34.1228 74.4694 34.1254C72.7888 34.1254 71.1793 34.794 69.9946 35.9865L35.9835 69.9845C33.5198 72.4711 33.5224 76.4806 35.9886 78.9673L57.3452 100.319V100.317C59.0538 102.023 59.4987 104.619 58.4588 106.798C56.8978 110.062 55.5096 113.408 54.3044 116.82C53.4984 119.095 51.3449 120.616 48.9321 120.618H18.7195C15.2236 120.624 12.3912 123.456 12.3912 126.952V175.051C12.3938 178.544 15.2261 181.376 18.7195 181.379H48.9321C51.3474 181.379 53.5009 182.904 54.3044 185.182C55.5096 188.594 56.8978 191.941 58.4588 195.205C59.4987 197.384 59.0538 199.979 57.3452 201.686L35.9834 223.042C33.5222 225.534 33.5273 229.543 35.9961 232.03L69.9941 266.024C72.4705 268.487 76.4724 268.487 78.9489 266.024L100.316 244.644C101.384 243.576 102.833 242.976 104.343 242.976L104.342 242.975Z" fill="#274B73"/>
<path d="M175.047 301H126.95C122.251 300.995 117.749 299.126 114.426 295.806C111.103 292.482 109.234 287.98 109.231 283.281V257.022C107.996 256.539 106.778 256.026 105.565 255.499L87.0001 274.075C83.6745 277.39 79.1694 279.254 74.4707 279.254C69.7747 279.256 65.2666 277.395 61.9386 274.08L27.9302 240.071C24.6224 236.738 22.7663 232.233 22.7638 227.537C22.7613 222.841 24.6148 218.335 27.9175 214.999L46.4929 196.421C45.9692 195.214 45.4632 193.996 44.9751 192.768H18.7186C14.02 192.763 9.51709 190.894 6.19435 187.573C2.87382 184.25 1.00508 179.748 1 175.049V126.951C1.00508 122.252 2.87382 117.746 6.19435 114.424C9.51741 111.101 14.0199 109.232 18.7186 109.227H44.9829C45.466 107.999 45.9719 106.786 46.4957 105.578L27.9306 87.0132C24.6178 83.68 22.7566 79.1747 22.7566 74.476C22.7566 69.7773 24.6127 65.2693 27.923 61.9335L61.9393 27.9251C65.2649 24.6071 69.7726 22.7435 74.4713 22.7435C79.1673 22.7435 83.6754 24.6072 87.0008 27.9251L105.561 46.5005C106.774 45.9717 107.997 45.4606 109.233 44.9776V18.7211C109.235 14.0225 111.104 9.51702 114.427 6.19688C117.75 2.87382 122.252 1.00508 126.951 1H175.05H175.047C179.746 1.00508 184.251 2.87382 187.574 6.19435C190.897 9.51741 192.769 14.0225 192.774 18.7212V44.9777C194.002 45.4607 195.227 45.9743 196.44 46.5006L215 27.9251H214.998C218.326 24.6097 222.831 22.7461 227.527 22.7461C232.226 22.7435 236.731 24.6047 240.059 27.9201L274.07 61.9311V61.9286C277.381 65.2618 279.242 69.7697 279.242 74.4684C279.244 79.1644 277.386 83.6751 274.075 87.0083L255.505 105.579C256.029 106.786 256.535 107.999 257.018 109.227H283.28C287.978 109.232 292.484 111.101 295.804 114.424C299.127 117.747 300.996 122.252 300.998 126.951V175.049C300.996 179.748 299.127 184.251 295.804 187.574C292.483 190.894 287.978 192.763 283.28 192.768H257.023C256.535 193.996 256.027 195.214 255.505 196.422L274.07 214.987C277.381 218.32 279.242 222.828 279.242 227.527C279.244 232.223 277.386 236.733 274.075 240.066L240.059 274.077V274.075C236.734 277.393 232.226 279.257 227.53 279.257C222.831 279.257 218.323 277.393 214.998 274.075L196.437 255.499C195.224 256.028 194.004 256.537 192.771 257.022V283.279L192.774 283.281C192.768 287.98 190.897 292.483 187.574 295.806C184.251 299.126 179.746 300.995 175.047 301L175.047 301ZM104.342 242.975H104.344C105.201 242.973 106.048 243.168 106.818 243.542C110.073 245.111 113.411 246.499 116.818 247.697C119.098 248.498 120.624 250.654 120.624 253.069V283.281C120.626 286.775 123.459 289.607 126.952 289.61H175.051H175.048C178.544 289.61 181.379 286.777 181.384 283.281V253.069C181.387 250.654 182.91 248.5 185.188 247.697C188.597 246.499 191.935 245.111 195.187 243.542C197.371 242.495 199.975 242.937 201.691 244.643L223.053 266.023C225.529 268.492 229.534 268.489 232.008 266.018L266.019 232.02H266.016C268.482 229.531 268.48 225.521 266.011 223.037L244.654 201.685C242.948 199.979 242.503 197.383 243.543 195.207C245.104 191.942 246.49 188.597 247.698 185.185C248.499 182.904 250.652 181.379 253.07 181.381H283.28C286.773 181.376 289.606 178.544 289.608 175.05V126.951C289.608 123.456 286.776 120.623 283.28 120.618H253.07C250.655 120.616 248.504 119.095 247.698 116.82C246.49 113.408 245.102 110.062 243.541 106.797C242.501 104.618 242.948 102.023 244.654 100.317L266.016 78.9599C268.483 76.4733 268.48 72.4638 266.011 69.9797L232.008 35.979C229.529 33.5179 225.527 33.5205 223.053 35.9867L201.689 57.359C199.975 59.0701 197.369 59.5099 195.187 58.4599C191.931 56.8911 188.587 55.5004 185.178 54.2953C182.902 53.4918 181.382 51.3409 181.384 48.9281V18.7233C181.379 15.2274 178.544 12.395 175.048 12.3925H126.952C123.458 12.3976 120.626 15.2274 120.623 18.7233V48.9281C120.621 51.3409 119.1 53.4944 116.822 54.3004C113.413 55.5004 110.069 56.8912 106.812 58.4599C104.631 59.5175 102.02 59.0751 100.311 57.359L78.9492 35.9789C77.7619 34.7915 76.1499 34.1228 74.4694 34.1254C72.7888 34.1254 71.1793 34.794 69.9946 35.9865L35.9835 69.9845C33.5198 72.4711 33.5224 76.4806 35.9886 78.9673L57.3452 100.319V100.317C59.0538 102.023 59.4987 104.619 58.4588 106.798C56.8978 110.062 55.5096 113.408 54.3044 116.82C53.4984 119.095 51.3449 120.616 48.9321 120.618H18.7195C15.2236 120.624 12.3912 123.456 12.3912 126.952V175.051C12.3938 178.544 15.2261 181.376 18.7195 181.379H48.9321C51.3474 181.379 53.5009 182.904 54.3044 185.182C55.5096 188.594 56.8978 191.941 58.4588 195.205C59.4987 197.384 59.0538 199.979 57.3452 201.686L35.9834 223.042C33.5222 225.534 33.5273 229.543 35.9961 232.03L69.9941 266.024C72.4705 268.487 76.4724 268.487 78.9489 266.024L100.316 244.644C101.384 243.576 102.833 242.976 104.343 242.976L104.342 242.975Z" stroke="#274B73" stroke-width="0.545455" mask="url(#path-1-outside-1_365_203)"/>
<path d="M112.851 112.867L112.851 112.867C102.737 122.981 97.055 136.699 97.055 151.004C97.055 165.308 102.737 179.027 112.851 189.141C122.968 199.255 136.686 204.939 150.991 204.939H150.991C165.29 204.924 178.999 199.235 189.11 189.126L189.014 189.029L189.11 189.126C199.221 179.014 204.908 165.303 204.923 151.004V151.004C204.923 136.699 199.242 122.981 189.128 112.867C179.013 102.752 165.293 97.0682 150.991 97.0682C136.686 97.0682 122.968 102.752 112.851 112.867ZM121.098 121.113C129.026 113.186 139.778 108.73 150.99 108.73C162.197 108.742 172.942 113.2 180.867 121.125C188.792 129.05 193.248 139.796 193.26 151.003C193.26 162.214 188.807 172.965 180.88 180.892C172.953 188.819 162.2 193.275 150.991 193.275C139.779 193.275 129.026 188.819 121.098 180.892C113.171 172.965 108.718 162.214 108.718 151.002C108.718 139.791 113.171 129.04 121.098 121.113Z" fill="#274B73" stroke="#274B73" stroke-width="0.272727"/>
</svg>
