<svg width="195" height="300" viewBox="0 0 195 300" fill="none" xmlns="http://www.w3.org/2000/svg">
<path d="M22.8874 213.352L19.6201 210.085L0 230.521L2.45192 232.973C22.888 254.225 52.3159 267.305 87.463 269.756V300H113.624V269.756C173.296 264.852 194.552 232.151 194.552 202.723C194.552 155.311 147.141 142.231 113.624 134.059V56.4035C135.697 59.6708 153.68 67.8474 166.755 82.5646L169.207 85.8319L189.643 66.2118L186.376 62.9445C167.576 44.1448 143.051 33.5166 112.809 31.0643V0H86.6476V31.0643C40.0505 34.3316 8.1702 59.6777 8.1702 94.8248C8.1702 137.333 50.6787 149.593 86.6476 158.585V245.233C54.7673 241.144 32.6953 223.16 22.8874 213.352ZM40.8711 92.3719C40.8711 72.7518 60.4912 58.0393 88.2828 55.5884V126.705C58.033 119.349 40.8711 110.357 40.8711 92.3719ZM163.488 204.36C163.488 221.529 150.407 240.329 114.438 244.416V164.308C144.688 172.479 163.488 182.286 163.488 204.36Z" fill="#3C4858"/>
</svg>
