<svg width="301" height="301" viewBox="0 0 301 301" fill="none" xmlns="http://www.w3.org/2000/svg">
<path d="M214.908 189.179H201.358L196.555 184.548C213.364 164.994 223.485 139.608 223.485 111.992C223.485 50.4142 173.57 0.5 111.992 0.5C50.4142 0.5 0.5 50.4142 0.5 111.992C0.5 173.57 50.4142 223.485 111.992 223.485C139.608 223.485 164.994 213.364 184.548 196.555L189.179 201.358V214.908L274.943 300.5L300.5 274.943L214.908 189.179V189.179ZM111.992 189.179C69.2822 189.179 34.8053 154.702 34.8053 111.992C34.8053 69.2822 69.2822 34.8053 111.992 34.8053C154.702 34.8053 189.179 69.2822 189.179 111.992C189.179 154.702 154.702 189.179 111.992 189.179Z" fill="#A5CEE4"/>
</svg>
