<svg width="199" height="300" viewBox="0 0 199 300" fill="none" xmlns="http://www.w3.org/2000/svg">
<path d="M106.102 102.144C105.61 102.095 105.236 101.681 105.241 101.188V92.3849C105.256 91.9333 105.619 91.5729 106.068 91.5551C129.54 90.4384 149.281 81.2865 162.102 65.5628C174.922 49.839 179.738 28.123 174.857 5.25887L174.027 1.14558H174.03C173.927 0.762944 173.596 0.482627 173.202 0.442591L169.247 0.0933313C147.751 -0.86325 129.255 5.5458 115.701 18.7489C106.153 28.3591 99.4529 40.4233 96.3428 53.6083C96.3117 53.8307 96.1448 54.0109 95.9246 54.0599C95.7066 54.1088 95.4775 54.0176 95.3529 53.8307C92.9436 50.4382 90.005 47.4552 86.6482 44.9967C72.2217 35.0772 54.1425 32.0629 37.2797 36.7681C36.9282 36.8615 36.7058 37.2085 36.7681 37.5667C37.6623 43.1793 45.0611 86.9351 91.8782 91.0167C92.3253 91.079 92.6634 91.4572 92.6745 91.9087L92.5144 101.094H92.5166C92.6011 101.557 92.3275 102.008 91.8781 102.146C66.2952 104.004 42.4322 115.714 25.3098 134.81C8.18732 153.906 -0.86481 178.899 0.0651763 204.533C0.995049 230.167 11.831 254.44 30.2929 272.246C48.7571 290.052 73.4054 300 99.0538 300C124.703 300 149.354 290.051 167.815 272.246C186.279 254.44 197.115 230.168 198.045 204.533C198.975 178.901 189.925 153.908 172.8 134.81C155.675 115.714 131.812 104.004 106.232 102.146L106.102 102.144ZM124.503 27.8364C134.87 18.086 148.604 12.7157 162.835 12.8472C163.289 12.8272 163.679 13.1631 163.73 13.6125C166.212 29.1689 162.137 45.0572 152.471 57.4973C142.137 70.2528 125.905 77.6853 106.546 78.7998C106.328 78.8176 106.11 78.742 105.952 78.5885C105.792 78.4372 105.707 78.2237 105.719 78.0035C106.355 56.476 112.83 39.1912 124.503 27.8053L124.503 27.8364ZM90.9207 78.0989C74.1787 75.356 57.7852 66.2995 51.7901 47.738H51.7879C51.7189 47.5333 51.7478 47.3086 51.8657 47.1262C51.9836 46.946 52.1794 46.8303 52.3952 46.8125C61.9098 46.203 71.3195 49.0838 78.8653 54.9125C85.7904 60.4027 90.4819 68.2244 92.0685 76.9183C92.1375 77.2431 92.0419 77.5791 91.8105 77.8171C91.5791 78.0529 91.2454 78.1597 90.9207 78.0996L90.9207 78.0989ZM98.2553 287.115C75.2909 287.124 53.2628 278.006 37.0231 261.768C20.7833 245.528 11.6629 223.503 11.6691 200.536C11.6736 177.572 20.8056 155.55 37.0538 139.321C53.2998 123.09 75.3325 113.983 98.2974 114.003C121.262 114.023 143.278 123.168 159.495 139.426C175.715 155.683 184.809 177.72 184.776 200.686C184.74 223.615 175.61 245.592 159.391 261.793C143.17 277.997 121.181 287.102 98.2501 287.111L98.2553 287.115Z" fill="#274B73"/>
<path d="M117.866 218.294C116.65 220.48 114.919 222.34 112.828 223.715C110.436 225.119 107.827 226.109 105.108 226.649C104.572 226.7 104.04 226.785 103.513 226.903V230.985C103.513 232.324 104.152 235.258 99.2396 235.258H96.0495C92.8594 235.258 91.3935 234.175 91.3935 231.528L91.3957 227.51C91.3957 227.51 88.2056 227.192 85.7185 226.714C84.0278 226.471 82.4194 225.824 81.0312 224.832C78.6065 223.27 79.7877 211.277 83.327 213.415C84.6128 214.298 85.9787 215.055 87.4092 215.678C90.1098 216.654 92.9573 217.159 95.8269 217.177C97.2862 217.192 98.7411 217.043 100.165 216.73C101.299 216.512 102.383 216.078 103.355 215.455C104.127 215.017 104.765 214.378 105.204 213.604C105.626 212.89 105.846 212.074 105.842 211.244C105.869 210.103 105.522 208.981 104.854 208.056C104.102 207.086 103.197 206.245 102.174 205.569C100.923 204.775 99.6131 204.081 98.2517 203.496C96.7212 202.795 95.0616 202.092 93.2441 201.327C89.3044 199.887 85.7849 197.487 83.0063 194.341C80.7061 191.534 79.4937 187.99 79.5938 184.36C79.5092 181.634 80.1255 178.934 81.3801 176.516C82.568 174.347 84.2499 172.489 86.292 171.092C87.7847 169.909 89.4398 168.944 91.2039 168.223C91.6511 168.223 91.6177 167.809 91.6177 167.68V162.737C91.6177 161.907 92.4141 160.793 94.1382 160.793H101.315C102.75 160.793 103.644 161.527 103.644 162.546V166.659C103.644 166.928 103.851 167.155 104.12 167.17C105.395 167.17 108.936 167.426 110.498 167.68C112.667 167.931 114.803 168.401 116.876 169.084C117.652 169.413 118.173 170.156 118.215 170.997V178.142C118.093 178.839 117.663 179.444 117.045 179.791C116.426 180.138 115.686 180.187 115.027 179.929H114.42C113.245 179.388 112.031 178.939 110.785 178.587C109.577 178.28 108.353 178.047 107.116 177.886C105.969 177.704 104.805 177.608 103.642 177.599C102.258 177.59 100.876 177.739 99.5261 178.046C98.396 178.244 97.3148 178.656 96.3382 179.257C95.5507 179.719 94.8744 180.351 94.3605 181.108C93.9 181.831 93.6664 182.674 93.6909 183.53C93.6798 184.469 93.9445 185.39 94.4562 186.177C95.039 187.049 95.7865 187.797 96.6563 188.38C97.7486 189.167 98.912 189.85 100.133 190.42C101.473 191.058 103.036 191.79 104.758 192.493C106.963 193.389 109.094 194.455 111.136 195.681C112.907 196.68 114.52 197.939 115.919 199.414C117.296 200.764 118.382 202.379 119.109 204.165C119.892 206.197 120.261 208.365 120.192 210.543C120.068 213.279 119.268 215.94 117.866 218.294Z" fill="#274B73"/>
</svg>
