<svg width="197" height="300" viewBox="0 0 197 300" fill="none" xmlns="http://www.w3.org/2000/svg">
<path d="M53.6569 0.00996449C50.8992 0.292938 48.5913 2.23331 47.8244 4.90854L24.8139 84.3813C9.36407 101.823 -0.00484588 124.749 1.88037e-06 149.895C0.00236941 175.047 9.36649 198.137 24.8139 215.629L47.8244 295.101C48.6694 297.988 51.2969 299.981 54.2937 300H142.523C145.52 299.981 148.147 297.988 148.992 295.101L160.762 254.298C161.268 252.56 161.067 250.694 160.203 249.105C159.337 247.517 157.881 246.337 156.15 245.828C154.42 245.319 152.56 245.524 150.978 246.392C149.397 247.262 148.225 248.727 147.719 250.463L137.431 286.365H59.3824L43.7926 232.141C59.4248 242.671 78.219 248.866 98.4057 248.866C152.676 248.866 196.821 204.524 196.815 150.004C196.813 124.859 187.442 101.948 172.001 84.4899L148.991 4.9075C148.146 2.02066 145.518 0.0279712 142.522 0.00891718H54.2922C54.0816 -0.00297239 53.8685 -0.00297239 53.6555 0.00891718L53.6569 0.00996449ZM59.3852 13.6448H137.434L153.13 67.869C137.484 57.3302 118.625 51.1471 98.4103 51.1447C78.1957 51.1423 59.3391 57.3485 43.6905 67.869L59.3852 13.6448ZM98.4085 64.7801C122.934 64.7825 144.971 75.1837 160.448 91.8386C160.781 92.3142 161.172 92.7423 161.615 93.118C175.062 108.192 183.245 128.119 183.247 150.005C183.254 197.155 145.346 235.237 98.4114 235.231C51.4796 235.231 13.5816 197.048 13.5755 149.896C13.5694 102.744 51.4771 64.7677 98.4114 64.7799L98.4085 64.7801ZM97.6652 81.7181C94.169 82.1057 91.5461 85.109 91.622 88.6427V150.005C91.6362 151.807 92.3606 153.532 93.6364 154.799L130.965 192.299C132.237 193.612 133.979 194.356 135.801 194.363C137.626 194.371 139.376 193.643 140.656 192.34C141.939 191.037 142.644 189.272 142.618 187.441C142.59 185.61 141.83 183.867 140.509 182.605L105.195 147.128V88.6428C105.238 86.6786 104.435 84.7929 102.994 83.466C101.55 82.1415 99.609 81.5042 97.6656 81.7182L97.6652 81.7181Z" fill="#274B73"/>
</svg>
