<svg width="259" height="302" viewBox="0 0 259 302" fill="none" xmlns="http://www.w3.org/2000/svg">
<mask id="path-1-outside-1_209_102" maskUnits="userSpaceOnUse" x="0" y="0" width="259" height="302" fill="black">
<rect fill="white" width="259" height="302"/>
<path d="M257.596 277.918L239.413 248.741L240.031 248.502C244.266 246.931 246.789 242.601 246.028 238.172L243.981 226.559C243.887 226.035 243.981 225.463 244.266 224.988L250.168 214.803C252.357 210.9 251.5 205.95 248.073 203.047L239.078 195.478C238.65 195.145 238.363 194.67 238.269 194.098L236.222 182.532C235.46 178.058 231.605 174.821 227.037 174.821L215.234 174.823C214.711 174.823 214.139 174.633 213.76 174.3L204.765 166.779C204.002 166.113 203.145 165.638 202.288 165.305V58.4969C202.288 58.0214 202.194 57.5919 202.004 57.1646C201.813 56.7373 201.576 56.356 201.241 56.0229L147.314 2.04744C146.981 1.71437 146.599 1.47554 146.172 1.28486C145.745 1.09419 145.315 1 144.84 1H18.0393C8.66278 1 1 8.66278 1 18.0393V233.938C1 243.314 8.66278 250.977 18.0393 250.977H156.738L139.984 277.869C139.317 278.916 139.269 280.2 139.841 281.296C140.413 282.392 141.507 283.104 142.696 283.2L159.832 284.342L168.4 299.192C169.018 300.24 170.113 300.906 171.351 300.954H171.4C172.589 300.954 173.731 300.336 174.351 299.335L196.104 264.445L197.96 263.779C198.435 263.589 199.007 263.589 199.531 263.779L201.339 264.445L223.091 299.381C223.709 300.38 224.853 301 226.043 301H226.091C227.329 301 228.423 300.334 229.043 299.238L237.61 284.388L254.746 283.246C255.984 283.152 257.078 282.438 257.601 281.342C258.261 280.251 258.213 278.967 257.595 277.919L257.596 277.918ZM148.314 12.946L190.343 55.0229H155.359C151.457 55.0229 148.314 51.8346 148.314 47.9777V12.946ZM8.00006 233.989V18.0901C8.00006 12.522 12.5228 8.04767 18.0424 8.04767H141.365V47.9816C141.365 55.7409 147.647 62.0232 155.407 62.0232H195.292V165.308C194.435 165.689 193.579 166.165 192.816 166.783L183.821 174.351C183.394 174.733 182.87 174.923 182.298 174.923H170.494C166.019 174.923 162.165 178.16 161.308 182.634L159.309 194.105C159.167 194.723 158.882 195.247 158.501 195.58L149.506 203.1C145.984 206.004 145.128 210.954 147.411 214.905L153.36 224.995C153.645 225.471 153.741 226.043 153.645 226.567L151.598 238.132C151.217 240.227 151.598 242.274 152.503 244.033H18.0399C12.5201 244.033 7.99754 239.513 7.99754 233.991L8.00006 233.989ZM171.544 290.725L164.928 279.254C164.356 278.254 163.309 277.588 162.119 277.492L148.934 276.587L164.832 251.074L168.592 252.455C169.068 252.645 169.543 253.026 169.83 253.454L175.686 263.639C177.399 266.59 180.445 268.256 183.682 268.256C184.3 268.256 184.966 268.161 185.586 268.017L171.544 290.725ZM195.628 257.216L184.49 261.215C183.491 261.596 182.301 261.167 181.729 260.216L175.828 249.935C174.686 248.03 172.973 246.604 170.972 245.889L159.976 241.89C158.88 241.509 158.262 240.416 158.501 239.32L160.548 227.755C160.929 225.614 160.548 223.376 159.452 221.472L153.597 211.287C153.025 210.288 153.216 209.098 154.121 208.384L163.164 200.816C164.735 199.435 165.877 197.531 166.306 195.342L168.305 183.776C168.495 182.681 169.495 181.824 170.59 181.824H182.395C184.536 181.824 186.679 181.061 188.344 179.635L197.339 172.066C198.196 171.352 199.434 171.352 200.29 172.066L209.285 179.587C210.905 181.015 213.046 181.776 215.283 181.776H227.039C228.181 181.776 229.134 182.584 229.324 183.68L231.371 195.245C231.752 197.434 232.894 199.387 234.559 200.767L243.554 208.288C244.411 209.002 244.65 210.286 244.078 211.239L238.223 221.378C237.127 223.282 236.748 225.52 237.127 227.66L239.174 239.226C239.364 240.367 238.746 241.463 237.651 241.844L226.609 245.843C224.656 246.558 222.943 247.984 221.753 249.937L215.898 260.076C215.28 261.075 214.136 261.504 213.042 261.075L202 257.076C199.862 256.502 197.624 256.502 195.626 257.216L195.628 257.216ZM235.42 277.54C234.278 277.634 233.231 278.254 232.611 279.302L225.995 290.773L211.908 268.163C215.762 268.972 219.761 267.258 221.856 263.737L227.711 253.598C227.996 253.074 228.474 252.693 228.949 252.502L232.709 251.122L248.607 276.634L235.42 277.54Z"/>
</mask>
<path d="M257.596 277.918L239.413 248.741L240.031 248.502C244.266 246.931 246.789 242.601 246.028 238.172L243.981 226.559C243.887 226.035 243.981 225.463 244.266 224.988L250.168 214.803C252.357 210.9 251.5 205.95 248.073 203.047L239.078 195.478C238.65 195.145 238.363 194.67 238.269 194.098L236.222 182.532C235.46 178.058 231.605 174.821 227.037 174.821L215.234 174.823C214.711 174.823 214.139 174.633 213.76 174.3L204.765 166.779C204.002 166.113 203.145 165.638 202.288 165.305V58.4969C202.288 58.0214 202.194 57.5919 202.004 57.1646C201.813 56.7373 201.576 56.356 201.241 56.0229L147.314 2.04744C146.981 1.71437 146.599 1.47554 146.172 1.28486C145.745 1.09419 145.315 1 144.84 1H18.0393C8.66278 1 1 8.66278 1 18.0393V233.938C1 243.314 8.66278 250.977 18.0393 250.977H156.738L139.984 277.869C139.317 278.916 139.269 280.2 139.841 281.296C140.413 282.392 141.507 283.104 142.696 283.2L159.832 284.342L168.4 299.192C169.018 300.24 170.113 300.906 171.351 300.954H171.4C172.589 300.954 173.731 300.336 174.351 299.335L196.104 264.445L197.96 263.779C198.435 263.589 199.007 263.589 199.531 263.779L201.339 264.445L223.091 299.381C223.709 300.38 224.853 301 226.043 301H226.091C227.329 301 228.423 300.334 229.043 299.238L237.61 284.388L254.746 283.246C255.984 283.152 257.078 282.438 257.601 281.342C258.261 280.251 258.213 278.967 257.595 277.919L257.596 277.918ZM148.314 12.946L190.343 55.0229H155.359C151.457 55.0229 148.314 51.8346 148.314 47.9777V12.946ZM8.00006 233.989V18.0901C8.00006 12.522 12.5228 8.04767 18.0424 8.04767H141.365V47.9816C141.365 55.7409 147.647 62.0232 155.407 62.0232H195.292V165.308C194.435 165.689 193.579 166.165 192.816 166.783L183.821 174.351C183.394 174.733 182.87 174.923 182.298 174.923H170.494C166.019 174.923 162.165 178.16 161.308 182.634L159.309 194.105C159.167 194.723 158.882 195.247 158.501 195.58L149.506 203.1C145.984 206.004 145.128 210.954 147.411 214.905L153.36 224.995C153.645 225.471 153.741 226.043 153.645 226.567L151.598 238.132C151.217 240.227 151.598 242.274 152.503 244.033H18.0399C12.5201 244.033 7.99754 239.513 7.99754 233.991L8.00006 233.989ZM171.544 290.725L164.928 279.254C164.356 278.254 163.309 277.588 162.119 277.492L148.934 276.587L164.832 251.074L168.592 252.455C169.068 252.645 169.543 253.026 169.83 253.454L175.686 263.639C177.399 266.59 180.445 268.256 183.682 268.256C184.3 268.256 184.966 268.161 185.586 268.017L171.544 290.725ZM195.628 257.216L184.49 261.215C183.491 261.596 182.301 261.167 181.729 260.216L175.828 249.935C174.686 248.03 172.973 246.604 170.972 245.889L159.976 241.89C158.88 241.509 158.262 240.416 158.501 239.32L160.548 227.755C160.929 225.614 160.548 223.376 159.452 221.472L153.597 211.287C153.025 210.288 153.216 209.098 154.121 208.384L163.164 200.816C164.735 199.435 165.877 197.531 166.306 195.342L168.305 183.776C168.495 182.681 169.495 181.824 170.59 181.824H182.395C184.536 181.824 186.679 181.061 188.344 179.635L197.339 172.066C198.196 171.352 199.434 171.352 200.29 172.066L209.285 179.587C210.905 181.015 213.046 181.776 215.283 181.776H227.039C228.181 181.776 229.134 182.584 229.324 183.68L231.371 195.245C231.752 197.434 232.894 199.387 234.559 200.767L243.554 208.288C244.411 209.002 244.65 210.286 244.078 211.239L238.223 221.378C237.127 223.282 236.748 225.52 237.127 227.66L239.174 239.226C239.364 240.367 238.746 241.463 237.651 241.844L226.609 245.843C224.656 246.558 222.943 247.984 221.753 249.937L215.898 260.076C215.28 261.075 214.136 261.504 213.042 261.075L202 257.076C199.862 256.502 197.624 256.502 195.626 257.216L195.628 257.216ZM235.42 277.54C234.278 277.634 233.231 278.254 232.611 279.302L225.995 290.773L211.908 268.163C215.762 268.972 219.761 267.258 221.856 263.737L227.711 253.598C227.996 253.074 228.474 252.693 228.949 252.502L232.709 251.122L248.607 276.634L235.42 277.54Z" fill="#A5CEE4"/>
<path d="M257.596 277.918L239.413 248.741L240.031 248.502C244.266 246.931 246.789 242.601 246.028 238.172L243.981 226.559C243.887 226.035 243.981 225.463 244.266 224.988L250.168 214.803C252.357 210.9 251.5 205.95 248.073 203.047L239.078 195.478C238.65 195.145 238.363 194.67 238.269 194.098L236.222 182.532C235.46 178.058 231.605 174.821 227.037 174.821L215.234 174.823C214.711 174.823 214.139 174.633 213.76 174.3L204.765 166.779C204.002 166.113 203.145 165.638 202.288 165.305V58.4969C202.288 58.0214 202.194 57.5919 202.004 57.1646C201.813 56.7373 201.576 56.356 201.241 56.0229L147.314 2.04744C146.981 1.71437 146.599 1.47554 146.172 1.28486C145.745 1.09419 145.315 1 144.84 1H18.0393C8.66278 1 1 8.66278 1 18.0393V233.938C1 243.314 8.66278 250.977 18.0393 250.977H156.738L139.984 277.869C139.317 278.916 139.269 280.2 139.841 281.296C140.413 282.392 141.507 283.104 142.696 283.2L159.832 284.342L168.4 299.192C169.018 300.24 170.113 300.906 171.351 300.954H171.4C172.589 300.954 173.731 300.336 174.351 299.335L196.104 264.445L197.96 263.779C198.435 263.589 199.007 263.589 199.531 263.779L201.339 264.445L223.091 299.381C223.709 300.38 224.853 301 226.043 301H226.091C227.329 301 228.423 300.334 229.043 299.238L237.61 284.388L254.746 283.246C255.984 283.152 257.078 282.438 257.601 281.342C258.261 280.251 258.213 278.967 257.595 277.919L257.596 277.918ZM148.314 12.946L190.343 55.0229H155.359C151.457 55.0229 148.314 51.8346 148.314 47.9777V12.946ZM8.00006 233.989V18.0901C8.00006 12.522 12.5228 8.04767 18.0424 8.04767H141.365V47.9816C141.365 55.7409 147.647 62.0232 155.407 62.0232H195.292V165.308C194.435 165.689 193.579 166.165 192.816 166.783L183.821 174.351C183.394 174.733 182.87 174.923 182.298 174.923H170.494C166.019 174.923 162.165 178.16 161.308 182.634L159.309 194.105C159.167 194.723 158.882 195.247 158.501 195.58L149.506 203.1C145.984 206.004 145.128 210.954 147.411 214.905L153.36 224.995C153.645 225.471 153.741 226.043 153.645 226.567L151.598 238.132C151.217 240.227 151.598 242.274 152.503 244.033H18.0399C12.5201 244.033 7.99754 239.513 7.99754 233.991L8.00006 233.989ZM171.544 290.725L164.928 279.254C164.356 278.254 163.309 277.588 162.119 277.492L148.934 276.587L164.832 251.074L168.592 252.455C169.068 252.645 169.543 253.026 169.83 253.454L175.686 263.639C177.399 266.59 180.445 268.256 183.682 268.256C184.3 268.256 184.966 268.161 185.586 268.017L171.544 290.725ZM195.628 257.216L184.49 261.215C183.491 261.596 182.301 261.167 181.729 260.216L175.828 249.935C174.686 248.03 172.973 246.604 170.972 245.889L159.976 241.89C158.88 241.509 158.262 240.416 158.501 239.32L160.548 227.755C160.929 225.614 160.548 223.376 159.452 221.472L153.597 211.287C153.025 210.288 153.216 209.098 154.121 208.384L163.164 200.816C164.735 199.435 165.877 197.531 166.306 195.342L168.305 183.776C168.495 182.681 169.495 181.824 170.59 181.824H182.395C184.536 181.824 186.679 181.061 188.344 179.635L197.339 172.066C198.196 171.352 199.434 171.352 200.29 172.066L209.285 179.587C210.905 181.015 213.046 181.776 215.283 181.776H227.039C228.181 181.776 229.134 182.584 229.324 183.68L231.371 195.245C231.752 197.434 232.894 199.387 234.559 200.767L243.554 208.288C244.411 209.002 244.65 210.286 244.078 211.239L238.223 221.378C237.127 223.282 236.748 225.52 237.127 227.66L239.174 239.226C239.364 240.367 238.746 241.463 237.651 241.844L226.609 245.843C224.656 246.558 222.943 247.984 221.753 249.937L215.898 260.076C215.28 261.075 214.136 261.504 213.042 261.075L202 257.076C199.862 256.502 197.624 256.502 195.626 257.216L195.628 257.216ZM235.42 277.54C234.278 277.634 233.231 278.254 232.611 279.302L225.995 290.773L211.908 268.163C215.762 268.972 219.761 267.258 221.856 263.737L227.711 253.598C227.996 253.074 228.474 252.693 228.949 252.502L232.709 251.122L248.607 276.634L235.42 277.54Z" stroke="#A5CEE4" stroke-width="0.6" mask="url(#path-1-outside-1_209_102)"/>
<path d="M29.6481 67.8261V67.8291H29.7981H122.851C124.838 67.8291 126.476 66.1908 126.476 64.2038V27.6973C126.476 25.7102 124.838 24.0719 122.851 24.0719L29.7981 24.0741C27.8111 24.0741 26.1728 25.7124 26.1728 27.6995V64.156C26.1269 66.1413 27.6863 67.7478 29.6481 67.8261ZM33.4235 31.3709H119.181V60.5804H33.4235V31.3709Z" fill="#A5CEE4" stroke="#A5CEE4" stroke-width="0.3"/>
<path d="M159.832 97.4376H176.968C178.955 97.4376 180.593 95.7993 180.593 93.8123C180.593 91.8252 178.955 90.1869 176.968 90.1869H159.832C157.845 90.1869 156.207 91.8252 156.207 93.8123C156.207 95.7993 157.845 97.4376 159.832 97.4376Z" fill="#A5CEE4" stroke="#A5CEE4" stroke-width="0.3"/>
<path d="M26.3215 97.4376H137.651C139.638 97.4376 141.276 95.7993 141.276 93.8123C141.276 91.8252 139.638 90.1869 137.651 90.1869H26.3215C24.3345 90.1869 22.6962 91.8252 22.6962 93.8123C22.6962 95.7979 24.2849 97.4376 26.3215 97.4376Z" fill="#A5CEE4" stroke="#A5CEE4" stroke-width="0.3"/>
<path d="M101.235 117.611C101.235 119.598 102.873 121.237 104.86 121.237H176.972C178.959 121.237 180.598 119.598 180.598 117.611C180.598 115.624 178.959 113.986 176.972 113.986H104.862C102.821 113.936 101.235 115.58 101.235 117.611Z" fill="#A5CEE4" stroke="#A5CEE4" stroke-width="0.3"/>
<path d="M26.3202 121.233H86.1976C88.1846 121.233 89.8229 119.594 89.8229 117.607C89.8229 115.62 88.1846 113.982 86.1976 113.982L26.3202 113.984C26.3202 113.984 26.3202 113.984 26.3202 113.984C24.3338 113.984 22.6959 115.621 22.6948 117.607C22.6455 119.599 24.2878 121.233 26.3202 121.233Z" fill="#A5CEE4" stroke="#A5CEE4" stroke-width="0.3"/>
<path d="M176.969 137.734H139.034C137.047 137.734 135.409 139.372 135.409 141.359C135.409 143.346 137.047 144.984 139.034 144.984H176.969C178.956 144.984 180.594 143.347 180.595 141.361C180.644 139.37 179.002 137.734 176.969 137.734Z" fill="#A5CEE4" stroke="#A5CEE4" stroke-width="0.3"/>
<path d="M115.905 141.362C115.905 139.375 114.267 137.737 112.28 137.737H74.917C72.93 137.737 71.2917 139.375 71.2917 141.362C71.2917 143.349 72.93 144.987 74.917 144.987H112.278C114.269 145.035 115.905 143.392 115.905 141.362Z" fill="#A5CEE4" stroke="#A5CEE4" stroke-width="0.3"/>
<path d="M26.3202 145.029H53.0232C55.0103 145.029 56.6486 143.391 56.6486 141.404C56.6486 139.417 55.0103 137.778 53.0232 137.778H26.3202C24.3338 137.778 22.6959 139.416 22.6948 141.402C22.6455 143.393 24.2877 145.029 26.3202 145.029Z" fill="#A5CEE4" stroke="#A5CEE4" stroke-width="0.3"/>
<path d="M176.968 161.536H159.832C157.845 161.536 156.207 163.175 156.207 165.162C156.207 167.149 157.845 168.787 159.832 168.787H176.968C178.954 168.787 180.592 167.15 180.593 165.164C180.643 163.17 179.001 161.536 176.968 161.536Z" fill="#A5CEE4" stroke="#A5CEE4" stroke-width="0.3"/>
<path d="M152.182 165.162V165.161C152.179 163.174 150.591 161.536 148.556 161.536H101.626C99.639 161.536 98.0006 163.175 98.0006 165.162C98.0006 167.149 99.6389 168.787 101.626 168.787H148.556C150.543 168.787 152.182 167.149 152.182 165.162Z" fill="#A5CEE4" stroke="#A5CEE4" stroke-width="0.3"/>
<path d="M26.3202 168.831H79.6752C81.6623 168.831 83.3006 167.193 83.3006 165.206C83.3006 163.219 81.6623 161.581 79.6752 161.581H26.3202C24.3338 161.581 22.6959 163.218 22.6948 165.204C22.6455 167.195 24.2877 168.831 26.3202 168.831Z" fill="#A5CEE4" stroke="#A5CEE4" stroke-width="0.3"/>
<path d="M133.039 185.573H66.0708C64.0838 185.573 62.4455 187.211 62.4455 189.198C62.4455 191.185 64.0838 192.823 66.0708 192.823H133.039C135.025 192.823 136.663 191.186 136.664 189.2C136.711 187.209 135.069 185.573 133.039 185.573Z" fill="#A5CEE4" stroke="#A5CEE4" stroke-width="0.3"/>
<path d="M46.0837 189.241C46.0837 187.254 44.4454 185.616 42.4584 185.616H26.2756C24.2886 185.616 22.6503 187.254 22.6503 189.241C22.6503 191.228 24.2886 192.866 26.2756 192.866H42.4584C44.495 192.866 46.0837 191.227 46.0837 189.241Z" fill="#A5CEE4" stroke="#A5CEE4" stroke-width="0.3"/>
<path d="M74.8734 218.266H32.5598C30.5728 218.266 28.9345 219.904 28.9345 221.891C28.9345 223.878 30.5728 225.517 32.5598 225.517H74.8734C76.8598 225.517 78.4977 223.879 78.4987 221.893C78.5481 219.902 76.9059 218.266 74.8734 218.266Z" fill="#A5CEE4" stroke="#A5CEE4" stroke-width="0.3"/>
<path d="M216.701 239.437L216.701 239.437C216.06 239.88 215.316 240.13 214.569 240.13H214.568C213.973 240.13 213.38 239.982 212.882 239.733L212.879 239.731L212.879 239.731L200.385 233.153L187.89 239.731L187.887 239.733L187.887 239.733C186.694 240.33 185.209 240.231 184.068 239.437L184.062 239.433L184.062 239.433C182.976 238.594 182.376 237.254 182.626 235.861C182.626 235.861 182.626 235.86 182.626 235.86L184.992 221.946L174.911 212.102C174.911 212.102 174.911 212.102 174.91 212.102C173.918 211.158 173.521 209.719 173.966 208.379C174.366 207.037 175.511 206.094 176.897 205.896L216.701 239.437ZM216.701 239.437C217.847 238.639 218.392 237.248 218.144 235.861C218.144 235.861 218.144 235.861 218.143 235.86L215.777 221.946L225.858 212.102C225.859 212.102 225.859 212.102 225.859 212.101C226.853 211.155 227.198 209.669 226.803 208.38L226.803 208.38L226.802 208.377C226.357 207.039 225.215 206.095 223.873 205.896L223.872 205.896L209.909 203.861L203.662 191.223C203.662 191.223 203.662 191.223 203.662 191.223C203.064 189.98 201.775 189.186 200.385 189.186C198.993 189.186 197.754 189.983 197.109 191.219L197.109 191.219L197.108 191.222L190.861 203.861L176.897 205.896L216.701 239.437ZM209.801 229.856L208.329 221.349L208.329 221.349C208.13 220.158 208.528 218.966 209.37 218.124L209.371 218.123L215.533 212.101L206.984 210.861C206.983 210.861 206.983 210.86 206.982 210.86C205.786 210.711 204.794 209.963 204.25 208.875L204.249 208.874L200.433 201.15L196.618 208.872C196.117 209.967 195.074 210.711 193.884 210.86C193.883 210.86 193.883 210.861 193.882 210.861L185.333 212.101L191.495 218.123L191.496 218.124C192.338 218.966 192.736 220.158 192.537 221.349L192.537 221.349L191.066 229.854L198.698 225.854C199.741 225.307 201.031 225.307 202.073 225.854L209.801 229.856ZM209.801 229.856L202.074 225.854L209.801 229.856Z" fill="#A5CEE4" stroke="#A5CEE4" stroke-width="0.3"/>
</svg>
