<svg width="300" height="487" viewBox="0 0 300 487" fill="none" xmlns="http://www.w3.org/2000/svg">
<path d="M234.858 243.096L7.21124 36.5041C2.60907 32.5561 7.15256e-06 27.0572 7.15256e-06 21.3103C7.15256e-06 15.5585 2.60907 10.0644 7.21124 6.11649C11.5347 2.19774 17.3906 0 23.4927 0C29.6003 0 35.4561 2.19762 39.7796 6.11649L300 243.103L39.7796 480.09C35.4561 484.009 29.6003 486.207 23.4927 486.207C17.3905 486.207 11.5346 484.009 7.21124 480.09C2.89846 476.172 0.471374 470.857 0.471374 465.315C0.471374 459.772 2.89833 454.458 7.21124 450.539L234.858 243.096Z" fill="#A5CEE4"/>
</svg>
