<svg width="193" height="300" viewBox="0 0 193 300" fill="none" xmlns="http://www.w3.org/2000/svg">
<path d="M182.144 300H10.7144C4.79753 300 0 295.202 0 289.285V85.7122C0 79.7953 4.79753 74.9978 10.7144 74.9978H32.1431C38.06 74.9978 42.8575 79.7953 42.8575 85.7122C42.8575 91.629 38.06 96.4265 32.1431 96.4265H21.4287V278.571H171.43V96.4265H160.716C154.794 96.4265 150.001 91.629 150.001 85.7122C150.001 79.7953 154.794 74.9978 160.716 74.9978H182.144C188.066 74.9978 192.859 79.7953 192.859 85.7122V289.285C192.859 295.202 188.066 300 182.144 300Z" fill="#A5CEE4"/>
<path d="M139.287 214.286H53.5715C47.6547 214.286 42.8572 209.488 42.8572 203.572C42.8572 197.655 47.6547 192.857 53.5715 192.857H139.287C145.208 192.857 150.001 197.655 150.001 203.572C150.001 209.488 145.208 214.286 139.287 214.286Z" fill="#A5CEE4"/>
<path d="M139.287 257.143H53.5715C47.6547 257.143 42.8572 252.346 42.8572 246.429C42.8572 240.512 47.6547 235.714 53.5715 235.714H139.287C145.208 235.714 150.001 240.512 150.001 246.429C150.001 252.346 145.208 257.143 139.287 257.143Z" fill="#A5CEE4"/>
<path d="M117.858 96.4269C111.936 96.4269 107.143 91.6294 107.143 85.7126V53.5694C107.143 47.6526 111.936 42.8551 117.858 42.8551H119.458L96.4292 24.4349L73.4006 42.8551H75.0006C80.9175 42.8551 85.715 47.6526 85.715 53.5694V85.7126C85.715 91.6294 80.9175 96.4269 75.0006 96.4269C69.0838 96.4269 64.2862 91.6294 64.2862 85.7126V64.2838H42.8575C38.3063 64.2838 34.2523 61.4115 32.7456 57.1162C31.2437 52.8209 32.6092 48.0451 36.1655 45.2037L89.7374 2.34617C93.65 -0.782057 99.2058 -0.782057 103.121 2.34617L156.697 45.2037C160.244 48.0449 161.614 52.8207 160.108 57.1162C158.603 61.4115 154.552 64.2838 150.001 64.2838H128.572V85.7126C128.572 91.6294 123.779 96.4269 117.858 96.4269H117.858Z" fill="#A5CEE4"/>
<path d="M75.0001 139.284C69.0833 139.284 64.2858 134.486 64.2858 128.569V118.309C64.2858 112.392 69.0833 107.595 75.0001 107.595C80.917 107.595 85.7145 112.392 85.7145 118.309V128.569C85.7145 134.486 80.917 139.284 75.0001 139.284Z" fill="#A5CEE4"/>
<path d="M117.858 139.284C111.937 139.284 107.144 134.486 107.144 128.569V118.309C107.144 112.392 111.937 107.595 117.858 107.595C123.78 107.595 128.573 112.392 128.573 118.309V128.569C128.573 134.486 123.78 139.284 117.858 139.284Z" fill="#A5CEE4"/>
<path d="M118.183 171.427C112.261 171.427 107.416 166.629 107.416 160.712C107.416 154.795 112.156 149.998 118.068 149.998H118.183C124.095 149.998 128.897 154.795 128.897 160.712C128.895 166.629 124.092 171.427 118.183 171.427H118.183Z" fill="#A5CEE4"/>
<path d="M75.3185 171.427C69.4017 171.427 64.5515 166.629 64.5515 160.712C64.5515 154.795 69.2965 149.998 75.2132 149.998H75.3185C81.2401 149.998 86.0328 154.795 86.0328 160.712C86.0328 166.629 81.2401 171.427 75.3185 171.427H75.3185Z" fill="#A5CEE4"/>
</svg>
