<svg width="300" height="300" viewBox="0 0 300 300" fill="none" xmlns="http://www.w3.org/2000/svg">
<path d="M150 20.9993C184.212 20.9993 217.023 34.5908 241.215 58.7835C265.408 82.9741 279 115.788 279 149.999C279 184.209 265.408 217.022 241.215 241.214C217.025 265.407 184.21 278.999 150 278.999C115.79 278.999 82.9773 265.407 58.7846 241.214C34.5919 217.024 21.0004 184.209 21.0004 149.999C21.0004 115.788 34.5919 82.9762 58.7846 58.7835C82.9751 34.5908 115.79 20.9993 150 20.9993V20.9993ZM150 0C110.217 0 72.0648 15.8035 43.9347 43.9347C15.8035 72.0638 0 110.218 0 150C0 189.782 15.8035 227.935 43.9347 256.065C72.0638 284.197 110.218 300 150 300C189.782 300 227.935 284.197 256.065 256.065C284.197 227.936 300 189.782 300 150C300 110.218 284.197 72.0648 256.065 43.9347C227.936 15.8035 189.782 0 150 0V0Z" fill="#A5CEE4"/>
<path d="M149.009 67.4992C167.309 68.1898 181.74 74.9991 192.54 88.4985C207.539 107.338 204.21 133.829 185.01 149.457C180.21 153.358 174.991 156.777 169.801 160.196H169.799C167.21 161.64 165.109 163.819 163.757 166.458C162.408 169.094 161.868 172.074 162.209 175.017C162.374 176.532 162.374 178.062 162.209 179.577C161.972 181.879 160.859 184.002 159.099 185.505C157.339 187.007 155.069 187.775 152.759 187.648C150.492 187.597 148.324 186.718 146.665 185.176C145.005 183.632 143.972 181.533 143.758 179.277C142.409 165.148 146.608 153.448 158.758 145.287C163.347 142.286 167.759 138.957 172.559 135.926C187.559 126.206 187.559 99.5354 168.899 90.5371C156.731 84.2864 142.279 84.3534 130.169 90.7171C123.786 93.9857 118.8 99.4518 116.13 106.106C115.284 108.569 113.445 110.564 111.057 111.604C108.669 112.642 105.955 112.627 103.58 111.566C101.203 110.505 99.3803 108.492 98.562 106.023C97.7417 103.551 97.9991 100.85 99.2693 98.5774C107.46 81.7486 121.439 72.4781 139.349 68.5776C142.547 68.0461 145.771 67.684 149.008 67.4978L149.009 67.4992Z" fill="#A5CEE4"/>
<path d="M142.924 221.998C142.924 214.559 147.934 209.999 154.325 211.439H154.322C156.013 211.717 157.576 212.512 158.796 213.716C160.016 214.919 160.833 216.472 161.134 218.158C161.914 222.628 162.124 227.159 157.953 230.427V230.429C156.566 231.601 154.848 232.315 153.035 232.469C151.225 232.626 149.411 232.216 147.844 231.3C146.17 230.44 144.799 229.088 143.918 227.424C143.039 225.76 142.692 223.867 142.924 221.998L142.924 221.998Z" fill="#A5CEE4"/>
</svg>
