<svg width="269" height="302" viewBox="0 0 269 302" fill="none" xmlns="http://www.w3.org/2000/svg">
<path d="M258.164 238.746C263.85 238.76 268.538 242.786 268.535 247.798V292.181C268.535 297.21 263.832 301.248 258.134 301.248L175.178 301.25C169.481 301.25 164.785 297.212 164.785 292.183V279.12H4.55565C2.48788 279.12 0.75 277.655 0.75 275.782V22.6157C0.75 20.7399 2.49067 19.2774 4.55565 19.2774H40.444L57.0421 1.94114L258.164 238.746ZM258.164 238.746L258.162 238.746H258.133H251.146V219.583C251.146 203.013 235.644 189.596 216.658 189.596C216.238 189.596 215.831 189.636 215.436 189.682C215.352 189.692 215.268 189.702 215.185 189.712C214.965 189.738 214.749 189.764 214.533 189.784V22.6135C214.533 20.7402 212.795 19.2752 210.727 19.2752H174.846L158.243 1.93832L158.242 1.93734C157.51 1.18077 156.446 0.75 155.325 0.75L59.9532 0.752154C58.841 0.752154 57.7641 1.182 57.0427 1.9405L258.164 238.746ZM243.544 219.583V238.746H189.78V219.583C189.78 206.761 201.806 196.271 216.658 196.271C231.513 196.271 243.544 206.761 243.544 219.583ZM50.3823 19.2766L61.7321 7.42604H153.565L164.908 19.2745L50.3823 19.2766ZM8.36479 272.442V25.9504H206.924V190.952C192.682 194.626 182.169 205.977 182.169 219.58V238.742H175.181C169.484 238.742 164.788 242.774 164.788 247.798V272.439L8.36479 272.442ZM216.658 278.338C210.697 278.338 205.909 274.133 205.909 269.024C205.909 263.933 210.696 259.733 216.658 259.733C222.619 259.733 227.407 263.933 227.407 269.024C227.407 274.132 222.618 278.338 216.658 278.338ZM260.925 292.179C260.925 293.467 259.712 294.572 258.133 294.572H220.461V284.657C228.732 283.133 235.013 276.727 235.013 269.024C235.013 260.19 226.741 253.059 216.656 253.059C206.569 253.059 198.298 260.19 198.298 269.024C198.298 276.727 204.579 283.133 212.85 284.657V294.572H175.179C173.612 294.572 172.394 293.472 172.394 292.179V247.796C172.394 246.521 173.606 245.416 175.179 245.416L258.135 245.414C259.711 245.414 260.927 246.515 260.927 247.794L260.925 292.179Z" fill="#A5CEE4" stroke="#A5CEE4" stroke-width="0.5"/>
<path d="M186.391 69.1149H186.401V68.8649C186.401 66.6343 184.724 64.7866 182.613 64.7866H35.8599C33.7525 64.7866 32.0725 66.6313 32.0725 68.8649C32.0725 71.0956 33.7498 72.9432 35.8599 72.9432H182.613C184.642 72.9432 186.272 71.2319 186.391 69.1149Z" fill="#A5CEE4" stroke="#A5CEE4" stroke-width="0.5"/>
<path d="M62.3159 96.1091C60.206 96.1091 58.5234 97.9535 58.5234 100.187C58.5234 102.418 60.2033 104.266 62.3159 104.266H156.159C158.269 104.266 159.952 102.421 159.952 100.187C159.952 97.9564 158.272 96.1091 156.159 96.1091H62.3159Z" fill="#A5CEE4" stroke="#A5CEE4" stroke-width="0.5"/>
<path d="M26.5061 131.513L26.5061 131.513C26.5087 133.745 28.1981 135.588 30.3174 135.588H188.16C190.279 135.588 191.971 133.745 191.971 131.51C191.971 129.278 190.282 127.432 188.16 127.432L30.3174 127.435C30.3174 127.435 30.3174 127.435 30.3174 127.435C28.1984 127.435 26.5061 129.278 26.5061 131.513Z" fill="#A5CEE4" stroke="#A5CEE4" stroke-width="0.5"/>
<path d="M164.127 162.833V162.832C164.125 160.597 162.434 158.754 160.313 158.754H58.161C56.0403 158.754 54.3464 160.597 54.3464 162.833C54.3464 165.065 56.0376 166.911 58.161 166.911H160.313C162.433 166.911 164.127 165.068 164.127 162.833Z" fill="#A5CEE4" stroke="#A5CEE4" stroke-width="0.5"/>
<path d="M145.685 189.38H72.7844C70.6404 189.38 68.9614 191.4 68.9614 193.806C68.9614 196.21 70.6377 198.233 72.7844 198.233H145.685C147.829 198.233 149.508 196.213 149.508 193.806C149.508 191.4 147.837 189.38 145.685 189.38Z" fill="#A5CEE4" stroke="#A5CEE4" stroke-width="0.5"/>
<path d="M20.1922 232.199L20.1909 232.2C18.5821 233.68 18.3923 236.263 19.7602 237.986C19.7602 237.986 19.7602 237.986 19.7602 237.986L29.5824 250.371C29.6563 250.469 29.7469 250.53 29.808 250.571L29.8208 250.58C29.8829 250.621 29.9121 250.641 29.9361 250.666L29.9359 250.667L29.9441 250.675C29.9905 250.72 30.0292 250.768 30.0774 250.827C30.0908 250.843 30.1048 250.86 30.12 250.878C30.1851 250.957 30.2658 251.05 30.3733 251.13L30.3733 251.13L30.3795 251.135C30.4594 251.191 30.5455 251.206 30.5821 251.212L30.587 251.213C30.6033 251.216 30.6128 251.218 30.6177 251.219C31.1947 251.579 31.8253 251.821 32.4978 251.83H32.501H32.5086C33.073 251.83 33.6062 251.651 34.1074 251.412L34.1075 251.412L34.1143 251.408C34.2094 251.359 34.3082 251.296 34.3943 251.241C34.4364 251.214 34.4754 251.189 34.5095 251.169L34.5182 251.163L34.5265 251.157C34.5742 251.123 34.6232 251.097 34.6879 251.062C34.7032 251.054 34.7194 251.045 34.7366 251.036C34.8201 250.991 34.922 250.932 35.0175 250.844L35.0185 250.843C35.1276 250.741 35.2073 250.628 35.2724 250.528C35.2919 250.498 35.3097 250.471 35.3264 250.444C35.3689 250.378 35.4049 250.322 35.4479 250.266C35.4642 250.246 35.4834 250.231 35.5313 250.194L35.5402 250.187C35.5882 250.15 35.6652 250.089 35.7236 249.993C35.7238 249.993 35.7241 249.993 35.7244 249.992L57.6806 214.57L57.6807 214.57C58.8532 212.677 58.3866 210.124 56.6187 208.871L56.4688 208.764L56.4652 208.767C54.7064 207.631 52.4072 208.168 51.2731 210.02C51.2731 210.02 51.273 210.02 51.273 210.02L32.1444 240.882L25.6288 232.668C25.6288 232.668 25.6287 232.668 25.6287 232.668C24.2604 230.942 21.8197 230.722 20.1922 232.199Z" fill="#A5CEE4" stroke="#A5CEE4" stroke-width="0.5"/>
</svg>
