<svg width="314" height="302" viewBox="0 0 314 302" fill="none" xmlns="http://www.w3.org/2000/svg">
<path d="M117.839 217.959H117.689V218.109V228.266V228.416H117.839H128.366H128.516V228.266V218.109V217.959H128.366H117.839Z" fill="#A5CEE4" stroke="#A5CEE4" stroke-width="0.3"/>
<mask id="path-2-outside-1_40_278" maskUnits="userSpaceOnUse" x="0" y="0" width="314" height="302" fill="black">
<rect fill="white" width="314" height="302"/>
<path d="M304.991 59.421H283.938L298.781 44.6324C302.108 41.303 302.108 35.9082 298.781 32.5789L281.938 15.631C278.609 12.3063 273.214 12.3063 269.885 15.631L255.096 30.4736V9.42104C255.012 4.76408 251.227 1.02827 246.57 1H222.571C217.874 1.0282 214.072 4.82989 214.044 9.5269V30.5795L199.255 15.631C195.926 12.3063 190.531 12.3063 187.202 15.631L170.254 32.5789C166.962 35.9012 166.962 41.2562 170.254 44.5783C143.696 33.4409 114.053 32.0526 86.5728 40.6615C59.0895 49.2684 35.534 67.3177 20.0766 91.6154C4.61619 115.915 -1.75373 144.895 2.09469 173.438C5.941 201.979 19.7566 228.24 41.0985 247.579C31.5707 264.842 21.202 274.684 12.3088 274.684C9.40235 274.684 7.04566 277.041 7.04566 279.947C7.04566 282.854 9.40235 285.21 12.3088 285.21C39.5316 285.518 66.6768 282.245 93.0425 275.473C123.717 283.239 156.206 278.805 183.677 263.105C185.007 264.632 186.917 265.53 188.94 265.579H196.677L191.414 270.842C190.04 272.245 189.281 274.141 189.309 276.106C189.243 278.077 190.007 279.985 191.414 281.369L201.626 291.526C202.977 292.997 204.892 293.819 206.889 293.789C208.842 293.758 210.714 293.009 212.152 291.684L217.415 286.421V294.158C217.613 298.016 220.815 301.033 224.678 301H239.203C241.125 301.014 242.972 300.26 244.337 298.906C245.7 297.553 246.466 295.711 246.466 293.789V286.052L251.729 291.315C253.136 292.687 255.03 293.444 256.992 293.42C258.966 293.486 260.874 292.722 262.255 291.315L272.413 281.103L272.415 281.105C273.886 279.754 274.708 277.839 274.678 275.842C274.706 273.878 273.947 271.982 272.572 270.579L267.309 265.316H275.046C278.843 265.149 281.86 262.064 281.94 258.262V243.737C281.954 241.815 281.2 239.968 279.847 238.603C278.493 237.24 276.651 236.474 274.729 236.474H266.992L272.255 231.211C273.632 229.806 274.389 227.912 274.361 225.948C274.426 223.974 273.663 222.066 272.255 220.685L262.044 210.527L262.046 210.525C260.695 209.054 258.78 208.232 256.783 208.262C254.811 208.196 252.901 208.96 251.52 210.368L246.256 215.631V208.211C246.256 204.289 243.124 201.086 239.203 201H236.992C242.177 187.56 244.924 173.3 245.098 158.895H246.625C251.322 158.866 255.122 155.065 255.15 150.368V129.315L269.938 144.158H269.941C273.27 147.485 278.665 147.485 281.992 144.158L298.888 127.316C302.213 123.986 302.213 118.591 298.888 115.262L284.045 100.474H305.098C309.755 100.389 313.491 96.6037 313.519 91.9466V67.9479C313.491 63.251 309.689 59.4492 304.992 59.421H304.991ZM240.359 230.524C243.063 231.676 246.193 231.095 248.305 229.051L257.041 220.262L262.673 225.894L253.832 234.735C251.834 236.84 251.282 239.932 252.427 242.602C253.571 245.268 256.193 246.998 259.095 247H271.412V255.001L259.044 254.998C256.142 254.991 253.522 256.739 252.413 259.42C251.262 262.125 251.842 265.254 253.887 267.367L262.676 276.102L257.044 281.734L248.203 272.893C246.098 270.896 243.005 270.344 240.336 271.488C237.67 272.632 235.94 275.254 235.938 278.156V290.473H227.94V278.105C227.947 275.203 226.199 272.583 223.518 271.475C220.813 270.323 217.684 270.904 215.571 272.948L206.836 281.738L201.204 276.106L210.045 267.264C212.042 265.159 212.594 262.067 211.45 259.398C210.306 256.731 207.684 255.001 204.782 254.999H192.465V247.001H204.833C207.511 246.975 209.96 245.478 211.2 243.105C212.462 240.803 212.361 237.995 210.937 235.789C210.662 235.34 210.345 234.917 209.99 234.527L201.201 225.791L206.833 220.159L215.674 229.001C217.779 230.998 220.872 231.55 223.541 230.406C226.207 229.261 227.937 226.639 227.939 223.737V211.526H235.94V223.894H235.937C235.93 226.796 237.678 229.416 240.359 230.525L240.359 230.524ZM225.622 200.999H224.675C222.753 200.985 220.907 201.739 219.541 203.093C218.179 204.446 217.413 206.288 217.413 208.21V215.947L212.149 210.684C210.74 209.317 208.848 208.562 206.886 208.579C204.913 208.513 203.005 209.277 201.623 210.684L191.466 220.896L191.463 220.893C189.992 222.244 189.17 224.159 189.201 226.157C189.172 228.121 189.931 230.017 191.306 231.42L196.569 236.683H189.149C185.227 236.683 182.025 239.815 181.938 243.737V251.843L178.411 253.948V253.946C161.588 263.632 142.509 268.716 123.096 268.683C113.374 268.706 103.691 267.431 94.3066 264.895C93.3551 264.658 92.3635 264.658 91.4119 264.895C73.0047 269.942 54.1049 272.978 35.0445 273.946C42.0207 266.458 47.8547 257.98 52.3587 248.789C53.4819 246.615 52.9579 243.956 51.097 242.367C30.0305 224.508 16.3415 199.466 12.6784 172.088C9.01534 144.714 15.6413 116.954 31.2708 94.181C46.9004 71.4081 70.4226 55.2499 97.2858 48.8289C124.146 42.4048 152.436 46.1785 176.672 59.4165H164.041C159.384 59.5011 155.648 63.2863 155.62 67.9434V91.9422C155.648 96.6391 159.449 100.441 164.146 100.469H185.199L170.356 115.258C167.029 118.587 167.029 123.982 170.356 127.311L187.198 144.259C190.528 147.584 195.923 147.584 199.252 144.259L214.04 129.416V150.469C214.125 155.126 217.91 158.862 222.567 158.89H234.567C234.402 173.38 231.36 187.692 225.619 200.995L225.622 200.999ZM302.987 89.9496H279.197C275.758 89.9496 272.659 92.029 271.357 95.2128C270.713 96.7706 270.539 98.4835 270.856 100.138C271.174 101.794 271.97 103.321 273.145 104.529L289.987 121.319L275.882 135.424L259.04 118.53V118.528C256.576 116.152 252.936 115.471 249.778 116.792C246.595 118.096 244.515 121.195 244.515 124.635V148.37H224.567V124.58C224.567 121.141 222.488 118.041 219.304 116.74C217.746 116.096 216.033 115.922 214.379 116.239C212.723 116.557 211.195 117.353 209.988 118.528L193.197 135.37L179.093 121.265L195.986 104.423H195.989C198.364 101.958 199.046 98.3192 197.725 95.1613C196.421 91.9775 193.322 89.8981 189.882 89.8981H166.146V69.9499H189.936C192.657 69.9593 195.218 68.667 196.83 66.4772C199.236 63.0961 198.858 58.4742 195.935 55.528L179.093 38.7377L193.197 24.633L210.039 41.5268L210.042 41.5292C212.507 43.9046 216.146 44.586 219.304 43.2655C222.488 41.9615 224.567 38.8647 224.567 35.425V11.529H244.567V35.3191C244.567 38.759 246.646 41.858 249.83 43.1597C251.388 43.8035 253.101 43.9774 254.755 43.6601C256.411 43.343 257.939 42.5464 259.146 41.3716L275.937 24.5295L290.041 38.6342L273.147 55.4762H273.145C270.77 57.941 270.088 61.5803 271.409 64.7382C272.713 67.9219 275.812 70.0013 279.252 70.0013H302.988L302.987 89.9496Z"/>
</mask>
<path d="M304.991 59.421H283.938L298.781 44.6324C302.108 41.303 302.108 35.9082 298.781 32.5789L281.938 15.631C278.609 12.3063 273.214 12.3063 269.885 15.631L255.096 30.4736V9.42104C255.012 4.76408 251.227 1.02827 246.57 1H222.571C217.874 1.0282 214.072 4.82989 214.044 9.5269V30.5795L199.255 15.631C195.926 12.3063 190.531 12.3063 187.202 15.631L170.254 32.5789C166.962 35.9012 166.962 41.2562 170.254 44.5783C143.696 33.4409 114.053 32.0526 86.5728 40.6615C59.0895 49.2684 35.534 67.3177 20.0766 91.6154C4.61619 115.915 -1.75373 144.895 2.09469 173.438C5.941 201.979 19.7566 228.24 41.0985 247.579C31.5707 264.842 21.202 274.684 12.3088 274.684C9.40235 274.684 7.04566 277.041 7.04566 279.947C7.04566 282.854 9.40235 285.21 12.3088 285.21C39.5316 285.518 66.6768 282.245 93.0425 275.473C123.717 283.239 156.206 278.805 183.677 263.105C185.007 264.632 186.917 265.53 188.94 265.579H196.677L191.414 270.842C190.04 272.245 189.281 274.141 189.309 276.106C189.243 278.077 190.007 279.985 191.414 281.369L201.626 291.526C202.977 292.997 204.892 293.819 206.889 293.789C208.842 293.758 210.714 293.009 212.152 291.684L217.415 286.421V294.158C217.613 298.016 220.815 301.033 224.678 301H239.203C241.125 301.014 242.972 300.26 244.337 298.906C245.7 297.553 246.466 295.711 246.466 293.789V286.052L251.729 291.315C253.136 292.687 255.03 293.444 256.992 293.42C258.966 293.486 260.874 292.722 262.255 291.315L272.413 281.103L272.415 281.105C273.886 279.754 274.708 277.839 274.678 275.842C274.706 273.878 273.947 271.982 272.572 270.579L267.309 265.316H275.046C278.843 265.149 281.86 262.064 281.94 258.262V243.737C281.954 241.815 281.2 239.968 279.847 238.603C278.493 237.24 276.651 236.474 274.729 236.474H266.992L272.255 231.211C273.632 229.806 274.389 227.912 274.361 225.948C274.426 223.974 273.663 222.066 272.255 220.685L262.044 210.527L262.046 210.525C260.695 209.054 258.78 208.232 256.783 208.262C254.811 208.196 252.901 208.96 251.52 210.368L246.256 215.631V208.211C246.256 204.289 243.124 201.086 239.203 201H236.992C242.177 187.56 244.924 173.3 245.098 158.895H246.625C251.322 158.866 255.122 155.065 255.15 150.368V129.315L269.938 144.158H269.941C273.27 147.485 278.665 147.485 281.992 144.158L298.888 127.316C302.213 123.986 302.213 118.591 298.888 115.262L284.045 100.474H305.098C309.755 100.389 313.491 96.6037 313.519 91.9466V67.9479C313.491 63.251 309.689 59.4492 304.992 59.421H304.991ZM240.359 230.524C243.063 231.676 246.193 231.095 248.305 229.051L257.041 220.262L262.673 225.894L253.832 234.735C251.834 236.84 251.282 239.932 252.427 242.602C253.571 245.268 256.193 246.998 259.095 247H271.412V255.001L259.044 254.998C256.142 254.991 253.522 256.739 252.413 259.42C251.262 262.125 251.842 265.254 253.887 267.367L262.676 276.102L257.044 281.734L248.203 272.893C246.098 270.896 243.005 270.344 240.336 271.488C237.67 272.632 235.94 275.254 235.938 278.156V290.473H227.94V278.105C227.947 275.203 226.199 272.583 223.518 271.475C220.813 270.323 217.684 270.904 215.571 272.948L206.836 281.738L201.204 276.106L210.045 267.264C212.042 265.159 212.594 262.067 211.45 259.398C210.306 256.731 207.684 255.001 204.782 254.999H192.465V247.001H204.833C207.511 246.975 209.96 245.478 211.2 243.105C212.462 240.803 212.361 237.995 210.937 235.789C210.662 235.34 210.345 234.917 209.99 234.527L201.201 225.791L206.833 220.159L215.674 229.001C217.779 230.998 220.872 231.55 223.541 230.406C226.207 229.261 227.937 226.639 227.939 223.737V211.526H235.94V223.894H235.937C235.93 226.796 237.678 229.416 240.359 230.525L240.359 230.524ZM225.622 200.999H224.675C222.753 200.985 220.907 201.739 219.541 203.093C218.179 204.446 217.413 206.288 217.413 208.21V215.947L212.149 210.684C210.74 209.317 208.848 208.562 206.886 208.579C204.913 208.513 203.005 209.277 201.623 210.684L191.466 220.896L191.463 220.893C189.992 222.244 189.17 224.159 189.201 226.157C189.172 228.121 189.931 230.017 191.306 231.42L196.569 236.683H189.149C185.227 236.683 182.025 239.815 181.938 243.737V251.843L178.411 253.948V253.946C161.588 263.632 142.509 268.716 123.096 268.683C113.374 268.706 103.691 267.431 94.3066 264.895C93.3551 264.658 92.3635 264.658 91.4119 264.895C73.0047 269.942 54.1049 272.978 35.0445 273.946C42.0207 266.458 47.8547 257.98 52.3587 248.789C53.4819 246.615 52.9579 243.956 51.097 242.367C30.0305 224.508 16.3415 199.466 12.6784 172.088C9.01534 144.714 15.6413 116.954 31.2708 94.181C46.9004 71.4081 70.4226 55.2499 97.2858 48.8289C124.146 42.4048 152.436 46.1785 176.672 59.4165H164.041C159.384 59.5011 155.648 63.2863 155.62 67.9434V91.9422C155.648 96.6391 159.449 100.441 164.146 100.469H185.199L170.356 115.258C167.029 118.587 167.029 123.982 170.356 127.311L187.198 144.259C190.528 147.584 195.923 147.584 199.252 144.259L214.04 129.416V150.469C214.125 155.126 217.91 158.862 222.567 158.89H234.567C234.402 173.38 231.36 187.692 225.619 200.995L225.622 200.999ZM302.987 89.9496H279.197C275.758 89.9496 272.659 92.029 271.357 95.2128C270.713 96.7706 270.539 98.4835 270.856 100.138C271.174 101.794 271.97 103.321 273.145 104.529L289.987 121.319L275.882 135.424L259.04 118.53V118.528C256.576 116.152 252.936 115.471 249.778 116.792C246.595 118.096 244.515 121.195 244.515 124.635V148.37H224.567V124.58C224.567 121.141 222.488 118.041 219.304 116.74C217.746 116.096 216.033 115.922 214.379 116.239C212.723 116.557 211.195 117.353 209.988 118.528L193.197 135.37L179.093 121.265L195.986 104.423H195.989C198.364 101.958 199.046 98.3192 197.725 95.1613C196.421 91.9775 193.322 89.8981 189.882 89.8981H166.146V69.9499H189.936C192.657 69.9593 195.218 68.667 196.83 66.4772C199.236 63.0961 198.858 58.4742 195.935 55.528L179.093 38.7377L193.197 24.633L210.039 41.5268L210.042 41.5292C212.507 43.9046 216.146 44.586 219.304 43.2655C222.488 41.9615 224.567 38.8647 224.567 35.425V11.529H244.567V35.3191C244.567 38.759 246.646 41.858 249.83 43.1597C251.388 43.8035 253.101 43.9774 254.755 43.6601C256.411 43.343 257.939 42.5464 259.146 41.3716L275.937 24.5295L290.041 38.6342L273.147 55.4762H273.145C270.77 57.941 270.088 61.5803 271.409 64.7382C272.713 67.9219 275.812 70.0013 279.252 70.0013H302.988L302.987 89.9496Z" fill="#A5CEE4"/>
<path d="M304.991 59.421H283.938L298.781 44.6324C302.108 41.303 302.108 35.9082 298.781 32.5789L281.938 15.631C278.609 12.3063 273.214 12.3063 269.885 15.631L255.096 30.4736V9.42104C255.012 4.76408 251.227 1.02827 246.57 1H222.571C217.874 1.0282 214.072 4.82989 214.044 9.5269V30.5795L199.255 15.631C195.926 12.3063 190.531 12.3063 187.202 15.631L170.254 32.5789C166.962 35.9012 166.962 41.2562 170.254 44.5783C143.696 33.4409 114.053 32.0526 86.5728 40.6615C59.0895 49.2684 35.534 67.3177 20.0766 91.6154C4.61619 115.915 -1.75373 144.895 2.09469 173.438C5.941 201.979 19.7566 228.24 41.0985 247.579C31.5707 264.842 21.202 274.684 12.3088 274.684C9.40235 274.684 7.04566 277.041 7.04566 279.947C7.04566 282.854 9.40235 285.21 12.3088 285.21C39.5316 285.518 66.6768 282.245 93.0425 275.473C123.717 283.239 156.206 278.805 183.677 263.105C185.007 264.632 186.917 265.53 188.94 265.579H196.677L191.414 270.842C190.04 272.245 189.281 274.141 189.309 276.106C189.243 278.077 190.007 279.985 191.414 281.369L201.626 291.526C202.977 292.997 204.892 293.819 206.889 293.789C208.842 293.758 210.714 293.009 212.152 291.684L217.415 286.421V294.158C217.613 298.016 220.815 301.033 224.678 301H239.203C241.125 301.014 242.972 300.26 244.337 298.906C245.7 297.553 246.466 295.711 246.466 293.789V286.052L251.729 291.315C253.136 292.687 255.03 293.444 256.992 293.42C258.966 293.486 260.874 292.722 262.255 291.315L272.413 281.103L272.415 281.105C273.886 279.754 274.708 277.839 274.678 275.842C274.706 273.878 273.947 271.982 272.572 270.579L267.309 265.316H275.046C278.843 265.149 281.86 262.064 281.94 258.262V243.737C281.954 241.815 281.2 239.968 279.847 238.603C278.493 237.24 276.651 236.474 274.729 236.474H266.992L272.255 231.211C273.632 229.806 274.389 227.912 274.361 225.948C274.426 223.974 273.663 222.066 272.255 220.685L262.044 210.527L262.046 210.525C260.695 209.054 258.78 208.232 256.783 208.262C254.811 208.196 252.901 208.96 251.52 210.368L246.256 215.631V208.211C246.256 204.289 243.124 201.086 239.203 201H236.992C242.177 187.56 244.924 173.3 245.098 158.895H246.625C251.322 158.866 255.122 155.065 255.15 150.368V129.315L269.938 144.158H269.941C273.27 147.485 278.665 147.485 281.992 144.158L298.888 127.316C302.213 123.986 302.213 118.591 298.888 115.262L284.045 100.474H305.098C309.755 100.389 313.491 96.6037 313.519 91.9466V67.9479C313.491 63.251 309.689 59.4492 304.992 59.421H304.991ZM240.359 230.524C243.063 231.676 246.193 231.095 248.305 229.051L257.041 220.262L262.673 225.894L253.832 234.735C251.834 236.84 251.282 239.932 252.427 242.602C253.571 245.268 256.193 246.998 259.095 247H271.412V255.001L259.044 254.998C256.142 254.991 253.522 256.739 252.413 259.42C251.262 262.125 251.842 265.254 253.887 267.367L262.676 276.102L257.044 281.734L248.203 272.893C246.098 270.896 243.005 270.344 240.336 271.488C237.67 272.632 235.94 275.254 235.938 278.156V290.473H227.94V278.105C227.947 275.203 226.199 272.583 223.518 271.475C220.813 270.323 217.684 270.904 215.571 272.948L206.836 281.738L201.204 276.106L210.045 267.264C212.042 265.159 212.594 262.067 211.45 259.398C210.306 256.731 207.684 255.001 204.782 254.999H192.465V247.001H204.833C207.511 246.975 209.96 245.478 211.2 243.105C212.462 240.803 212.361 237.995 210.937 235.789C210.662 235.34 210.345 234.917 209.99 234.527L201.201 225.791L206.833 220.159L215.674 229.001C217.779 230.998 220.872 231.55 223.541 230.406C226.207 229.261 227.937 226.639 227.939 223.737V211.526H235.94V223.894H235.937C235.93 226.796 237.678 229.416 240.359 230.525L240.359 230.524ZM225.622 200.999H224.675C222.753 200.985 220.907 201.739 219.541 203.093C218.179 204.446 217.413 206.288 217.413 208.21V215.947L212.149 210.684C210.74 209.317 208.848 208.562 206.886 208.579C204.913 208.513 203.005 209.277 201.623 210.684L191.466 220.896L191.463 220.893C189.992 222.244 189.17 224.159 189.201 226.157C189.172 228.121 189.931 230.017 191.306 231.42L196.569 236.683H189.149C185.227 236.683 182.025 239.815 181.938 243.737V251.843L178.411 253.948V253.946C161.588 263.632 142.509 268.716 123.096 268.683C113.374 268.706 103.691 267.431 94.3066 264.895C93.3551 264.658 92.3635 264.658 91.4119 264.895C73.0047 269.942 54.1049 272.978 35.0445 273.946C42.0207 266.458 47.8547 257.98 52.3587 248.789C53.4819 246.615 52.9579 243.956 51.097 242.367C30.0305 224.508 16.3415 199.466 12.6784 172.088C9.01534 144.714 15.6413 116.954 31.2708 94.181C46.9004 71.4081 70.4226 55.2499 97.2858 48.8289C124.146 42.4048 152.436 46.1785 176.672 59.4165H164.041C159.384 59.5011 155.648 63.2863 155.62 67.9434V91.9422C155.648 96.6391 159.449 100.441 164.146 100.469H185.199L170.356 115.258C167.029 118.587 167.029 123.982 170.356 127.311L187.198 144.259C190.528 147.584 195.923 147.584 199.252 144.259L214.04 129.416V150.469C214.125 155.126 217.91 158.862 222.567 158.89H234.567C234.402 173.38 231.36 187.692 225.619 200.995L225.622 200.999ZM302.987 89.9496H279.197C275.758 89.9496 272.659 92.029 271.357 95.2128C270.713 96.7706 270.539 98.4835 270.856 100.138C271.174 101.794 271.97 103.321 273.145 104.529L289.987 121.319L275.882 135.424L259.04 118.53V118.528C256.576 116.152 252.936 115.471 249.778 116.792C246.595 118.096 244.515 121.195 244.515 124.635V148.37H224.567V124.58C224.567 121.141 222.488 118.041 219.304 116.74C217.746 116.096 216.033 115.922 214.379 116.239C212.723 116.557 211.195 117.353 209.988 118.528L193.197 135.37L179.093 121.265L195.986 104.423H195.989C198.364 101.958 199.046 98.3192 197.725 95.1613C196.421 91.9775 193.322 89.8981 189.882 89.8981H166.146V69.9499H189.936C192.657 69.9593 195.218 68.667 196.83 66.4772C199.236 63.0961 198.858 58.4742 195.935 55.528L179.093 38.7377L193.197 24.633L210.039 41.5268L210.042 41.5292C212.507 43.9046 216.146 44.586 219.304 43.2655C222.488 41.9615 224.567 38.8647 224.567 35.425V11.529H244.567V35.3191C244.567 38.759 246.646 41.858 249.83 43.1597C251.388 43.8035 253.101 43.9774 254.755 43.6601C256.411 43.343 257.939 42.5464 259.146 41.3716L275.937 24.5295L290.041 38.6342L273.147 55.4762H273.145C270.77 57.941 270.088 61.5803 271.409 64.7382C272.713 67.9219 275.812 70.0013 279.252 70.0013H302.988L302.987 89.9496Z" stroke="#A5CEE4" stroke-width="0.6" mask="url(#path-2-outside-1_40_278)"/>
<path d="M243.307 88.6876L243.307 88.6877C240.99 91.0069 237.849 92.314 234.571 92.3279L234.509 92.3282C231.249 92.3119 228.126 91.0114 225.819 88.7045C223.497 86.383 222.195 83.2351 222.195 79.9522C222.195 76.6693 223.498 73.5219 225.819 71.1999C228.141 68.878 231.288 67.5761 234.571 67.5761C237.854 67.5761 241.002 68.8785 243.324 71.2C245.646 73.5214 246.948 76.6693 246.948 79.9522C246.933 83.2301 245.626 86.3711 243.307 88.6876ZM234.571 56.7506C228.418 56.7506 222.515 59.1936 218.163 63.5452C213.812 67.8969 211.369 73.7998 211.369 79.9532C211.369 86.1067 213.812 92.0095 218.163 96.3612C222.515 100.713 228.418 103.156 234.571 103.156C240.725 103.156 246.628 100.713 250.979 96.3612C255.331 92.0096 257.774 86.1067 257.774 79.9532C257.774 73.7998 255.331 67.897 250.979 63.5452C246.628 59.1935 240.725 56.7506 234.571 56.7506Z" fill="#A5CEE4" stroke="#A5CEE4" stroke-width="0.3"/>
<path d="M118.783 97.5858H118.633V97.7358V206.157V206.307H118.783H129.31H129.46V206.157V97.7358V97.5858H129.31H118.783Z" fill="#A5CEE4" stroke="#A5CEE4" stroke-width="0.3"/>
</svg>
