<svg width="250" height="300" viewBox="0 0 250 300" fill="none" xmlns="http://www.w3.org/2000/svg">
<path d="M249.893 158.598V48.0717C249.893 44.2119 248.138 40.7019 244.981 37.8974C242.173 35.4401 239.016 34.3876 235.506 34.3876H234.104C228.842 35.0901 222.875 35.4401 217.613 35.4401C167.438 35.4401 134.805 4.21186 134.454 3.86224C131.997 1.40489 128.49 0 124.98 0C121.47 0 117.963 1.40245 115.506 3.85979C115.506 4.20979 83.2247 35.4376 32.3473 35.4376C27.0851 35.4376 21.1179 35.0876 15.856 34.3852H14.4536C10.9438 34.3852 7.78623 35.4376 4.9792 37.895C1.82186 40.7023 0.0670265 43.8596 0.0670265 48.0692V158.596C-0.282969 164.911 -0.635423 204.913 37.2596 245.263C55.1537 264.209 81.4697 283.158 120.067 298.948C121.822 299.65 123.577 300 125.329 300C127.084 300 128.839 299.65 130.591 298.948C176.206 280.351 204.276 257.192 221.82 235.088C250.943 198.25 250.243 164.216 249.891 158.602L249.893 158.598ZM221.822 202.809C209.542 227.722 182.524 258.6 125.33 282.107C84.9804 265.616 55.5054 243.86 37.2597 217.546C34.4523 213.686 31.9975 209.826 29.89 205.616C17.608 182.81 17.2583 164.563 17.608 159.299L17.6104 52.2809C22.5226 52.6309 27.435 52.9834 32.3473 52.9834C62.5229 52.9834 86.3814 43.1588 101.47 35.0892C109.892 30.527 116.557 25.6148 120.417 22.8072C122.172 21.4047 123.574 20.3498 124.979 18.9474C134.803 27.3691 168.839 52.9826 217.611 52.9826C222.523 52.9826 227.435 52.6326 232.348 52.2802V160C232.348 161.402 233.753 179.649 221.821 202.805L221.822 202.809Z" fill="#A5CEE4"/>
<path d="M171.647 123.861V89.476C171.647 63.5103 150.946 42.8091 124.981 42.8091C99.0149 42.8091 78.3137 63.5103 78.3137 89.476V123.861C62.172 137.195 51.9978 157.547 51.9978 180.003C51.9978 220.353 84.6283 252.986 124.981 252.986C165.33 252.986 197.963 220.356 197.963 180.003C197.963 157.897 187.787 137.546 171.647 123.861V123.861ZM138.315 176.493V209.124C138.315 216.493 132.35 222.458 124.981 222.458C117.611 222.458 111.647 216.493 111.647 209.124V176.493C106.734 172.283 103.577 166.669 103.577 159.652C103.577 147.722 113.051 138.248 124.981 138.248C136.91 138.248 146.384 147.722 146.384 159.652C146.384 166.669 142.874 172.283 138.315 176.493V176.493ZM157.261 114.739C147.786 109.827 136.56 107.37 124.98 107.37C113.4 107.37 102.174 110.177 92.6991 114.739V89.476C92.6991 71.932 107.436 57.1951 124.98 57.1951C142.524 57.1951 157.261 71.932 157.261 89.476V114.739Z" fill="#A5CEE4"/>
</svg>
