<svg width="301" height="300" viewBox="0 0 301 300" fill="none" xmlns="http://www.w3.org/2000/svg">
<path d="M284.46 15.526C263.784 -5.17535 227.711 -5.17535 207.01 15.526L23.3363 199.199C21.5886 200.947 20.3272 203.16 19.7376 205.549L0.404875 282.974C-0.753124 287.628 0.611531 292.565 4.00365 295.988C6.59945 298.584 10.0991 300 13.6721 300C14.7784 300 15.8847 299.871 16.991 299.587L94.4419 280.224C96.8569 279.635 99.0437 278.373 100.791 276.626L284.465 92.9523C294.8 82.6166 300.509 68.8589 300.509 54.2264C300.509 39.5993 294.822 25.867 284.461 15.5268L284.46 15.526ZM84.1247 254.587L32.493 267.497L45.4031 215.865L197.349 63.9189L236.075 102.645L84.1247 254.587ZM265.098 73.5803L255.43 83.2487L216.704 44.5228L226.372 34.8543C236.708 24.5186 254.762 24.5186 265.098 34.8543C270.268 40.0243 273.122 46.8906 273.122 54.2168C273.122 61.5477 270.268 68.4141 265.098 73.5792V73.5803Z" fill="#A5CEE4"/>
</svg>
