<svg width="370" height="302" viewBox="0 0 370 302" fill="none" xmlns="http://www.w3.org/2000/svg">
<mask id="path-1-outside-1_40_286" maskUnits="userSpaceOnUse" x="0" y="0" width="370" height="302" fill="black">
<rect fill="white" width="370" height="302"/>
<path d="M217.084 22.9879V20.3617C219.341 20.3617 221.601 20.3617 223.754 20.6767V23.3028C221.337 23.0941 219.183 22.9879 217.084 22.9879ZM154.808 64.2591L155.647 62.3692L153.233 61.2667L152.395 63.2079C151.072 66.3651 148.673 68.9546 145.619 70.5075L146.827 72.8699C150.424 71.035 153.252 67.9841 154.808 64.2591ZM166.939 45.1471L164.998 43.3635C162.013 46.6049 159.339 50.1211 157.014 53.8641L159.27 55.2303C161.519 51.6336 164.104 48.2566 166.991 45.147L166.939 45.1471ZM138.323 74.6575V72.0314C136.854 71.9874 135.403 71.7237 134.015 71.2439C131.294 70.2843 128.477 69.614 125.613 69.2478L125.298 71.8739C127.983 72.2072 130.624 72.8225 133.176 73.7125C134.832 74.2876 136.568 74.6063 138.323 74.6575ZM81.1921 127.165C82.3641 124.799 82.9757 122.192 82.9757 119.551C83.0636 118.573 83.0636 117.588 82.9757 116.61C82.9757 115.613 82.6608 114.562 82.5545 113.566H79.9284C79.9284 114.65 80.0676 115.738 80.3496 116.822C80.4192 117.643 80.4229 118.467 80.3533 119.287C80.3496 121.529 79.8295 123.741 78.8296 125.748L81.1921 127.165ZM24.1685 173.898C24.1648 170.121 24.7325 166.371 25.8497 162.767L23.3297 161.979C22.1357 165.836 21.535 169.858 21.5424 173.898V175.421H24.1686C24.2198 175.051 24.1685 174.579 24.1685 173.898ZM36.7713 145.911L35.0388 143.97C31.6289 146.966 28.7537 150.511 26.5305 154.467L28.8416 155.727C30.9403 152.079 33.6397 148.819 36.8225 146.068L36.7713 145.911ZM117.947 71.6646V69.0384C113.405 69.3608 108.951 70.4412 104.768 72.2396L105.819 74.6533C109.669 72.9942 113.767 71.9869 117.947 71.6646ZM54.8865 137.142L54.3078 134.618C49.8357 135.439 45.5394 137.021 41.6019 139.292L42.9131 141.548C46.6196 139.398 50.6703 137.907 54.8865 137.142ZM85.8137 93.7179L83.4513 92.6154C81.5614 96.7286 80.3711 101.131 79.9315 105.636L82.5576 105.9C82.9569 101.684 84.0556 97.5672 85.8137 93.7179ZM22.8014 183.717C23.8379 188.112 25.6143 192.302 28.0537 196.107L30.2586 194.639C27.8559 191.097 26.0796 187.174 25.01 183.032L22.8014 183.717ZM284.45 90.4099V94.3473H287.076V90.2524C287.069 87.1428 286.857 84.0369 286.443 80.9565L283.817 81.3228C284.227 84.3335 284.443 87.3699 284.45 90.4099ZM309.181 133.992L295.844 133.988V136.614H309.077L309.181 133.992ZM280.092 113.667L279.777 114.612L282.297 115.4L282.561 114.612C284.008 110.693 285.095 106.653 285.813 102.536L283.242 102.064C282.542 106.019 281.488 109.902 280.092 113.667ZM329.714 139.555C325.788 137.225 321.488 135.592 317.004 134.724L316.847 137.141C321.033 137.95 325.048 139.481 328.714 141.653L329.714 139.555ZM344.68 155.308C342.489 151.36 339.643 147.81 336.274 144.807L334.49 146.748C337.644 149.609 340.288 152.982 342.314 156.726L344.68 155.308ZM202.168 24.6194L201.329 22.0445C196.952 23.0334 192.678 24.4399 188.568 26.2456L189.62 28.6593C193.66 26.9049 197.864 25.5497 202.168 24.6194ZM182.95 32.1278L181.638 29.8716C177.774 32.1278 174.134 34.743 170.767 37.6915L172.5 39.6876C175.734 36.838 179.232 34.3071 182.95 32.1278ZM244.384 25.9306C240.271 24.1798 235.996 22.8246 231.627 21.887L231.104 24.4582C235.316 25.3519 239.425 26.6595 243.388 28.3442L244.384 25.9306ZM262.606 37.3763C259.2 34.4608 255.526 31.8787 251.633 29.6591L250.322 31.9152C254.05 34.0616 257.563 36.5595 260.819 39.3724L262.606 37.3763ZM284.923 73.2927C283.824 68.9561 282.315 64.7367 280.407 60.6899L278.044 61.7923C279.883 65.6857 281.344 69.7477 282.403 73.9236L284.923 73.2927ZM276.521 53.6022C274.144 49.8517 271.419 46.3355 268.382 43.1016L266.441 44.8853C269.382 48.1267 272.001 51.6429 274.265 55.3859L276.521 53.6022ZM98.9408 78.3325L97.4721 76.1789C93.7361 78.7683 90.4471 81.9659 87.7554 85.6321L89.8541 87.207C92.374 83.7678 95.4429 80.7718 98.9408 78.3325ZM287.969 134.305L289.281 132.049C285.746 129.998 283.244 126.544 282.402 122.544L279.831 123.068C280.831 127.796 283.787 131.884 287.969 134.305ZM309.814 211.543H305.561V214.169H309.814C312.89 214.169 315.952 213.821 318.945 213.122L318.157 210.653C315.348 211.28 312.476 211.576 309.601 211.547L309.814 211.543ZM284.505 214.169H297.683V211.543L284.293 211.547L284.505 214.169ZM325.567 208.078L326.669 210.441C330.808 208.522 334.588 205.914 337.848 202.724L336.009 200.834C332.896 203.826 329.292 206.262 325.351 208.027L325.567 208.078ZM348.199 162.607L345.679 163.343C346.704 166.753 347.224 170.287 347.25 173.843V175.682H349.876V173.741C349.781 169.943 349.144 166.174 347.983 162.555L348.199 162.607ZM340.687 194.9L342.84 196.369C345.364 192.614 347.225 188.461 348.353 184.084L345.833 183.454C344.778 187.535 343.034 191.402 340.687 194.9ZM73.4213 214.066H86.5998V211.44H73.4175L73.4213 214.066ZM33.3043 202.408C36.5274 205.623 40.2743 208.272 44.3797 210.231L45.5335 207.869C41.6401 206.056 38.0909 203.587 35.0365 200.569L33.3043 202.408ZM94.4741 211.491V214.117H107.653V212.806C106.913 212.407 106.195 211.967 105.503 211.491L94.4741 211.491ZM52.4669 210.44L51.8369 213.011C54.9648 213.776 58.1733 214.168 61.3924 214.172H65.2272V211.546H61.6561C58.6564 211.605 55.6603 211.304 52.7302 210.652L52.4669 210.44ZM74.0983 131.414C71.6773 133.096 68.8021 133.997 65.8572 133.989H62.2348V136.615H65.8572C69.3294 136.615 72.721 135.553 75.5703 133.572L74.0983 131.414ZM217.084 22.9879V20.3617C214.828 20.3617 212.614 20.3594 210.41 20.6744V23.3005C212.666 23.0917 214.825 22.9879 217.084 22.9879ZM105.5 211.545C106.192 212.021 106.91 212.457 107.65 212.856V211.545H105.5ZM309.596 114.302H303.505C311.373 85.3012 304.212 54.2896 284.426 31.6728C264.64 9.05591 234.852 -2.16672 205.063 1.77794C175.274 5.7226 149.431 24.3066 136.212 51.2939C118.013 46.4921 98.6109 50.4038 83.6968 61.8864C68.7789 73.3688 60.0364 91.122 60.0251 109.948V114.358C38.675 114.618 19.0914 126.251 8.64139 144.872C-1.80487 163.488 -1.52264 186.267 9.37759 204.625C20.2778 222.983 40.1435 234.127 61.4936 233.868H107.911C109.046 231.557 110.592 229.473 112.478 227.722L117.309 223.363H61.6515C44.0454 223.363 27.7792 213.972 18.9738 198.725C10.1724 183.477 10.1724 164.695 18.9738 149.447C27.7788 134.199 44.0445 124.809 61.6515 124.809H66.1162C67.6766 124.831 69.1672 124.157 70.1818 122.97C71.1963 121.78 71.6322 120.205 71.3648 118.663C68.2808 101.119 74.7271 83.2518 88.3005 71.7188C101.878 60.1811 120.551 56.709 137.369 62.5841C139.973 63.4998 142.845 62.2361 143.933 59.6979C154.994 34.3741 178.446 16.6396 205.824 12.889C233.203 9.13842 260.559 19.914 278.027 41.3295C295.494 62.7415 300.549 91.7062 291.373 117.773C290.791 119.381 291.029 121.172 292.014 122.571C292.996 123.974 294.6 124.805 296.31 124.809H309.595C327.197 124.809 343.467 134.2 352.269 149.447C361.074 164.695 361.074 183.477 352.269 198.725C343.467 213.973 327.198 223.363 309.595 223.363H271.947C270.24 227.011 268.255 230.52 266.013 233.868H309.595C330.951 233.868 350.686 222.473 361.363 203.977C372.043 185.48 372.043 162.691 361.363 144.194C350.686 125.698 330.953 114.302 309.596 114.302ZM195.495 185.926C197.487 186.783 199.806 186.322 201.322 184.769L252.621 132.839C254.621 130.799 254.621 127.528 252.621 125.488L201.322 73.032C199.824 71.5266 197.568 71.0651 195.605 71.8709C193.638 72.6767 192.352 74.5849 192.341 76.7093V106.326C148.814 109.263 112.059 143.08 112.059 180.938C112.063 184.999 112.502 189.047 113.37 193.013C113.37 195.914 115.722 198.266 118.623 198.266C121.52 198.266 123.871 195.914 123.871 193.013C129.124 167.913 155.953 151.006 192.448 149.223V181.095C192.422 183.164 193.616 185.054 195.495 185.926ZM124.241 168.074C131.699 139.824 162.729 116.984 197.751 116.562C199.143 116.562 200.479 116.009 201.465 115.024C202.45 114.039 203.003 112.705 203.003 111.31V89.5717L241.702 129.11L203.003 168.282V143.811C203.003 142.42 202.45 141.083 201.465 140.101C200.479 139.116 199.142 138.563 197.751 138.563C165.039 138.878 138.731 149.958 124.241 168.074ZM256.983 175.217C254.463 175.162 252.262 176.898 251.731 179.363C246.479 204.463 219.65 221.37 183.155 223.153L183.158 191.332C183.147 189.211 181.862 187.299 179.895 186.497C177.928 185.691 175.672 186.149 174.178 187.658L122.878 239.587C120.875 241.631 120.875 244.898 122.878 246.938L174.178 299.446C175.672 300.955 177.928 301.413 179.895 300.607C181.862 299.805 183.147 297.893 183.158 295.773V266.05C226.426 263.058 263.338 229.296 263.338 191.439C263.331 187.377 262.891 183.329 262.023 179.363C261.518 176.993 259.456 175.282 257.035 175.213L256.983 175.217ZM178.221 255.762C175.321 255.762 172.969 258.11 172.969 261.01V282.799L134.115 243.265L172.814 204.093V228.563C172.822 229.966 173.386 231.307 174.386 232.288C175.378 233.274 176.719 233.819 178.114 233.812C210.459 233.446 236.819 222.418 251.309 204.251C243.855 232.553 212.77 255.393 178.011 255.763L178.221 255.762Z"/>
</mask>
<path d="M217.084 22.9879V20.3617C219.341 20.3617 221.601 20.3617 223.754 20.6767V23.3028C221.337 23.0941 219.183 22.9879 217.084 22.9879ZM154.808 64.2591L155.647 62.3692L153.233 61.2667L152.395 63.2079C151.072 66.3651 148.673 68.9546 145.619 70.5075L146.827 72.8699C150.424 71.035 153.252 67.9841 154.808 64.2591ZM166.939 45.1471L164.998 43.3635C162.013 46.6049 159.339 50.1211 157.014 53.8641L159.27 55.2303C161.519 51.6336 164.104 48.2566 166.991 45.147L166.939 45.1471ZM138.323 74.6575V72.0314C136.854 71.9874 135.403 71.7237 134.015 71.2439C131.294 70.2843 128.477 69.614 125.613 69.2478L125.298 71.8739C127.983 72.2072 130.624 72.8225 133.176 73.7125C134.832 74.2876 136.568 74.6063 138.323 74.6575ZM81.1921 127.165C82.3641 124.799 82.9757 122.192 82.9757 119.551C83.0636 118.573 83.0636 117.588 82.9757 116.61C82.9757 115.613 82.6608 114.562 82.5545 113.566H79.9284C79.9284 114.65 80.0676 115.738 80.3496 116.822C80.4192 117.643 80.4229 118.467 80.3533 119.287C80.3496 121.529 79.8295 123.741 78.8296 125.748L81.1921 127.165ZM24.1685 173.898C24.1648 170.121 24.7325 166.371 25.8497 162.767L23.3297 161.979C22.1357 165.836 21.535 169.858 21.5424 173.898V175.421H24.1686C24.2198 175.051 24.1685 174.579 24.1685 173.898ZM36.7713 145.911L35.0388 143.97C31.6289 146.966 28.7537 150.511 26.5305 154.467L28.8416 155.727C30.9403 152.079 33.6397 148.819 36.8225 146.068L36.7713 145.911ZM117.947 71.6646V69.0384C113.405 69.3608 108.951 70.4412 104.768 72.2396L105.819 74.6533C109.669 72.9942 113.767 71.9869 117.947 71.6646ZM54.8865 137.142L54.3078 134.618C49.8357 135.439 45.5394 137.021 41.6019 139.292L42.9131 141.548C46.6196 139.398 50.6703 137.907 54.8865 137.142ZM85.8137 93.7179L83.4513 92.6154C81.5614 96.7286 80.3711 101.131 79.9315 105.636L82.5576 105.9C82.9569 101.684 84.0556 97.5672 85.8137 93.7179ZM22.8014 183.717C23.8379 188.112 25.6143 192.302 28.0537 196.107L30.2586 194.639C27.8559 191.097 26.0796 187.174 25.01 183.032L22.8014 183.717ZM284.45 90.4099V94.3473H287.076V90.2524C287.069 87.1428 286.857 84.0369 286.443 80.9565L283.817 81.3228C284.227 84.3335 284.443 87.3699 284.45 90.4099ZM309.181 133.992L295.844 133.988V136.614H309.077L309.181 133.992ZM280.092 113.667L279.777 114.612L282.297 115.4L282.561 114.612C284.008 110.693 285.095 106.653 285.813 102.536L283.242 102.064C282.542 106.019 281.488 109.902 280.092 113.667ZM329.714 139.555C325.788 137.225 321.488 135.592 317.004 134.724L316.847 137.141C321.033 137.95 325.048 139.481 328.714 141.653L329.714 139.555ZM344.68 155.308C342.489 151.36 339.643 147.81 336.274 144.807L334.49 146.748C337.644 149.609 340.288 152.982 342.314 156.726L344.68 155.308ZM202.168 24.6194L201.329 22.0445C196.952 23.0334 192.678 24.4399 188.568 26.2456L189.62 28.6593C193.66 26.9049 197.864 25.5497 202.168 24.6194ZM182.95 32.1278L181.638 29.8716C177.774 32.1278 174.134 34.743 170.767 37.6915L172.5 39.6876C175.734 36.838 179.232 34.3071 182.95 32.1278ZM244.384 25.9306C240.271 24.1798 235.996 22.8246 231.627 21.887L231.104 24.4582C235.316 25.3519 239.425 26.6595 243.388 28.3442L244.384 25.9306ZM262.606 37.3763C259.2 34.4608 255.526 31.8787 251.633 29.6591L250.322 31.9152C254.05 34.0616 257.563 36.5595 260.819 39.3724L262.606 37.3763ZM284.923 73.2927C283.824 68.9561 282.315 64.7367 280.407 60.6899L278.044 61.7923C279.883 65.6857 281.344 69.7477 282.403 73.9236L284.923 73.2927ZM276.521 53.6022C274.144 49.8517 271.419 46.3355 268.382 43.1016L266.441 44.8853C269.382 48.1267 272.001 51.6429 274.265 55.3859L276.521 53.6022ZM98.9408 78.3325L97.4721 76.1789C93.7361 78.7683 90.4471 81.9659 87.7554 85.6321L89.8541 87.207C92.374 83.7678 95.4429 80.7718 98.9408 78.3325ZM287.969 134.305L289.281 132.049C285.746 129.998 283.244 126.544 282.402 122.544L279.831 123.068C280.831 127.796 283.787 131.884 287.969 134.305ZM309.814 211.543H305.561V214.169H309.814C312.89 214.169 315.952 213.821 318.945 213.122L318.157 210.653C315.348 211.28 312.476 211.576 309.601 211.547L309.814 211.543ZM284.505 214.169H297.683V211.543L284.293 211.547L284.505 214.169ZM325.567 208.078L326.669 210.441C330.808 208.522 334.588 205.914 337.848 202.724L336.009 200.834C332.896 203.826 329.292 206.262 325.351 208.027L325.567 208.078ZM348.199 162.607L345.679 163.343C346.704 166.753 347.224 170.287 347.25 173.843V175.682H349.876V173.741C349.781 169.943 349.144 166.174 347.983 162.555L348.199 162.607ZM340.687 194.9L342.84 196.369C345.364 192.614 347.225 188.461 348.353 184.084L345.833 183.454C344.778 187.535 343.034 191.402 340.687 194.9ZM73.4213 214.066H86.5998V211.44H73.4175L73.4213 214.066ZM33.3043 202.408C36.5274 205.623 40.2743 208.272 44.3797 210.231L45.5335 207.869C41.6401 206.056 38.0909 203.587 35.0365 200.569L33.3043 202.408ZM94.4741 211.491V214.117H107.653V212.806C106.913 212.407 106.195 211.967 105.503 211.491L94.4741 211.491ZM52.4669 210.44L51.8369 213.011C54.9648 213.776 58.1733 214.168 61.3924 214.172H65.2272V211.546H61.6561C58.6564 211.605 55.6603 211.304 52.7302 210.652L52.4669 210.44ZM74.0983 131.414C71.6773 133.096 68.8021 133.997 65.8572 133.989H62.2348V136.615H65.8572C69.3294 136.615 72.721 135.553 75.5703 133.572L74.0983 131.414ZM217.084 22.9879V20.3617C214.828 20.3617 212.614 20.3594 210.41 20.6744V23.3005C212.666 23.0917 214.825 22.9879 217.084 22.9879ZM105.5 211.545C106.192 212.021 106.91 212.457 107.65 212.856V211.545H105.5ZM309.596 114.302H303.505C311.373 85.3012 304.212 54.2896 284.426 31.6728C264.64 9.05591 234.852 -2.16672 205.063 1.77794C175.274 5.7226 149.431 24.3066 136.212 51.2939C118.013 46.4921 98.6109 50.4038 83.6968 61.8864C68.7789 73.3688 60.0364 91.122 60.0251 109.948V114.358C38.675 114.618 19.0914 126.251 8.64139 144.872C-1.80487 163.488 -1.52264 186.267 9.37759 204.625C20.2778 222.983 40.1435 234.127 61.4936 233.868H107.911C109.046 231.557 110.592 229.473 112.478 227.722L117.309 223.363H61.6515C44.0454 223.363 27.7792 213.972 18.9738 198.725C10.1724 183.477 10.1724 164.695 18.9738 149.447C27.7788 134.199 44.0445 124.809 61.6515 124.809H66.1162C67.6766 124.831 69.1672 124.157 70.1818 122.97C71.1963 121.78 71.6322 120.205 71.3648 118.663C68.2808 101.119 74.7271 83.2518 88.3005 71.7188C101.878 60.1811 120.551 56.709 137.369 62.5841C139.973 63.4998 142.845 62.2361 143.933 59.6979C154.994 34.3741 178.446 16.6396 205.824 12.889C233.203 9.13842 260.559 19.914 278.027 41.3295C295.494 62.7415 300.549 91.7062 291.373 117.773C290.791 119.381 291.029 121.172 292.014 122.571C292.996 123.974 294.6 124.805 296.31 124.809H309.595C327.197 124.809 343.467 134.2 352.269 149.447C361.074 164.695 361.074 183.477 352.269 198.725C343.467 213.973 327.198 223.363 309.595 223.363H271.947C270.24 227.011 268.255 230.52 266.013 233.868H309.595C330.951 233.868 350.686 222.473 361.363 203.977C372.043 185.48 372.043 162.691 361.363 144.194C350.686 125.698 330.953 114.302 309.596 114.302ZM195.495 185.926C197.487 186.783 199.806 186.322 201.322 184.769L252.621 132.839C254.621 130.799 254.621 127.528 252.621 125.488L201.322 73.032C199.824 71.5266 197.568 71.0651 195.605 71.8709C193.638 72.6767 192.352 74.5849 192.341 76.7093V106.326C148.814 109.263 112.059 143.08 112.059 180.938C112.063 184.999 112.502 189.047 113.37 193.013C113.37 195.914 115.722 198.266 118.623 198.266C121.52 198.266 123.871 195.914 123.871 193.013C129.124 167.913 155.953 151.006 192.448 149.223V181.095C192.422 183.164 193.616 185.054 195.495 185.926ZM124.241 168.074C131.699 139.824 162.729 116.984 197.751 116.562C199.143 116.562 200.479 116.009 201.465 115.024C202.45 114.039 203.003 112.705 203.003 111.31V89.5717L241.702 129.11L203.003 168.282V143.811C203.003 142.42 202.45 141.083 201.465 140.101C200.479 139.116 199.142 138.563 197.751 138.563C165.039 138.878 138.731 149.958 124.241 168.074ZM256.983 175.217C254.463 175.162 252.262 176.898 251.731 179.363C246.479 204.463 219.65 221.37 183.155 223.153L183.158 191.332C183.147 189.211 181.862 187.299 179.895 186.497C177.928 185.691 175.672 186.149 174.178 187.658L122.878 239.587C120.875 241.631 120.875 244.898 122.878 246.938L174.178 299.446C175.672 300.955 177.928 301.413 179.895 300.607C181.862 299.805 183.147 297.893 183.158 295.773V266.05C226.426 263.058 263.338 229.296 263.338 191.439C263.331 187.377 262.891 183.329 262.023 179.363C261.518 176.993 259.456 175.282 257.035 175.213L256.983 175.217ZM178.221 255.762C175.321 255.762 172.969 258.11 172.969 261.01V282.799L134.115 243.265L172.814 204.093V228.563C172.822 229.966 173.386 231.307 174.386 232.288C175.378 233.274 176.719 233.819 178.114 233.812C210.459 233.446 236.819 222.418 251.309 204.251C243.855 232.553 212.77 255.393 178.011 255.763L178.221 255.762Z" fill="#A5CEE4"/>
<path d="M217.234 22.9879V20.3617H216.934V22.9879H217.234ZM223.754 20.6767H224.054V20.4174L223.798 20.3799L223.754 20.6767ZM223.754 23.3028L223.728 23.6017L224.054 23.6299V23.3028H223.754ZM154.808 64.2591L154.534 64.1374L154.531 64.1434L154.808 64.2591ZM155.647 62.3692L155.921 62.4909L156.042 62.2196L155.772 62.0963L155.647 62.3692ZM153.233 61.2667L153.358 60.9938L153.079 60.8666L152.958 61.1477L153.233 61.2667ZM152.395 63.2079L152.119 63.0889L152.118 63.092L152.395 63.2079ZM145.619 70.5075L145.483 70.2401L145.214 70.3764L145.351 70.6442L145.619 70.5075ZM146.827 72.8699L146.56 73.0066L146.697 73.2733L146.964 73.1372L146.827 72.8699ZM166.939 45.1471L166.736 45.368L166.823 45.4476L166.94 45.4471L166.939 45.1471ZM164.998 43.3635L165.201 43.1426L164.981 42.9398L164.778 43.1602L164.998 43.3635ZM157.014 53.8641L156.759 53.7058L156.599 53.9636L156.858 54.1207L157.014 53.8641ZM159.27 55.2303L159.114 55.4869L159.367 55.6401L159.524 55.3893L159.27 55.2303ZM166.991 45.147L167.211 45.351L167.681 44.8445L166.99 44.847L166.991 45.147ZM138.323 74.6575L138.314 74.9574L138.623 74.9664V74.6575H138.323ZM138.323 72.0314H138.623V71.7402L138.332 71.7315L138.323 72.0314ZM134.015 71.2439L133.915 71.5269L133.917 71.5275L134.015 71.2439ZM125.613 69.2478L125.651 68.9502L125.351 68.9118L125.315 69.212L125.613 69.2478ZM125.298 71.8739L125 71.8382L124.965 72.1348L125.261 72.1716L125.298 71.8739ZM133.176 73.7125L133.078 73.9958L133.078 73.9959L133.176 73.7125ZM81.1921 127.165L81.0377 127.423L81.3166 127.59L81.4609 127.299L81.1921 127.165ZM82.9757 119.551L82.6769 119.524L82.6757 119.537V119.551H82.9757ZM82.9757 116.61H82.6757V116.623L82.6769 116.637L82.9757 116.61ZM82.5545 113.566L82.8528 113.534L82.8243 113.266H82.5545V113.566ZM79.9284 113.566V113.266H79.6284V113.566H79.9284ZM80.3496 116.822L80.6485 116.797L80.6464 116.771L80.6399 116.747L80.3496 116.822ZM80.3533 119.287L80.0543 119.262L80.0533 119.274L80.0533 119.287L80.3533 119.287ZM78.8296 125.748L78.5611 125.614L78.4374 125.863L78.6753 126.005L78.8296 125.748ZM24.1685 173.898L24.4685 173.898L24.4685 173.897L24.1685 173.898ZM25.8497 162.767L26.1362 162.856L26.2248 162.57L25.9391 162.48L25.8497 162.767ZM23.3297 161.979L23.4192 161.693L23.1321 161.603L23.0432 161.891L23.3297 161.979ZM21.5424 173.898H21.8424L21.8424 173.897L21.5424 173.898ZM21.5424 175.421H21.2424V175.721H21.5424V175.421ZM24.1686 175.421V175.721H24.4298L24.4657 175.463L24.1686 175.421ZM36.7713 145.911L37.0565 145.818L37.037 145.758L36.9951 145.711L36.7713 145.911ZM35.0388 143.97L35.2626 143.77L35.0644 143.548L34.8408 143.744L35.0388 143.97ZM26.5305 154.467L26.2689 154.32L26.12 154.585L26.3869 154.73L26.5305 154.467ZM28.8416 155.727L28.698 155.99L28.9554 156.13L29.1016 155.876L28.8416 155.727ZM36.8225 146.068L37.0187 146.295L37.1695 146.164L37.1077 145.975L36.8225 146.068ZM117.947 71.6646L117.97 71.9637L118.247 71.9423V71.6646H117.947ZM117.947 69.0384H118.247V68.7164L117.925 68.7392L117.947 69.0384ZM104.768 72.2396L104.65 71.964L104.373 72.0831L104.493 72.3594L104.768 72.2396ZM105.819 74.6533L105.544 74.7731L105.664 75.0471L105.938 74.9288L105.819 74.6533ZM54.8865 137.142L54.9401 137.437L55.2492 137.381L55.179 137.075L54.8865 137.142ZM54.3078 134.618L54.6002 134.551L54.5361 134.272L54.2537 134.323L54.3078 134.618ZM41.6019 139.292L41.452 139.032L41.1912 139.182L41.3425 139.443L41.6019 139.292ZM42.9131 141.548L42.6537 141.699L42.8043 141.958L43.0636 141.808L42.9131 141.548ZM85.8137 93.7179L86.0866 93.8426L86.2102 93.5719L85.9406 93.4461L85.8137 93.7179ZM83.4513 92.6154L83.5782 92.3436L83.3047 92.216L83.1787 92.4902L83.4513 92.6154ZM79.9315 105.636L79.6329 105.607L79.6039 105.905L79.9015 105.935L79.9315 105.636ZM82.5576 105.9L82.5277 106.199L82.8279 106.229L82.8563 105.928L82.5576 105.9ZM22.8014 183.717L22.7125 183.43L22.4451 183.513L22.5094 183.785L22.8014 183.717ZM28.0537 196.107L27.8011 196.269L27.9659 196.526L28.22 196.357L28.0537 196.107ZM30.2586 194.639L30.4249 194.888L30.6767 194.721L30.5069 194.47L30.2586 194.639ZM25.01 183.032L25.3005 182.957L25.2218 182.652L24.9211 182.745L25.01 183.032ZM284.45 90.4099L284.75 90.4099L284.75 90.4092L284.45 90.4099ZM284.45 94.3473H284.15V94.6473H284.45V94.3473ZM287.076 94.3473V94.6473H287.376V94.3473H287.076ZM287.076 90.2524L287.376 90.2524L287.376 90.2517L287.076 90.2524ZM286.443 80.9565L286.74 80.9166L286.7 80.6178L286.401 80.6594L286.443 80.9565ZM283.817 81.3228L283.775 81.0257L283.479 81.067L283.519 81.3633L283.817 81.3228ZM309.181 133.992L309.48 134.003L309.493 133.692L309.181 133.692L309.181 133.992ZM295.844 133.988L295.845 133.688L295.544 133.688V133.988H295.844ZM295.844 136.614H295.544V136.914H295.844V136.614ZM309.077 136.614V136.914H309.366L309.377 136.626L309.077 136.614ZM280.092 113.667L279.811 113.563L279.807 113.572L280.092 113.667ZM279.777 114.612L279.493 114.517L279.396 114.807L279.688 114.898L279.777 114.612ZM282.297 115.4L282.208 115.686L282.488 115.774L282.581 115.495L282.297 115.4ZM282.561 114.612L282.279 114.508L282.276 114.517L282.561 114.612ZM285.813 102.536L286.109 102.588L286.16 102.295L285.867 102.241L285.813 102.536ZM283.242 102.064L283.296 101.769L282.999 101.714L282.947 102.012L283.242 102.064ZM329.714 139.555L329.985 139.684L330.103 139.436L329.867 139.297L329.714 139.555ZM317.004 134.724L317.061 134.429L316.727 134.364L316.705 134.704L317.004 134.724ZM316.847 137.141L316.547 137.121L316.53 137.385L316.79 137.435L316.847 137.141ZM328.714 141.653L328.561 141.911L328.843 142.079L328.984 141.782L328.714 141.653ZM344.68 155.308L344.834 155.565L345.083 155.416L344.942 155.162L344.68 155.308ZM336.274 144.807L336.473 144.583L336.253 144.387L336.053 144.604L336.274 144.807ZM334.49 146.748L334.269 146.545L334.065 146.768L334.289 146.971L334.49 146.748ZM342.314 156.726L342.05 156.869L342.199 157.144L342.468 156.983L342.314 156.726ZM202.168 24.6194L202.231 24.9126L202.556 24.8424L202.453 24.5264L202.168 24.6194ZM201.329 22.0445L201.614 21.9516L201.529 21.6916L201.263 21.7519L201.329 22.0445ZM188.568 26.2456L188.448 25.9709L188.174 26.0912L188.293 26.3654L188.568 26.2456ZM189.62 28.6593L189.345 28.7791L189.464 29.0538L189.739 28.9345L189.62 28.6593ZM182.95 32.1278L183.101 32.3866L183.359 32.2355L183.209 31.9771L182.95 32.1278ZM181.638 29.8716L181.898 29.7209L181.747 29.461L181.487 29.6126L181.638 29.8716ZM170.767 37.6915L170.57 37.4658L170.345 37.6626L170.541 37.8881L170.767 37.6915ZM172.5 39.6876L172.273 39.8843L172.471 40.1125L172.698 39.9127L172.5 39.6876ZM244.384 25.9306L244.661 26.045L244.774 25.7707L244.501 25.6545L244.384 25.9306ZM231.627 21.887L231.69 21.5937L231.394 21.53L231.333 21.8271L231.627 21.887ZM231.104 24.4582L230.81 24.3983L230.75 24.6899L231.041 24.7516L231.104 24.4582ZM243.388 28.3442L243.27 28.6203L243.549 28.7389L243.665 28.4587L243.388 28.3442ZM262.606 37.3763L262.829 37.5765L263.034 37.3479L262.801 37.1484L262.606 37.3763ZM251.633 29.6591L251.781 29.3985L251.523 29.2511L251.373 29.5083L251.633 29.6591ZM250.322 31.9152L250.062 31.7645L249.911 32.025L250.172 32.1752L250.322 31.9152ZM260.819 39.3724L260.622 39.5994L260.845 39.7921L261.042 39.5725L260.819 39.3724ZM284.923 73.2927L284.996 73.5837L285.288 73.5107L285.214 73.219L284.923 73.2927ZM280.407 60.6899L280.678 60.5619L280.551 60.2917L280.28 60.418L280.407 60.6899ZM278.044 61.7923L277.918 61.5205L277.644 61.6479L277.773 61.9204L278.044 61.7923ZM282.403 73.9236L282.112 73.9973L282.186 74.2872L282.476 74.2146L282.403 73.9236ZM276.521 53.6022L276.707 53.8376L276.919 53.6699L276.774 53.4416L276.521 53.6022ZM268.382 43.1016L268.601 42.8962L268.398 42.6799L268.179 42.8807L268.382 43.1016ZM266.441 44.8853L266.238 44.6644L266.019 44.8661L266.219 45.0869L266.441 44.8853ZM274.265 55.3859L274.008 55.5412L274.184 55.8322L274.451 55.6213L274.265 55.3859ZM98.9408 78.3325L99.1124 78.5786L99.3559 78.4088L99.1886 78.1635L98.9408 78.3325ZM97.4721 76.1789L97.7199 76.0098L97.5496 75.7601L97.3012 75.9323L97.4721 76.1789ZM87.7554 85.6321L87.5136 85.4545L87.3379 85.6938L87.5753 85.872L87.7554 85.6321ZM89.8541 87.207L89.674 87.447L89.9167 87.6291L90.0961 87.3844L89.8541 87.207ZM287.969 134.305L287.819 134.565L288.078 134.715L288.229 134.456L287.969 134.305ZM289.281 132.049L289.54 132.2L289.691 131.94L289.431 131.789L289.281 132.049ZM282.402 122.544L282.696 122.482L282.634 122.191L282.342 122.25L282.402 122.544ZM279.831 123.068L279.771 122.774L279.475 122.834L279.537 123.13L279.831 123.068ZM309.814 211.543L309.819 211.843L309.814 211.243V211.543ZM305.561 211.543V211.243H305.261V211.543H305.561ZM305.561 214.169H305.261V214.469H305.561V214.169ZM318.945 213.122L319.013 213.414L319.329 213.34L319.23 213.031L318.945 213.122ZM318.157 210.653L318.443 210.562L318.36 210.301L318.092 210.36L318.157 210.653ZM309.601 211.547L309.596 211.247L309.598 211.847L309.601 211.547ZM284.505 214.169L284.206 214.194L284.228 214.469H284.505V214.169ZM297.683 214.169V214.469H297.983V214.169H297.683ZM297.683 211.543H297.983V211.243L297.683 211.243L297.683 211.543ZM284.293 211.547L284.293 211.247L283.968 211.247L283.994 211.571L284.293 211.547ZM325.567 208.078L325.839 207.952L325.777 207.82L325.636 207.787L325.567 208.078ZM326.669 210.441L326.397 210.568L326.524 210.839L326.796 210.713L326.669 210.441ZM337.848 202.724L338.058 202.938L338.272 202.729L338.063 202.514L337.848 202.724ZM336.009 200.834L336.224 200.624L336.016 200.411L335.801 200.617L336.009 200.834ZM325.351 208.027L325.228 207.753L324.422 208.115L325.282 208.319L325.351 208.027ZM348.199 162.607L348.283 162.895L349.366 162.578L348.269 162.315L348.199 162.607ZM345.679 163.343L345.595 163.055L345.304 163.14L345.392 163.429L345.679 163.343ZM347.25 173.843H347.55L347.55 173.841L347.25 173.843ZM347.25 175.682H346.95V175.982H347.25V175.682ZM349.876 175.682V175.982H350.176V175.682H349.876ZM349.876 173.741H350.176L350.176 173.733L349.876 173.741ZM347.983 162.555L348.053 162.263L347.534 162.139L347.697 162.646L347.983 162.555ZM340.687 194.9L340.438 194.733L340.272 194.98L340.518 195.148L340.687 194.9ZM342.84 196.369L342.671 196.616L342.921 196.787L343.089 196.536L342.84 196.369ZM348.353 184.084L348.643 184.159L348.719 183.867L348.425 183.793L348.353 184.084ZM345.833 183.454L345.905 183.163L345.617 183.091L345.542 183.379L345.833 183.454ZM73.4213 214.066L73.1213 214.067L73.1217 214.366H73.4213V214.066ZM86.5998 214.066V214.366H86.8998V214.066H86.5998ZM86.5998 211.44H86.8998V211.14H86.5998V211.44ZM73.4175 211.44V211.14H73.1171L73.1175 211.44L73.4175 211.44ZM33.3043 202.408L33.0859 202.202L32.886 202.414L33.0924 202.62L33.3043 202.408ZM44.3797 210.231L44.2505 210.502L44.5188 210.63L44.6493 210.363L44.3797 210.231ZM45.5335 207.869L45.803 208L45.9371 207.726L45.6601 207.597L45.5335 207.869ZM35.0365 200.569L35.2473 200.356L35.0288 200.14L34.8181 200.363L35.0365 200.569ZM94.4741 211.491L94.4741 211.191L94.1741 211.191V211.491H94.4741ZM94.4741 214.117H94.1741V214.417H94.4741V214.117ZM107.653 214.117V214.417H107.953V214.117H107.653ZM107.653 212.806H107.953V212.627L107.795 212.542L107.653 212.806ZM105.503 211.491L105.673 211.244L105.596 211.191L105.503 211.191L105.503 211.491ZM52.4669 210.44L52.6552 210.206L52.2878 209.91L52.1755 210.368L52.4669 210.44ZM51.8369 213.011L51.5455 212.94L51.4741 213.231L51.7656 213.302L51.8369 213.011ZM61.3924 214.172L61.392 214.472H61.3924V214.172ZM65.2272 214.172V214.472H65.5272V214.172H65.2272ZM65.2272 211.546H65.5272V211.246H65.2272V211.546ZM61.6561 211.546V211.246L61.6502 211.246L61.6561 211.546ZM52.7302 210.652L52.5418 210.886L52.5965 210.93L52.665 210.945L52.7302 210.652ZM74.0983 131.414L74.3461 131.245L74.1756 130.995L73.9271 131.168L74.0983 131.414ZM65.8572 133.989L65.858 133.689H65.8572V133.989ZM62.2348 133.989V133.689H61.9348V133.989H62.2348ZM62.2348 136.615H61.9348V136.915H62.2348V136.615ZM75.5703 133.572L75.7415 133.818L75.9857 133.648L75.8181 133.403L75.5703 133.572ZM210.41 20.6744L210.367 20.3774L210.11 20.4142V20.6744H210.41ZM210.41 23.3005H210.11V23.6295L210.437 23.5992L210.41 23.3005ZM105.5 211.545V211.245H104.534L105.33 211.792L105.5 211.545ZM107.65 212.856L107.507 213.12L107.95 213.359V212.856H107.65ZM107.65 211.545H107.95V211.245H107.65V211.545ZM303.505 114.302L303.216 114.224L303.113 114.602H303.505V114.302ZM284.426 31.6728L284.652 31.4752L284.652 31.4752L284.426 31.6728ZM136.212 51.2939L136.136 51.5839L136.373 51.6467L136.482 51.4258L136.212 51.2939ZM83.6968 61.8864L83.8798 62.1241L83.8798 62.1241L83.6968 61.8864ZM60.0251 109.948L59.7251 109.948V109.948H60.0251ZM60.0251 114.358L60.0288 114.658L60.3251 114.654V114.358H60.0251ZM8.64139 144.872L8.37978 144.725L8.37977 144.725L8.64139 144.872ZM61.4936 233.868V233.568L61.4899 233.568L61.4936 233.868ZM107.911 233.868V234.168H108.097L108.18 234L107.911 233.868ZM112.478 227.722L112.277 227.499L112.274 227.502L112.478 227.722ZM117.309 223.363L117.51 223.586L118.089 223.063H117.309V223.363ZM18.9738 198.725L18.714 198.875L18.714 198.875L18.9738 198.725ZM18.9738 149.447L18.714 149.297L18.714 149.297L18.9738 149.447ZM66.1162 124.809L66.1205 124.509H66.1162V124.809ZM70.1818 122.97L70.4098 123.165L70.4101 123.165L70.1818 122.97ZM71.3648 118.663L71.6604 118.611L71.6603 118.611L71.3648 118.663ZM88.3005 71.7188L88.4947 71.9474L88.4948 71.9474L88.3005 71.7188ZM137.369 62.5841L137.469 62.3011L137.468 62.3009L137.369 62.5841ZM143.933 59.6979L143.658 59.5779L143.657 59.5798L143.933 59.6979ZM278.027 41.3295L277.794 41.5191L277.794 41.5192L278.027 41.3295ZM291.373 117.773L291.655 117.875L291.656 117.872L291.373 117.773ZM292.014 122.571L292.26 122.399L292.259 122.398L292.014 122.571ZM296.31 124.809L296.31 125.109H296.31V124.809ZM352.269 149.447L352.009 149.597L352.009 149.597L352.269 149.447ZM352.269 198.725L352.009 198.575L352.009 198.575L352.269 198.725ZM271.947 223.363V223.063H271.756L271.675 223.236L271.947 223.363ZM266.013 233.868L265.764 233.701L265.451 234.168H266.013V233.868ZM361.363 203.977L361.103 203.827L361.103 203.827L361.363 203.977ZM361.363 144.194L361.103 144.344L361.103 144.344L361.363 144.194ZM195.495 185.926L195.368 186.198L195.376 186.202L195.495 185.926ZM201.322 184.769L201.109 184.558L201.107 184.559L201.322 184.769ZM252.621 132.839L252.835 133.05L252.836 133.049L252.621 132.839ZM252.621 125.488L252.407 125.698L252.407 125.698L252.621 125.488ZM201.322 73.032L201.536 72.8222L201.535 72.8203L201.322 73.032ZM195.605 71.8709L195.718 72.1485L195.718 72.1484L195.605 71.8709ZM192.341 76.7093L192.041 76.7077V76.7093H192.341ZM192.341 106.326L192.361 106.625L192.641 106.606V106.326H192.341ZM112.059 180.938L111.759 180.938L111.759 180.938L112.059 180.938ZM113.37 193.013H113.67V192.981L113.664 192.949L113.37 193.013ZM123.871 193.013L123.578 192.952L123.571 192.982V193.013H123.871ZM192.448 149.223H192.748V148.908L192.433 148.923L192.448 149.223ZM192.448 181.095L192.748 181.099V181.095H192.448ZM124.241 168.074L123.951 167.998L124.476 168.262L124.241 168.074ZM197.751 116.562V116.262L197.747 116.262L197.751 116.562ZM201.465 115.024L201.252 114.812L201.252 114.812L201.465 115.024ZM203.003 89.5717L203.217 89.3618L202.703 88.8363V89.5717H203.003ZM241.702 129.11L241.916 129.321L242.123 129.111L241.917 128.9L241.702 129.11ZM203.003 168.282H202.703V169.013L203.216 168.493L203.003 168.282ZM201.465 140.101L201.252 140.313L201.253 140.314L201.465 140.101ZM197.751 138.563V138.263L197.748 138.263L197.751 138.563ZM256.983 175.217L256.977 175.516L256.991 175.517L257.005 175.516L256.983 175.217ZM251.731 179.363L251.438 179.299L251.437 179.301L251.731 179.363ZM183.155 223.153L182.855 223.153L182.855 223.468L183.169 223.453L183.155 223.153ZM183.158 191.332L183.458 191.332L183.458 191.33L183.158 191.332ZM179.895 186.497L179.781 186.775L179.782 186.775L179.895 186.497ZM174.178 187.658L173.964 187.447L173.964 187.447L174.178 187.658ZM122.878 239.587L122.665 239.377L122.664 239.377L122.878 239.587ZM122.878 246.938L123.093 246.729L123.092 246.728L122.878 246.938ZM174.178 299.446L173.963 299.656L173.964 299.657L174.178 299.446ZM179.895 300.607L179.782 300.33L179.781 300.33L179.895 300.607ZM183.158 295.773L183.458 295.774V295.773H183.158ZM183.158 266.05L183.138 265.751L182.858 265.77V266.05H183.158ZM263.338 191.439L263.638 191.439L263.638 191.438L263.338 191.439ZM262.023 179.363L261.73 179.425L261.73 179.427L262.023 179.363ZM257.035 175.213L257.043 174.913L257.028 174.913L257.013 174.914L257.035 175.213ZM178.221 255.762L178.223 256.062L178.221 255.462V255.762ZM172.969 282.799L172.755 283.01L173.269 283.533V282.799H172.969ZM134.115 243.265L133.902 243.054L133.694 243.264L133.901 243.475L134.115 243.265ZM172.814 204.093H173.114V203.362L172.601 203.882L172.814 204.093ZM172.814 228.563H172.514L172.514 228.565L172.814 228.563ZM174.386 232.288L174.597 232.075L174.596 232.074L174.386 232.288ZM178.114 233.812L178.116 234.112L178.118 234.112L178.114 233.812ZM251.309 204.251L251.599 204.327L251.074 204.064L251.309 204.251ZM178.011 255.763L178.008 255.463L178.013 256.063L178.011 255.763ZM217.084 20.6617C219.345 20.6617 221.582 20.6623 223.711 20.9735L223.798 20.3799C221.619 20.0612 219.336 20.0617 217.084 20.0617V20.6617ZM223.454 20.6767V23.3028H224.054V20.6767H223.454ZM223.78 23.004C221.356 22.7946 219.194 22.6879 217.084 22.6879V23.2879C219.173 23.2879 221.318 23.3935 223.728 23.6017L223.78 23.004ZM155.082 64.3808L155.921 62.4909L155.373 62.2475L154.534 64.1374L155.082 64.3808ZM155.772 62.0963L153.358 60.9938L153.109 61.5396L155.522 62.6421L155.772 62.0963ZM152.958 61.1477L152.119 63.0889L152.67 63.3269L153.509 61.3857L152.958 61.1477ZM152.118 63.092C150.823 66.1839 148.474 68.7195 145.483 70.2401L145.755 70.775C148.873 69.1897 151.322 66.5464 152.671 63.3238L152.118 63.092ZM145.351 70.6442L146.56 73.0066L147.094 72.7333L145.886 70.3709L145.351 70.6442ZM146.964 73.1372C150.624 71.2699 153.501 68.1653 155.085 64.3748L154.531 64.1434C153.002 67.8028 150.224 70.8 146.691 72.6027L146.964 73.1372ZM167.142 44.9262L165.201 43.1426L164.795 43.5844L166.736 45.368L167.142 44.9262ZM164.778 43.1602C161.78 46.4155 159.095 49.9467 156.759 53.7058L157.268 54.0225C159.584 50.2954 162.247 46.7943 165.219 43.5667L164.778 43.1602ZM156.858 54.1207L159.114 55.4869L159.425 54.9736L157.169 53.6075L156.858 54.1207ZM159.524 55.3893C161.763 51.8087 164.337 48.4468 167.211 45.351L166.771 44.9429C163.872 48.0664 161.274 51.4584 159.015 55.0712L159.524 55.3893ZM166.99 44.847L166.938 44.8471L166.94 45.4471L166.992 45.447L166.99 44.847ZM138.623 74.6575V72.0314H138.023V74.6575H138.623ZM138.332 71.7315C136.893 71.6885 135.472 71.4302 134.113 70.9604L133.917 71.5275C135.334 72.0173 136.815 72.2864 138.314 72.3313L138.332 71.7315ZM134.115 70.961C131.374 69.9944 128.537 69.3191 125.651 68.9502L125.575 69.5454C128.418 69.9089 131.214 70.5743 133.915 71.5269L134.115 70.961ZM125.315 69.212L125 71.8382L125.596 71.9096L125.911 69.2835L125.315 69.212ZM125.261 72.1716C127.925 72.5023 130.545 73.1128 133.078 73.9958L133.275 73.4293C130.702 72.5322 128.041 71.9121 125.335 71.5762L125.261 72.1716ZM133.078 73.9959C134.762 74.581 136.529 74.9053 138.314 74.9574L138.331 74.3577C136.607 74.3073 134.901 73.9941 133.275 73.4292L133.078 73.9959ZM81.4609 127.299C82.6534 124.891 83.2757 122.238 83.2757 119.551H82.6757C82.6757 122.145 82.0748 124.708 80.9232 127.032L81.4609 127.299ZM83.2745 119.578C83.364 118.582 83.364 117.579 83.2745 116.583L82.6769 116.637C82.7632 117.597 82.7632 118.564 82.6769 119.524L83.2745 119.578ZM83.2757 116.61C83.2757 116.083 83.1926 115.549 83.1002 115.035C83.0063 114.512 82.9044 114.018 82.8528 113.534L82.2562 113.598C82.3108 114.11 82.4196 114.64 82.5097 115.141C82.6014 115.651 82.6757 116.14 82.6757 116.61H83.2757ZM82.5545 113.266H79.9284V113.866H82.5545V113.266ZM79.6284 113.566C79.6284 114.676 79.7709 115.789 80.0593 116.898L80.6399 116.747C80.3642 115.687 80.2284 114.624 80.2284 113.566H79.6284ZM80.0507 116.848C80.1189 117.652 80.1224 118.459 80.0543 119.262L80.6522 119.312C80.7233 118.474 80.7195 117.633 80.6485 116.797L80.0507 116.848ZM80.0533 119.287C80.0497 121.482 79.5403 123.649 78.5611 125.614L79.0981 125.882C80.1187 123.833 80.6495 121.575 80.6533 119.288L80.0533 119.287ZM78.6753 126.005L81.0377 127.423L81.3464 126.908L78.9839 125.491L78.6753 126.005ZM24.4685 173.897C24.4648 170.151 25.028 166.431 26.1362 162.856L25.5631 162.678C24.437 166.311 23.8648 170.091 23.8685 173.898L24.4685 173.897ZM25.9391 162.48L23.4192 161.693L23.2403 162.266L25.7602 163.053L25.9391 162.48ZM23.0432 161.891C21.8402 165.776 21.2349 169.828 21.2424 173.898L21.8424 173.897C21.8351 169.887 22.4313 165.896 23.6163 162.068L23.0432 161.891ZM21.2424 173.898V175.421H21.8424V173.898H21.2424ZM21.5424 175.721H24.1686V175.121H21.5424V175.721ZM24.4657 175.463C24.4951 175.251 24.4941 175.018 24.4876 174.768C24.481 174.512 24.4685 174.233 24.4685 173.898H23.8685C23.8685 174.243 23.8816 174.541 23.8878 174.784C23.8943 175.033 23.8933 175.222 23.8714 175.38L24.4657 175.463ZM36.9951 145.711L35.2626 143.77L34.815 144.169L36.5475 146.111L36.9951 145.711ZM34.8408 143.744C31.4055 146.763 28.5088 150.335 26.2689 154.32L26.792 154.614C28.9986 150.688 31.8523 147.169 35.2368 144.195L34.8408 143.744ZM26.3869 154.73L28.698 155.99L28.9852 155.463L26.6741 154.203L26.3869 154.73ZM29.1016 155.876C31.1834 152.258 33.8611 149.024 37.0187 146.295L36.6263 145.841C33.4183 148.614 30.6972 151.9 28.5815 155.577L29.1016 155.876ZM37.1077 145.975L37.0565 145.818L36.4861 146.004L36.5373 146.161L37.1077 145.975ZM118.247 71.6646V69.0384H117.647V71.6646H118.247ZM117.925 68.7392C113.35 69.0639 108.864 70.1523 104.65 71.964L104.887 72.5152C109.039 70.7302 113.46 69.6576 117.968 69.3377L117.925 68.7392ZM104.493 72.3594L105.544 74.7731L106.094 74.5335L105.043 72.1199L104.493 72.3594ZM105.938 74.9288C109.757 73.2828 113.823 72.2834 117.97 71.9637L117.924 71.3655C113.711 71.6903 109.581 72.7055 105.701 74.3778L105.938 74.9288ZM55.179 137.075L54.6002 134.551L54.0154 134.685L54.5941 137.209L55.179 137.075ZM54.2537 134.323C49.7478 135.15 45.4191 136.744 41.452 139.032L41.7517 139.552C45.6597 137.298 49.9237 135.728 54.362 134.914L54.2537 134.323ZM41.3425 139.443L42.6537 141.699L43.1724 141.397L41.8612 139.141L41.3425 139.443ZM43.0636 141.808C46.7402 139.675 50.7581 138.196 54.9401 137.437L54.833 136.847C50.5826 137.618 46.4991 139.121 42.7625 141.289L43.0636 141.808ZM85.9406 93.4461L83.5782 92.3436L83.3244 92.8873L85.6868 93.9898L85.9406 93.4461ZM83.1787 92.4902C81.2749 96.6337 80.0757 101.069 79.6329 105.607L80.2301 105.666C80.6664 101.194 81.848 96.8235 83.7239 92.7407L83.1787 92.4902ZM79.9015 105.935L82.5277 106.199L82.5876 105.602L79.9615 105.338L79.9015 105.935ZM82.8563 105.928C83.2524 101.746 84.3425 97.6613 86.0866 93.8426L85.5408 93.5933C83.7688 97.4732 82.6613 101.623 82.259 105.872L82.8563 105.928ZM22.5094 183.785C23.5537 188.214 25.3435 192.435 27.8011 196.269L28.3062 195.946C25.8852 192.168 24.1221 188.01 23.0934 183.648L22.5094 183.785ZM28.22 196.357L30.4249 194.888L30.0923 194.389L27.8874 195.858L28.22 196.357ZM30.5069 194.47C28.1234 190.957 26.3614 187.066 25.3005 182.957L24.7195 183.107C25.7977 187.283 27.5884 191.237 30.0104 194.807L30.5069 194.47ZM24.9211 182.745L22.7125 183.43L22.8902 184.003L25.0988 183.318L24.9211 182.745ZM284.15 90.4099V94.3473H284.75V90.4099H284.15ZM284.45 94.6473H287.076V94.0473H284.45V94.6473ZM287.376 94.3473V90.2524H286.776V94.3473H287.376ZM287.376 90.2517C287.369 87.1289 287.156 84.0099 286.74 80.9166L286.145 80.9965C286.558 84.0639 286.769 87.1567 286.776 90.2531L287.376 90.2517ZM286.401 80.6594L283.775 81.0257L283.858 81.6199L286.484 81.2536L286.401 80.6594ZM283.519 81.3633C283.928 84.3612 284.143 87.3844 284.15 90.4107L284.75 90.4092C284.743 87.3555 284.526 84.3057 284.114 81.2823L283.519 81.3633ZM309.181 133.692L295.845 133.688L295.844 134.288L309.18 134.292L309.181 133.692ZM295.544 133.988V136.614H296.144V133.988H295.544ZM295.844 136.914H309.077V136.314H295.844V136.914ZM309.377 136.626L309.48 134.003L308.881 133.98L308.778 136.602L309.377 136.626ZM279.807 113.572L279.493 114.517L280.062 114.707L280.377 113.762L279.807 113.572ZM279.688 114.898L282.208 115.686L282.387 115.113L279.867 114.326L279.688 114.898ZM282.581 115.495L282.845 114.707L282.276 114.517L282.013 115.304L282.581 115.495ZM282.842 114.716C284.295 110.78 285.388 106.723 286.109 102.588L285.518 102.485C284.803 106.584 283.72 110.606 282.279 114.508L282.842 114.716ZM285.867 102.241L283.296 101.769L283.188 102.359L285.759 102.831L285.867 102.241ZM282.947 102.012C282.25 105.949 281.2 109.815 279.811 113.563L280.373 113.771C281.775 109.989 282.835 106.09 283.537 102.116L282.947 102.012ZM329.867 139.297C325.911 136.949 321.578 135.304 317.061 134.429L316.947 135.018C321.397 135.879 325.664 137.501 329.561 139.813L329.867 139.297ZM316.705 134.704L316.547 137.121L317.146 137.16L317.304 134.743L316.705 134.704ZM316.79 137.435C320.942 138.238 324.924 139.757 328.561 141.911L328.867 141.395C325.171 139.206 321.124 137.662 316.904 136.846L316.79 137.435ZM328.984 141.782L329.985 139.684L329.443 139.425L328.443 141.524L328.984 141.782ZM344.942 155.162C342.735 151.184 339.868 147.609 336.473 144.583L336.074 145.031C339.419 148.012 342.244 151.535 344.417 155.453L344.942 155.162ZM336.053 144.604L334.269 146.545L334.711 146.951L336.495 145.01L336.053 144.604ZM334.289 146.971C337.417 149.808 340.04 153.155 342.05 156.869L342.578 156.583C340.536 152.81 337.87 149.41 334.692 146.526L334.289 146.971ZM342.468 156.983L344.834 155.565L344.525 155.051L342.16 156.469L342.468 156.983ZM202.453 24.5264L201.614 21.9516L201.044 22.1374L201.882 24.7123L202.453 24.5264ZM201.263 21.7519C196.867 22.745 192.574 24.1575 188.448 25.9709L188.689 26.5203C192.781 24.7223 197.037 23.3218 201.395 22.3371L201.263 21.7519ZM188.293 26.3654L189.345 28.7791L189.895 28.5395L188.843 26.1258L188.293 26.3654ZM189.739 28.9345C193.761 27.1878 197.947 25.8387 202.231 24.9126L202.104 24.3261C197.781 25.2607 193.558 26.6219 189.5 28.3841L189.739 28.9345ZM183.209 31.9771L181.898 29.7209L181.379 30.0224L182.69 32.2785L183.209 31.9771ZM181.487 29.6126C177.607 31.8783 173.951 34.5046 170.57 37.4658L170.965 37.9171C174.317 34.9814 177.942 32.3773 181.79 30.1307L181.487 29.6126ZM170.541 37.8881L172.273 39.8843L172.726 39.491L170.994 37.4948L170.541 37.8881ZM172.698 39.9127C175.918 37.0758 179.4 34.5562 183.101 32.3866L182.798 31.869C179.063 34.058 175.55 36.6003 172.302 39.4625L172.698 39.9127ZM244.501 25.6545C240.371 23.8963 236.078 22.5353 231.69 21.5937L231.564 22.1803C235.915 23.1139 240.171 24.4633 244.266 26.2066L244.501 25.6545ZM231.333 21.8271L230.81 24.3983L231.398 24.5181L231.921 21.9469L231.333 21.8271ZM231.041 24.7516C235.234 25.6412 239.325 26.9429 243.27 28.6203L243.505 28.0682C239.525 26.376 235.397 25.0625 231.166 24.1647L231.041 24.7516ZM243.665 28.4587L244.661 26.045L244.107 25.8161L243.11 28.2298L243.665 28.4587ZM262.801 37.1484C259.38 34.2205 255.691 31.6274 251.781 29.3985L251.484 29.9197C255.361 32.1299 259.019 34.7012 262.411 37.6043L262.801 37.1484ZM251.373 29.5083L250.062 31.7645L250.581 32.066L251.892 29.8098L251.373 29.5083ZM250.172 32.1752C253.884 34.312 257.381 36.7988 260.622 39.5994L261.015 39.1454C257.745 36.3201 254.217 33.8112 250.471 31.6552L250.172 32.1752ZM261.042 39.5725L262.829 37.5765L262.383 37.1762L260.595 39.1723L261.042 39.5725ZM285.214 73.219C284.11 68.8639 282.595 64.6264 280.678 60.5619L280.135 60.8178C282.035 64.8471 283.538 69.0483 284.632 73.3664L285.214 73.219ZM280.28 60.418L277.918 61.5205L278.171 62.0642L280.534 60.9617L280.28 60.418ZM277.773 61.9204C279.604 65.7965 281.058 69.8402 282.112 73.9973L282.694 73.8498C281.63 69.6551 280.162 65.5749 278.316 61.6642L277.773 61.9204ZM282.476 74.2146L284.996 73.5837L284.85 73.0017L282.33 73.6325L282.476 74.2146ZM276.774 53.4416C274.387 49.6751 271.65 46.144 268.601 42.8962L268.164 43.3069C271.187 46.5271 273.9 50.0282 276.267 53.7628L276.774 53.4416ZM268.179 42.8807L266.238 44.6644L266.644 45.1062L268.585 43.3225L268.179 42.8807ZM266.219 45.0869C269.147 48.3139 271.754 51.8146 274.008 55.5412L274.521 55.2307C272.248 51.4711 269.617 47.9394 266.663 44.6837L266.219 45.0869ZM274.451 55.6213L276.707 53.8376L276.335 53.3669L274.079 55.1506L274.451 55.6213ZM99.1886 78.1635L97.7199 76.0098L97.2242 76.3479L98.6929 78.5016L99.1886 78.1635ZM97.3012 75.9323C93.538 78.5407 90.225 81.7615 87.5136 85.4545L87.9972 85.8096C90.6692 82.1703 93.9343 78.996 97.643 76.4254L97.3012 75.9323ZM87.5753 85.872L89.674 87.447L90.0342 86.9671L87.9354 85.3921L87.5753 85.872ZM90.0961 87.3844C92.5964 83.9718 95.6415 80.999 99.1124 78.5786L98.7692 78.0865C95.2443 80.5446 92.1516 83.5638 89.6121 87.0297L90.0961 87.3844ZM288.229 134.456L289.54 132.2L289.021 131.898L287.71 134.154L288.229 134.456ZM289.431 131.789C285.97 129.781 283.52 126.399 282.696 122.482L282.109 122.606C282.968 126.689 285.522 130.215 289.13 132.308L289.431 131.789ZM282.342 122.25L279.771 122.774L279.891 123.362L282.462 122.838L282.342 122.25ZM279.537 123.13C280.555 127.941 283.562 132.101 287.819 134.565L288.12 134.045C284.011 131.668 281.107 127.651 280.124 123.006L279.537 123.13ZM309.814 211.243H305.561V211.843H309.814V211.243ZM305.261 211.543V214.169H305.861V211.543H305.261ZM305.561 214.469H309.814V213.869H305.561V214.469ZM309.814 214.469C312.913 214.469 315.998 214.119 319.013 213.414L318.876 212.83C315.907 213.524 312.867 213.869 309.814 213.869V214.469ZM319.23 213.031L318.443 210.562L317.871 210.744L318.659 213.213L319.23 213.031ZM318.092 210.36C315.305 210.982 312.457 211.276 309.604 211.247L309.598 211.847C312.496 211.876 315.39 211.577 318.222 210.946L318.092 210.36ZM309.606 211.847L309.819 211.843L309.808 211.243L309.596 211.247L309.606 211.847ZM284.505 214.469H297.683V213.869H284.505V214.469ZM297.983 214.169V211.543H297.383V214.169H297.983ZM297.683 211.243L284.293 211.247L284.293 211.847L297.683 211.843L297.683 211.243ZM283.994 211.571L284.206 214.194L284.804 214.145L284.592 211.523L283.994 211.571ZM325.295 208.205L326.397 210.568L326.941 210.314L325.839 207.952L325.295 208.205ZM326.796 210.713C330.965 208.779 334.773 206.152 338.058 202.938L337.638 202.509C334.403 205.675 330.651 208.264 326.543 210.169L326.796 210.713ZM338.063 202.514L336.224 200.624L335.794 201.043L337.633 202.933L338.063 202.514ZM335.801 200.617C332.713 203.586 329.138 206.002 325.228 207.753L325.474 208.301C329.446 206.521 333.079 204.066 336.217 201.05L335.801 200.617ZM325.282 208.319L325.498 208.37L325.636 207.787L325.42 207.735L325.282 208.319ZM348.115 162.319L345.595 163.055L345.763 163.631L348.283 162.895L348.115 162.319ZM345.392 163.429C346.409 166.811 346.925 170.317 346.95 173.846L347.55 173.841C347.524 170.257 347 166.694 345.966 163.256L345.392 163.429ZM346.95 173.843V175.682H347.55V173.843H346.95ZM347.25 175.982H349.876V175.382H347.25V175.982ZM350.176 175.682V173.741H349.576V175.682H350.176ZM350.176 173.733C350.08 169.907 349.438 166.109 348.268 162.463L347.697 162.646C348.849 166.238 349.482 169.979 349.576 173.748L350.176 173.733ZM347.913 162.846L348.129 162.898L348.269 162.315L348.053 162.263L347.913 162.846ZM340.518 195.148L342.671 196.616L343.009 196.121L340.856 194.652L340.518 195.148ZM343.089 196.536C345.632 192.753 347.507 188.569 348.643 184.159L348.062 184.01C346.942 188.353 345.096 192.475 342.591 196.201L343.089 196.536ZM348.425 183.793L345.905 183.163L345.76 183.746L348.28 184.376L348.425 183.793ZM345.542 183.379C344.496 187.427 342.767 191.263 340.438 194.733L340.936 195.067C343.302 191.541 345.06 187.643 346.123 183.53L345.542 183.379ZM73.4213 214.366H86.5998V213.766H73.4213V214.366ZM86.8998 214.066V211.44H86.2998V214.066H86.8998ZM86.5998 211.14H73.4175V211.74H86.5998V211.14ZM73.1175 211.44L73.1213 214.067L73.7213 214.066L73.7175 211.44L73.1175 211.44ZM33.0924 202.62C36.3395 205.86 40.1143 208.528 44.2505 210.502L44.5089 209.96C40.4343 208.015 36.7153 205.387 33.5162 202.195L33.0924 202.62ZM44.6493 210.363L45.803 208L45.2639 207.737L44.1101 210.099L44.6493 210.363ZM45.6601 207.597C41.798 205.798 38.2773 203.349 35.2473 200.356L34.8256 200.782C37.9046 203.825 41.4822 206.313 45.4068 208.141L45.6601 207.597ZM34.8181 200.363L33.0859 202.202L33.5226 202.613L35.2548 200.775L34.8181 200.363ZM94.1741 211.491V214.117H94.7741V211.491H94.1741ZM94.4741 214.417H107.653V213.817H94.4741V214.417ZM107.953 214.117V212.806H107.353V214.117H107.953ZM107.795 212.542C107.065 212.148 106.356 211.714 105.673 211.244L105.333 211.738C106.034 212.22 106.761 212.666 107.51 213.07L107.795 212.542ZM105.503 211.191L94.4741 211.191L94.4741 211.791L105.503 211.791L105.503 211.191ZM52.1755 210.368L51.5455 212.94L52.1283 213.082L52.7582 210.511L52.1755 210.368ZM51.7656 213.302C54.9165 214.074 58.1488 214.468 61.392 214.472L61.3927 213.872C58.1977 213.868 55.013 213.479 51.9082 212.72L51.7656 213.302ZM61.3924 214.472H65.2272V213.872H61.3924V214.472ZM65.5272 214.172V211.546H64.9272V214.172H65.5272ZM65.2272 211.246H61.6561V211.846H65.2272V211.246ZM61.6502 211.246C58.6744 211.304 55.7022 211.006 52.7953 210.359L52.665 210.945C55.6184 211.602 58.6383 211.905 61.6619 211.846L61.6502 211.246ZM52.9186 210.419L52.6552 210.206L52.2785 210.673L52.5418 210.886L52.9186 210.419ZM73.9271 131.168C71.5563 132.814 68.7411 133.696 65.858 133.689L65.8565 134.289C68.8631 134.297 71.7982 133.377 74.2694 131.661L73.9271 131.168ZM65.8572 133.689H62.2348V134.289H65.8572V133.689ZM61.9348 133.989V136.615H62.5348V133.989H61.9348ZM62.2348 136.915H65.8572V136.315H62.2348V136.915ZM65.8572 136.915C69.3906 136.915 72.842 135.835 75.7415 133.818L75.399 133.325C72.6001 135.272 69.2683 136.315 65.8572 136.315V136.915ZM75.8181 133.403L74.3461 131.245L73.8504 131.583L75.3224 133.741L75.8181 133.403ZM217.084 20.0617C214.832 20.0617 212.597 20.0589 210.367 20.3774L210.452 20.9713C212.632 20.6599 214.824 20.6617 217.084 20.6617V20.0617ZM210.11 20.6744V23.3005H210.71V20.6744H210.11ZM210.437 23.5992C212.685 23.3913 214.834 23.2879 217.084 23.2879V22.6879C214.815 22.6879 212.647 22.7922 210.382 23.0018L210.437 23.5992ZM105.33 211.792C106.031 212.275 106.759 212.716 107.507 213.12L107.792 212.592C107.061 212.198 106.353 211.768 105.67 211.298L105.33 211.792ZM107.95 212.856V211.545H107.35V212.856H107.95ZM107.65 211.245H105.5V211.845H107.65V211.245ZM309.596 114.002H303.505V114.602H309.596V114.002ZM303.795 114.381C311.688 85.2828 304.504 54.1677 284.652 31.4752L284.2 31.8703C303.92 54.4116 311.057 85.3195 303.216 114.224L303.795 114.381ZM284.652 31.4752C264.8 8.78284 234.912 -2.47731 205.024 1.48054L205.103 2.07534C234.792 -1.85613 264.48 9.32899 284.2 31.8703L284.652 31.4752ZM205.024 1.48054C175.135 5.43837 149.206 24.0845 135.943 51.1619L136.482 51.4258C149.656 24.5288 175.413 6.00682 205.103 2.07534L205.024 1.48054ZM136.289 51.0038C117.999 46.1783 98.5016 50.1093 83.5138 61.6487L83.8798 62.1241C98.7202 50.6983 118.026 46.8059 136.136 51.5839L136.289 51.0038ZM83.5138 61.6487C68.5222 73.1878 59.7364 91.0288 59.7251 109.948L60.3251 109.948C60.3363 91.2152 69.0357 73.5497 83.8798 62.1241L83.5138 61.6487ZM59.7251 109.948V114.358H60.3251V109.948H59.7251ZM60.0214 114.058C38.5641 114.319 18.8822 126.011 8.37978 144.725L8.90301 145.018C19.3006 126.491 38.7859 114.917 60.0288 114.658L60.0214 114.058ZM8.37977 144.725C-2.11897 163.435 -1.83529 186.328 9.11963 204.778L9.63555 204.471C-1.20999 186.205 -1.49078 163.542 8.90302 145.018L8.37977 144.725ZM9.11963 204.778C20.0746 223.228 40.04 234.429 61.4972 234.168L61.4899 233.568C40.247 233.826 20.481 222.737 9.63555 204.471L9.11963 204.778ZM61.4936 234.168H107.911V233.568H61.4936V234.168ZM108.18 234C109.299 231.722 110.823 229.667 112.682 227.942L112.274 227.502C110.36 229.278 108.793 231.392 107.641 233.735L108.18 234ZM112.679 227.945L117.51 223.586L117.108 223.141L112.277 227.499L112.679 227.945ZM117.309 223.063H61.6515V223.663H117.309V223.063ZM61.6515 223.063C44.1526 223.063 27.9854 213.729 19.2336 198.575L18.714 198.875C27.573 214.215 43.9382 223.663 61.6515 223.663V223.063ZM19.2336 198.575C10.4858 183.42 10.4858 164.752 19.2336 149.597L18.714 149.297C9.85904 164.638 9.85904 183.534 18.714 198.875L19.2336 198.575ZM19.2336 149.597C27.985 134.442 44.1516 125.109 61.6515 125.109V124.509C43.9373 124.509 27.5726 133.956 18.714 149.297L19.2336 149.597ZM61.6515 125.109H66.1162V124.509H61.6515V125.109ZM66.112 125.109C67.7615 125.132 69.3373 124.42 70.4098 123.165L69.9538 122.775C68.9972 123.894 67.5916 124.529 66.1205 124.509L66.112 125.109ZM70.4101 123.165C71.482 121.907 71.9432 120.242 71.6604 118.611L71.0692 118.714C71.3213 120.168 70.9106 121.653 69.9535 122.776L70.4101 123.165ZM71.6603 118.611C68.5947 101.171 75.0025 83.4115 88.4947 71.9474L88.1062 71.4902C74.4517 83.0921 67.9669 101.066 71.0693 118.715L71.6603 118.611ZM88.4948 71.9474C101.991 60.4787 120.552 57.0273 137.27 62.8673L137.468 62.3009C120.549 56.3907 101.764 59.8835 88.1062 71.4902L88.4948 71.9474ZM137.27 62.8671C140.023 63.8352 143.058 62.4992 144.208 59.8161L143.657 59.5798C142.631 61.9731 139.924 63.1643 137.469 62.3011L137.27 62.8671ZM144.208 59.818C155.227 34.5901 178.591 16.9226 205.865 13.1862L205.784 12.5918C178.302 16.3565 154.761 34.1582 143.658 59.5779L144.208 59.818ZM205.865 13.1862C233.14 9.44983 260.393 20.1846 277.794 41.5191L278.259 41.1399C260.726 19.6433 233.266 8.827 205.784 12.5918L205.865 13.1862ZM277.794 41.5192C295.195 62.8501 300.231 91.7052 291.09 117.673L291.656 117.872C300.866 91.7072 295.793 62.6329 278.259 41.1399L277.794 41.5192ZM291.091 117.67C290.475 119.37 290.727 121.264 291.769 122.743L292.259 122.398C291.331 121.079 291.106 119.391 291.655 117.875L291.091 117.67ZM291.768 122.743C292.806 124.226 294.502 125.105 296.31 125.109L296.311 124.509C294.697 124.505 293.185 123.721 292.26 122.399L291.768 122.743ZM296.31 125.109H309.595V124.509H296.31V125.109ZM309.595 125.109C327.09 125.109 343.261 134.443 352.009 149.597L352.529 149.297C343.673 133.957 327.304 124.509 309.595 124.509V125.109ZM352.009 149.597C360.76 164.752 360.76 183.42 352.009 198.575L352.529 198.875C361.387 183.534 361.387 164.638 352.529 149.297L352.009 149.597ZM352.009 198.575C343.261 213.73 327.091 223.063 309.595 223.063V223.663C327.305 223.663 343.674 214.216 352.529 198.875L352.009 198.575ZM309.595 223.063H271.947V223.663H309.595V223.063ZM271.675 223.236C269.975 226.87 267.997 230.366 265.764 233.701L266.262 234.035C268.512 230.674 270.505 227.152 272.218 223.49L271.675 223.236ZM266.013 234.168H309.595V233.568H266.013V234.168ZM309.595 234.168C331.059 234.168 350.892 222.716 361.623 204.127L361.103 203.827C350.48 222.231 330.844 233.568 309.595 233.568V234.168ZM361.623 204.127C372.357 185.537 372.357 162.634 361.623 144.044L361.103 144.344C371.73 162.748 371.73 185.422 361.103 203.827L361.623 204.127ZM361.623 144.044C350.892 125.455 331.06 114.002 309.596 114.002V114.602C330.846 114.602 350.48 125.94 361.103 144.344L361.623 144.044ZM195.376 186.202C197.483 187.108 199.934 186.62 201.537 184.978L201.107 184.559C199.678 186.023 197.491 186.458 195.613 185.65L195.376 186.202ZM201.535 184.979L252.835 133.05L252.408 132.628L201.109 184.558L201.535 184.979ZM252.836 133.049C254.95 130.892 254.95 127.435 252.836 125.278L252.407 125.698C254.292 127.622 254.293 130.706 252.407 132.629L252.836 133.049ZM252.836 125.279L201.536 72.8222L201.107 73.2417L252.407 125.698L252.836 125.279ZM201.535 72.8203C199.952 71.2295 197.567 70.7412 195.491 71.5933L195.718 72.1484C197.569 71.3889 199.696 71.8236 201.109 73.2436L201.535 72.8203ZM195.491 71.5933C193.412 72.4451 192.053 74.4623 192.041 76.7077L192.641 76.7108C192.651 74.7075 193.864 72.9083 195.718 72.1485L195.491 71.5933ZM192.041 76.7093V106.326H192.641V76.7093H192.041ZM192.321 106.026C148.677 108.972 111.759 142.885 111.759 180.938H112.359C112.359 143.276 148.951 109.555 192.361 106.625L192.321 106.026ZM111.759 180.938C111.763 185.021 112.205 189.09 113.077 193.078L113.664 192.949C112.8 189.003 112.363 184.978 112.359 180.937L111.759 180.938ZM113.07 193.013C113.07 196.08 115.556 198.566 118.623 198.566V197.966C115.888 197.966 113.67 195.749 113.67 193.013H113.07ZM118.623 198.566C121.686 198.566 124.171 196.08 124.171 193.013H123.571C123.571 195.749 121.354 197.966 118.623 197.966V198.566ZM124.165 193.075C129.376 168.171 156.027 151.303 192.462 149.522L192.433 148.923C155.879 150.709 128.871 167.655 123.578 192.952L124.165 193.075ZM192.148 149.223V181.095H192.748V149.223H192.148ZM192.148 181.091C192.121 183.279 193.383 185.277 195.368 186.198L195.621 185.654C193.849 184.832 192.723 183.05 192.748 181.099L192.148 181.091ZM124.532 168.151C131.949 140.052 162.844 117.283 197.754 116.862L197.747 116.262C162.613 116.685 131.448 139.596 123.951 167.998L124.532 168.151ZM197.751 116.862C199.222 116.862 200.635 116.278 201.677 115.236L201.252 114.812C200.324 115.741 199.063 116.262 197.751 116.262V116.862ZM201.677 115.236C202.718 114.194 203.303 112.785 203.303 111.31H202.703C202.703 112.626 202.182 113.883 201.252 114.812L201.677 115.236ZM203.303 111.31V89.5717H202.703V111.31H203.303ZM202.788 89.7815L241.488 129.32L241.917 128.9L203.217 89.3618L202.788 89.7815ZM241.489 128.899L202.789 168.071L203.216 168.493L241.916 129.321L241.489 128.899ZM203.303 168.282V143.811H202.703V168.282H203.303ZM203.303 143.811C203.303 142.34 202.718 140.927 201.676 139.889L201.253 140.314C202.181 141.239 202.703 142.499 202.703 143.811H203.303ZM201.677 139.889C200.635 138.847 199.222 138.263 197.751 138.263V138.863C199.063 138.863 200.323 139.384 201.252 140.313L201.677 139.889ZM197.748 138.263C164.978 138.578 138.57 149.679 124.007 167.887L124.476 168.262C138.892 150.237 165.101 139.177 197.754 138.863L197.748 138.263ZM256.99 174.917C254.326 174.859 251.999 176.694 251.438 179.299L252.024 179.426C252.525 177.102 254.601 175.465 256.977 175.516L256.99 174.917ZM251.437 179.301C246.226 204.205 219.576 221.073 183.14 222.854L183.169 223.453C219.724 221.667 246.731 204.721 252.025 179.424L251.437 179.301ZM183.455 223.153L183.458 191.332L182.858 191.332L182.855 223.153L183.455 223.153ZM183.458 191.33C183.447 189.089 182.088 187.067 180.008 186.219L179.782 186.775C181.636 187.531 182.848 189.333 182.858 191.333L183.458 191.33ZM180.009 186.219C177.93 185.368 175.544 185.852 173.964 187.447L174.391 187.869C175.8 186.447 177.927 186.015 179.781 186.775L180.009 186.219ZM173.964 187.447L122.665 239.377L123.092 239.798L174.391 187.869L173.964 187.447ZM122.664 239.377C120.546 241.538 120.546 244.992 122.664 247.149L123.092 246.728C121.204 244.805 121.203 241.725 123.092 239.797L122.664 239.377ZM122.664 247.148L173.963 299.656L174.392 299.237L123.093 246.729L122.664 247.148ZM173.964 299.657C175.544 301.253 177.93 301.737 180.009 300.885L179.781 300.33C177.927 301.09 175.8 300.658 174.391 299.235L173.964 299.657ZM180.008 300.885C182.088 300.037 183.447 298.016 183.458 295.774L182.858 295.771C182.848 297.771 181.636 299.574 179.782 300.33L180.008 300.885ZM183.458 295.773V266.05H182.858V295.773H183.458ZM183.179 266.35C226.562 263.349 263.638 229.492 263.638 191.439H263.038C263.038 229.1 226.289 262.767 183.138 265.751L183.179 266.35ZM263.638 191.438C263.631 187.355 263.189 183.286 262.316 179.299L261.73 179.427C262.594 183.373 263.031 187.399 263.038 191.439L263.638 191.438ZM262.317 179.3C261.782 176.794 259.602 174.987 257.043 174.913L257.026 175.513C259.309 175.578 261.253 177.191 261.73 179.425L262.317 179.3ZM257.013 174.914L256.962 174.917L257.005 175.516L257.056 175.512L257.013 174.914ZM178.221 255.462C175.155 255.462 172.669 257.944 172.669 261.01H173.269C173.269 258.276 175.486 256.062 178.221 256.062V255.462ZM172.669 261.01V282.799H173.269V261.01H172.669ZM173.183 282.589L134.329 243.054L133.901 243.475L172.755 283.01L173.183 282.589ZM134.329 243.475L173.028 204.304L172.601 203.882L133.902 243.054L134.329 243.475ZM172.514 204.093V228.563H173.114V204.093H172.514ZM172.514 228.565C172.522 230.047 173.118 231.464 174.176 232.502L174.596 232.074C173.653 231.149 173.121 229.885 173.114 228.562L172.514 228.565ZM174.174 232.501C175.224 233.543 176.641 234.12 178.116 234.112L178.113 233.512C176.797 233.519 175.533 233.004 174.597 232.075L174.174 232.501ZM178.118 234.112C210.521 233.745 236.98 222.697 251.543 204.438L251.074 204.064C236.658 222.139 210.398 233.146 178.111 233.512L178.118 234.112ZM251.018 204.175C243.605 232.325 212.654 255.094 178.008 255.463L178.014 256.063C212.886 255.692 244.105 232.78 251.599 204.327L251.018 204.175ZM178.013 256.063L178.223 256.062L178.22 255.462L178.009 255.463L178.013 256.063Z" fill="#A5CEE4" mask="url(#path-1-outside-1_40_286)"/>
</svg>
