<svg width="300" height="300" viewBox="0 0 300 300" fill="none" xmlns="http://www.w3.org/2000/svg">
<path d="M79.9974 108.992C83.3298 94.5935 95.5971 83.1341 108.996 79.7994C115.261 78.6589 119.995 73.1992 119.995 66.6596C119.995 59.3274 113.996 53.3277 106.663 53.3277C97.0633 53.3277 82.4635 61.3941 71.5315 72.3936C60.8647 83.1918 53.3314 96.0597 53.3314 106.657C53.3314 113.99 59.5322 119.989 66.8644 119.989C73.3909 119.989 78.8637 115.255 79.9974 108.99V108.992ZM254.788 292.251C265.113 302.583 281.92 302.583 292.246 292.251C302.585 281.919 302.585 265.119 292.246 254.853L215.719 178.263C226.865 160.392 233.324 139.332 233.324 116.667C233.324 52.2015 181.126 0.0043277 116.662 0.0043277C52.1972 0.0043277 0 52.2026 0 116.667C0 181.132 52.1983 233.329 116.662 233.329C139.262 233.329 160.394 226.856 178.259 215.723L254.788 292.251ZM116.664 199.987C70.6665 199.987 33.337 162.65 33.337 116.66C33.337 70.6628 70.6676 33.3334 116.664 33.3334C162.66 33.3334 199.991 70.6639 199.991 116.66C199.984 162.651 162.653 199.987 116.664 199.987Z" fill="#A5CEE4"/>
</svg>
