<svg width="300" height="300" viewBox="0 0 300 300" fill="none" xmlns="http://www.w3.org/2000/svg">
<rect x="0.5" y="0.5" width="299" height="299" rx="2.5" fill="#A5CEE4" stroke="#A5CEE4"/>
<path d="M66.3361 156.009C76.0913 169.861 105.642 211.825 118.986 230.774H118.985L119.262 231.168C121.063 233.726 123.446 235.033 125.854 235.033C128.263 235.033 130.644 233.726 132.444 231.168C142.735 216.555 163.99 186.37 185.264 156.159C209.143 122.246 233.046 88.3011 241.49 76.3131C242.407 75.0104 242.859 73.3157 242.859 71.6328C242.859 69.95 242.407 68.2552 241.49 66.9525L241.285 67.0964C239.521 64.5909 236.661 64.5909 234.898 67.0964L234.694 66.9524C234.694 66.9525 234.694 66.9525 234.694 66.9525C230.524 72.8742 222.593 84.1365 212.832 97.9985C184.556 138.153 140.919 200.122 128.842 217.276C128.03 218.43 126.951 219.051 125.852 219.051C124.754 219.051 123.677 218.431 122.863 217.276C115.702 207.107 97.9724 181.927 85.0007 163.503C80.0826 156.518 75.8485 150.504 73.1335 146.649L72.9309 146.791L73.1335 146.649C72.2145 145.343 70.988 144.663 69.7348 144.663C68.4817 144.663 67.2552 145.343 66.3361 146.649C65.4188 147.951 64.9673 149.646 64.9673 151.329C64.9673 153.012 65.4188 154.706 66.336 156.009L66.5139 155.884L66.3361 156.009Z" fill="black" stroke="black" stroke-width="0.5"/>
</svg>
