<svg width="211" height="202" viewBox="0 0 211 202" fill="none" xmlns="http://www.w3.org/2000/svg">
<path d="M2.57355 108.279C14.0918 124.635 49.0085 174.218 64.7239 196.535L80.2686 196.785C92.3935 179.568 117.421 144.026 142.484 108.432C170.679 68.3928 198.918 28.2887 208.887 14.1349C210.968 11.1797 210.968 6.38908 208.887 3.43365C206.807 0.478496 203.433 0.478496 201.354 3.43365L201.15 3.28972C201.15 3.28974 201.15 3.28977 201.15 3.2898C196.227 10.2804 186.861 23.5813 175.334 39.9509C141.981 87.3142 90.5385 160.368 76.2989 180.595C75.3342 181.965 74.0493 182.707 72.7357 182.707C71.4223 182.707 70.1392 181.965 69.1725 180.595C60.7327 168.609 39.8457 138.944 24.5488 117.218C18.7336 108.959 13.7262 101.847 10.5177 97.2902L10.3193 97.4299L10.5177 97.2902C9.4403 95.7602 8.00638 94.9678 6.54569 94.9678C5.08499 94.9678 3.65103 95.7602 2.57355 97.2902C1.49794 98.8177 0.967285 100.807 0.967285 102.785C0.967285 104.762 1.49794 106.752 2.57354 108.279L2.75143 108.154L2.57355 108.279Z" fill="black" stroke="black" stroke-width="0.5"/>
</svg>
