<svg width="435" height="468" viewBox="0 0 435 468" fill="none" xmlns="http://www.w3.org/2000/svg">
<path d="M426.822 62.325C426.499 60.5662 424.915 59.3241 423.13 59.4342C419.149 59.5406 415.194 59.6165 411.319 59.6165C292.455 59.6165 220.454 1.43997 219.725 0.820515C218.369 -0.273505 216.435 -0.273505 215.083 0.820515C214.312 1.44349 137.567 63.4947 11.6828 59.4337C9.90888 59.3615 8.34379 60.5847 7.9867 62.3246C-2.16386 120.14 -2.16386 179.283 7.9867 237.095C23.8194 321.377 72.8529 429.828 216.463 467.89C216.778 467.962 217.098 468 217.417 468C217.724 468 218.032 467.962 218.332 467.89C361.955 429.827 410.986 321.379 426.808 237.095C436.97 179.284 436.977 120.137 426.835 62.3246L426.822 62.325ZM217.422 418.266C44.8781 365.084 42.3497 185.176 50.0322 106.708L50.0284 106.712C108.95 103.324 166.267 86.2329 217.418 56.8014C268.548 86.2563 325.857 103.35 384.769 106.712C392.45 185.178 389.958 365.076 217.418 418.269L217.422 418.266Z" fill="#A5CEE4"/>
<path d="M315.669 191.983C315.662 192.936 315.282 193.852 314.609 194.536L210.507 298.638C209.82 299.325 208.885 299.709 207.913 299.697C206.952 299.705 206.029 299.325 205.36 298.638L141.52 234.82C140.836 234.136 140.449 233.209 140.449 232.241C140.449 231.276 140.836 230.345 141.52 229.665L168.54 202.645V202.641C169.224 201.958 170.15 201.574 171.115 201.574C172.084 201.574 173.011 201.958 173.691 202.641L207.917 236.863L282.39 162.364C283.829 160.94 286.147 160.94 287.582 162.364L314.602 189.384V189.388C315.278 190.083 315.662 191.01 315.67 191.982L315.669 191.983Z" fill="#A5CEE4"/>
</svg>
