<svg width="359" height="359" viewBox="0 0 359 359" fill="none" xmlns="http://www.w3.org/2000/svg">
<path d="M179.4 359C278.267 359 358.698 278.569 358.698 179.702C358.698 80.8353 278.267 0.404145 179.4 0.404145C80.5335 0.404145 0.102411 80.8353 0.102411 179.702C0.102411 278.569 80.5335 359 179.4 359ZM179.4 22.5397C266.061 22.5397 336.563 93.0414 336.563 179.702C336.563 266.363 266.061 336.864 179.4 336.864C92.7397 336.864 22.238 266.363 22.238 179.702C22.238 93.0414 92.7397 22.5397 179.4 22.5397ZM69.2364 154.064L120.401 205.237L171.566 256.41C173.641 258.485 176.454 259.649 179.394 259.649C182.334 259.649 185.144 258.482 187.223 256.41L289.56 154.072C293.886 149.752 293.886 142.742 289.56 138.422C285.233 134.101 278.23 134.095 273.909 138.422L179.398 232.933L84.8955 138.414C82.7338 136.252 79.902 135.174 77.0671 135.174C74.2323 135.174 71.4035 136.255 69.2388 138.414C64.9248 142.731 64.9162 149.738 69.2364 154.064Z" fill="white"/>
</svg>
