<svg width="359" height="359" viewBox="0 0 359 359" fill="none" xmlns="http://www.w3.org/2000/svg">
<path d="M179.4 0C80.5329 0 0.101807 80.4311 0.101807 179.298C0.101807 278.165 80.5329 358.596 179.4 358.596C278.267 358.596 358.698 278.165 358.698 179.298C358.698 80.4311 278.267 0 179.4 0ZM179.4 336.46C92.7391 336.46 22.2374 265.959 22.2374 179.298C22.2374 92.6373 92.7391 22.1355 179.4 22.1355C266.06 22.1355 336.562 92.6373 336.562 179.298C336.562 265.959 266.06 336.46 179.4 336.46ZM289.564 204.936L238.399 153.763L187.234 102.59C185.159 100.515 182.346 99.3509 179.406 99.3509C176.466 99.3509 173.656 100.518 171.578 102.59L69.2401 204.928C64.9137 209.248 64.9137 216.258 69.2401 220.578C73.5666 224.899 80.5704 224.905 84.8907 220.578L179.402 126.067L273.905 220.586C276.066 222.748 278.898 223.826 281.733 223.826C284.568 223.826 287.397 222.745 289.561 220.586C293.875 216.269 293.884 209.262 289.564 204.936Z" fill="white"/>
</svg>
