<svg width="300" height="491" viewBox="0 0 300 491" fill="none" xmlns="http://www.w3.org/2000/svg">
<path d="M65.1422 245.462L292.789 454.052C297.391 458.038 300 463.59 300 469.393C300 475.2 297.391 480.747 292.789 484.734C288.465 488.69 282.609 490.909 276.507 490.909C270.4 490.909 264.544 488.69 260.22 484.734L0 245.455L260.22 6.17578C264.544 2.21913 270.4 7.62939e-05 276.507 7.62939e-05C282.61 7.62939e-05 288.465 2.219 292.789 6.17578C297.102 10.1324 299.529 15.4981 299.529 21.0943C299.529 26.6905 297.102 32.0562 292.789 36.0127L65.1422 245.462Z" fill="#A5CEE4"/>
</svg>
