<svg width="286" height="300" viewBox="0 0 286 300" fill="none" xmlns="http://www.w3.org/2000/svg">
<path d="M241.128 263.38C242.697 265.334 242.39 268.196 240.391 269.706C216.702 287.594 188.205 298.073 158.501 299.759C127.285 301.531 96.2955 293.504 69.8649 276.8C43.4342 260.097 22.8839 235.552 11.0868 206.596C-0.710257 177.641 -3.16427 145.723 4.06785 115.304C11.3 84.8855 27.8567 57.4873 51.4233 36.9397C74.9899 16.3921 104.388 3.72231 135.508 0.701657C166.629 -2.319 197.915 4.46046 224.993 20.0922C250.76 34.9669 271.491 57.1495 284.594 83.7848C285.7 86.0335 284.686 88.7278 282.405 89.7655V89.7655C280.124 90.8032 277.44 89.7911 276.33 87.5447C264.013 62.6302 244.585 41.8805 220.456 27.9517C195.016 13.2656 165.623 6.8963 136.385 9.7342C107.148 12.5721 79.528 24.4754 57.3872 43.7798C35.2464 63.0843 19.6913 88.825 12.8967 117.403C6.10217 145.981 8.40771 175.968 19.491 203.172C30.5744 230.376 49.8814 253.436 74.713 269.129C99.5446 284.822 128.659 292.363 157.987 290.698C185.802 289.119 212.491 279.334 234.703 262.629C236.706 261.123 239.558 261.427 241.128 263.38V263.38Z" fill="#A5CEE4"/>
</svg>
