<svg width="279" height="300" viewBox="0 0 279 300" fill="none" xmlns="http://www.w3.org/2000/svg">
<path d="M273.364 39.952C273.157 38.8245 272.142 38.0283 270.998 38.0988C268.446 38.167 265.911 38.2157 263.427 38.2157C187.232 38.2157 141.077 0.92306 140.61 0.525971C139.74 -0.175324 138.501 -0.175324 137.634 0.525971C137.14 0.925316 87.9444 40.7017 7.2494 38.0985C6.11224 38.0523 5.10898 38.8364 4.88008 39.9516C-1.62669 77.013 -1.62669 114.925 4.88008 151.984C15.0292 206.011 46.4609 275.531 138.519 299.929C138.721 299.976 138.925 300 139.13 300C139.327 300 139.524 299.976 139.717 299.929C231.783 275.53 263.213 206.012 273.356 151.984C279.869 114.925 279.874 77.0112 273.373 39.9516L273.364 39.952ZM139.134 268.119C28.5284 234.028 26.9076 118.703 31.8323 68.4027L31.8299 68.4051C69.6 66.2331 106.342 55.2775 139.131 36.4111C171.907 55.2925 208.643 66.2501 246.407 68.4051C251.331 118.704 249.734 234.023 139.131 268.121L139.134 268.119Z" fill="#A5CEE4"/>
<path d="M202.112 123.066C202.107 123.677 201.864 124.264 201.433 124.702L134.7 191.434C134.26 191.875 133.661 192.121 133.037 192.114C132.421 192.118 131.829 191.875 131.401 191.434L90.4777 150.525C90.0394 150.087 89.791 149.493 89.791 148.872C89.791 148.254 90.0394 147.657 90.4777 147.221L107.798 129.901V129.898C108.236 129.46 108.831 129.214 109.449 129.214C110.07 129.214 110.664 129.46 111.1 129.898L133.04 151.835L180.779 104.079C181.702 103.166 183.187 103.166 184.107 104.079L201.428 121.4V121.402C201.861 121.848 202.107 122.442 202.112 123.065L202.112 123.066Z" fill="#A5CEE4"/>
</svg>
