<svg width="246" height="300" viewBox="0 0 246 300" fill="none" xmlns="http://www.w3.org/2000/svg">
<path d="M11.2064 271.202C11.0986 270.359 11.0447 269.493 11.0447 268.616V213.435H0.0111728L0.00732422 268.616C0.00732422 269.959 0.0919917 271.283 0.253631 272.58L11.2064 271.202Z" fill="#A5CEE4"/>
<path d="M245.521 117.93C245.521 103.305 235.164 90.4123 220.894 87.2803L218.527 98.0567C227.775 100.089 234.483 108.444 234.483 117.931V141.372H245.517L245.521 117.93Z" fill="#A5CEE4"/>
<path d="M234.486 146.689H245.52V205.152H234.486V146.689Z" fill="#A5CEE4"/>
<path d="M245.52 210.471H234.483L234.487 268.484L234.483 268.939L245.52 268.623V210.471Z" fill="#A5CEE4"/>
<path d="M63.1182 288.965H121.585V299.999H63.1182V288.965Z" fill="#A5CEE4"/>
<path d="M244.784 275.389L234.007 273.018C231.975 282.259 223.62 288.963 214.141 288.963H190.684V299.997H214.141C228.762 299.997 241.651 289.648 244.784 275.389V275.389Z" fill="#A5CEE4"/>
<path d="M126.91 288.965H185.374V299.999H126.91V288.965Z" fill="#A5CEE4"/>
<path d="M86.5763 86.5505H31.3809C30.0493 86.5505 28.7331 86.6351 27.4438 86.7968L28.7947 97.7456C29.6452 97.6378 30.5073 97.584 31.3809 97.584H86.5763V86.5505Z" fill="#A5CEE4"/>
<path d="M31.384 300H57.8078V288.966H31.384C22.7055 288.966 14.974 283.459 12.1454 275.262L1.71582 278.86C6.08008 291.506 18.0026 300 31.384 300V300Z" fill="#A5CEE4"/>
<path d="M214.44 97.5853L214.14 86.5479H155.672V97.5814L213.993 97.5776L214.44 97.5853Z" fill="#A5CEE4"/>
<path d="M0.00341797 149.654H11.037V208.121H0.00341797V149.654Z" fill="#A5CEE4"/>
<path d="M11.0379 117.929C11.0379 109.243 16.549 101.511 24.7542 98.6864L21.1597 88.2568C8.50545 92.6133 0 104.536 0 117.929V144.342H11.0335L11.0379 117.929Z" fill="#A5CEE4"/>
<path d="M124.87 195.113C125.543 194.832 126.155 194.432 126.663 193.92L172.549 148.034C174.704 145.879 174.704 142.388 172.549 140.233C170.394 138.078 166.903 138.078 164.748 140.233L128.279 176.702V5.51885C128.279 2.47075 125.808 0 122.76 0C119.712 0 117.241 2.47075 117.241 5.51885V176.702L80.7719 140.233C78.6167 138.078 75.1261 138.078 72.9709 140.233C70.8157 142.388 70.8157 145.879 72.9709 148.034L118.857 193.92C119.365 194.428 119.977 194.832 120.65 195.113C121.324 195.39 122.04 195.536 122.759 195.536C123.479 195.536 124.195 195.39 124.868 195.109L124.87 195.113Z" fill="#A5CEE4"/>
</svg>
