<svg width="312" height="311" viewBox="0 0 312 311" fill="none" xmlns="http://www.w3.org/2000/svg">
<circle cx="155.954" cy="155.5" r="155.5" fill="#274B73"/>
<path fill-rule="evenodd" clip-rule="evenodd" d="M166.858 155.504L215.886 106.476C218.899 103.463 218.908 98.5745 215.898 95.5648C212.868 92.5344 208.004 92.5615 204.987 95.5777L155.959 144.605L106.931 95.5777C103.918 92.5641 99.0292 92.5551 96.0199 95.5648C92.9899 98.5953 93.0169 103.459 96.0341 106.476L145.062 155.504L96.0341 204.531C93.0195 207.545 93.0105 212.433 96.0199 215.443C99.0499 218.473 103.914 218.446 106.931 215.43L155.959 166.402L204.987 215.43C208 218.443 212.889 218.452 215.898 215.443C218.929 212.412 218.901 207.549 215.886 204.531L166.858 155.504Z" fill="white"/>
</svg>
