<svg width="34" height="35" viewBox="0 0 225 206" fill="none" xmlns="http://www.w3.org/2000/svg">
<path d="M107.3 21.2333L154.326 68.2587L121.734 100.851L72.208 51.3254L104.8 18.7332L107.3 21.2333ZM144.367 68.2148L104.844 28.6913L82.2095 51.3254L121.733 90.8489L144.367 68.2148Z" fill="#A5CEE4"/>
<path d="M108.401 4.34307C111.252 7.19452 112.7 10.9674 112.7 14.7397C112.7 18.5121 111.252 22.285 108.401 25.1364L78.6162 54.9211C75.7647 57.7725 71.9919 59.1763 68.2195 59.1763C64.4468 59.1763 60.6743 57.7287 57.8228 54.8772C54.9714 52.0257 53.5237 48.2528 53.5237 44.4805C53.5237 40.7078 54.9713 36.9352 57.8228 34.0838L87.6075 4.29916C90.4589 1.44771 94.2318 0 98.0042 0C101.776 0 105.549 1.44765 108.401 4.29916V4.34307ZM105.681 14.7397C105.681 12.7657 104.935 10.7916 103.444 9.29995C101.952 7.80834 99.978 7.06264 98.0039 7.06264C96.0297 7.06264 94.0557 7.80839 92.5641 9.29995L62.7795 39.0846C61.2879 40.5761 60.5421 42.5502 60.5421 44.5244C60.5421 46.4985 61.2879 48.4726 62.7795 49.9642C64.271 51.4557 66.2451 52.2015 68.2193 52.2015C70.1933 52.2015 72.1236 51.4557 73.659 49.9642L103.444 20.1795C104.935 18.688 105.681 16.7139 105.681 14.7397V14.7397Z" fill="#A5CEE4"/>
<path d="M168.715 64.6639C171.567 67.5153 173.014 71.2882 173.014 75.0605C173.014 78.8333 171.567 82.6058 168.715 85.4572L138.931 115.242C136.079 118.093 132.306 119.497 128.534 119.497C124.761 119.497 120.989 118.049 118.137 115.198C115.286 112.346 113.838 108.574 113.838 104.801C113.838 101.029 115.286 97.256 118.137 94.4046L147.922 64.62C150.773 61.7685 154.546 60.3208 158.319 60.3208C162.091 60.3208 165.864 61.7684 168.715 64.62V64.6639ZM165.995 75.0605C165.995 73.0865 165.25 71.1124 163.758 69.6208C162.267 68.1292 160.293 67.3834 158.318 67.3834C156.344 67.3834 154.37 68.1292 152.879 69.6208L123.094 99.4054C121.602 100.897 120.857 102.871 120.857 104.845C120.857 106.819 121.602 108.793 123.094 110.285C124.585 111.777 126.56 112.522 128.534 112.522C130.508 112.522 132.438 111.777 133.974 110.285L163.758 80.5003C165.25 79.0088 165.995 77.0347 165.995 75.0605V75.0605Z" fill="#A5CEE4"/>
<path d="M94.4473 63.648L111.819 81.0198L109.494 83.4765L27.9881 169.806C27.7687 170.026 27.8565 169.938 27.7687 170.026C25.7508 172.043 23.0748 173.009 20.3989 173.009C17.7668 173.009 15.0908 172 13.0729 170.069C12.8536 169.85 12.9413 169.982 12.8536 169.85L3.15855 160.155C3.07082 160.067 3.15855 160.155 2.93921 159.936C1.00897 157.918 0.0438521 155.242 0 152.61C0 149.934 0.965117 147.258 2.98306 145.24C3.0708 145.152 2.98306 145.24 3.2024 145.021L89.5321 63.5145L91.9888 61.1895L94.4473 63.648ZM102.036 81.1513L91.9028 71.0178L8.02775 150.155C7.89614 150.286 8.11548 150.067 7.98388 150.242C7.32583 150.9 7.01876 151.734 7.01876 152.655C7.01876 153.576 7.36971 154.498 8.02773 155.2C8.11547 155.287 7.94 155.068 8.11547 155.287L17.8105 164.982C17.986 165.158 17.8105 164.982 17.8983 165.07C18.6002 165.728 19.5214 166.079 20.4426 166.079C21.32 166.079 22.1974 165.772 22.8554 165.114C23.0309 164.938 22.8115 165.158 22.9431 165.07L102.08 81.195L102.036 81.1513Z" fill="#A5CEE4"/>
<path d="M114.891 178.406H215.344C217.888 178.406 220.213 179.459 221.924 181.126C223.591 182.793 224.644 185.118 224.644 187.707V196.7C224.644 199.244 223.591 201.569 221.924 203.28C220.257 204.947 217.932 206 215.344 206H114.891C112.346 206 110.021 204.947 108.31 203.28C106.643 201.613 105.59 199.288 105.59 196.7V187.707C105.59 185.162 106.643 182.837 108.31 181.126C109.977 179.459 112.302 178.406 114.891 178.406V178.406ZM215.344 185.425H114.891C114.277 185.425 113.706 185.689 113.267 186.084C112.873 186.478 112.609 187.049 112.609 187.707V196.7C112.609 197.314 112.873 197.884 113.267 198.323C113.662 198.718 114.233 198.981 114.891 198.981H215.344C215.958 198.981 216.528 198.718 216.967 198.323C217.362 197.928 217.625 197.358 217.625 196.7V187.707C217.625 187.093 217.362 186.522 216.967 186.084C216.572 185.689 216.002 185.425 215.344 185.425Z" fill="#A5CEE4"/>
<path d="M129.704 157.832H200.504C203.048 157.832 205.373 158.885 207.084 160.552C208.751 162.219 209.804 164.544 209.804 167.133V176.125C209.804 178.67 208.751 180.995 207.084 182.706C205.417 184.373 203.092 185.426 200.504 185.426H129.704C127.16 185.426 124.835 184.373 123.124 182.706C121.457 181.039 120.404 178.714 120.404 176.125V167.133C120.404 164.588 121.457 162.263 123.124 160.552C124.791 158.885 127.116 157.832 129.704 157.832ZM200.504 164.851H129.704C129.09 164.851 128.52 165.114 128.081 165.509C127.686 165.904 127.423 166.474 127.423 167.133V176.125C127.423 176.74 127.686 177.31 128.081 177.749C128.476 178.143 129.046 178.407 129.704 178.407H200.504C201.118 178.407 201.688 178.143 202.127 177.749C202.522 177.354 202.785 176.783 202.785 176.125V167.133C202.785 166.518 202.522 165.948 202.127 165.509C201.732 165.115 201.162 164.851 200.504 164.851Z" fill="#A5CEE4"/>
</svg>
