<svg width="27" height="27" viewBox="0 0 27 27" fill="none" xmlns="http://www.w3.org/2000/svg">
<path d="M26.034 11.07V10.6367C26.0351 10.4415 25.9496 10.2565 25.8019 10.1339L14.0592 0.37956C13.7644 0.133875 13.3966 0 13.017 0C12.6374 0 12.2696 0.13387 11.9748 0.37956L0.232082 10.1299C0.0844006 10.2526 -0.00111738 10.4375 1.10283e-05 10.6325V25.4096C0.0032133 25.7865 0.129421 26.1511 0.358667 26.4454C0.366955 26.4622 0.376939 26.4783 0.388241 26.493C0.41838 26.5326 0.45078 26.5701 0.48525 26.6057C0.522924 26.6468 0.5638 26.6843 0.607692 26.7183L0.696224 26.792H0.734274C0.768746 26.8182 0.80548 26.8414 0.843903 26.8613C0.879129 26.8828 0.915861 26.9015 0.953533 26.9178H1.00421C1.08916 26.9522 1.17656 26.9799 1.26585 27H24.4098C24.5002 26.9981 24.5906 26.9894 24.6799 26.9741H24.8235L25.0005 26.987L25.1019 26.935C25.1452 26.916 25.1876 26.8944 25.2285 26.87H25.258L25.3594 26.7963L25.4142 26.753L25.4816 26.688L25.5619 26.61C25.6041 26.5624 25.6504 26.5104 25.7011 26.4454V26.415L25.7307 26.3674L25.7644 26.3154V26.2763H25.7642C25.906 26.0246 25.9816 25.7394 25.9836 25.4487V11.0707L26.034 11.07ZM12.7723 1.39342C12.9149 1.27445 13.1191 1.27445 13.2617 1.39342L24.6542 10.8575L13.6204 19.9968C13.4861 20.1065 13.3196 20.1661 13.1478 20.1661C12.9762 20.1661 12.8097 20.1065 12.6754 19.9968L1.37972 10.8491L12.7723 1.39342ZM1.26156 24.9151V12.4131L8.89472 18.5923L1.26156 24.9151ZM2.20682 25.8076L9.91568 19.4205L11.8904 21.0196V21.0194C12.2486 21.3171 12.6954 21.4794 13.1562 21.4794C13.6169 21.4794 14.0637 21.3171 14.422 21.0194L16.3715 19.4073L24.1141 25.8207L2.20682 25.8076ZM24.7726 24.6852L17.3714 18.5581L24.7682 12.4304L24.7726 24.6852Z" fill="#A5CEE4"/>
<path d="M18.4271 10.7361C18.4271 9.26272 17.8571 7.84973 16.8428 6.80779C15.8282 5.76604 14.4524 5.18066 13.0178 5.18066C11.5831 5.18066 10.2073 5.76604 9.19275 6.80779C8.17839 7.84973 7.6084 9.26272 7.6084 10.7361C7.6084 12.2094 8.17839 13.6224 9.19275 14.6643C10.2073 15.7061 11.5831 16.2915 13.0178 16.2915C14.452 16.2903 15.8273 15.7045 16.8415 14.663C17.8557 13.6214 18.426 12.209 18.4272 10.736L18.4271 10.7361ZM8.87424 10.7361C8.87424 9.60746 9.31088 8.52505 10.0879 7.72706C10.8649 6.92908 11.9189 6.48063 13.0178 6.48063C14.1168 6.48063 15.1707 6.92906 15.9477 7.72706C16.7247 8.52505 17.1614 9.60746 17.1614 10.7361C17.1614 11.8647 16.7247 12.9471 15.9477 13.7451C15.1707 14.5431 14.1168 14.9915 13.0178 14.9915C11.9189 14.9915 10.8649 14.5431 10.0879 13.7451C9.3109 12.9471 8.87424 11.8647 8.87424 10.7361Z" fill="#A5CEE4"/>
<path d="M13.7045 13.1827C13.7148 12.9794 13.6393 12.7811 13.4969 12.6391C13.3547 12.4973 13.1597 12.4253 12.9619 12.4418C12.7596 12.4346 12.5626 12.5093 12.4134 12.6497C12.2824 12.794 12.2127 12.9858 12.2192 13.1827C12.2146 13.3926 12.2922 13.5955 12.4345 13.746C12.5727 13.882 12.7577 13.9569 12.9493 13.9542C13.1535 13.9588 13.3511 13.8791 13.4978 13.7331C13.6357 13.5857 13.7103 13.3872 13.7045 13.1827V13.1827Z" fill="#A5CEE4"/>
<path d="M12.2356 9.05068L12.2778 9.01605C12.4873 8.84909 12.7535 8.77577 13.0162 8.81234C13.2221 8.81098 13.4063 8.94292 13.4762 9.14179C13.5389 9.33679 13.4596 9.55037 13.2863 9.65308C13.2294 9.70551 13.1688 9.75329 13.1047 9.79604L13.0288 9.85234C12.7696 10.0359 12.5718 10.2971 12.4624 10.6004C12.353 10.9035 12.3371 11.234 12.417 11.5468C12.5225 11.941 12.7082 12.0277 12.839 12.0277C12.9782 12.0277 13.1639 11.9453 13.2609 11.564C13.3253 11.2875 13.473 11.0388 13.6829 10.8534C13.7757 10.7754 13.8769 10.6975 13.9741 10.6238C14.0711 10.5501 14.1598 10.4851 14.2483 10.4114C14.5343 10.192 14.73 9.87085 14.7971 9.51081C14.8643 9.15079 14.798 8.77799 14.6112 8.46559C14.4313 8.15761 14.1743 7.90438 13.8673 7.73218C13.5602 7.56001 13.214 7.47528 12.8644 7.48631H12.7378C12.6259 7.49462 12.5146 7.50913 12.4044 7.52964C12.0316 7.59735 11.6865 7.77668 11.4128 8.04539C11.2806 8.17868 11.203 8.35878 11.1958 8.54895C11.1889 8.73912 11.2529 8.92483 11.3748 9.06797C11.4865 9.18327 11.6383 9.24827 11.7967 9.24827C11.9551 9.24827 12.1072 9.18327 12.2187 9.06797L12.2356 9.05068Z" fill="#A5CEE4"/>
</svg>
