<svg width="34" height="35" viewBox="0 0 34 35" fill="none" xmlns="http://www.w3.org/2000/svg">
<path d="M17.8506 5.99041L17.7851 5.929H17.6952H10.2163V3.05748C10.2163 2.66894 10.6396 2.25857 11.2683 2.25857H23.8898V7.18133C23.8898 8.50481 25.1902 9.47727 26.6832 9.47727H31.5959V26.7882C31.5959 27.1825 31.173 27.585 30.5388 27.585H25.6287V13.8905V13.375V13.2765L25.5568 13.2091L17.8506 5.99041ZM8.47744 5.93024H3.57197C2.07489 5.93024 0.772239 6.91433 0.772239 8.22712V31.9304C0.772239 33.2412 2.06491 34.2273 3.56449 34.2273H22.8365C24.3295 34.2273 25.6287 33.2436 25.6287 31.9467V29.0711H30.5427C32.0357 29.0711 33.3349 28.0874 33.3349 26.7905V8.2187V8.12018L33.263 8.05283L25.5568 0.834134L25.4913 0.772727H25.4015H11.2772C9.78009 0.772727 8.47744 1.75682 8.47744 3.06962V5.93024ZM3.56214 7.41473H16.1836V12.3368C16.1836 13.6603 17.4841 14.6328 18.977 14.6328H23.8898V31.9437C23.8898 32.338 23.4668 32.7405 22.8327 32.7405H3.56728C2.94125 32.7405 2.51019 32.3374 2.51019 31.9416V8.21363C2.51019 7.8251 2.93343 7.41473 3.56214 7.41473ZM25.6287 7.17826V3.07226L30.8641 7.99143H26.682C26.059 7.99143 25.6287 7.58469 25.6287 7.17826ZM17.9225 12.3345V8.22848L23.1579 13.1476H18.9759C18.3528 13.1476 17.9225 12.7409 17.9225 12.3345Z" fill="#A5CEE4" stroke="#A5CEE4" stroke-width="0.454545"/>
</svg>
