<svg width="246" height="300" viewBox="0 0 246 300" fill="none" xmlns="http://www.w3.org/2000/svg">
<path d="M11.2062 271.202C11.0984 270.36 11.0446 269.494 11.0446 268.616V213.436H0.0109897L0.00714111 268.616C0.00714111 269.959 0.0918085 271.283 0.253448 272.58L11.2062 271.202Z" fill="#A5CEE4"/>
<path d="M245.521 117.93C245.521 103.305 235.164 90.4123 220.894 87.2803L218.528 98.0567C227.776 100.089 234.483 108.444 234.483 117.931V141.372H245.517L245.521 117.93Z" fill="#A5CEE4"/>
<path d="M234.488 146.689H245.522V205.153H234.488V146.689Z" fill="#A5CEE4"/>
<path d="M245.522 210.471H234.485L234.489 268.485L234.485 268.939L245.522 268.623V210.471Z" fill="#A5CEE4"/>
<path d="M63.1172 288.965H121.585V299.999H63.1172V288.965Z" fill="#A5CEE4"/>
<path d="M244.783 275.389L234.007 273.018C231.975 282.258 223.62 288.963 214.141 288.963H190.684V299.997H214.141C228.762 299.997 241.65 289.648 244.783 275.389V275.389Z" fill="#A5CEE4"/>
<path d="M126.91 288.965H185.373V299.999H126.91V288.965Z" fill="#A5CEE4"/>
<path d="M86.5768 86.5508H31.3814C30.0498 86.5508 28.7336 86.6354 27.4443 86.7971L28.7952 97.7459C29.6457 97.6381 30.5078 97.5843 31.3814 97.5843H86.5768V86.5508Z" fill="#A5CEE4"/>
<path d="M31.3822 300H57.806V288.966H31.3822C22.7037 288.966 14.9722 283.459 12.1436 275.262L1.71402 278.86C6.07828 291.506 18.0008 300 31.3822 300V300Z" fill="#A5CEE4"/>
<path d="M214.438 97.5854L214.138 86.5479H155.671V97.5814L213.991 97.5776L214.438 97.5854Z" fill="#A5CEE4"/>
<path d="M0.00241089 149.653H11.036V208.121H0.00241089V149.653Z" fill="#A5CEE4"/>
<path d="M11.0379 117.929C11.0379 109.243 16.5491 101.511 24.7542 98.6865L21.1597 88.2568C8.50545 92.6134 0 104.536 0 117.929V144.342H11.0335L11.0379 117.929Z" fill="#A5CEE4"/>
<path d="M124.871 195.113C125.544 194.832 126.156 194.432 126.664 193.92L172.55 148.034C174.705 145.879 174.705 142.388 172.55 140.233C170.395 138.078 166.904 138.078 164.749 140.233L128.28 176.702V5.51885C128.28 2.47075 125.809 0 122.761 0C119.713 0 117.242 2.47075 117.242 5.51885V176.702L80.7729 140.233C78.6177 138.078 75.127 138.078 72.9718 140.233C70.8166 142.388 70.8166 145.879 72.9718 148.034L118.858 193.92C119.366 194.428 119.978 194.832 120.651 195.113C121.325 195.39 122.041 195.536 122.76 195.536C123.48 195.536 124.196 195.39 124.869 195.109L124.871 195.113Z" fill="#A5CEE4"/>
</svg>
