<svg width="29" height="29" viewBox="0 0 29 29" fill="none" xmlns="http://www.w3.org/2000/svg">
<path d="M28.15 27.7925V27.7923V1.20774C28.15 1.00992 27.9897 0.85 27.7923 0.85H1.20774C1.01028 0.85 0.85 1.00992 0.85 1.20774V27.7923C0.85 27.9901 1.01029 28.15 1.20774 28.15H27.7923C27.9899 28.15 28.1497 27.9899 28.15 27.7925ZM27.4349 1.56513V27.4345H1.56554V1.56513H27.4349Z" fill="#A5CEE4" stroke="#A5CEE4" stroke-width="0.3"/>
<path d="M1.20774 6.4976H27.7923C27.9897 6.4976 28.15 6.33768 28.15 6.13987C28.15 5.94205 27.9897 5.78213 27.7923 5.78213H1.20774C1.01029 5.78213 0.85 5.94205 0.85 6.13987C0.85 6.33768 1.01028 6.4976 1.20774 6.4976Z" fill="#A5CEE4" stroke="#A5CEE4" stroke-width="0.3"/>
<path d="M23.5668 3.62212C23.5668 4.32042 24.1347 4.88839 24.8331 4.88839C25.5314 4.88839 26.0993 4.32042 26.0993 3.62212C26.0993 2.92382 25.5314 2.35586 24.8331 2.35586C24.1348 2.35586 23.5668 2.92382 23.5668 3.62212ZM24.2821 3.62212C24.2821 3.31833 24.5294 3.07113 24.8331 3.07113C25.1367 3.07113 25.384 3.31836 25.384 3.62193C25.384 3.92572 25.1367 4.17292 24.8331 4.17292C24.5294 4.17292 24.2821 3.92569 24.2821 3.62212Z" fill="#A5CEE4" stroke="#A5CEE4" stroke-width="0.3"/>
<path d="M21.6592 4.88839C20.9609 4.88839 20.393 4.32042 20.393 3.62212C20.393 2.92382 20.9609 2.35586 21.6592 2.35586C22.3576 2.35586 22.9255 2.9238 22.9255 3.62208L21.6592 4.88839ZM21.6592 4.88839C22.3577 4.88839 22.9257 4.32052 22.9255 3.62212L21.6592 4.88839ZM21.1082 3.62212C21.1082 3.31833 21.3556 3.07113 21.6592 3.07113C21.9629 3.07113 22.2102 3.31833 22.2102 3.62212C22.2102 3.92591 21.9629 4.17311 21.6592 4.17311C21.3556 4.17311 21.1082 3.92591 21.1082 3.62212Z" fill="#A5CEE4" stroke="#A5CEE4" stroke-width="0.3"/>
<path d="M17.2201 3.62212C17.2201 4.32042 17.788 4.88839 18.4864 4.88839C19.1847 4.88839 19.7526 4.32042 19.7526 3.62212C19.7526 2.92383 19.1847 2.35586 18.4864 2.35586C17.7881 2.35586 17.2201 2.92382 17.2201 3.62212ZM17.9354 3.62212C17.9354 3.31833 18.1827 3.07113 18.4864 3.07113C18.79 3.07113 19.0374 3.31833 19.0374 3.62212C19.0374 3.92591 18.79 4.17311 18.4864 4.17311C18.1827 4.17311 17.9354 3.92591 17.9354 3.62212Z" fill="#A5CEE4" stroke="#A5CEE4" stroke-width="0.3"/>
<path d="M3.25852 3.26406H3.25852C3.06107 3.26406 2.90078 3.42398 2.90078 3.6218C2.90078 3.81962 3.06107 3.97954 3.25852 3.97954L14.869 3.97954H15.019C15.2164 3.97954 15.3767 3.81971 15.3767 3.62199C15.3767 3.42417 15.2165 3.26425 15.019 3.26425L3.25852 3.26406Z" fill="#A5CEE4" stroke="#A5CEE4" stroke-width="0.3"/>
<path d="M7.84987 19.5055L7.84986 19.5055C6.62278 18.2784 5.94668 16.6461 5.94668 14.9107C5.94668 13.1753 6.62277 11.5431 7.84985 10.3162C7.84986 10.3162 7.84986 10.3162 7.84987 10.3162M7.84987 19.5055L12.4446 8.56299C10.749 8.56299 9.15488 9.22309 7.95593 10.4222L7.84987 10.3162M7.84987 19.5055C9.0787 20.7341 10.6813 21.367 12.2946 21.4039V21.4058H12.4446C14.1082 21.4058 15.7724 20.7726 17.0393 19.5059L17.0394 19.5058C19.5729 16.9719 19.5729 12.8499 17.0394 10.3162C15.8124 9.0889 14.1802 8.4128 12.4446 8.41299L7.84987 19.5055ZM7.84987 10.3162C9.07696 9.08889 10.7092 8.41299 12.4446 8.41299L7.84987 10.3162Z" fill="#A5CEE4" stroke="#A5CEE4" stroke-width="0.3"/>
<path d="M9.29908 11.766C10.1282 10.9371 11.2283 10.4764 12.4027 10.4658M9.29908 11.766C9.29907 11.766 9.29906 11.766 9.29905 11.7661M9.29908 11.766C9.29907 11.766 9.29906 11.766 9.29905 11.7661M9.29908 11.766L9.29925 18.0561M12.4027 10.4658L9.29905 11.7661M12.4027 10.4658H12.4441C13.6341 10.4658 14.7505 10.9276 15.5893 11.7662C17.3234 13.5003 17.3234 16.3221 15.5893 18.0563L12.4027 10.4658ZM9.29905 11.7661C8.46052 12.6049 7.99882 13.7213 7.99882 14.9111C7.99882 16.1011 8.46054 17.2174 9.29925 18.0561M9.29925 18.0561C11.0335 19.7902 13.8553 19.7903 15.5893 18.0563L9.29925 18.0561ZM16.0953 18.5624L16.0953 18.5624C15.0886 19.5689 13.7661 20.072 12.4445 20.072H12.2945V20.0697C11.023 20.0331 9.76208 19.5307 8.79354 18.5619L16.0953 18.5624ZM16.0953 18.5624C18.1086 16.5492 18.1086 13.2735 16.0953 11.2603M16.0953 18.5624L16.0953 11.2603M8.79355 11.2603C7.81988 12.2338 7.28359 13.5311 7.28359 14.9111C7.28359 16.2914 7.81988 17.5883 8.79353 18.5619L15.9892 11.3664L16.0953 11.2603M8.79355 11.2603L8.8996 11.3664L8.79355 11.2603ZM8.79355 11.2603C9.7672 10.2867 11.0643 9.75039 12.4445 9.75039C13.8245 9.75039 15.1218 10.2867 16.0953 11.2603C16.0953 11.2603 16.0953 11.2603 16.0953 11.2603" fill="#A5CEE4" stroke="#A5CEE4" stroke-width="0.3"/>
<path d="M21.969 25.5196H21.6623C21.2911 25.5196 20.9412 25.3748 20.6786 25.1122C20.6786 25.1122 20.6786 25.1122 20.6786 25.1122L15.7409 20.1746M21.969 25.5196L15.7409 20.1746M21.969 25.5196L21.9462 25.4903C22.2094 25.4359 22.4513 25.3062 22.6456 25.1122L22.6456 25.1122C22.9083 24.8497 23.0531 24.4998 23.0531 24.1286C23.0531 23.7572 22.9083 23.4075 22.6457 23.1449L17.7081 18.2074L17.602 18.3133L17.708 18.2073L17.7081 18.2073C17.5685 18.0674 17.342 18.0676 17.2023 18.2072M21.969 25.5196L15.7409 20.1746M15.7409 20.1746C15.6013 20.0349 15.6011 19.8084 15.741 19.6688C15.8807 19.5292 16.1071 19.529 16.2468 19.6689L16.2467 19.6688L16.1406 19.7749L16.2468 19.6689L21.1843 24.6065C21.4377 24.8598 21.8866 24.8598 22.1399 24.6065C22.2677 24.4786 22.3378 24.3094 22.3378 24.1289C22.3378 23.948 22.2677 23.7789 22.1399 23.6511L22.1399 23.6511L17.2023 18.713C17.2023 18.713 17.2023 18.713 17.2023 18.713C17.0626 18.5733 17.0624 18.3469 17.2023 18.2072M17.2023 18.2072C17.2023 18.2072 17.2023 18.2072 17.2023 18.2073L17.3083 18.3133L17.2024 18.2071C17.2024 18.2072 17.2024 18.2072 17.2023 18.2072Z" fill="#A5CEE4" stroke="#A5CEE4" stroke-width="0.3"/>
<path d="M12.4941 11.9147C12.0136 11.9008 11.568 12.0774 11.2279 12.4082L11.2279 12.4083C10.8876 12.7395 10.6996 13.1843 10.6996 13.6593C10.6996 13.8572 10.8599 14.0171 11.0573 14.0171C11.2548 14.0171 11.4151 13.8572 11.4151 13.6593C11.4151 13.3785 11.5255 13.1169 11.7268 12.921C11.9287 12.7246 12.1947 12.6194 12.4728 12.6301L12.4745 12.6301C13.0096 12.6447 13.4595 13.0946 13.4743 13.6298L13.4743 13.6298C13.4835 13.9617 13.331 14.2797 13.0665 14.4802L13.0665 14.4802C12.4504 14.9477 12.0871 15.7128 12.0871 16.5242C12.0871 16.6528 12.1549 16.7654 12.2566 16.8284L13.4082 14.9308C13.8177 14.62 14.0537 14.1281 14.0393 13.6143L14.1893 13.6102C14.1893 13.6102 14.1893 13.6102 14.1893 13.6102C14.1641 12.6989 13.405 11.94 12.4941 11.9147ZM12.4941 11.9147C12.4941 11.9147 12.494 11.9147 12.494 11.9147L12.4899 12.0647L12.4942 11.9147C12.4942 11.9147 12.4942 11.9147 12.4941 11.9147Z" fill="#A5CEE4" stroke="#A5CEE4" stroke-width="0.3"/>
<path d="M12.0873 17.5504C12.0873 17.7483 12.2476 17.9082 12.445 17.9082C12.6426 17.9082 12.8028 17.748 12.8028 17.5504V17.3005C12.8028 17.1027 12.6425 16.9428 12.445 16.9428C12.2476 16.9428 12.0873 17.1027 12.0873 17.3005V17.5504Z" fill="#A5CEE4" stroke="#A5CEE4" stroke-width="0.3"/>
</svg>
