<svg width="302" height="300" viewBox="0 0 302 300" fill="none" xmlns="http://www.w3.org/2000/svg">
<path d="M35.3582 283.605H0V187.35H35.3582V283.605ZM58.89 273.47H45.0755V197.483H58.89V273.47ZM293.241 238.217L127.042 299.998L70.1432 267.267L70.1581 203.63H104.876L132.497 227.666C133.38 228.44 134.512 228.862 135.685 228.862H183.621C188.825 228.862 193.063 233.098 193.063 238.304C193.063 243.508 188.827 247.746 183.621 247.746H141.258C138.573 247.746 136.4 249.92 136.4 252.605C136.4 255.29 138.573 257.463 141.258 257.463H183.621C194.187 257.463 202.778 248.872 202.778 238.306C202.778 237.98 202.769 237.656 202.754 237.329L286.577 215.762C294.014 213.857 301.198 219.469 301.198 227.134C301.198 231.767 298.372 236.429 293.238 238.221L293.241 238.217Z" fill="#A5CEE4"/>
<path d="M119.471 0C86.2419 0 59.2305 27.0126 59.2305 60.1917C59.2305 93.4211 86.2408 120.482 119.471 120.482C152.652 120.482 179.712 93.4221 179.712 60.1917C179.712 27.0109 152.653 0 119.471 0V0ZM119.456 102.125C96.3472 102.125 77.5504 83.3238 77.5504 60.2146C77.5504 37.1055 96.3472 18.3087 119.456 18.3087C142.566 18.3087 161.367 37.1055 161.367 60.2146C161.369 83.3238 142.566 102.125 119.456 102.125Z" fill="#A5CEE4"/>
<path d="M119.456 25.5972C100.365 25.5972 84.8379 41.1245 84.8379 60.215C84.8379 79.3056 100.365 94.8394 119.456 94.8394C138.546 94.8394 154.08 79.3061 154.08 60.215C154.08 41.1261 138.547 25.5972 119.456 25.5972V25.5972ZM119.456 56.5721C126.946 56.5721 133.044 62.6677 133.044 70.1605C133.044 76.1944 129.062 81.2619 123.609 83.0255V85.0944C123.609 87.1056 121.977 88.7373 119.966 88.7373C117.955 88.7373 116.323 87.1056 116.323 85.0944V83.3412C110.347 81.9165 105.876 76.5675 105.876 70.1601C105.876 68.1488 107.508 66.5172 109.519 66.5172C111.53 66.5172 113.162 68.1488 113.162 70.1601C113.162 73.6324 115.986 76.4561 119.458 76.4561C122.93 76.4561 125.758 73.6322 125.758 70.1601C125.758 66.6878 122.93 63.8597 119.458 63.8597C111.967 63.8597 105.876 57.7685 105.876 50.2778C105.876 44.0561 110.101 38.8543 115.815 37.2507L115.813 35.3375C115.813 33.3263 117.444 31.6946 119.456 31.6946C121.467 31.6946 123.099 33.3263 123.099 35.3375L123.101 37.2486C128.817 38.8524 133.044 44.0545 133.044 50.2757C133.044 52.287 131.412 53.9186 129.401 53.9186C127.39 53.9186 125.758 52.287 125.758 50.2757C125.758 46.8034 122.93 43.9753 119.458 43.9753C115.986 43.9753 113.162 46.8035 113.162 50.2757C113.16 53.7501 115.984 56.5717 119.456 56.5717V56.5721Z" fill="#A5CEE4"/>
<path d="M228.01 108.396C208.919 108.396 193.386 123.93 193.386 143.021C193.386 162.112 208.919 177.639 228.01 177.639C247.101 177.639 262.628 162.111 262.628 143.021C262.63 123.93 247.101 108.396 228.01 108.396V108.396ZM228.01 139.378C235.501 139.378 241.592 145.469 241.592 152.96C241.592 158.996 237.61 164.063 232.157 165.827V167.894C232.157 169.905 230.525 171.536 228.514 171.536C226.502 171.536 224.871 169.905 224.871 167.894V166.138C218.895 164.713 214.424 159.364 214.424 152.957C214.424 150.946 216.056 149.314 218.067 149.314C220.078 149.314 221.71 150.946 221.71 152.957C221.71 156.429 224.538 159.253 228.01 159.253C231.482 159.253 234.306 156.429 234.306 152.957C234.306 149.485 231.482 146.661 228.01 146.661C220.52 146.661 214.422 140.565 214.422 133.073C214.422 126.851 218.649 121.651 224.365 120.048V118.137C224.365 116.125 225.997 114.494 228.008 114.494C230.019 114.494 231.651 116.125 231.651 118.137V120.048C237.365 121.652 241.59 126.851 241.59 133.071C241.59 135.082 239.958 136.714 237.947 136.714C235.936 136.714 234.304 135.082 234.304 133.071C234.304 129.599 231.48 126.775 228.008 126.775C224.536 126.775 221.708 129.599 221.708 133.071C221.71 136.55 224.538 139.378 228.01 139.378V139.378Z" fill="#A5CEE4"/>
<path d="M228.007 82.7832C194.778 82.7832 167.767 109.794 167.767 143.024C167.767 176.254 194.777 203.265 228.007 203.265C261.237 203.265 288.248 176.254 288.248 143.024C288.248 109.797 261.238 82.7832 228.007 82.7832V82.7832ZM228.01 184.925C204.9 184.925 186.099 166.128 186.099 143.019C186.099 119.909 204.9 101.108 228.01 101.108C251.119 101.108 269.916 119.909 269.916 143.019C269.916 166.128 251.119 184.925 228.01 184.925Z" fill="#A5CEE4"/>
</svg>
