<svg width="29" height="29" viewBox="0 0 29 29" fill="none" xmlns="http://www.w3.org/2000/svg">
<mask id="path-1-outside-1_1520_1548" maskUnits="userSpaceOnUse" x="4.56738" y="16.4702" width="6" height="8" fill="black">
<rect fill="white" x="4.56738" y="16.4702" width="6" height="8"/>
<path d="M7.61335 17.4702C6.48375 17.4702 5.56738 18.3804 5.56738 19.5223V23.5668C5.56738 23.7979 5.74897 23.9797 5.9803 23.9797H9.25355C9.47748 23.9797 9.66034 23.7981 9.66034 23.5668V19.5223C9.66034 18.381 8.74294 17.4702 7.61333 17.4702H7.61335ZM7.61335 18.2835C8.29329 18.2835 8.84063 18.8421 8.84063 19.5223V20.2637H6.38685V19.5223C6.38711 18.8421 6.93341 18.2835 7.61335 18.2835ZM6.38711 23.1669V21.077H8.84089V23.1669H6.38711Z"/>
</mask>
<path d="M7.61335 17.4702C6.48375 17.4702 5.56738 18.3804 5.56738 19.5223V23.5668C5.56738 23.7979 5.74897 23.9797 5.9803 23.9797H9.25355C9.47748 23.9797 9.66034 23.7981 9.66034 23.5668V19.5223C9.66034 18.381 8.74294 17.4702 7.61333 17.4702H7.61335ZM7.61335 18.2835C8.29329 18.2835 8.84063 18.8421 8.84063 19.5223V20.2637H6.38685V19.5223C6.38711 18.8421 6.93341 18.2835 7.61335 18.2835ZM6.38711 23.1669V21.077H8.84089V23.1669H6.38711Z" fill="#A5CEE4"/>
<path d="M8.84063 20.2637V20.4637H9.04063V20.2637H8.84063ZM6.38685 20.2637H6.18685V20.4637H6.38685V20.2637ZM6.38685 19.5223L6.18685 19.5222V19.5223H6.38685ZM6.38711 23.1669H6.18711V23.3669H6.38711V23.1669ZM6.38711 21.077V20.877H6.18711V21.077H6.38711ZM8.84089 21.077H9.04089V20.877H8.84089V21.077ZM8.84089 23.1669V23.3669H9.04089V23.1669H8.84089ZM7.61335 17.2702C6.37329 17.2702 5.36738 18.27 5.36738 19.5223H5.76738C5.76738 18.4909 6.5942 17.6702 7.61335 17.6702V17.2702ZM5.36738 19.5223V23.5668H5.76738V19.5223H5.36738ZM5.36738 23.5668C5.36738 23.9082 5.63843 24.1797 5.9803 24.1797V23.7797C5.85951 23.7797 5.76738 23.6875 5.76738 23.5668H5.36738ZM5.9803 24.1797H9.25355V23.7797H5.9803V24.1797ZM9.25355 24.1797C9.58947 24.1797 9.86034 23.907 9.86034 23.5668H9.46034C9.46034 23.6892 9.36548 23.7797 9.25355 23.7797V24.1797ZM9.86034 23.5668V19.5223H9.46034V23.5668H9.86034ZM9.86034 19.5223C9.86034 18.2705 8.8533 17.2702 7.61333 17.2702V17.6702C8.63257 17.6702 9.46034 18.4916 9.46034 19.5223H9.86034ZM7.61333 17.6702H7.61335V17.2702H7.61333V17.6702ZM7.61335 18.4835C8.18045 18.4835 8.64063 18.9501 8.64063 19.5223H9.04063C9.04063 18.734 8.40614 18.0835 7.61335 18.0835V18.4835ZM8.64063 19.5223V20.2637H9.04063V19.5223H8.64063ZM8.84063 20.0637H6.38685V20.4637H8.84063V20.0637ZM6.58685 20.2637V19.5223H6.18685V20.2637H6.58685ZM6.58685 19.5224C6.58707 18.9499 7.04649 18.4835 7.61335 18.4835V18.0835C6.82033 18.0835 6.18715 18.7343 6.18685 19.5222L6.58685 19.5224ZM6.58711 23.1669V21.077H6.18711V23.1669H6.58711ZM6.38711 21.277H8.84089V20.877H6.38711V21.277ZM8.64089 21.077V23.1669H9.04089V21.077H8.64089ZM8.84089 22.9669H6.38711V23.3669H8.84089V22.9669Z" fill="#A5CEE4" mask="url(#path-1-outside-1_1520_1548)"/>
<path d="M11.5406 11.239C11.5401 11.5247 11.7655 11.7521 12.0466 11.7521C12.0466 11.7521 12.0467 11.7521 12.0467 11.7521H16.9595C17.2407 11.7521 17.4663 11.5248 17.4663 11.2392V7.99679C17.4663 6.36154 16.1341 5.04258 14.4999 5.04258C12.8665 5.04258 11.5406 6.36178 11.5406 7.99679V11.239ZM11.5406 11.239C11.5406 11.239 11.5406 11.239 11.5406 11.2389L11.6406 11.2392H11.5406V11.239ZM12.5534 10.7263V8.5097H16.4462V10.7263H12.5534ZM14.4994 6.05619C15.398 6.05619 16.1546 6.66744 16.378 7.49637H12.6226C12.8501 6.66646 13.6069 6.05619 14.4994 6.05619Z" fill="#A5CEE4" stroke="#A5CEE4" stroke-width="0.2"/>
<path d="M23.5396 19.5223V19.5223C23.5394 18.3254 22.5717 17.3702 21.3863 17.3702H21.3863C20.2076 17.3702 19.2467 18.3254 19.2467 19.5223V23.5668C19.2467 23.8521 19.472 24.0797 19.7535 24.0797H23.0267C23.3047 24.0797 23.5396 23.8545 23.5396 23.5668V19.5223ZM21.3863 18.3835C22.0104 18.3835 22.5199 18.8968 22.5199 19.5223V20.1637H20.26V19.5223C20.26 18.8963 20.7682 18.3835 21.3863 18.3835ZM20.26 23.0669V21.177H22.5199V23.0669H20.26Z" fill="#A5CEE4" stroke="#A5CEE4" stroke-width="0.2"/>
<path d="M15.7759 23.0665C15.4966 23.0665 15.2691 23.2933 15.2691 23.5669C15.2691 23.8522 15.4945 24.0798 15.7759 24.0798C16.0539 24.0798 16.2889 23.8546 16.2889 23.5669C16.2889 23.2909 16.0521 23.0665 15.7759 23.0665Z" fill="#A5CEE4" stroke="#A5CEE4" stroke-width="0.2"/>
<path d="M27.3123 27.0859L27.3124 27.086H26.0593V14.2421H27.5934C27.8011 14.2421 27.9912 14.1227 28.0686 13.9236L28.0688 13.9232C28.1425 13.7312 28.1014 13.5049 27.9465 13.3649C27.9462 13.3647 27.9459 13.3644 27.9456 13.3641L14.8479 1.03736L14.8479 1.03736L14.8474 1.03692C14.6509 0.854361 14.3492 0.854361 14.1527 1.03692L14.1527 1.03691L14.1523 1.03737L1.05995 13.3639C1.05973 13.3641 1.05952 13.3643 1.0593 13.3645C0.906521 13.5042 0.862322 13.7295 0.937356 13.9228C1.01353 14.1209 1.19729 14.2415 1.40758 14.2415H2.94672V27.0854H1.4068C1.12549 27.0854 0.9 27.3142 0.9 27.5983C0.9 27.8872 1.12899 28.1 1.4068 28.1H27.5932C27.8746 28.1 28.1061 27.8886 28.1061 27.5983C28.1061 27.3135 27.8784 27.0859 27.5932 27.0859H27.3123ZM2.69064 13.2286L14.4992 2.10919L26.3142 13.2286H2.69064ZM12.353 27.086V20.5433C12.353 19.3471 13.3161 18.3836 14.4992 18.3836C15.6827 18.3836 16.6525 19.3475 16.6525 20.5433V27.086H12.353ZM17.6728 27.086V20.5433C17.6728 18.7863 16.2496 17.3703 14.4998 17.3703C12.7569 17.3703 11.3342 18.787 11.3342 20.5433V27.086H3.96036V14.2421H25.0388V27.086H17.6728Z" fill="#A5CEE4" stroke="#A5CEE4" stroke-width="0.2"/>
</svg>
