<svg width="163" height="300" viewBox="0 0 163 300" fill="none" xmlns="http://www.w3.org/2000/svg">
<path d="M0 300.001H162.5V83.8367L116.164 37.5002H87.5V51.1524C93.1055 53.1334 97.4386 57.6563 99.18 63.3424C100.918 69.026 99.8608 75.201 96.3256 79.9802C92.7877 84.7598 87.1963 87.5781 81.2506 87.5781C75.3049 87.5781 69.7135 84.76 66.1756 79.9802C62.6405 75.2007 61.583 69.026 63.3213 63.3424C65.0624 57.656 69.3955 53.1331 75.0013 51.1524V37.5002H46.3377L0.0012861 83.8367L0 300.001ZM81.25 125.001C99.4836 125.001 116.97 132.245 129.864 145.137C142.757 158.031 150 175.517 150 193.751C150 211.985 142.756 229.471 129.864 242.365C116.97 255.258 99.4843 262.501 81.25 262.501C63.0157 262.501 45.53 255.257 32.6364 242.365C19.7429 229.471 12.5 211.985 12.5 193.751C12.5195 175.522 19.7714 158.048 32.6593 145.16C45.5471 132.272 63.0221 125.021 81.25 125.001Z" fill="#A5CEE4"/>
<path d="M81.2539 249.999C96.1732 249.999 110.481 244.073 121.028 233.523C131.578 222.976 137.504 208.668 137.504 193.749C137.504 178.83 131.578 164.522 121.028 153.975C110.481 143.425 96.1732 137.499 81.2539 137.499C66.3346 137.499 52.0268 143.425 41.4796 153.975C30.9296 164.522 25.0039 178.83 25.0039 193.749C25.0206 208.663 30.9525 222.96 41.4968 233.506C52.0439 244.05 66.3403 249.982 81.2539 249.999V249.999ZM81.2539 199.999C75.3136 200.013 69.7196 197.206 66.1811 192.435C62.6459 187.664 61.5828 181.495 63.3239 175.813C65.065 170.135 69.4009 165.62 75.0039 163.651V156.249C75.0039 152.798 77.8025 149.999 81.2539 149.999C84.7053 149.999 87.5039 152.798 87.5039 156.249V163.651C91.1507 164.935 94.3091 167.315 96.5468 170.468C98.7845 173.618 99.9926 177.384 100.004 181.249C100.004 184.7 97.2052 187.499 93.7538 187.499C90.3023 187.499 87.5038 184.7 87.5038 181.249C87.5038 178.721 85.9803 176.442 83.645 175.476C81.3096 174.508 78.6227 175.041 76.8341 176.829C75.0455 178.618 74.5127 181.305 75.4809 183.64C76.4463 185.976 78.7259 187.499 81.2538 187.499C87.194 187.485 92.7881 190.292 96.3266 195.063C99.8618 199.835 100.925 206.003 99.1838 211.685C97.4427 217.363 93.1068 221.878 87.5038 223.847V231.249C87.5038 234.7 84.7052 237.499 81.2538 237.499C77.8023 237.499 75.0038 234.7 75.0038 231.249V223.847C71.357 222.563 68.1986 220.183 65.9609 217.03C63.7232 213.88 62.5151 210.114 62.5039 206.249C62.5039 202.798 65.3025 199.999 68.7539 199.999C72.2053 199.999 75.0039 202.798 75.0039 206.249C75.0039 208.777 76.5273 211.057 78.8627 212.022C81.1981 212.99 83.885 212.457 85.6736 210.669C87.4621 208.88 87.995 206.193 87.0268 203.858C86.0613 201.522 83.7818 199.999 81.2539 199.999Z" fill="#A5CEE4"/>
<path d="M87.5 68.7485C87.5 72.2 84.7014 74.9985 81.25 74.9985C77.7986 74.9985 75 72.2 75 68.7485C75 65.2971 77.7986 62.4985 81.25 62.4985C84.7014 62.4985 87.5 65.2971 87.5 68.7485Z" fill="#A5CEE4"/>
<path d="M75 25H87.5V6.25C87.5 2.79857 84.7014 0 81.25 0C77.7986 0 75 2.79857 75 6.25V25Z" fill="#A5CEE4"/>
</svg>
