<svg width="28" height="27" viewBox="0 0 28 27" fill="none" xmlns="http://www.w3.org/2000/svg">
<path d="M25.0631 13.9503C25.2057 14.3537 25.5313 14.6656 25.9405 14.7909C26.3496 14.916 26.794 14.8399 27.138 14.5855C27.482 14.3309 27.685 13.9284 27.685 13.5005C27.685 13.0726 27.482 12.6701 27.138 12.4155C26.794 12.161 26.3496 12.0849 25.9405 12.21C25.5312 12.3354 25.2057 12.6472 25.0631 13.0507H22.2814V9.18831L23.3672 8.10248H24.1635C24.306 8.50593 24.6316 8.8178 25.0408 8.94314C25.4499 9.06825 25.8943 8.99214 26.2383 8.7377C26.5823 8.48306 26.7854 8.08062 26.7854 7.65269C26.7854 7.22475 26.5823 6.82231 26.2383 6.56768C25.8943 6.31324 25.4499 6.23713 25.0408 6.36224C24.6316 6.48755 24.306 6.79942 24.1635 7.2029H23.1811C23.0618 7.2029 22.9473 7.25029 22.863 7.33463L21.7482 8.44941L19.1325 7.06437V4.50389H20.5647C20.7073 4.90734 21.0328 5.21921 21.4421 5.34455C21.8512 5.46966 22.2956 5.39355 22.6396 5.13911C22.9836 4.88447 23.1866 4.48204 23.1866 4.0541C23.1866 3.62616 22.9836 3.22372 22.6396 2.96909C22.2956 2.71465 21.8512 2.63854 21.4421 2.76365C21.0328 2.88896 20.7073 3.20084 20.5647 3.60431H18.6827C18.4342 3.60431 18.2328 3.80573 18.2328 4.05415V6.5881L14.6341 4.68392V2.62191C15.0376 2.47933 15.3494 2.1538 15.4748 1.74455C15.5999 1.33548 15.5238 0.891039 15.2693 0.547055C15.0147 0.203049 14.6123 0 14.1843 0C13.7564 0 13.3539 0.203029 13.0993 0.547055C12.8449 0.89106 12.7688 1.33548 12.8939 1.74455C13.0192 2.15382 13.3311 2.47935 13.7345 2.62191V4.68392L10.1358 6.58892V4.05415C10.1358 3.93486 10.0884 3.82039 10.0041 3.73605C9.91975 3.6517 9.80528 3.60431 9.68599 3.60431H7.80392C7.66134 3.20086 7.3358 2.88899 6.92655 2.76365C6.51748 2.63854 6.07304 2.71465 5.72906 2.96909C5.38505 3.22373 5.182 3.62616 5.182 4.0541C5.182 4.48204 5.38503 4.88448 5.72906 5.13911C6.07307 5.39355 6.51748 5.46966 6.92655 5.34455C7.33582 5.21924 7.66136 4.90736 7.80392 4.50389H9.23615V7.06437L6.62025 8.44941L5.50548 7.33463H5.50568C5.42133 7.25029 5.30687 7.2029 5.18758 7.2029H4.20518C4.0626 6.79944 3.73707 6.48758 3.32782 6.36224C2.91875 6.23713 2.47431 6.31324 2.13032 6.56768C1.78632 6.82232 1.58327 7.22475 1.58327 7.65269C1.58327 8.08062 1.7863 8.48306 2.13032 8.7377C2.47433 8.99214 2.91875 9.06825 3.32782 8.94314C3.73709 8.81782 4.06262 8.50595 4.20518 8.10248H5.00142L6.08725 9.18831V13.0507H3.30551C3.16293 12.6472 2.83739 12.3354 2.42814 12.21C2.01907 12.0849 1.57463 12.161 1.23065 12.4155C0.886643 12.6701 0.683594 13.0726 0.683594 13.5005C0.683594 13.9284 0.886622 14.3309 1.23065 14.5855C1.57465 14.8399 2.01907 14.916 2.42814 14.7909C2.83741 14.6656 3.16295 14.3538 3.30551 13.9503H6.08725V17.8127L5.00142 18.8985H4.20518C4.0626 18.495 3.73707 18.1832 3.32782 18.0578C2.91875 17.9327 2.47431 18.0088 2.13032 18.2633C1.78632 18.5179 1.58327 18.9204 1.58327 19.3483C1.58327 19.7762 1.7863 20.1787 2.13032 20.4333C2.47433 20.6877 2.91875 20.7639 3.32782 20.6387C3.73709 20.5134 4.06262 20.2016 4.20518 19.7981H5.18758C5.30687 19.7981 5.42133 19.7507 5.50568 19.6663L6.62045 18.5516L9.23615 19.9366V22.4971H7.80391C7.66133 22.0936 7.3358 21.7818 6.92655 21.6564C6.51748 21.5313 6.07304 21.6074 5.72905 21.8619C5.38505 22.1165 5.182 22.5189 5.182 22.9469C5.182 23.3748 5.38503 23.7773 5.72905 24.0319C6.07306 24.2863 6.51748 24.3624 6.92655 24.2373C7.33582 24.112 7.66135 23.8001 7.80391 23.3967H9.68598C9.80527 23.3967 9.91974 23.3493 10.0041 23.2649C10.0884 23.1806 10.1358 23.0661 10.1358 22.9468V20.4129L13.7345 22.3171V24.3783C13.3311 24.5209 13.0192 24.8464 12.8939 25.2555C12.7688 25.6647 12.8449 26.1091 13.0993 26.4532C13.3539 26.7972 13.7564 27 14.1843 27C14.6123 27 15.0147 26.7972 15.2693 26.4532C15.5238 26.1091 15.5999 25.6647 15.4748 25.2555C15.3495 24.8464 15.0376 24.5209 14.6341 24.3783V22.3171L18.2328 20.4121V22.9468C18.2328 23.0661 18.2802 23.1806 18.3646 23.2649C18.4489 23.3493 18.5634 23.3967 18.6827 23.3967H20.5647C20.7073 23.8001 21.0328 24.112 21.4421 24.2373C21.8512 24.3624 22.2956 24.2863 22.6396 24.0319C22.9836 23.7772 23.1866 23.3748 23.1866 22.9469C23.1866 22.5189 22.9836 22.1165 22.6396 21.8619C22.2956 21.6074 21.8512 21.5313 21.4421 21.6564C21.0328 21.7817 20.7073 22.0936 20.5647 22.4971H19.1325V19.9366L21.7484 18.5516L22.8632 19.6663H22.863C22.9473 19.7507 23.0618 19.7981 23.1811 19.7981H24.1635C24.306 20.2015 24.6316 20.5134 25.0408 20.6387C25.4499 20.7639 25.8943 20.6877 26.2383 20.4333C26.5823 20.1787 26.7854 19.7762 26.7854 19.3483C26.7854 18.9204 26.5823 18.5179 26.2383 18.2633C25.8943 18.0088 25.4499 17.9327 25.0408 18.0578C24.6316 18.1832 24.306 18.495 24.1635 18.8985H23.3672L22.2814 17.8127V13.9503H25.0631ZM26.3299 13.0506C26.5119 13.0506 26.6759 13.1603 26.7454 13.3283C26.8151 13.4964 26.7768 13.6898 26.648 13.8185C26.5193 13.9473 26.3259 13.9856 26.1578 13.9159C25.9897 13.8465 25.8801 13.6824 25.8801 13.5004C25.8801 13.252 26.0815 13.0506 26.3299 13.0506ZM25.4303 7.20271C25.6122 7.20271 25.7763 7.31236 25.8458 7.48044C25.9154 7.64853 25.8771 7.84192 25.7484 7.97065C25.6196 8.09938 25.4262 8.13773 25.2582 8.06804C25.0901 7.99856 24.9804 7.83449 24.9804 7.65255C24.9804 7.40413 25.1818 7.20271 25.4303 7.20271ZM21.8316 3.60401C22.0135 3.60401 22.1776 3.71365 22.247 3.88174C22.3167 4.04982 22.2784 4.24321 22.1497 4.37194C22.0209 4.50067 21.8275 4.53903 21.6594 4.46934C21.4914 4.39985 21.3817 4.23578 21.3817 4.05384C21.3817 3.80543 21.5831 3.60401 21.8316 3.60401ZM6.53706 4.50368C6.35511 4.50368 6.19104 4.39403 6.12156 4.22595C6.05187 4.05786 6.09023 3.86447 6.21896 3.73574C6.34768 3.60701 6.54107 3.56866 6.70916 3.63835C6.87725 3.70783 6.98689 3.8719 6.98689 4.05384C6.98689 4.17313 6.9395 4.2876 6.85516 4.37194C6.77081 4.45629 6.65634 4.50368 6.53706 4.50368ZM2.93835 8.10239C2.75641 8.10239 2.59234 7.99274 2.52286 7.82465C2.45317 7.65657 2.49153 7.46318 2.62025 7.33445C2.74898 7.20572 2.94237 7.16737 3.11046 7.23705C3.27854 7.30654 3.38819 7.47061 3.38819 7.65255C3.38819 7.77183 3.3408 7.8863 3.25645 7.97065C3.17211 8.05499 3.05764 8.10239 2.93835 8.10239ZM2.03868 13.9503C1.85673 13.9503 1.69266 13.8406 1.62318 13.6725C1.55349 13.5045 1.59185 13.3111 1.72058 13.1823C1.8493 13.0536 2.04269 13.0153 2.21078 13.0849C2.37887 13.1544 2.48851 13.3185 2.48851 13.5004C2.48851 13.6197 2.44112 13.7342 2.35678 13.8185C2.27243 13.9029 2.15796 13.9503 2.03868 13.9503ZM2.93835 19.7982C2.75641 19.7982 2.59234 19.6885 2.52286 19.5204C2.45317 19.3524 2.49153 19.159 2.62025 19.0302C2.74898 18.9015 2.94237 18.8632 3.11046 18.9328C3.27854 19.0023 3.38819 19.1664 3.38819 19.3483C3.38819 19.4676 3.3408 19.5821 3.25645 19.6664C3.17211 19.7508 3.05764 19.7982 2.93835 19.7982ZM6.53706 23.3969C6.35511 23.3969 6.19104 23.2872 6.12156 23.1191C6.05187 22.9511 6.09023 22.7577 6.21896 22.6289C6.34768 22.5002 6.54107 22.4619 6.70916 22.5315C6.87725 22.601 6.98689 22.7651 6.98689 22.947C6.98689 23.0663 6.9395 23.1808 6.85516 23.2651C6.77081 23.3495 6.65634 23.3969 6.53706 23.3969ZM21.8316 22.4972C22.0135 22.4972 22.1776 22.6069 22.247 22.7749C22.3167 22.943 22.2784 23.1364 22.1497 23.2651C22.0209 23.3939 21.8275 23.4322 21.6594 23.3625C21.4914 23.2931 21.3817 23.129 21.3817 22.947C21.3817 22.6986 21.5831 22.4972 21.8316 22.4972ZM25.4303 18.8985C25.6122 18.8985 25.7763 19.0081 25.8458 19.1762C25.9154 19.3443 25.8771 19.5377 25.7484 19.6664C25.6196 19.7952 25.4262 19.8335 25.2582 19.7638C25.0901 19.6943 24.9804 19.5303 24.9804 19.3483C24.9804 19.0999 25.1818 18.8985 25.4303 18.8985ZM14.1843 0.904977C14.3663 0.904977 14.5303 1.01462 14.5998 1.18271C14.6695 1.35079 14.6311 1.54418 14.5024 1.67291C14.3737 1.80165 14.1803 1.84 14.0122 1.77031C13.8441 1.70082 13.7345 1.53675 13.7345 1.35481C13.7345 1.1064 13.9359 0.904977 14.1843 0.904977ZM14.1843 26.0959C14.0024 26.0959 13.8383 25.9863 13.7688 25.8182C13.6991 25.6501 13.7375 25.4567 13.8662 25.328C13.9949 25.1992 14.1883 25.1609 14.3564 25.2306C14.5245 25.3001 14.6341 25.4641 14.6341 25.6461C14.6341 25.7654 14.5867 25.8798 14.5024 25.9642C14.4181 26.0485 14.3036 26.0959 14.1843 26.0959ZM21.3817 17.7289L14.1843 21.5387L6.98689 17.7289V9.27197L14.1843 5.4614L21.3817 9.27197V17.7289Z" fill="#A5CEE4"/>
<path d="M13.9831 6.35018L7.68535 9.49905C7.53272 9.57536 7.43653 9.73119 7.43653 9.90169V17.0991C7.43553 17.2704 7.53212 17.4274 7.68535 17.504L13.9831 20.6528C14.1096 20.7161 14.2586 20.7161 14.3851 20.6528L20.6829 17.504C20.8361 17.4274 20.9327 17.2704 20.9317 17.0991V9.90169C20.9317 9.73119 20.8355 9.57535 20.6829 9.49905L14.3851 6.35018C14.2586 6.28692 14.1096 6.28692 13.9831 6.35018ZM20.032 10.1796V16.8213L14.1841 19.7452L8.3362 16.8213V10.1796L14.1841 7.25567L20.032 10.1796Z" fill="#A5CEE4"/>
<path d="M11.0357 13.3942L10.0911 11.5001C9.99927 11.3105 9.78821 11.2099 9.58318 11.2581C9.37814 11.3065 9.23395 11.4904 9.23636 11.7011V15.7496H10.136V13.6066L11.0829 15.501V15.5008C11.1761 15.6878 11.3855 15.786 11.5888 15.738C11.792 15.6902 11.9356 15.5086 11.9354 15.2998V11.2512H11.0357V13.3942Z" fill="#A5CEE4"/>
<path d="M12.835 11.7013V15.7498H13.7346V13.9505H15.0842V13.0508H13.7346V12.1511H15.534V11.2515H13.2848C13.0364 11.2515 12.835 11.4529 12.835 11.7013Z" fill="#A5CEE4"/>
<path d="M17.3333 15.7498H18.2329V12.1511H19.1326V11.2515H16.4336V12.1511H17.3333V15.7498Z" fill="#A5CEE4"/>
</svg>
