<svg width="34" height="35" viewBox="0 0 34 35" fill="none" xmlns="http://www.w3.org/2000/svg">
<path d="M4.4784 0.800288L4.47211 0.793986L4.38094 0.80051C4.16888 0.815687 3.97427 0.952227 3.88835 1.14709L3.88834 1.14709L3.88782 1.14828L0.858148 8.142C0.79235 8.26313 0.797825 8.37516 0.801008 8.44028C0.801579 8.45195 0.802075 8.46211 0.802075 8.47055V12.7275C0.802075 14.142 1.82676 15.2543 3.15245 15.6071V33.6162C3.15245 33.9276 3.42481 34.2 3.73628 34.2H30.3447C30.6564 34.2 30.9281 33.9275 30.9285 33.6164V33.6162V15.6071C32.2542 15.2543 33.2789 14.1423 33.2789 12.7275V8.47055C33.2789 8.32678 33.2584 8.24968 33.2399 8.17967C33.2388 8.17566 33.2378 8.17168 33.2367 8.1677L33.2328 8.15299L33.2268 8.13904L30.1923 1.14843L30.1916 1.14697C30.0982 0.936391 29.8773 0.795711 29.6469 0.800288H4.4784ZM29.7614 15.7315V33.0326H28.1108V22.2005C28.1108 21.8888 27.8383 21.6171 27.5272 21.6167H27.527H20.524C20.2123 21.6167 19.9406 21.8892 19.9402 22.2003V22.2005V33.0326H4.31976V15.7315C5.26711 15.6344 6.08671 15.1351 6.60154 14.409C7.17183 15.2217 8.11392 15.7695 9.20438 15.7695C10.296 15.7695 11.2461 15.222 11.8185 14.4091C12.3916 15.2222 13.3428 15.7695 14.4323 15.7695C15.5206 15.7695 16.4728 15.2281 17.0466 14.4186C17.6192 15.2247 18.5616 15.7695 19.6486 15.7695C20.7401 15.7695 21.6902 15.222 22.2625 14.4093C22.8349 15.2223 23.785 15.7695 24.8768 15.7695C25.9674 15.7695 26.9086 15.2214 27.4795 14.4088C27.9943 15.135 28.8139 15.6344 29.7614 15.7315ZM4.81422 1.96738H29.2662L31.8028 7.81493H2.2784L4.81422 1.96738ZM1.9692 8.98265H6.01805V12.7277C6.01805 13.7395 5.12495 14.6021 3.9876 14.6021C2.84768 14.6021 1.9692 13.7417 1.9692 12.7277V8.98265ZM7.18543 8.98265H11.2343V12.7277C11.2343 13.7403 10.3452 14.6021 9.20383 14.6021C8.0679 14.6021 7.18543 13.7414 7.18543 12.7277V8.98265ZM12.4017 8.98265H16.4626V12.7277C16.4626 13.7403 15.5735 14.6021 14.4321 14.6021C13.2948 14.6021 12.4017 13.7393 12.4017 12.7277V8.98265ZM17.63 8.98265H21.6788V12.7277C21.6788 13.7403 20.7897 14.6021 19.6483 14.6021C18.5084 14.6021 17.63 13.7417 17.63 12.7277V8.98265ZM22.8462 8.98265H26.895V12.7277C26.895 13.7409 26.0125 14.6021 24.8766 14.6021C23.7353 14.6021 22.8462 13.7403 22.8462 12.7277V8.98265ZM28.0624 8.98265H32.1113V12.7277C32.1113 13.7417 31.2328 14.6021 30.0929 14.6021C28.9555 14.6021 28.0624 13.7393 28.0624 12.7277V8.98265ZM21.1074 22.7842H26.9429V33.0325H21.1074V22.7842Z" fill="#A5CEE4" stroke="#A5CEE4" stroke-width="0.4"/>
</svg>
