<svg width="331" height="300" viewBox="0 0 331 300" fill="none" xmlns="http://www.w3.org/2000/svg">
<path d="M263.646 163.144L242.595 86.4627C260.898 81.0747 274.3 64.1498 274.3 44.1364C274.3 19.8001 254.506 0 230.156 0C206.963 0 187.929 17.9957 186.189 40.76L78.2654 95.3487C72.2935 93.3202 65.9173 92.1662 59.2651 92.1662C26.5742 92.1662 0 118.747 0 151.434C0 184.119 26.5855 210.699 59.2651 210.699C91.9446 210.699 118.53 184.119 118.53 151.434C118.53 128.474 105.388 108.576 86.2629 98.7412L186.224 48.1878C188.282 70.6283 207.2 88.2811 230.152 88.2811C232.17 88.2811 234.14 88.0985 236.086 87.8356L256.816 163.341C221.552 166.078 193.682 195.591 193.682 231.544C193.682 269.296 224.394 300 262.146 300C299.892 300 330.602 269.291 330.602 231.539C330.602 194.293 300.701 163.949 263.643 163.144L263.646 163.144ZM62.5345 185.969V197.686H55.4339V186.296C48.9001 186.185 42.1393 184.159 38.2046 181.339L40.9028 173.798C44.9597 176.502 50.8124 178.638 57.1359 178.638C65.1278 178.638 70.541 174.017 70.541 167.597C70.5327 161.398 66.1437 157.568 57.8054 154.194C46.3096 149.689 39.2118 144.509 39.2118 134.704C39.2118 125.347 45.8561 118.252 56.2256 116.559V105.182H63.2131V116.107C69.971 116.331 74.5949 118.133 77.8551 120.051L75.038 127.492C72.6747 126.136 68.0532 123.662 60.8416 123.662C52.166 123.662 48.8895 128.848 48.8895 133.356C48.8895 139.218 53.0626 142.138 62.862 146.197C74.4712 150.929 80.3293 156.787 80.3293 166.822C80.3348 175.721 74.1415 184.051 62.5354 185.969L62.5345 185.969ZM232.737 71.3085V80.5296H227.147V71.5742C222.011 71.4829 216.683 69.8972 213.595 67.6723L215.715 61.7391C218.9 63.8672 223.516 65.5497 228.481 65.5497C234.765 65.5497 239.022 61.9134 239.022 56.8685C239.022 51.9842 235.576 48.968 229.012 46.3114C219.971 42.7692 214.379 38.6872 214.379 30.9751C214.379 23.6137 219.62 18.0348 227.759 16.7015V7.74897H233.252V16.3501C238.571 16.5189 242.215 17.9496 244.786 19.4495L242.567 25.3024C240.699 24.2398 237.071 22.2888 231.406 22.2888C224.571 22.2888 222.014 26.3623 222.014 29.9045C222.014 34.5204 225.287 36.8228 233.003 40.016C242.127 43.7326 246.74 48.3487 246.74 56.2357C246.737 63.2454 241.861 69.7959 232.737 71.3092L232.737 71.3085ZM265.829 270.535V283.777H257.815V270.936C250.426 270.804 242.785 268.518 238.338 265.33L241.385 256.804C245.968 259.859 252.587 262.28 259.722 262.28C268.763 262.28 274.873 257.061 274.873 249.8C274.873 242.807 269.906 238.481 260.497 234.665C247.512 229.571 239.49 223.718 239.49 212.64C239.49 202.077 246.998 194.063 258.715 192.148V179.288H266.599V191.636C274.231 191.896 279.456 193.922 283.15 196.083L279.968 204.485C277.295 202.96 272.068 200.154 263.92 200.154C254.127 200.154 250.435 206.023 250.435 211.101C250.435 217.718 255.143 221.031 266.209 225.61C279.321 230.948 285.935 237.581 285.935 248.9C285.941 258.956 278.945 268.374 265.83 270.535L265.829 270.535Z" fill="#A5CEE4"/>
</svg>
