<svg width="35" height="31" viewBox="0 0 35 31" fill="none" xmlns="http://www.w3.org/2000/svg">
<path d="M14.0418 13.7422H14.2918V13.4922V3.76465V3.51465H14.0418H3.62939H3.37939V3.76465V13.4922V13.7422H3.62939H14.0418ZM13.4195 12.8695H4.25229L4.25207 4.3872H13.4192L13.4195 12.8695Z" fill="#A5CEE4" stroke="#A5CEE4" stroke-width="0.5"/>
<path d="M8.83548 8.60406C7.78355 8.60406 6.92822 7.74873 6.92822 6.6968C6.92822 5.64488 7.78355 4.78955 8.83548 4.78955C9.88775 4.78955 10.7432 5.64479 10.7432 6.69674L8.83548 8.60406ZM8.83548 8.60406C9.8875 8.60406 10.7434 7.74888 10.7432 6.6968L8.83548 8.60406ZM7.80089 6.69632C7.80089 6.12628 8.26509 5.66173 8.83548 5.66173C9.4058 5.66173 9.87055 6.12643 9.87055 6.69632C9.87055 7.26624 9.40599 7.73091 8.83548 7.73091C8.26488 7.73091 7.80089 7.26639 7.80089 6.69632Z" fill="#A5CEE4" stroke="#A5CEE4" stroke-width="0.5"/>
<path d="M5.70744 12.4658H11.9593L12.3957 12.0291C12.3957 12.029 12.3957 12.0289 12.3957 12.0288L12.3957 10.4587C12.3957 9.25873 11.4202 8.2832 10.2203 8.2832H7.44646C6.24652 8.2832 5.271 9.25873 5.271 10.4587V12.0294C5.271 12.2707 5.4668 12.4658 5.70744 12.4658ZM11.5229 10.4587V11.5932H6.14329V10.4587C6.14329 9.74068 6.72805 9.15587 7.44609 9.15587H10.2201C10.9381 9.15587 11.5229 9.74064 11.5229 10.4587Z" fill="#A5CEE4" stroke="#A5CEE4" stroke-width="0.5"/>
<mask id="path-4-outside-1_190_2674" maskUnits="userSpaceOnUse" x="15.7266" y="4.57031" width="8" height="2" fill="black">
<rect fill="white" x="15.7266" y="4.57031" width="8" height="2"/>
<path d="M22.6536 5.94319H16.913C16.8102 5.94319 16.7266 5.85975 16.7266 5.75675C16.7266 5.65399 16.81 5.57031 16.913 5.57031H22.6534C22.7561 5.57031 22.8398 5.65375 22.8398 5.75675C22.8398 5.85975 22.7564 5.94319 22.6536 5.94319H22.6536Z"/>
</mask>
<path d="M22.6536 5.94319H16.913C16.8102 5.94319 16.7266 5.85975 16.7266 5.75675C16.7266 5.65399 16.81 5.57031 16.913 5.57031H22.6534C22.7561 5.57031 22.8398 5.65375 22.8398 5.75675C22.8398 5.85975 22.7564 5.94319 22.6536 5.94319H22.6536Z" fill="#A5CEE4"/>
<path d="M22.6536 5.44319H16.913V6.44319H22.6536V5.44319ZM16.913 5.44319C17.086 5.44319 17.2266 5.5832 17.2266 5.75675H16.2266C16.2266 6.1363 16.5345 6.44319 16.913 6.44319V5.44319ZM17.2266 5.75675C17.2266 5.92971 17.0866 6.07031 16.913 6.07031V5.07031C16.5334 5.07031 16.2266 5.37826 16.2266 5.75675H17.2266ZM16.913 6.07031H22.6534V5.07031H16.913V6.07031ZM22.6534 6.07031C22.4804 6.07031 22.3398 5.93031 22.3398 5.75675H23.3398C23.3398 5.37719 23.0319 5.07031 22.6534 5.07031V6.07031ZM22.3398 5.75675C22.3398 5.58402 22.4798 5.44319 22.6536 5.44319V6.44319C23.0329 6.44319 23.3398 6.13549 23.3398 5.75675H22.3398ZM22.6536 6.44319H22.6536V5.44319H22.6536V6.44319Z" fill="#A5CEE4" mask="url(#path-4-outside-1_190_2674)"/>
<mask id="path-6-outside-2_190_2674" maskUnits="userSpaceOnUse" x="15.7266" y="7.12158" width="8" height="2" fill="black">
<rect fill="white" x="15.7266" y="7.12158" width="8" height="2"/>
<path d="M22.6536 8.49446H16.913C16.8102 8.49446 16.7266 8.41102 16.7266 8.30802C16.7266 8.20526 16.81 8.12158 16.913 8.12158H22.6534C22.7561 8.12158 22.8398 8.20502 22.8398 8.30802C22.8398 8.41079 22.7564 8.49446 22.6536 8.49446H22.6536Z"/>
</mask>
<path d="M22.6536 8.49446H16.913C16.8102 8.49446 16.7266 8.41102 16.7266 8.30802C16.7266 8.20526 16.81 8.12158 16.913 8.12158H22.6534C22.7561 8.12158 22.8398 8.20502 22.8398 8.30802C22.8398 8.41079 22.7564 8.49446 22.6536 8.49446H22.6536Z" fill="#A5CEE4"/>
<path d="M22.6536 7.99446H16.913V8.99446H22.6536V7.99446ZM16.913 7.99446C17.086 7.99446 17.2266 8.13447 17.2266 8.30802H16.2266C16.2266 8.68757 16.5345 8.99446 16.913 8.99446V7.99446ZM17.2266 8.30802C17.2266 8.48098 17.0866 8.62158 16.913 8.62158V7.62158C16.5334 7.62158 16.2266 7.92953 16.2266 8.30802H17.2266ZM16.913 8.62158H22.6534V7.62158H16.913V8.62158ZM22.6534 8.62158C22.4804 8.62158 22.3398 8.48157 22.3398 8.30802H23.3398C23.3398 7.92847 23.0319 7.62158 22.6534 7.62158V8.62158ZM22.3398 8.30802C22.3398 8.13547 22.4794 7.99446 22.6536 7.99446V8.99446C23.0333 8.99446 23.3398 8.68611 23.3398 8.30802H22.3398ZM22.6536 8.99446H22.6536V7.99446H22.6536V8.99446Z" fill="#A5CEE4" mask="url(#path-6-outside-2_190_2674)"/>
<mask id="path-8-outside-3_190_2674" maskUnits="userSpaceOnUse" x="15.7266" y="9.67383" width="8" height="2" fill="black">
<rect fill="white" x="15.7266" y="9.67383" width="8" height="2"/>
<path d="M22.6536 11.0467H16.913C16.8102 11.0467 16.7266 10.9633 16.7266 10.8603C16.7266 10.7575 16.81 10.6738 16.913 10.6738H22.6534C22.7561 10.6738 22.8398 10.7573 22.8398 10.8603C22.8398 10.9633 22.7564 11.0467 22.6536 11.0467H22.6536Z"/>
</mask>
<path d="M22.6536 11.0467H16.913C16.8102 11.0467 16.7266 10.9633 16.7266 10.8603C16.7266 10.7575 16.81 10.6738 16.913 10.6738H22.6534C22.7561 10.6738 22.8398 10.7573 22.8398 10.8603C22.8398 10.9633 22.7564 11.0467 22.6536 11.0467H22.6536Z" fill="#A5CEE4"/>
<path d="M22.6536 10.5467H16.913V11.5467H22.6536V10.5467ZM16.913 10.5467C17.086 10.5467 17.2266 10.6867 17.2266 10.8603H16.2266C16.2266 11.2398 16.5345 11.5467 16.913 11.5467V10.5467ZM17.2266 10.8603C17.2266 11.0332 17.0866 11.1738 16.913 11.1738V10.1738C16.5334 10.1738 16.2266 10.4818 16.2266 10.8603H17.2266ZM16.913 11.1738H22.6534V10.1738H16.913V11.1738ZM22.6534 11.1738C22.4804 11.1738 22.3398 11.0338 22.3398 10.8603H23.3398C23.3398 10.4807 23.0319 10.1738 22.6534 10.1738V11.1738ZM22.3398 10.8603C22.3398 10.6875 22.4798 10.5467 22.6536 10.5467V11.5467C23.0329 11.5467 23.3398 11.239 23.3398 10.8603H22.3398ZM22.6536 11.5467H22.6536V10.5467H22.6536V11.5467Z" fill="#A5CEE4" mask="url(#path-8-outside-3_190_2674)"/>
<path d="M18.8374 17.6646V17.664C18.8374 17.4227 18.6416 17.2275 18.401 17.2275H4.15519C3.91432 17.2275 3.71875 17.4227 3.71875 17.6637C3.71875 17.905 3.91456 18.1002 4.15519 18.1002H18.4008C18.4008 18.1002 18.4009 18.1002 18.401 18.1002C18.6419 18.1001 18.8369 17.905 18.8374 17.6646Z" fill="#A5CEE4" stroke="#A5CEE4" stroke-width="0.5"/>
<path d="M16.8498 20.2163V20.2157C16.8498 19.9745 16.654 19.7793 16.4134 19.7793H4.15519C3.91391 19.7793 3.71875 19.9751 3.71875 20.2157C3.71875 20.457 3.91456 20.6522 4.15519 20.6522H16.4134C16.6545 20.6522 16.8493 20.4566 16.8498 20.2163Z" fill="#A5CEE4" stroke="#A5CEE4" stroke-width="0.5"/>
<path d="M16.8498 22.7681V22.7675C16.8498 22.5262 16.654 22.3311 16.4134 22.3311H4.15519C3.91391 22.3311 3.71875 22.5269 3.71875 22.7675C3.71875 23.0088 3.91456 23.2039 4.15519 23.2039H16.4134C16.6545 23.2039 16.8493 23.0084 16.8498 22.7681Z" fill="#A5CEE4" stroke="#A5CEE4" stroke-width="0.5"/>
<path d="M16.8498 25.3179V25.3173C16.8498 25.076 16.654 24.8809 16.4134 24.8809H4.15519C3.91391 24.8809 3.71875 25.0767 3.71875 25.3173C3.71875 25.5586 3.91456 25.7537 4.15519 25.7537H16.4134C16.6545 25.7537 16.8493 25.5582 16.8498 25.3179Z" fill="#A5CEE4" stroke="#A5CEE4" stroke-width="0.5"/>
<path d="M18.2155 19.3478H18.2155C17.5098 19.3478 16.9684 19.8757 16.9684 20.4851V28.5575C16.9684 29.1671 17.5099 29.6948 18.2155 29.6948H31.9907C32.3822 29.6948 32.7562 29.5409 33.0158 29.2796L18.2155 19.3478ZM18.2155 19.3478L32.0796 19.3472C32.7851 19.3472 33.3268 19.8748 33.3268 20.4855L33.3268 20.4871L33.376 28.4206V28.4208M18.2155 19.3478L33.376 28.4208M33.376 28.4208C33.3782 28.7364 33.2523 29.0413 33.0159 29.2796L33.376 28.4208ZM31.9907 30.5681V30.5684L31.997 30.5681C32.6126 30.5665 33.2095 30.3235 33.6352 29.8951L33.6353 29.895C34.0325 29.495 34.2526 28.9697 34.2491 28.4153L34.1998 20.4851C34.1998 20.4849 34.1998 20.4847 34.1998 20.4845C34.1995 19.3623 33.2346 18.4751 32.08 18.4751H18.2155C17.061 18.4751 16.0957 19.3626 16.0957 20.4851V28.5581C16.0957 29.6806 17.0607 30.5681 18.2155 30.5681H31.9907Z" fill="#A5CEE4" stroke="#A5CEE4" stroke-width="0.5"/>
<path d="M28.5671 19.3265H28.8171L28.8171 19.0765L28.8171 17.7646V17.7645C28.8171 16.7834 27.9756 16.0103 26.9714 16.0103H23.3286C22.3245 16.0103 21.4829 16.7834 21.4829 17.7645V19.0765V19.3265H21.7329H28.5671ZM22.3556 17.7647V17.7646C22.3556 17.2967 22.7735 16.8832 23.3285 16.8832H26.9713C27.5262 16.8832 27.9442 17.2969 27.9442 17.7646V18.4538H22.3553L22.3556 17.7647Z" fill="#A5CEE4" stroke="#A5CEE4" stroke-width="0.5"/>
<path d="M19.2512 24.0469H31.0954C31.9645 24.0467 32.671 23.3402 32.671 22.4717V18.9123V18.6623H32.421H32.0484H31.7984V18.9123V22.4717C31.7984 22.8587 31.4831 23.1742 31.0952 23.1742L19.2509 23.174C18.8638 23.174 18.5484 22.8586 18.5484 22.4715V18.9121V18.6621H18.2984H17.9258H17.6758V18.9121V22.4715C17.6758 23.34 18.3821 24.0469 19.2512 24.0469Z" fill="#A5CEE4" stroke="#A5CEE4" stroke-width="0.5"/>
<path d="M23.3847 26.1648H26.9641C27.2803 26.1648 27.5371 25.9078 27.5371 25.5912V25.1142C27.5371 24.7976 27.2803 24.5406 26.9641 24.5406H23.3847C23.0685 24.5406 22.8111 24.798 22.8111 25.1142V25.5912C22.8111 25.9079 23.0686 26.1648 23.3847 26.1648ZM23.384 25.1141C23.384 25.1137 23.3845 25.1133 23.3849 25.1133H26.9643L26.9647 25.1141V25.5912L26.9643 25.5921H23.3849C23.3845 25.5921 23.384 25.5916 23.384 25.5912V25.1141Z" fill="#A5CEE4" stroke="#A5CEE4" stroke-width="0.2"/>
<path d="M26.8717 24.9317H26.9717L26.9717 24.8317L26.9718 23.4238L26.9718 23.3238H26.8718H23.7178H23.6178V23.4238V24.8317V24.9317H23.7178H24.0907H24.1907V24.8317V23.8965H26.3991V24.8317V24.9317H26.4991H26.8717Z" fill="#A5CEE4" stroke="#A5CEE4" stroke-width="0.2"/>
<path d="M23.7178 25.8736H23.6178V25.9736V26.5525C23.6178 26.9709 23.9576 27.3108 24.3756 27.3108H26.2136H26.2137C26.6323 27.3108 26.9715 26.9704 26.9715 26.5525V25.9736V25.8736H26.8715H26.4989H26.3989V25.9736V26.5525C26.3989 26.6549 26.3153 26.7382 26.2137 26.7382H24.3756C24.274 26.7382 24.1904 26.6549 24.1904 26.5525V25.9736V25.8736H24.0904H23.7178Z" fill="#A5CEE4" stroke="#A5CEE4" stroke-width="0.2"/>
<path d="M30.8611 29.0665L30.8608 29.0663C30.5828 28.9246 30.4514 28.6183 30.4395 28.2612C30.4275 27.9021 30.5339 27.4716 30.7539 27.0397L30.8611 29.0665ZM30.8611 29.0665C30.9487 29.1108 31.0437 29.1351 31.1427 29.1389L31.1436 29.1395H31.1707C31.3803 29.1395 31.6013 29.0506 31.8163 28.8917L31.8165 28.8916C32.1029 28.6786 32.3663 28.3473 32.5625 27.9617L32.5626 27.9616C32.7588 27.5755 32.8713 27.168 32.8756 26.8109L32.8756 26.8109M30.8611 29.0665L32.8756 26.8109M32.8756 26.8109C32.8803 26.4063 32.7433 26.0813 32.4558 25.9346C32.1689 25.7873 31.8248 25.8678 31.4999 26.1098L32.8756 26.8109ZM31.8427 26.5691L31.8429 26.569C31.9678 26.4757 32.0734 26.436 32.1421 26.4343H32.1467C32.1684 26.4343 32.1845 26.4385 32.1971 26.4446C32.2177 26.4555 32.2458 26.4845 32.2687 26.5482C32.2913 26.6111 32.3048 26.6977 32.3036 26.8039L32.3036 26.8041C32.3012 27.0668 32.2136 27.386 32.0531 27.7013L32.0531 27.7013C31.8927 28.0165 31.686 28.2747 31.4749 28.4318C31.3897 28.4952 31.3117 28.5348 31.2475 28.5534C31.1825 28.5722 31.1419 28.5667 31.1203 28.5563C31.0961 28.5437 31.0659 28.5111 31.0431 28.4406C31.0205 28.3707 31.0091 28.2747 31.0146 28.1568C31.0256 27.9217 31.1029 27.6167 31.2645 27.2997L31.2645 27.2996C31.425 26.9844 31.6317 26.7262 31.8427 26.5691ZM31.4998 26.1098C31.2135 26.3228 30.9501 26.654 30.7539 27.0396L31.4998 26.1098Z" fill="#A5CEE4" stroke="#A5CEE4" stroke-width="0.2"/>
<path d="M19.197 29.1396H19.1637C18.9153 29.1396 18.6554 29.0165 18.4174 28.8131C18.1781 28.6086 17.9526 28.3164 17.7715 27.9604L17.7715 27.9604C17.5518 27.5282 17.4455 27.0975 17.4576 26.7384C17.4695 26.3813 17.6009 26.0752 17.8788 25.9338C18.1663 25.7865 18.5113 25.8685 18.8342 26.109L19.197 29.1396ZM19.197 29.1396L19.1981 29.1388M19.197 29.1396L19.1981 29.1388M19.1981 29.1388C19.2937 29.1343 19.387 29.1107 19.474 29.0659C19.752 28.9242 19.8833 28.618 19.8952 28.2608C19.9071 27.9017 19.8007 27.471 19.5807 27.0389L19.1981 29.1388ZM19.0706 27.2992L19.0706 27.2992C19.2321 27.6163 19.3096 27.9213 19.3206 28.1565C19.3261 28.2743 19.3147 28.3703 19.2921 28.4402C19.2691 28.5112 19.2386 28.5437 19.2142 28.5561L19.2596 28.6452L19.2145 28.556C19.1905 28.5681 19.1464 28.5736 19.0752 28.5503C19.0054 28.5275 18.9209 28.4802 18.8288 28.4065C18.6476 28.2617 18.4494 28.025 18.2891 27.7149L18.282 27.7009C18.1206 27.3838 18.0432 27.0787 18.0321 26.8436C18.0266 26.7257 18.0379 26.6297 18.0605 26.5598C18.0833 26.4894 18.1134 26.4569 18.1377 26.4443C18.1596 26.4337 18.2003 26.4283 18.2651 26.4471C18.3292 26.4656 18.4071 26.5053 18.4924 26.5687L18.552 26.4885L18.4923 26.5686C18.703 26.7258 18.9101 26.9841 19.0706 27.2992ZM19.5807 27.0388C19.3846 26.6531 19.1205 26.3219 18.8342 26.109L19.5807 27.0388Z" fill="#A5CEE4" stroke="#A5CEE4" stroke-width="0.2"/>
<path d="M18.2181 18.4754C17.0639 18.4754 16.0987 19.363 16.0987 20.4854V28.5584C16.0987 28.876 16.177 29.181 16.321 29.4537H1.62291L1.6231 1.62208H24.6638V16.0111H23.3291C22.325 16.0111 21.4834 16.7842 21.4834 17.7654V18.468L18.2181 18.4754ZM18.2181 18.4754V18.7254L18.2175 18.4754L18.2181 18.4754ZM18.0173 30.3263H18.9385L18.1436 29.8606L17.5495 29.5125L17.5492 29.5124C17.1797 29.2966 16.971 28.9376 16.971 28.5575V20.4852C16.971 19.8761 17.5122 19.3478 18.2177 19.3478H18.2178L21.6345 19.3473L21.6432 19.3473L21.6519 19.3467L22.123 19.314L22.3557 19.2978V19.0646V17.7656C22.3557 17.2977 22.7736 16.8842 23.3285 16.8842H25.2859H25.5359V16.6342V1V0.75H25.2859H1H0.75V1V30.0763V30.3263H1H18.0173Z" fill="#A5CEE4" stroke="#A5CEE4" stroke-width="0.5"/>
</svg>
