<svg width="30" height="35" viewBox="0 0 30 35" fill="none" xmlns="http://www.w3.org/2000/svg">
<path d="M29.1542 18.5032V5.60836C29.1542 5.15805 28.9494 4.74856 28.5811 4.42137C28.2536 4.13468 27.8852 4.01189 27.4757 4.01189H27.3121C26.6982 4.09384 26.002 4.13468 25.3881 4.13468C19.5345 4.13468 15.7273 0.491384 15.6863 0.450594C15.3996 0.163904 14.9905 0 14.581 0C14.1715 0 13.7624 0.163619 13.4757 0.450309C13.4757 0.491142 9.70955 4.13439 3.77385 4.13439C3.15993 4.13439 2.46376 4.09356 1.84987 4.01161H1.68625C1.27677 4.01161 0.908394 4.13439 0.580907 4.42108C0.21255 4.7486 0.00781975 5.11695 0.00781975 5.60807V18.5029C-0.033013 19.2396 -0.0741326 23.9066 4.34695 28.614C6.4346 30.8244 9.5048 33.0351 14.0078 34.8772C14.2126 34.9592 14.4173 35 14.6217 35C14.8265 35 15.0312 34.9592 15.2357 34.8772C20.5574 32.7076 23.8322 30.0058 25.879 27.4269C29.2767 23.1291 29.195 19.1586 29.1539 18.5036L29.1542 18.5032ZM25.8792 23.661C24.4466 26.5676 21.2945 30.17 14.6219 32.9125C9.91439 30.9885 6.47563 28.4503 4.34696 25.3803C4.01944 24.93 3.73304 24.4797 3.48716 23.9886C2.05426 21.3279 2.01347 19.1991 2.05426 18.5849L2.05455 6.09944C2.62763 6.14028 3.20075 6.1814 3.77385 6.1814C7.29434 6.1814 10.0778 5.03519 11.8382 4.09374C12.8208 3.56149 13.5983 2.9884 14.0486 2.66084C14.2533 2.49722 14.417 2.37415 14.5809 2.21053C15.7271 3.19306 19.6978 6.18131 25.3879 6.18131C25.961 6.18131 26.5341 6.14048 27.1072 6.09936V18.6667C27.1072 18.8303 27.2711 20.959 25.8791 23.6605L25.8792 23.661Z" fill="#A5CEE4"/>
<path d="M20.0255 14.4505V10.4389C20.0255 7.40953 17.6104 4.99438 14.5811 4.99438C11.5517 4.99438 9.13659 7.40953 9.13659 10.4389V14.4505C7.2534 16.0061 6.06641 18.3805 6.06641 21.0004C6.06641 25.7079 9.87329 29.515 14.5811 29.515C19.2885 29.515 23.0957 25.7082 23.0957 21.0004C23.0957 18.4213 21.9084 16.047 20.0255 14.4505ZM16.1367 20.5909V24.3978C16.1367 25.2576 15.4408 25.9534 14.5811 25.9534C13.7213 25.9534 13.0254 25.2575 13.0254 24.3978V20.5909C12.4523 20.0997 12.084 19.4447 12.084 18.626C12.084 17.2343 13.1893 16.1289 14.5811 16.1289C15.9728 16.1289 17.0782 17.2343 17.0782 18.626C17.0782 19.4447 16.6687 20.0997 16.1367 20.5909ZM18.3471 13.3862C17.2418 12.8131 15.9319 12.5264 14.581 12.5264C13.23 12.5264 11.9203 12.854 10.8149 13.3862V10.4389C10.8149 8.39206 12.5342 6.67276 14.581 6.67276C16.6278 6.67276 18.3471 8.39206 18.3471 10.4389V13.3862Z" fill="#A5CEE4"/>
</svg>
