<svg width="28" height="29" viewBox="0 0 28 29" fill="none" xmlns="http://www.w3.org/2000/svg">
<path d="M10.3078 22.6125L6.4693 26.946L6.39444 27.0305L6.31958 26.946L2.48105 22.6125L2.48101 22.6125C0.373017 20.23 0.372992 16.3572 2.48096 13.9749L10.3078 22.6125ZM10.3078 22.6125C10.3078 22.6125 10.3078 22.6125 10.3078 22.6125C12.4204 20.2302 12.4204 16.3573 10.3078 13.9747C9.26865 12.8028 7.87869 12.15 6.39444 12.15M10.3078 22.6125L6.39444 12.15M6.39444 12.15C4.91039 12.15 3.52028 12.7982 2.48102 13.9748L6.39444 12.15ZM9.48757 21.8811L6.39897 25.3695L3.31032 21.8811L3.31029 21.881C1.55723 19.9029 1.55723 16.6794 3.31029 14.7009L3.31042 14.7008C4.13892 13.7622 5.23724 13.2495 6.39897 13.2495C7.56053 13.2495 8.65448 13.762 9.48764 14.7009C11.236 16.6793 11.236 19.9031 9.48757 21.8811Z" fill="#A5CEE4" stroke="#A5CEE4" stroke-width="0.2"/>
<path d="M22.7114 12.1804L22.6366 12.0959L19.7296 8.81549C18.13 7.01358 18.13 4.08549 19.7296 2.28363L19.7297 2.28348C20.5214 1.39531 21.5784 0.9 22.7114 0.9C23.8396 0.9 24.9013 1.39058 25.6932 2.28363C27.2928 4.08552 27.2929 7.01355 25.6933 8.81542L22.7114 12.1804ZM22.7114 12.1804L22.7863 12.0959L25.6932 8.81549L22.7114 12.1804ZM24.8732 8.08385L22.7114 10.5196L20.5497 8.08384L20.5496 8.08375C19.3098 6.69053 19.3097 4.41232 20.5496 3.01482C21.1354 2.3591 21.9011 1.99983 22.7114 1.99983C23.5218 1.99983 24.2874 2.35912 24.8733 3.01485C26.1131 4.41251 26.1131 6.68647 24.8732 8.08385Z" fill="#A5CEE4" stroke="#A5CEE4" stroke-width="0.2"/>
<path d="M15.1744 14.8499H15.1744L15.3363 14.8499C15.3364 14.8499 15.3364 14.8499 15.3364 14.8499C15.6391 14.8499 15.8863 15.0971 15.8863 15.3998C15.8863 15.7025 15.6391 15.9498 15.3363 15.9498H15.1744C14.8608 15.9498 14.5517 15.8935 14.2568 15.7812L14.2565 15.7811C13.9719 15.6717 13.8277 15.358 13.938 15.0714L15.1744 14.8499ZM15.1744 14.8499C14.9937 14.8499 14.8167 14.8163 14.6476 14.7529M15.1744 14.8499L14.6476 14.7529M14.6476 14.7529C14.3653 14.6426 14.0474 14.7871 13.938 15.0714L14.6476 14.7529Z" fill="#A5CEE4" stroke="#A5CEE4" stroke-width="0.2"/>
<path d="M14.0856 12.2059L14.0865 12.2062H14.1036C14.2035 12.2062 14.3019 12.1784 14.3928 12.1249L14.3928 12.125L14.3957 12.1231C14.5805 12.0055 14.786 11.9343 15.0043 11.9132L15.0043 11.9132L15.0055 11.9131C15.3067 11.8803 15.5287 11.611 15.4899 11.3061C15.4518 11.0063 15.1883 10.7902 14.8849 10.8232L14.8848 10.8232C14.5007 10.8654 14.1401 10.9919 13.8128 11.193L13.8126 11.1931C13.5531 11.3533 13.4773 11.6942 13.6359 11.9517L13.6359 11.9517L13.6374 11.954C13.7384 12.1081 13.9104 12.2 14.0856 12.2059Z" fill="#A5CEE4" stroke="#A5CEE4" stroke-width="0.2"/>
<path d="M16.7488 11.9003H17.6488C17.9516 11.9003 18.1988 11.653 18.1988 11.3503C18.1988 11.0476 17.9516 10.8004 17.6488 10.8004H16.7488C16.4461 10.8004 16.1988 11.0476 16.1988 11.3503C16.1988 11.6524 16.4409 11.9003 16.7488 11.9003Z" fill="#A5CEE4" stroke="#A5CEE4" stroke-width="0.2"/>
<path d="M9.45562 27.5501C9.45585 27.2475 9.20835 27.0001 8.90568 27.0001H8.00561C7.7029 27.0001 7.45566 27.2473 7.45566 27.55C7.45566 27.8527 7.7029 28.1 8.00561 28.1H8.90568C9.20836 28.1 9.45558 27.8528 9.45562 27.5501ZM9.45562 27.5501L9.35562 27.55H9.45562C9.45562 27.5501 9.45562 27.5501 9.45562 27.5501Z" fill="#A5CEE4" stroke="#A5CEE4" stroke-width="0.2"/>
<path d="M22.2751 18.9C21.9724 18.9 21.7252 19.1472 21.7252 19.4499C21.7252 19.7526 21.9724 19.9999 22.2751 19.9999H23.1752C23.4779 19.9999 23.7252 19.7526 23.7252 19.4499C23.7252 19.1472 23.4779 18.9 23.1752 18.9H22.2751Z" fill="#A5CEE4" stroke="#A5CEE4" stroke-width="0.2"/>
<path d="M20.349 11.9003C20.6517 11.9003 20.899 11.653 20.899 11.3503C20.899 11.0476 20.6517 10.8004 20.349 10.8004H19.449C19.1463 10.8004 18.899 11.0476 18.899 11.3503C18.899 11.653 19.1463 11.9003 19.449 11.9003H20.349Z" fill="#A5CEE4" stroke="#A5CEE4" stroke-width="0.2"/>
<path d="M19.5749 20.0004H20.475C20.7777 20.0004 21.025 19.7531 21.025 19.4504C21.025 19.1477 20.7777 18.9005 20.475 18.9005H19.5749C19.2722 18.9005 19.025 19.1477 19.025 19.4504C19.025 19.7531 19.2722 20.0004 19.5749 20.0004Z" fill="#A5CEE4" stroke="#A5CEE4" stroke-width="0.2"/>
<path d="M17.7751 18.9047L17.0738 18.9045L17.0738 18.9H16.9741L16.9721 18.9C16.9339 18.9 16.8943 18.9 16.8497 18.9047C16.548 18.9178 16.3142 19.1757 16.3252 19.4762L16.3252 19.4763C16.3362 19.7734 16.5788 20.0046 16.8751 20.0046H16.8931H17.7751C18.0778 20.0046 18.3251 19.7574 18.3251 19.4547C18.3251 19.152 18.0778 18.9047 17.7751 18.9047C17.7751 18.9047 17.7751 18.9047 17.7751 18.9047Z" fill="#A5CEE4" stroke="#A5CEE4" stroke-width="0.2"/>
<path d="M23.982 15.4001C23.982 15.0974 23.7348 14.8502 23.432 14.8502H22.532C22.2293 14.8502 21.982 15.0974 21.982 15.4001C21.982 15.7028 22.2293 15.9501 22.532 15.9501H23.432C23.7399 15.9501 23.982 15.7022 23.982 15.4001Z" fill="#A5CEE4" stroke="#A5CEE4" stroke-width="0.2"/>
<path d="M17.1316 14.8502C16.8289 14.8502 16.5816 15.0974 16.5816 15.4001C16.5816 15.7028 16.8289 15.9501 17.1316 15.9501H18.0317C18.3344 15.9501 18.5816 15.7028 18.5816 15.4001C18.5816 15.0974 18.3344 14.8502 18.0317 14.8502H17.1316Z" fill="#A5CEE4" stroke="#A5CEE4" stroke-width="0.2"/>
<path d="M21.2818 15.4001C21.2818 15.0974 21.0346 14.8502 20.7319 14.8502H19.8318C19.5291 14.8502 19.2818 15.0974 19.2818 15.4001C19.2818 15.7028 19.5291 15.9501 19.8318 15.9501H20.7319C21.0397 15.9501 21.2818 15.7022 21.2818 15.4001Z" fill="#A5CEE4" stroke="#A5CEE4" stroke-width="0.2"/>
<path d="M15.6703 19.834L15.6703 19.834L15.6695 19.8334C15.4221 19.6521 15.0811 19.7073 14.9003 19.9487L14.9003 19.9487L14.8997 19.9496C14.6708 20.2625 14.516 20.6093 14.4455 20.9893L14.4455 20.9894C14.3908 21.2845 14.5816 21.577 14.8812 21.6325L14.8812 21.6325L14.8828 21.6328C14.9102 21.6374 14.949 21.6432 14.9849 21.6432L14.985 21.6432C15.2429 21.643 15.4746 21.462 15.5243 21.197L15.5247 21.1946C15.5671 20.9808 15.6554 20.7799 15.7852 20.6037C15.9674 20.3602 15.9112 20.0144 15.6703 19.834Z" fill="#A5CEE4" stroke="#A5CEE4" stroke-width="0.2"/>
<path d="M24.5383 25.4562L24.5376 25.4515L24.4708 25.4367C24.173 25.3704 23.8826 25.5585 23.8119 25.853L23.8119 25.853L23.8117 25.8534C23.7609 26.0696 23.6681 26.2676 23.5334 26.44C23.3468 26.6764 23.3848 27.0234 23.6272 27.2108C23.7268 27.2883 23.8477 27.3263 23.9675 27.3263C24.1319 27.3263 24.2915 27.2547 24.4011 27.1178L24.4011 27.1178L24.4018 27.1169C24.636 26.8173 24.8043 26.4618 24.8886 26.092L24.8886 26.092L24.8891 26.0897C24.9444 25.8184 24.7955 25.5486 24.5383 25.4562Z" fill="#A5CEE4" stroke="#A5CEE4" stroke-width="0.2"/>
<path d="M20.2554 27.5501C20.2557 27.2475 20.0081 27.0001 19.7055 27.0001H18.8054C18.5027 27.0001 18.2555 27.2473 18.2555 27.55C18.2555 27.8527 18.5027 28.1 18.8054 28.1H19.7055C20.0082 28.1 20.2554 27.8528 20.2554 27.5501ZM20.2554 27.5501L20.1554 27.55H20.2554C20.2554 27.5501 20.2554 27.5501 20.2554 27.5501Z" fill="#A5CEE4" stroke="#A5CEE4" stroke-width="0.2"/>
<path d="M22.0552 23.5002C22.0552 23.1975 21.808 22.9503 21.5053 22.9503H20.6052C20.3025 22.9503 20.0553 23.1975 20.0553 23.5002C20.0553 23.8029 20.3025 24.0502 20.6052 24.0502H21.5053C21.808 24.0502 22.0552 23.8029 22.0552 23.5002Z" fill="#A5CEE4" stroke="#A5CEE4" stroke-width="0.2"/>
<path d="M24.3009 24.7098L24.3009 24.7098L24.3036 24.7078C24.5393 24.5213 24.5846 24.175 24.3964 23.9373L24.318 23.9994L24.3968 23.9378C24.1626 23.6381 23.8584 23.3899 23.5164 23.2212C23.2404 23.0835 22.9164 23.2004 22.7798 23.4678L22.7798 23.4678L22.7794 23.4686C22.6415 23.7447 22.7584 24.0688 23.0259 24.2054L23.0259 24.2054L23.0266 24.2058C23.2204 24.3027 23.3978 24.4462 23.5326 24.6145C23.639 24.7532 23.804 24.8239 23.9626 24.8239H24.0192L24.0211 24.8208C24.121 24.8103 24.2156 24.7728 24.3009 24.7098Z" fill="#A5CEE4" stroke="#A5CEE4" stroke-width="0.2"/>
<path d="M25.6411 18.787L25.6401 18.7874L25.5559 18.9249C25.4008 18.975 25.2401 19 25.0738 19H24.9792C24.7318 19 24.5293 19.2025 24.5293 19.45C24.5293 19.6974 24.7318 19.8999 24.9792 19.8999H25.0738C25.4068 19.8999 25.7264 19.8368 26.0277 19.7065L26.0658 19.7989C26.0661 19.7988 26.0663 19.7987 26.0666 19.7986C26.3476 19.6824 26.4782 19.3584 26.3631 19.0789L26.3632 19.0789L26.3625 19.0774C26.2424 18.7988 25.9186 18.665 25.6411 18.787Z" fill="#A5CEE4" stroke="#A5CEE4" stroke-width="0.2"/>
<path d="M26.5446 17.4254C26.5446 17.5681 26.5237 17.7073 26.4855 17.8428C26.3981 18.1341 26.5676 18.4409 26.8581 18.5244C26.9116 18.542 26.9673 18.5469 27.0135 18.5469C27.2499 18.5469 27.4699 18.3931 27.5414 18.1515C27.6116 17.917 27.6445 17.674 27.6446 17.4315C27.6491 17.2949 27.6398 17.1536 27.616 17.0167L27.5717 16.7606L27.5391 16.8123C27.4252 16.63 27.2106 16.5246 26.9838 16.5617C26.6823 16.611 26.4783 16.8916 26.5278 17.194L26.5278 17.194L26.5279 17.1944C26.5402 17.2682 26.5446 17.3433 26.5446 17.4254Z" fill="#A5CEE4" stroke="#A5CEE4" stroke-width="0.2"/>
<path d="M25.2746 14.8595C24.9724 14.8374 24.7092 15.0628 24.6819 15.3642L24.6819 15.3642L24.6818 15.3659C24.6597 15.6682 24.8851 15.9314 25.1864 15.9587L25.1864 15.9587L25.1878 15.9588C25.4062 15.9757 25.6169 16.0429 25.8069 16.1527L25.8069 16.1527L25.8079 16.1532C25.8957 16.2027 25.9892 16.2247 26.082 16.2247C26.2693 16.2247 26.4556 16.1258 26.5595 15.9506L26.5595 15.9506L26.5599 15.95C26.7135 15.6865 26.6256 15.3507 26.3618 15.1968L26.3326 15.1798L26.332 15.1798C26.0079 14.998 25.6524 14.8867 25.2746 14.8595ZM25.2746 14.8595C25.2747 14.8595 25.2747 14.8595 25.2747 14.8595L25.2674 14.9592L25.2746 14.8595C25.2746 14.8595 25.2746 14.8595 25.2746 14.8595Z" fill="#A5CEE4" stroke="#A5CEE4" stroke-width="0.2"/>
<mask id="path-22-outside-1_1520_1579" maskUnits="userSpaceOnUse" x="20.0557" y="26.1001" width="3" height="3" fill="black">
<rect fill="white" x="20.0557" y="26.1001" width="3" height="3"/>
<path d="M22.3741 27.1001H21.5056C21.2581 27.1001 21.0557 27.3026 21.0557 27.55C21.0557 27.7975 21.2581 28 21.5056 28H22.3921L22.4057 27.55V28C22.6532 28 22.8377 27.7975 22.8377 27.55C22.8376 27.3027 22.6215 27.1001 22.3741 27.1001H22.3741Z"/>
</mask>
<path d="M22.3741 27.1001H21.5056C21.2581 27.1001 21.0557 27.3026 21.0557 27.55C21.0557 27.7975 21.2581 28 21.5056 28H22.3921L22.4057 27.55V28C22.6532 28 22.8377 27.7975 22.8377 27.55C22.8376 27.3027 22.6215 27.1001 22.3741 27.1001H22.3741Z" fill="#A5CEE4"/>
<path d="M22.3921 28V28.2H22.5862L22.592 28.006L22.3921 28ZM22.4057 27.55H22.6057L22.2058 27.544L22.4057 27.55ZM22.4057 28H22.2057V28.2H22.4057V28ZM22.8377 27.55H23.0377L23.0377 27.5499L22.8377 27.55ZM22.3741 26.9001H21.5056V27.3001H22.3741V26.9001ZM21.5056 26.9001C21.1477 26.9001 20.8557 27.1921 20.8557 27.55H21.2557C21.2557 27.413 21.3686 27.3001 21.5056 27.3001V26.9001ZM20.8557 27.55C20.8557 27.908 21.1477 28.2 21.5056 28.2V27.8C21.3686 27.8 21.2557 27.6871 21.2557 27.55H20.8557ZM21.5056 28.2H22.3921V27.8H21.5056V28.2ZM22.592 28.006L22.6056 27.5561L22.2058 27.544L22.1922 27.994L22.592 28.006ZM22.2057 27.55V28H22.6057V27.55H22.2057ZM22.4057 28.2C22.7741 28.2 23.0377 27.8972 23.0377 27.55H22.6377C22.6377 27.6978 22.5322 27.8 22.4057 27.8V28.2ZM23.0377 27.5499C23.0375 27.1847 22.7243 26.9001 22.3741 26.9001V27.3001C22.5187 27.3001 22.6376 27.4208 22.6377 27.5502L23.0377 27.5499ZM22.3741 27.3001H22.3741V26.9001H22.3741V27.3001Z" fill="#A5CEE4" mask="url(#path-22-outside-1_1520_1579)"/>
<path d="M12.1558 27.5501C12.156 27.2475 11.9085 27.0001 11.6059 27.0001H10.7058C10.4031 27.0001 10.1559 27.2473 10.1559 27.55C10.1559 27.8527 10.4031 28.1 10.7058 28.1H11.6059C11.9086 28.1 12.1558 27.8528 12.1558 27.5501ZM12.1558 27.5501L12.0558 27.55H12.1558C12.1558 27.5501 12.1558 27.5501 12.1558 27.5501Z" fill="#A5CEE4" stroke="#A5CEE4" stroke-width="0.2"/>
<path d="M14.856 27.5501C14.8562 27.2475 14.6087 27.0001 14.3061 27.0001H13.406C13.1033 27.0001 12.8561 27.2473 12.8561 27.55C12.8561 27.8527 13.1033 28.1 13.406 28.1H14.3061C14.6088 28.1 14.856 27.8528 14.856 27.5501ZM14.856 27.5501L14.756 27.55H14.856C14.856 27.5501 14.856 27.5501 14.856 27.5501Z" fill="#A5CEE4" stroke="#A5CEE4" stroke-width="0.2"/>
<path d="M12.7173 13.0643L12.6181 13.0517C12.6181 13.0516 12.6181 13.0515 12.6181 13.0515C12.6567 12.7489 12.9224 12.5408 13.2317 12.5733L13.2339 12.5735L13.2339 12.5735C13.5358 12.6119 13.7505 12.8867 13.712 13.1893L13.712 13.19L13.712 13.19C13.7035 13.253 13.6993 13.3162 13.6993 13.3792C13.6993 13.5369 13.7205 13.6921 13.7703 13.8371L13.7708 13.8386L13.7708 13.8386C13.8644 14.1253 13.7052 14.4382 13.4188 14.5318L13.4162 14.5236L12.8207 14.1489C12.7397 13.9014 12.6992 13.6404 12.6992 13.3748C12.6992 13.2713 12.7037 13.1679 12.7173 13.0643ZM12.7173 13.0643C12.7487 12.8168 12.9648 12.6458 13.2213 12.6727L12.7173 13.0643Z" fill="#A5CEE4" stroke="#A5CEE4" stroke-width="0.2"/>
<path d="M16.1322 23.8658V23.8658C16.3415 23.8658 16.5389 23.7447 16.6321 23.5474L16.6321 23.5474L16.6325 23.5465C16.759 23.2715 16.6384 22.9421 16.3629 22.8153L16.3629 22.8153L16.3619 22.8149C16.1655 22.7271 15.9882 22.5884 15.8438 22.4184L15.8438 22.4184L15.8435 22.4181C15.647 22.1887 15.3006 22.1539 15.068 22.3532C14.8386 22.5497 14.8038 22.8961 15.0031 23.1287L15.079 23.0636L15.0024 23.1279C15.2459 23.4182 15.5592 23.6568 15.9055 23.8159C15.9778 23.8494 16.055 23.8658 16.1322 23.8658Z" fill="#A5CEE4" stroke="#A5CEE4" stroke-width="0.2"/>
<path d="M17.5552 27.5501C17.5555 27.2475 17.308 27.0001 17.0053 27.0001H16.1052C15.8025 27.0001 15.5553 27.2473 15.5553 27.55C15.5553 27.8527 15.8025 28.1 16.1052 28.1H17.0053C17.308 28.1 17.5552 27.8528 17.5552 27.5501ZM17.5552 27.5501L17.4552 27.55H17.5552C17.5552 27.5501 17.5552 27.5501 17.5552 27.5501Z" fill="#A5CEE4" stroke="#A5CEE4" stroke-width="0.2"/>
<path d="M19.355 23.5002C19.355 23.1975 19.1078 22.9503 18.8051 22.9503H17.905C17.6023 22.9503 17.3551 23.1975 17.3551 23.5002C17.3551 23.8029 17.6023 24.0502 17.905 24.0502H18.8051C19.1078 24.0502 19.355 23.8029 19.355 23.5002Z" fill="#A5CEE4" stroke="#A5CEE4" stroke-width="0.2"/>
<path d="M24.2997 5.27497C24.2997 4.46156 23.6378 3.79988 22.8246 3.79988C22.0114 3.79988 21.3497 4.46153 21.3495 5.27497H24.2997ZM24.2997 5.27497C24.2997 6.08819 23.638 6.75005 22.8246 6.75005M24.2997 5.27497L22.8246 6.75005M22.8246 6.75005C22.0114 6.75005 21.3495 6.08838 21.3495 5.27499L22.8246 6.75005ZM22.8246 7.84993C24.2434 7.84993 25.3995 6.69357 25.3995 5.27498V5.27497C25.3997 3.85616 24.2434 2.6998 22.8246 2.6998C21.4058 2.6998 20.2496 3.85618 20.2496 5.27477C20.2496 6.69344 21.4013 7.84993 22.8246 7.84993Z" fill="#A5CEE4" stroke="#A5CEE4" stroke-width="0.2"/>
<path d="M6.39925 14.8502C4.85443 14.8502 3.59922 16.1054 3.59922 17.6502C3.59922 19.1951 4.85443 20.4503 6.39925 20.4503C7.94408 20.4503 9.19929 19.1951 9.19929 17.6502C9.19929 16.1056 7.94389 14.8502 6.39925 14.8502ZM6.39925 19.3504C5.46005 19.3504 4.69929 18.5896 4.69929 17.6504C4.69929 16.7112 5.46005 15.9505 6.39925 15.9505C7.33846 15.9505 8.09921 16.7112 8.09921 17.6504C8.09921 18.5895 7.33409 19.3504 6.39925 19.3504Z" fill="#A5CEE4" stroke="#A5CEE4" stroke-width="0.2"/>
</svg>
