<svg width="294" height="300" viewBox="0 0 294 300" fill="none" xmlns="http://www.w3.org/2000/svg">
<path d="M8.82417 0.00870416C6.04244 0.115434 3.4589 1.5092 1.80129 3.80071C0.145713 6.09014 -0.404049 9.02834 0.311268 11.7821L30.8207 128.868L165.544 149.981L30.8416 171.076L0.313883 288.194C-0.301339 290.535 -0.0049659 293.032 1.1396 295.154C2.28622 297.278 4.18908 298.867 6.45359 299.582C8.71617 300.298 11.1627 300.089 13.2782 298.996L287.977 158.365C290.011 157.319 291.589 155.538 292.409 153.363C293.228 151.191 293.228 148.784 292.409 146.612C291.589 144.44 290.011 142.657 287.977 141.61L13.2782 0.97898C11.8986 0.275823 10.3656 -0.0569238 8.82658 0.00795412L8.82417 0.00870416Z" fill="#A5CEE4"/>
</svg>
