<svg width="35" height="35" viewBox="0 0 35 35" fill="none" xmlns="http://www.w3.org/2000/svg">
<mask id="path-1-outside-1_23_357" maskUnits="userSpaceOnUse" x="0" y="0" width="35" height="35" fill="black">
<rect fill="white" width="35" height="35"/>
<path d="M20.1451 34H14.8545C14.3377 33.9994 13.8423 33.7939 13.4768 33.4286C13.1113 33.0631 12.9057 32.5678 12.9055 32.0509V29.1624C12.7695 29.1093 12.6356 29.0528 12.5022 28.9949L10.46 31.0382C10.0942 31.4029 9.59863 31.6079 9.08177 31.6079C8.56522 31.6082 8.06932 31.4035 7.70325 31.0388L3.96232 27.2978C3.59846 26.9312 3.3943 26.4356 3.39402 25.919C3.39374 25.4025 3.59762 24.9069 3.96092 24.5399L6.00422 22.4964C5.94661 22.3635 5.89096 22.2295 5.83726 22.0945H2.94904C2.4322 22.0939 1.93688 21.8883 1.57138 21.5231C1.20612 21.1575 1.00056 20.6623 1 20.1454V14.8546C1.00056 14.3377 1.20612 13.8421 1.57138 13.4766C1.93692 13.1111 2.43219 12.9055 2.94904 12.9049H5.83812C5.89126 12.7699 5.94691 12.6365 6.00452 12.5036L3.96237 10.4615C3.59795 10.0948 3.39323 9.59922 3.39323 9.08236C3.39323 8.5655 3.5974 8.06962 3.96153 7.70269L7.70332 3.96176C8.06914 3.59678 8.56499 3.39178 9.08185 3.39178C9.5984 3.39178 10.0943 3.59679 10.4601 3.96176L12.5017 6.00506C12.6351 5.94689 12.7697 5.89067 12.9056 5.83754V2.94932C12.9059 2.43248 13.1114 1.93687 13.477 1.57166C13.8425 1.20612 14.3378 1.00056 14.8546 1H20.1455H20.1452C20.6621 1.00056 21.1577 1.20612 21.5232 1.57138C21.8887 1.93692 22.0945 2.43247 22.0951 2.94933V5.83754C22.2302 5.89068 22.365 5.94717 22.4984 6.00507L24.54 3.96177H24.5398C24.9059 3.59707 25.4014 3.39207 25.918 3.39207C26.4348 3.39179 26.9305 3.59651 27.2965 3.96121L31.0377 7.70243V7.70215C31.4019 8.0688 31.6066 8.56467 31.6066 9.08153C31.6069 9.59808 31.4024 10.0943 31.0383 10.4609L28.9956 12.5036C29.0532 12.6365 29.1088 12.7699 29.162 12.905H32.0508C32.5676 12.9055 33.0632 13.1111 33.4284 13.4766C33.794 13.8422 33.9995 14.3377 33.9998 14.8546V20.1454C33.9995 20.6623 33.794 21.1576 33.4284 21.5231C33.0632 21.8884 32.5676 22.0939 32.0508 22.0945H29.1626C29.1089 22.2296 29.0529 22.3635 28.9956 22.4964L31.0377 24.5385C31.4019 24.9052 31.6066 25.4011 31.6066 25.9179C31.6069 26.4345 31.4024 26.9307 31.0383 27.2973L27.2965 31.0385V31.0382C26.9307 31.4032 26.4348 31.6082 25.9183 31.6082C25.4014 31.6082 24.9055 31.4032 24.5398 31.0382L22.4981 28.9949C22.3647 29.0531 22.2304 29.1091 22.0948 29.1625V32.0507L22.0951 32.051C22.0945 32.5678 21.8887 33.0631 21.5231 33.4286C21.1576 33.7939 20.6621 33.9994 20.1452 34L20.1451 34ZM12.3676 27.6173H12.3679C12.4621 27.617 12.5553 27.6385 12.64 27.6796C12.998 27.8522 13.3652 28.0049 13.7399 28.1366C13.9908 28.2247 14.1586 28.4619 14.1586 28.7276V32.051C14.1589 32.4352 14.4705 32.7468 14.8547 32.7471H20.1456H20.1453C20.5299 32.7471 20.8417 32.4355 20.8423 32.051V28.7276C20.8425 28.4619 21.0101 28.225 21.2607 28.1366C21.6357 28.0049 22.0029 27.8522 22.3606 27.6796C22.6008 27.5644 22.8872 27.6131 23.076 27.8007L25.4258 30.1526C25.6982 30.4241 26.1387 30.4238 26.4108 30.152L30.1521 26.4122H30.1518C30.4231 26.1384 30.4228 25.6974 30.1512 25.4241L27.802 23.0754C27.6143 22.8877 27.5654 22.6022 27.6798 22.3628C27.8515 22.0037 28.0039 21.6356 28.1368 21.2603C28.2249 21.0094 28.4617 20.8416 28.7277 20.8419H32.0508C32.4351 20.8414 32.7466 20.5298 32.7469 20.1455V14.8547C32.7469 14.4701 32.4354 14.1585 32.0508 14.158H28.7277C28.462 14.1577 28.2254 13.9905 28.1368 13.7402C28.0039 13.3648 27.8512 12.9968 27.6795 12.6377C27.5651 12.398 27.6143 12.1125 27.802 11.9248L30.1518 9.57559C30.4231 9.30207 30.4228 8.86102 30.1512 8.58777L26.4109 4.8477C26.1382 4.57697 25.698 4.57725 25.4258 4.84853L23.0758 7.19949C22.8873 7.38771 22.6006 7.43609 22.3606 7.32058C22.0024 7.14802 21.6346 6.99504 21.2595 6.86248C21.0092 6.7741 20.842 6.5375 20.8423 6.27209V2.94957C20.8417 2.56501 20.5299 2.25345 20.1453 2.25317H14.8547C14.4704 2.25373 14.1588 2.56501 14.1586 2.94957V6.27209C14.1583 6.5375 13.991 6.77438 13.7404 6.86304C13.3654 6.99505 12.9976 7.14803 12.6394 7.32058C12.3994 7.43693 12.1122 7.38827 11.9242 7.19949L9.57442 4.84768C9.44381 4.71707 9.26649 4.64351 9.08163 4.64379C8.89677 4.64379 8.71973 4.71734 8.5894 4.84851L4.84818 8.5883C4.57717 8.86182 4.57746 9.30287 4.84874 9.57641L7.19798 11.9251V11.9249C7.38592 12.1125 7.43486 12.3981 7.32047 12.6377C7.14875 12.9968 6.99605 13.3649 6.86348 13.7402C6.77482 13.9905 6.53794 14.1577 6.27253 14.158H2.94915C2.5646 14.1586 2.25304 14.4701 2.25304 14.8547V20.1456C2.25332 20.5298 2.56488 20.8414 2.94915 20.8417H6.27253C6.53822 20.8417 6.7751 21.0095 6.86348 21.2601C6.99605 21.6354 7.14875 22.0035 7.32047 22.3625C7.43486 22.6022 7.38591 22.8877 7.19798 23.0754L4.84817 25.4246C4.57745 25.6987 4.57801 26.1398 4.84957 26.4133L8.58935 30.1526C8.86176 30.4236 9.30196 30.4236 9.57438 30.1526L11.9248 27.8008C12.0422 27.6833 12.2016 27.6173 12.3678 27.6173L12.3676 27.6173Z"/>
</mask>
<path d="M20.1451 34H14.8545C14.3377 33.9994 13.8423 33.7939 13.4768 33.4286C13.1113 33.0631 12.9057 32.5678 12.9055 32.0509V29.1624C12.7695 29.1093 12.6356 29.0528 12.5022 28.9949L10.46 31.0382C10.0942 31.4029 9.59863 31.6079 9.08177 31.6079C8.56522 31.6082 8.06932 31.4035 7.70325 31.0388L3.96232 27.2978C3.59846 26.9312 3.3943 26.4356 3.39402 25.919C3.39374 25.4025 3.59762 24.9069 3.96092 24.5399L6.00422 22.4964C5.94661 22.3635 5.89096 22.2295 5.83726 22.0945H2.94904C2.4322 22.0939 1.93688 21.8883 1.57138 21.5231C1.20612 21.1575 1.00056 20.6623 1 20.1454V14.8546C1.00056 14.3377 1.20612 13.8421 1.57138 13.4766C1.93692 13.1111 2.43219 12.9055 2.94904 12.9049H5.83812C5.89126 12.7699 5.94691 12.6365 6.00452 12.5036L3.96237 10.4615C3.59795 10.0948 3.39323 9.59922 3.39323 9.08236C3.39323 8.5655 3.5974 8.06962 3.96153 7.70269L7.70332 3.96176C8.06914 3.59678 8.56499 3.39178 9.08185 3.39178C9.5984 3.39178 10.0943 3.59679 10.4601 3.96176L12.5017 6.00506C12.6351 5.94689 12.7697 5.89067 12.9056 5.83754V2.94932C12.9059 2.43248 13.1114 1.93687 13.477 1.57166C13.8425 1.20612 14.3378 1.00056 14.8546 1H20.1455H20.1452C20.6621 1.00056 21.1577 1.20612 21.5232 1.57138C21.8887 1.93692 22.0945 2.43247 22.0951 2.94933V5.83754C22.2302 5.89068 22.365 5.94717 22.4984 6.00507L24.54 3.96177H24.5398C24.9059 3.59707 25.4014 3.39207 25.918 3.39207C26.4348 3.39179 26.9305 3.59651 27.2965 3.96121L31.0377 7.70243V7.70215C31.4019 8.0688 31.6066 8.56467 31.6066 9.08153C31.6069 9.59808 31.4024 10.0943 31.0383 10.4609L28.9956 12.5036C29.0532 12.6365 29.1088 12.7699 29.162 12.905H32.0508C32.5676 12.9055 33.0632 13.1111 33.4284 13.4766C33.794 13.8422 33.9995 14.3377 33.9998 14.8546V20.1454C33.9995 20.6623 33.794 21.1576 33.4284 21.5231C33.0632 21.8884 32.5676 22.0939 32.0508 22.0945H29.1626C29.1089 22.2296 29.0529 22.3635 28.9956 22.4964L31.0377 24.5385C31.4019 24.9052 31.6066 25.4011 31.6066 25.9179C31.6069 26.4345 31.4024 26.9307 31.0383 27.2973L27.2965 31.0385V31.0382C26.9307 31.4032 26.4348 31.6082 25.9183 31.6082C25.4014 31.6082 24.9055 31.4032 24.5398 31.0382L22.4981 28.9949C22.3647 29.0531 22.2304 29.1091 22.0948 29.1625V32.0507L22.0951 32.051C22.0945 32.5678 21.8887 33.0631 21.5231 33.4286C21.1576 33.7939 20.6621 33.9994 20.1452 34L20.1451 34ZM12.3676 27.6173H12.3679C12.4621 27.617 12.5553 27.6385 12.64 27.6796C12.998 27.8522 13.3652 28.0049 13.7399 28.1366C13.9908 28.2247 14.1586 28.4619 14.1586 28.7276V32.051C14.1589 32.4352 14.4705 32.7468 14.8547 32.7471H20.1456H20.1453C20.5299 32.7471 20.8417 32.4355 20.8423 32.051V28.7276C20.8425 28.4619 21.0101 28.225 21.2607 28.1366C21.6357 28.0049 22.0029 27.8522 22.3606 27.6796C22.6008 27.5644 22.8872 27.6131 23.076 27.8007L25.4258 30.1526C25.6982 30.4241 26.1387 30.4238 26.4108 30.152L30.1521 26.4122H30.1518C30.4231 26.1384 30.4228 25.6974 30.1512 25.4241L27.802 23.0754C27.6143 22.8877 27.5654 22.6022 27.6798 22.3628C27.8515 22.0037 28.0039 21.6356 28.1368 21.2603C28.2249 21.0094 28.4617 20.8416 28.7277 20.8419H32.0508C32.4351 20.8414 32.7466 20.5298 32.7469 20.1455V14.8547C32.7469 14.4701 32.4354 14.1585 32.0508 14.158H28.7277C28.462 14.1577 28.2254 13.9905 28.1368 13.7402C28.0039 13.3648 27.8512 12.9968 27.6795 12.6377C27.5651 12.398 27.6143 12.1125 27.802 11.9248L30.1518 9.57559C30.4231 9.30207 30.4228 8.86102 30.1512 8.58777L26.4109 4.8477C26.1382 4.57697 25.698 4.57725 25.4258 4.84853L23.0758 7.19949C22.8873 7.38771 22.6006 7.43609 22.3606 7.32058C22.0024 7.14802 21.6346 6.99504 21.2595 6.86248C21.0092 6.7741 20.842 6.5375 20.8423 6.27209V2.94957C20.8417 2.56501 20.5299 2.25345 20.1453 2.25317H14.8547C14.4704 2.25373 14.1588 2.56501 14.1586 2.94957V6.27209C14.1583 6.5375 13.991 6.77438 13.7404 6.86304C13.3654 6.99505 12.9976 7.14803 12.6394 7.32058C12.3994 7.43693 12.1122 7.38827 11.9242 7.19949L9.57442 4.84768C9.44381 4.71707 9.26649 4.64351 9.08163 4.64379C8.89677 4.64379 8.71973 4.71734 8.5894 4.84851L4.84818 8.5883C4.57717 8.86182 4.57746 9.30287 4.84874 9.57641L7.19798 11.9251V11.9249C7.38592 12.1125 7.43486 12.3981 7.32047 12.6377C7.14875 12.9968 6.99605 13.3649 6.86348 13.7402C6.77482 13.9905 6.53794 14.1577 6.27253 14.158H2.94915C2.5646 14.1586 2.25304 14.4701 2.25304 14.8547V20.1456C2.25332 20.5298 2.56488 20.8414 2.94915 20.8417H6.27253C6.53822 20.8417 6.7751 21.0095 6.86348 21.2601C6.99605 21.6354 7.14875 22.0035 7.32047 22.3625C7.43486 22.6022 7.38591 22.8877 7.19798 23.0754L4.84817 25.4246C4.57745 25.6987 4.57801 26.1398 4.84957 26.4133L8.58935 30.1526C8.86176 30.4236 9.30196 30.4236 9.57438 30.1526L11.9248 27.8008C12.0422 27.6833 12.2016 27.6173 12.3678 27.6173L12.3676 27.6173Z" fill="#A5CEE4"/>
<path d="M20.1451 34H14.8545C14.3377 33.9994 13.8423 33.7939 13.4768 33.4286C13.1113 33.0631 12.9057 32.5678 12.9055 32.0509V29.1624C12.7695 29.1093 12.6356 29.0528 12.5022 28.9949L10.46 31.0382C10.0942 31.4029 9.59863 31.6079 9.08177 31.6079C8.56522 31.6082 8.06932 31.4035 7.70325 31.0388L3.96232 27.2978C3.59846 26.9312 3.3943 26.4356 3.39402 25.919C3.39374 25.4025 3.59762 24.9069 3.96092 24.5399L6.00422 22.4964C5.94661 22.3635 5.89096 22.2295 5.83726 22.0945H2.94904C2.4322 22.0939 1.93688 21.8883 1.57138 21.5231C1.20612 21.1575 1.00056 20.6623 1 20.1454V14.8546C1.00056 14.3377 1.20612 13.8421 1.57138 13.4766C1.93692 13.1111 2.43219 12.9055 2.94904 12.9049H5.83812C5.89126 12.7699 5.94691 12.6365 6.00452 12.5036L3.96237 10.4615C3.59795 10.0948 3.39323 9.59922 3.39323 9.08236C3.39323 8.5655 3.5974 8.06962 3.96153 7.70269L7.70332 3.96176C8.06914 3.59678 8.56499 3.39178 9.08185 3.39178C9.5984 3.39178 10.0943 3.59679 10.4601 3.96176L12.5017 6.00506C12.6351 5.94689 12.7697 5.89067 12.9056 5.83754V2.94932C12.9059 2.43248 13.1114 1.93687 13.477 1.57166C13.8425 1.20612 14.3378 1.00056 14.8546 1H20.1455H20.1452C20.6621 1.00056 21.1577 1.20612 21.5232 1.57138C21.8887 1.93692 22.0945 2.43247 22.0951 2.94933V5.83754C22.2302 5.89068 22.365 5.94717 22.4984 6.00507L24.54 3.96177H24.5398C24.9059 3.59707 25.4014 3.39207 25.918 3.39207C26.4348 3.39179 26.9305 3.59651 27.2965 3.96121L31.0377 7.70243V7.70215C31.4019 8.0688 31.6066 8.56467 31.6066 9.08153C31.6069 9.59808 31.4024 10.0943 31.0383 10.4609L28.9956 12.5036C29.0532 12.6365 29.1088 12.7699 29.162 12.905H32.0508C32.5676 12.9055 33.0632 13.1111 33.4284 13.4766C33.794 13.8422 33.9995 14.3377 33.9998 14.8546V20.1454C33.9995 20.6623 33.794 21.1576 33.4284 21.5231C33.0632 21.8884 32.5676 22.0939 32.0508 22.0945H29.1626C29.1089 22.2296 29.0529 22.3635 28.9956 22.4964L31.0377 24.5385C31.4019 24.9052 31.6066 25.4011 31.6066 25.9179C31.6069 26.4345 31.4024 26.9307 31.0383 27.2973L27.2965 31.0385V31.0382C26.9307 31.4032 26.4348 31.6082 25.9183 31.6082C25.4014 31.6082 24.9055 31.4032 24.5398 31.0382L22.4981 28.9949C22.3647 29.0531 22.2304 29.1091 22.0948 29.1625V32.0507L22.0951 32.051C22.0945 32.5678 21.8887 33.0631 21.5231 33.4286C21.1576 33.7939 20.6621 33.9994 20.1452 34L20.1451 34ZM12.3676 27.6173H12.3679C12.4621 27.617 12.5553 27.6385 12.64 27.6796C12.998 27.8522 13.3652 28.0049 13.7399 28.1366C13.9908 28.2247 14.1586 28.4619 14.1586 28.7276V32.051C14.1589 32.4352 14.4705 32.7468 14.8547 32.7471H20.1456H20.1453C20.5299 32.7471 20.8417 32.4355 20.8423 32.051V28.7276C20.8425 28.4619 21.0101 28.225 21.2607 28.1366C21.6357 28.0049 22.0029 27.8522 22.3606 27.6796C22.6008 27.5644 22.8872 27.6131 23.076 27.8007L25.4258 30.1526C25.6982 30.4241 26.1387 30.4238 26.4108 30.152L30.1521 26.4122H30.1518C30.4231 26.1384 30.4228 25.6974 30.1512 25.4241L27.802 23.0754C27.6143 22.8877 27.5654 22.6022 27.6798 22.3628C27.8515 22.0037 28.0039 21.6356 28.1368 21.2603C28.2249 21.0094 28.4617 20.8416 28.7277 20.8419H32.0508C32.4351 20.8414 32.7466 20.5298 32.7469 20.1455V14.8547C32.7469 14.4701 32.4354 14.1585 32.0508 14.158H28.7277C28.462 14.1577 28.2254 13.9905 28.1368 13.7402C28.0039 13.3648 27.8512 12.9968 27.6795 12.6377C27.5651 12.398 27.6143 12.1125 27.802 11.9248L30.1518 9.57559C30.4231 9.30207 30.4228 8.86102 30.1512 8.58777L26.4109 4.8477C26.1382 4.57697 25.698 4.57725 25.4258 4.84853L23.0758 7.19949C22.8873 7.38771 22.6006 7.43609 22.3606 7.32058C22.0024 7.14802 21.6346 6.99504 21.2595 6.86248C21.0092 6.7741 20.842 6.5375 20.8423 6.27209V2.94957C20.8417 2.56501 20.5299 2.25345 20.1453 2.25317H14.8547C14.4704 2.25373 14.1588 2.56501 14.1586 2.94957V6.27209C14.1583 6.5375 13.991 6.77438 13.7404 6.86304C13.3654 6.99505 12.9976 7.14803 12.6394 7.32058C12.3994 7.43693 12.1122 7.38827 11.9242 7.19949L9.57442 4.84768C9.44381 4.71707 9.26649 4.64351 9.08163 4.64379C8.89677 4.64379 8.71973 4.71734 8.5894 4.84851L4.84818 8.5883C4.57717 8.86182 4.57746 9.30287 4.84874 9.57641L7.19798 11.9251V11.9249C7.38592 12.1125 7.43486 12.3981 7.32047 12.6377C7.14875 12.9968 6.99605 13.3649 6.86348 13.7402C6.77482 13.9905 6.53794 14.1577 6.27253 14.158H2.94915C2.5646 14.1586 2.25304 14.4701 2.25304 14.8547V20.1456C2.25332 20.5298 2.56488 20.8414 2.94915 20.8417H6.27253C6.53822 20.8417 6.7751 21.0095 6.86348 21.2601C6.99605 21.6354 7.14875 22.0035 7.32047 22.3625C7.43486 22.6022 7.38591 22.8877 7.19798 23.0754L4.84817 25.4246C4.57745 25.6987 4.57801 26.1398 4.84957 26.4133L8.58935 30.1526C8.86176 30.4236 9.30196 30.4236 9.57438 30.1526L11.9248 27.8008C12.0422 27.6833 12.2016 27.6173 12.3678 27.6173L12.3676 27.6173Z" stroke="#A5CEE4" stroke-width="0.545455" mask="url(#path-1-outside-1_23_357)"/>
</svg>
