<svg width="29" height="29" viewBox="0 0 29 29" fill="none" xmlns="http://www.w3.org/2000/svg">
<path d="M12.2377 15.6085L12.2379 15.6088L12.2705 15.6584C12.3739 15.8152 12.4787 15.9732 12.6768 16.0945C12.875 16.2159 13.1722 16.3035 13.6644 16.3035C14.1562 16.3035 14.4534 16.2159 14.6516 16.0946C14.8497 15.9733 14.9546 15.8154 15.0579 15.6589L12.2377 15.6085ZM12.2377 15.6085C12.0962 15.3961 11.9085 14.9982 11.7357 14.598C11.5635 14.199 11.4078 13.8022 11.3301 13.5949L11.3301 13.5948C11.2674 13.4282 11.1385 13.3 10.9803 13.2357V12.836C11.2087 12.7429 11.3698 12.5191 11.3698 12.257V11.6729C11.3698 11.0346 11.5633 10.5616 11.9407 10.2468C12.3197 9.93066 12.8924 9.76723 13.6644 9.76723C14.4365 9.76723 15.0091 9.93066 15.3881 10.2468C15.7655 10.5616 15.959 11.0346 15.959 11.6729V12.257C15.959 12.5187 16.12 12.7429 16.3483 12.8356V13.2357C16.1897 13.3 16.0611 13.4284 15.9988 13.5948C15.9209 13.8022 15.765 14.1991 15.5927 14.598C15.4199 14.9983 15.2324 15.3961 15.0912 15.6083L15.091 15.6085L15.058 15.6588L12.2377 15.6085ZM20.7102 9.20793H22.4985C22.8433 9.20793 23.1232 9.48753 23.123 9.83235L20.7102 9.20793ZM20.7102 9.20793V7.41963C20.7102 7.07484 20.4304 6.79521 20.0858 6.79521C19.741 6.79521 19.4614 7.07507 19.4614 7.41963V9.20793H17.6733C17.3285 9.20793 17.0489 9.48779 17.0489 9.83235C17.0489 10.1771 17.3288 10.4568 17.6733 10.4568H19.4614V12.2451C19.4614 12.5899 19.7413 12.8695 20.0858 12.8695C20.4306 12.8695 20.7102 12.5896 20.7102 12.2451V10.4568H22.4985C22.8433 10.4568 23.1229 10.1769 23.123 9.83238L20.7102 9.20793ZM11.3657 17.0835L11.3654 17.0823H11.3283C10.8396 17.0823 9.98543 17.229 9.21613 17.5588C8.44931 17.8875 7.74925 18.4059 7.5989 19.1596L7.59887 19.1596L7.59861 19.1611L7.40406 20.329C7.34722 20.6694 7.57739 20.9908 7.91745 21.0476C7.95231 21.0535 7.98698 21.0561 8.02059 21.0561C8.32072 21.0561 8.58516 20.8399 8.63612 20.534L8.63613 20.534L8.82678 19.3857C8.82683 19.3855 8.82688 19.3852 8.82693 19.385C8.84929 19.2747 8.94956 19.1514 9.11734 19.0264C9.28331 18.9027 9.50658 18.7839 9.75772 18.6804C10.2605 18.4732 10.8657 18.331 11.3283 18.331C11.6731 18.331 11.9527 18.0512 11.9528 17.7066C11.9528 17.7066 11.9528 17.7066 11.9528 17.7066L11.3657 17.0835ZM19.7264 19.1423L19.7264 19.1423L19.7261 19.1407C19.5841 18.4316 18.9769 17.9192 18.2514 17.5855C17.5245 17.2511 16.6665 17.0899 15.9993 17.0899C15.6545 17.0899 15.3749 17.3698 15.3749 17.7144C15.3749 18.0592 15.6547 18.3388 15.9993 18.3388C16.559 18.3388 17.1638 18.4768 17.6407 18.6779C17.8791 18.7784 18.0837 18.894 18.2341 19.0143C18.3855 19.1356 18.4755 19.2565 18.4979 19.3665C18.4979 19.3668 18.498 19.3671 18.4981 19.3673L18.6923 20.5334L18.7416 20.5252L18.6923 20.5334C18.7433 20.839 19.0077 21.0555 19.3078 21.0555C19.3416 21.0555 19.3764 21.0526 19.4107 21.047L19.4108 21.047C19.7512 20.9901 19.981 20.6685 19.9244 20.3284L19.7264 19.1423ZM16.1006 16.3467L16.113 16.3278L16.1307 16.3011C16.1307 16.3011 16.1307 16.3011 16.1307 16.3011C16.4544 15.8148 16.8626 14.8188 17.0576 14.3209C17.3784 14.1502 17.5972 13.8129 17.5972 13.4247V12.6465C17.5972 12.3225 17.4448 12.0341 17.2079 11.8486V11.6734C17.2079 10.6896 16.877 9.89881 16.2646 9.35459C15.653 8.81106 14.7665 8.51862 13.6643 8.51862C12.5621 8.51862 11.6756 8.81106 11.064 9.35459C10.4516 9.89881 10.1207 10.6896 10.1207 11.6734V11.8543C9.88571 12.0413 9.73117 12.3293 9.73117 12.6467V13.4249C9.73117 13.8132 9.95047 14.1505 10.2712 14.3211C10.4664 14.8194 10.8742 15.8154 11.1986 16.3018L11.2283 16.3464L11.2284 16.3466L11.2286 16.3469C11.3651 16.5541 11.5649 16.8573 11.9364 17.1074C12.3087 17.3581 12.8494 17.5528 13.6647 17.5528C14.4797 17.5526 15.02 17.3579 15.3923 17.1074C15.7633 16.8576 15.9631 16.5549 16.0999 16.3476L16.1006 16.3467ZM14.5 0.95C7.02841 0.95 0.95 7.02841 0.95 14.5C0.95 21.9716 7.02841 28.05 14.5 28.05C21.9716 28.05 28.05 21.9716 28.05 14.5C28.05 7.02841 21.9716 0.95 14.5 0.95ZM14.5 26.8011C7.71709 26.8011 2.19894 21.2829 2.19894 14.5C2.19894 7.71709 7.71709 2.19894 14.5 2.19894C21.2829 2.19894 26.8011 7.71709 26.8011 14.5C26.8011 21.2829 21.2829 26.8011 14.5 26.8011Z" fill="#A5CEE4" stroke="#A5CEE4" stroke-width="0.1"/>
</svg>
