<svg width="22" height="33" viewBox="0 0 22 33" fill="none" xmlns="http://www.w3.org/2000/svg">
<path d="M11.6707 11.2359C11.6166 11.2305 11.5755 11.185 11.576 11.1306V10.1623C11.5777 10.1127 11.6176 10.073 11.667 10.0711C14.2489 9.94822 16.4204 8.94152 17.8307 7.2119C19.2409 5.48229 19.7707 3.09353 19.2338 0.578476L19.1425 0.126013H19.1428C19.1315 0.0839238 19.0951 0.0530889 19.0517 0.048685L18.6167 0.0102664C16.2521 -0.0949576 14.2176 0.610038 12.7266 2.06238C11.6763 3.1195 10.9393 4.44656 10.5972 5.89691C10.5938 5.92138 10.5754 5.9412 10.5512 5.94658C10.5272 5.95197 10.502 5.94194 10.4883 5.92138C10.2233 5.54821 9.90006 5.22007 9.53081 4.94964C7.9439 3.8585 5.95519 3.52692 4.10028 4.04449C4.06162 4.05477 4.03715 4.09294 4.044 4.13233C4.14237 4.74973 4.95623 9.56286 10.1061 10.0118C10.1553 10.0187 10.1925 10.0603 10.1937 10.11L10.1761 11.1204H10.1763C10.1856 11.1713 10.1555 11.2209 10.1061 11.2361C7.29199 11.4404 4.66706 12.7285 2.78359 14.8291C0.900117 16.9296 -0.0956174 19.6789 0.00668111 22.4986C0.108967 25.3184 1.30092 27.9884 3.33173 29.9471C5.36279 31.9057 8.07411 33 10.8954 33C13.7169 33 16.4284 31.9057 18.4591 29.9471C20.4902 27.9884 21.6821 25.3185 21.7844 22.4986C21.8867 19.6791 20.8912 16.9299 19.0075 14.8291C17.1238 12.7285 14.4988 11.4404 11.685 11.2361L11.6707 11.2359ZM13.6949 3.062C14.8352 1.98946 16.346 1.39872 17.9114 1.4132C17.9613 1.41099 18.0042 1.44794 18.0098 1.49738C18.2829 3.20857 17.8346 4.95629 16.7713 6.3247C15.6346 7.72781 13.8491 8.54539 11.7196 8.66798C11.6956 8.66994 11.6716 8.66162 11.6542 8.64474C11.6366 8.6281 11.6273 8.6046 11.6286 8.58038C11.6985 6.21236 12.4109 4.31103 13.6948 3.05858L13.6949 3.062ZM10.0008 8.59088C8.15917 8.28916 6.35588 7.29295 5.69642 5.25117H5.69618C5.68859 5.22866 5.69177 5.20395 5.70474 5.18388C5.71771 5.16406 5.73925 5.15134 5.76298 5.14938C6.80959 5.08233 7.84466 5.39922 8.6747 6.04037C9.43646 6.6443 9.95252 7.50469 10.1271 8.46102C10.1346 8.49675 10.1241 8.5337 10.0987 8.55988C10.0732 8.58582 10.0365 8.59756 10.0008 8.59095L10.0008 8.59088ZM10.8076 31.5827C8.28151 31.5836 5.85842 30.5806 4.07205 28.7945C2.28568 27.0081 1.28243 24.5853 1.28312 22.059C1.28361 19.5329 2.28812 17.1105 4.07543 15.3253C5.86249 13.5399 8.28608 12.5381 10.8122 12.5403C13.3383 12.5425 15.7601 13.5485 17.544 15.3368C19.3281 17.1251 20.3285 19.5492 20.3249 22.0755C20.3209 24.5977 19.3167 27.0151 17.5325 28.7972C15.7482 30.5797 13.3295 31.5812 10.807 31.5822L10.8076 31.5827Z" fill="#A5CEE4"/>
</svg>
