<svg width="32" height="33" viewBox="0 0 32 33" fill="none" xmlns="http://www.w3.org/2000/svg">
<path d="M31.8193 13.53V13.0004C31.8207 12.7618 31.7162 12.5358 31.5357 12.3859L17.1835 0.463907C16.8232 0.163624 16.3736 0 15.9097 0C15.4458 0 14.9961 0.163618 14.6358 0.463907L0.283656 12.381C0.103156 12.5309 -0.00136569 12.757 1.34791e-05 12.9953V31.0562C0.00392736 31.5168 0.158181 31.9625 0.43837 32.3221C0.448501 32.3427 0.460703 32.3623 0.474516 32.3803C0.511353 32.4288 0.550954 32.4746 0.593083 32.5181C0.639129 32.5683 0.689088 32.6141 0.742734 32.6557L0.85094 32.7458H0.897446C0.939578 32.7777 0.984475 32.8061 1.03144 32.8305C1.07449 32.8567 1.11939 32.8796 1.16543 32.8995H1.22736C1.33119 32.9416 1.43802 32.9754 1.54715 33H29.8342C29.9447 32.9976 30.0552 32.987 30.1644 32.9683H30.3398L30.5562 32.9842L30.6801 32.9206C30.733 32.8974 30.7848 32.8709 30.8348 32.8411H30.8709L30.9948 32.751L31.0618 32.6981L31.1442 32.6186L31.2423 32.5233C31.2939 32.4652 31.3505 32.4016 31.4124 32.3221V32.285L31.4486 32.2268L31.4898 32.1632V32.1155H31.4896C31.6629 31.8078 31.7552 31.4593 31.7578 31.1039V13.5309L31.8193 13.53ZM15.6106 1.70307C15.7849 1.55766 16.0344 1.55766 16.2087 1.70307L30.133 13.2703L16.6472 24.4405C16.483 24.5746 16.2795 24.6474 16.0695 24.6474C15.8598 24.6474 15.6563 24.5746 15.4921 24.4405L1.68633 13.26L15.6106 1.70307ZM1.54191 30.4517V15.1716L10.8713 22.7239L1.54191 30.4517ZM2.69723 31.5427L12.1192 23.7361L14.5327 25.6906V25.6903C14.9705 26.0542 15.5166 26.2526 16.0798 26.2526C16.6429 26.2526 17.189 26.0542 17.6269 25.6903L20.0096 23.72L29.4728 31.5587L2.69723 31.5427ZM30.2776 30.1708L21.2317 22.6821L30.2723 15.1927L30.2776 30.1708Z" fill="#A5CEE4"/>
</svg>
