<svg width="442" height="300" viewBox="0 0 442 300" fill="none" xmlns="http://www.w3.org/2000/svg">
<path d="M440.333 153.489C420.244 196.831 389.545 233.422 351.555 259.32C312.508 285.935 267.349 300 220.976 300C174.602 300 129.45 285.935 90.3967 259.32C52.406 233.424 21.7039 196.833 1.61813 153.489L0 150L1.61813 146.511C21.7074 103.169 52.4096 66.5775 90.4055 40.6801C129.452 14.0653 174.604 3.01527e-07 220.984 3.01527e-07C267.365 3.01527e-07 312.519 14.0653 351.563 40.6801C389.554 66.5756 420.254 103.167 440.342 146.511L441.96 150L440.333 153.489ZM220.976 41.5263C165.666 41.5263 120.665 90.1882 120.665 150.006C120.665 209.823 165.663 258.485 220.976 258.485C276.288 258.485 321.286 209.823 321.286 150.006C321.286 90.1882 276.288 41.5263 220.976 41.5263Z" fill="#A5CEE4"/>
<path d="M286.058 149.92C286.058 111.09 256.951 79.6127 221.045 79.6127C185.139 79.6127 156.032 111.09 156.032 149.92C156.032 188.75 185.139 220.227 221.045 220.227C256.951 220.227 286.058 188.75 286.058 149.92" fill="#A5CEE4"/>
</svg>
