<svg width="33" height="35" viewBox="0 0 33 35" fill="none" xmlns="http://www.w3.org/2000/svg">
<path d="M17.1128 0.819592L17.1124 0.776796C17.314 0.75341 17.5142 0.831787 17.6464 0.985749C17.6467 0.986137 17.647 0.986525 17.6474 0.986914L20.7179 4.49621L23.2417 3.20061C23.3109 3.16169 23.3872 3.13667 23.466 3.12708L23.4779 3.12563L23.478 3.12595C23.7266 3.10891 23.9608 3.24459 24.0696 3.46891C24.0697 3.46908 24.0697 3.46925 24.0698 3.46942L26.2134 7.84997L30.0888 7.86159L30.0888 7.86159L30.0881 8.08886C30.8319 8.09099 31.4568 8.38299 31.8628 8.85617L17.1128 0.819592ZM17.1128 0.819592L17.1068 0.777673C16.9858 0.795129 16.8729 0.848368 16.7826 0.930622L9.16156 7.86141H4.52618C3.54344 7.85431 2.63589 8.12376 1.95006 8.59691L1.94996 8.59698C1.26397 9.07078 0.772727 9.78845 0.772727 10.6307L0.772727 10.6308L0.784771 31.5542L0.784772 31.5547C0.786892 32.3699 1.26627 33.0616 1.92653 33.5157C2.58652 33.9697 3.45144 34.2273 4.39344 34.2273H27.3545C28.4593 34.2273 29.4877 33.4945 29.8417 32.3971C30.4924 32.3582 31.1321 32.2009 31.6566 31.8365L17.1128 0.819592ZM26.8087 9.07267L30.088 9.0835L30.0881 9.0835C30.5796 9.08493 30.8851 9.25346 31.1031 9.50784L31.1032 9.50793C31.3253 9.76681 31.4681 10.1539 31.4681 10.631V17.7294H23.494C22.6886 17.7294 22.1038 18.4338 22.1038 19.2039V23.0646C22.1038 23.8318 22.686 24.5509 23.494 24.5509H31.4681V29.7912C31.4681 30.0643 31.4187 30.2664 31.3367 30.4247C31.255 30.5826 31.1333 30.7116 30.9662 30.8277C30.7256 30.9946 30.3769 31.1108 29.9683 31.1614V25.3321V25.3307H29.7411M26.8087 9.07267L29.7924 24.8966M26.8087 9.07267L28.0214 11.5486C28.6123 11.6433 29.0991 11.9655 29.4208 12.4026C29.7982 12.9151 29.9687 13.5528 29.9687 14.1799V16.8646V16.8659H29.7414M26.8087 9.07267L2.61646 32.5057M29.7411 25.3307C29.7424 25.2282 29.7028 25.1292 29.6305 25.0561M29.7411 25.3307V31.1823V25.3307ZM29.6305 25.0561L29.7927 24.8969C29.7926 24.8968 29.7925 24.8967 29.7924 24.8966M29.6305 25.0561C29.5585 24.9828 29.46 24.9416 29.3573 24.9416C29.2548 24.9416 29.1563 24.9828 29.084 25.0561C29.012 25.1292 28.9721 25.2282 28.9737 25.3307H28.7465V25.3324M29.6305 25.0561L29.7921 24.8963C29.7922 24.8964 29.7923 24.8965 29.7924 24.8966M29.7924 24.8966C29.6776 24.7798 29.5207 24.7143 29.3573 24.7143C29.1938 24.7143 29.037 24.78 28.9221 24.8966C28.808 25.0124 28.7444 25.1693 28.7465 25.3324M28.7465 25.3324V31.5539C28.7465 32.4293 28.0602 33.0053 27.3551 33.0053H4.39401C3.6744 33.0053 3.04092 32.7977 2.61646 32.5057M28.7465 25.3324L2.61646 32.5057M2.61646 32.5057C2.19734 32.2174 2.01192 31.8768 2.00727 31.5524L2.00727 31.5419L2.00727 31.5417L1.99576 12.1817C2.57439 12.5405 3.30747 12.7408 4.09439 12.7406H4.09443L27.6672 12.7285C27.6672 12.7285 27.6673 12.7285 27.6673 12.7285C28.0165 12.7285 28.2422 12.871 28.4314 13.1277C28.6234 13.3886 28.7468 13.7782 28.7468 14.1799V16.8642V16.8659H28.9741M28.9741 16.8659C28.9725 16.9684 29.0123 17.0674 29.0843 17.1405C29.1566 17.2138 29.2551 17.255 29.3576 17.255C29.4604 17.255 29.5589 17.2138 29.6309 17.1405M28.9741 16.8659V14.1799C28.9741 13.7369 28.8392 13.2983 28.6144 12.9929L28.9741 16.8659ZM29.6309 17.1405L29.7925 17.3003C29.7925 17.3003 29.7925 17.3002 29.7926 17.3002C29.7927 17.3 29.7929 17.2999 29.793 17.2997L29.6309 17.1405ZM29.6309 17.1405C29.7031 17.0674 29.7427 16.9684 29.7414 16.8659M29.7414 16.8659V14.1799C29.7414 13.5919 29.5814 13.0039 29.2377 12.5373L29.7414 16.8659ZM24.925 19.8499L24.9885 19.8419C24.9885 19.8419 24.9886 19.8419 24.9887 19.8419L25.0156 20.056L24.925 19.8499ZM24.925 19.8499L24.919 19.8547M24.925 19.8499L24.919 19.8547M24.919 19.8547C24.642 19.9225 24.4448 20.1759 24.4539 20.4671V21.8166V21.8179H24.6812M24.919 19.8547L25.4781 19.9977M24.6812 21.8179C24.6798 21.9207 24.7197 22.0197 24.7917 22.0928C24.8637 22.1659 24.9622 22.2071 25.065 22.2071C25.1677 22.2071 25.2662 22.1659 25.3382 22.0928C25.4102 22.0197 25.4501 21.9207 25.4488 21.8179M24.6812 21.8179V20.4632V21.8179ZM25.4488 21.8179H25.676V21.8166V20.467C25.6814 20.2893 25.6092 20.1178 25.4781 19.9977M25.4488 21.8179V20.4632V21.8179ZM25.4781 19.9977C25.4781 19.9977 25.4781 19.9977 25.4781 19.9977L25.3246 20.1653L25.4781 19.9977ZM6.95871 11.5187L17.1324 2.25062L19.5953 5.08184L7.13092 11.496L7.12069 11.5013L7.11105 11.5075C7.10544 11.5112 7.0999 11.5149 7.09443 11.5187H6.95871ZM4.52395 9.0835L4.52451 9.00442L4.52552 9.0835H7.81038L5.13176 11.5187H4.09381C3.50461 11.5187 2.97969 11.3615 2.62051 11.1342C2.2659 10.9097 2.09825 10.6343 2.06561 10.3913C2.06336 10.3646 2.05936 10.3381 2.05363 10.312C2.14381 10.0688 2.34003 9.82232 2.65213 9.60694L2.65222 9.60688C3.10173 9.29636 3.76886 9.07817 4.52395 9.0835ZM23.4941 18.9518H31.4682V23.3292H23.4941C23.4509 23.3292 23.3258 23.2693 23.3258 23.0649V19.2041C23.3258 19.0113 23.4395 18.9539 23.4913 18.9518H23.4941ZM23.2479 4.56068L26.632 11.5069L9.76754 11.5181L23.2479 4.56068Z" fill="#A5CEE4" stroke="#A5CEE4" stroke-width="0.454545"/>
</svg>
