<svg width="22" height="33" viewBox="0 0 22 33" fill="none" xmlns="http://www.w3.org/2000/svg">
<path d="M5.90177 0.00109609C5.59843 0.0322231 5.34456 0.245665 5.2602 0.53994L2.72904 9.28195C1.02956 11.2006 -0.00102133 13.7224 -0.000488074 16.4885C-0.000227646 19.2551 1.02983 21.795 2.72904 23.7191L5.2602 32.4612C5.35315 32.7787 5.64217 32.9979 5.97182 33H15.677C16.0067 32.9979 16.2957 32.7787 16.3887 32.4612L17.6833 27.9728C17.739 27.7816 17.7169 27.5763 17.6218 27.4016C17.5265 27.2268 17.3664 27.0971 17.1761 27.0411C16.9857 26.9851 16.7811 27.0076 16.6071 27.1031C16.4332 27.1988 16.3043 27.36 16.2486 27.5509L15.117 31.5002H6.53157L4.8167 25.5355C6.53624 26.6938 8.6036 27.3752 10.8241 27.3752C16.7938 27.3752 21.6499 22.4976 21.6492 16.5004C21.6489 13.7345 20.6181 11.2143 18.9197 9.29389L16.3885 0.539825C16.2956 0.222273 16.0065 0.00307683 15.6769 0.000980889H5.97166C5.94848 -0.000326963 5.92505 -0.000326963 5.90161 0.000980889L5.90177 0.00109609ZM6.53188 1.50093H15.1173L16.8438 7.46559C15.1227 6.30632 13.0483 5.62618 10.8246 5.62591C8.60104 5.62565 6.52681 6.30833 4.80547 7.46559L6.53188 1.50093ZM10.8244 7.12582C13.5222 7.12608 15.9463 8.27021 17.6488 10.1023C17.6855 10.1546 17.7284 10.2016 17.7771 10.243C19.2563 11.9011 20.1564 14.0931 20.1567 16.5006C20.1575 21.6871 15.9875 25.8761 10.8248 25.8754C5.66226 25.8754 1.49348 21.6753 1.49282 16.4885C1.49215 11.3018 5.662 7.12445 10.8248 7.12579L10.8244 7.12582ZM10.7427 8.98899C10.3581 9.03163 10.0696 9.36199 10.0779 9.75069V16.5006C10.0795 16.6988 10.1592 16.8885 10.2995 17.0279L14.4057 21.1529C14.5455 21.2973 14.7372 21.3792 14.9377 21.38C15.1384 21.3808 15.3308 21.3007 15.4717 21.1574C15.6128 21.014 15.6904 20.82 15.6875 20.6185C15.6844 20.4171 15.6008 20.2254 15.4555 20.0865L11.571 16.1841V9.75071C11.5757 9.53465 11.4874 9.32722 11.3288 9.18126C11.17 9.03556 10.9565 8.96546 10.7427 8.98901L10.7427 8.98899Z" fill="#A5CEE4"/>
</svg>
