<svg width="21" height="29" viewBox="0 0 21 29" fill="none" xmlns="http://www.w3.org/2000/svg">
<path d="M10.6836 8.65365C12.3433 8.65365 13.6929 7.30405 13.6929 5.64428C13.6929 3.98454 12.3434 2.63467 10.6836 2.63467C9.02382 2.63467 7.67422 3.98427 7.67422 5.64403C7.67422 7.30397 9.02381 8.65365 10.6836 8.65365ZM10.6836 3.45616C11.8901 3.45616 12.8718 4.43779 12.8718 5.64435C12.8718 6.85066 11.8901 7.83254 10.6836 7.83254C9.47703 7.83254 8.49539 6.8509 8.49539 5.64435C8.49539 4.43779 9.47703 3.45616 10.6836 3.45616Z" fill="#A5CEE4" stroke="#A5CEE4" stroke-width="0.3"/>
<path d="M14.6098 10.3276C14.6098 9.95967 14.3911 9.60291 14.0109 9.34439C13.6296 9.08516 13.0784 8.91738 12.3797 8.91738H8.85472C8.11119 8.91738 7.58601 9.09219 7.24328 9.36146C6.89855 9.63231 6.74941 9.99082 6.74941 10.3274V12.5151V12.7577L6.96642 12.6493C7.13458 12.5654 7.3048 12.4864 7.47817 12.4143L7.5706 12.3759V12.2758V10.4774H7.57133V10.3274C7.57133 10.2107 7.64063 10.0692 7.84316 9.94944C8.04711 9.82889 8.37636 9.73886 8.85522 9.73886H12.3802C12.9423 9.73886 13.302 9.86116 13.516 9.9979C13.7377 10.1396 13.7886 10.284 13.7886 10.3279V10.3281L13.7914 12.274L13.7915 12.374L13.8838 12.4123C14.0574 12.4845 14.2281 12.5631 14.3959 12.647L14.6134 12.756L14.613 12.5127L14.6098 10.3276ZM14.6098 10.3276H14.4598L14.6098 10.3274L14.6098 10.3276Z" fill="#A5CEE4" stroke="#A5CEE4" stroke-width="0.3"/>
<path d="M4.78417 6.86872C6.44393 6.86872 7.79353 5.51912 7.79353 3.85936C7.79353 2.19958 6.44341 0.85 4.78417 0.85C3.1244 0.85 1.7748 2.1996 1.7748 3.85936C1.7748 5.51912 3.1244 6.86872 4.78417 6.86872ZM4.78417 1.67073C5.99072 1.67073 6.97236 2.65236 6.97236 3.85892C6.97236 5.06547 5.99072 6.04711 4.78417 6.04711C3.57761 6.04711 2.59598 5.06547 2.59598 3.85892C2.59598 2.65261 3.57762 1.67073 4.78417 1.67073Z" fill="#A5CEE4" stroke="#A5CEE4" stroke-width="0.3"/>
<path d="M2.58253 22.1075C2.42624 21.4697 2.34181 20.8039 2.34181 20.1185V20.1184C2.34206 19.469 2.41823 18.8386 2.55852 18.2325L2.56673 18.1971L2.56238 18.1799V15.2561V15.194L2.51845 15.15L2.44188 15.0735C2.23888 14.8705 2.0442 14.65 1.89865 14.4652C1.82575 14.3726 1.76667 14.2909 1.72538 14.2259C1.70469 14.1934 1.68969 14.167 1.67986 14.1469C1.6756 14.1382 1.67298 14.132 1.67142 14.1281V8.54247C1.67142 8.42577 1.74072 8.28419 1.94325 8.16448C2.14721 8.04393 2.47645 7.9539 2.95531 7.9539H7.08598H7.23598V7.8039V7.28271V7.13271H7.08598H2.95531C2.21178 7.13271 1.68659 7.30752 1.34386 7.57683C0.999121 7.84772 0.85 8.2063 0.85 8.54296V14.1481C0.85 14.2698 0.894366 14.3977 0.953507 14.5175C1.01389 14.6398 1.0966 14.7673 1.18815 14.8915C1.35738 15.1212 1.56501 15.351 1.74071 15.5329V21.5783C1.74071 21.7488 1.81926 21.9238 1.93311 22.0545C2.04724 22.1856 2.21575 22.2932 2.41239 22.2932H2.43684H2.62803L2.58253 22.1075Z" fill="#A5CEE4" stroke="#A5CEE4" stroke-width="0.3"/>
<path d="M14.4075 3.85892L14.4075 3.85889C14.4073 2.65264 15.3894 1.67073 16.5957 1.67073C17.8022 1.67073 18.7839 2.65236 18.7839 3.85892C18.7839 5.06547 17.8022 6.04711 16.5957 6.04711C15.3891 6.04711 14.4075 5.06547 14.4075 3.85892ZM16.5957 6.86872C18.2555 6.86872 19.6051 5.51912 19.6051 3.85936C19.6051 2.1996 18.2555 0.85 16.5957 0.85C14.9359 0.85 13.5863 2.1996 13.5863 3.85936C13.5861 5.51915 14.9362 6.86872 16.5957 6.86872Z" fill="#A5CEE4" stroke="#A5CEE4" stroke-width="0.3"/>
<path d="M20.5294 8.5426C20.5297 8.20592 20.3808 7.84729 20.0361 7.57638C19.6935 7.30704 19.1683 7.13223 18.4246 7.13223H18.3421L18.3421 7.13226H14.2939H14.1439V7.28226V7.80344V7.95344H14.2939H18.4246C18.9035 7.95344 19.2327 8.04347 19.4367 8.16402C19.6392 8.28373 19.7085 8.42531 19.7085 8.54201V14.1279C19.707 14.1318 19.7043 14.138 19.7001 14.1467C19.6902 14.1668 19.6753 14.1932 19.6546 14.2257C19.6133 14.2907 19.5542 14.3724 19.4813 14.465C19.3357 14.6499 19.1411 14.8703 18.9381 15.0733L19.0391 15.1743L18.9381 15.0733L18.8615 15.1498L18.8175 15.1938V15.2559V18.2508V18.2675L18.8212 18.2837C18.9537 18.8743 19.0258 19.4872 19.0258 20.117C19.0258 20.8027 18.9413 21.4685 18.7851 22.106L18.7395 22.2917H18.9307H18.9673C19.1639 22.2917 19.3324 22.1843 19.4466 22.0532C19.5604 21.9225 19.639 21.7475 19.639 21.5768L19.6387 15.5322C19.8145 15.3501 20.0222 15.1204 20.1914 14.8907C20.2829 14.7665 20.3656 14.639 20.426 14.5167C20.4851 14.397 20.5294 14.269 20.5294 14.1473V8.5426ZM20.5294 8.5426L20.3794 8.54247H20.5294V8.5426Z" fill="#A5CEE4" stroke="#A5CEE4" stroke-width="0.3"/>
<path d="M10.6841 28.15V28.15C14.3954 28.15 17.6034 25.6343 18.4854 22.0327L18.4854 22.0326C18.6389 21.4043 18.7169 20.7602 18.7169 20.1178C18.7169 19.5295 18.6505 18.9358 18.5199 18.3529L18.5199 18.3529C17.9888 15.9869 16.4352 14.0084 14.2591 12.925L14.259 12.925C14.0981 12.8449 13.9339 12.7691 13.7656 12.6992C11.8056 11.8843 9.55783 11.8843 7.5975 12.701C7.42961 12.7709 7.2657 12.847 7.10462 12.9273L7.10459 12.9273C4.94854 14.0027 3.40131 15.9624 2.86038 18.3028C2.72174 18.9014 2.65176 19.5115 2.65176 20.1175C2.65176 20.7607 2.72954 21.4048 2.88331 22.0324C3.76481 25.6341 6.97293 28.15 10.6841 28.15ZM7.98558 13.6312C8.83284 13.2784 9.72959 13.0976 10.6524 13.0935H10.6841C11.6164 13.0935 12.5226 13.2739 13.3784 13.6297L13.3785 13.6297C13.5248 13.6904 13.6681 13.7567 13.8101 13.8273C15.714 14.775 17.0716 16.5049 17.5362 18.5733C17.6506 19.0844 17.7084 19.6037 17.7084 20.1174C17.7084 20.6789 17.6405 21.2427 17.5055 21.7927L17.5055 21.7927C16.7347 24.942 13.9299 27.1417 10.6841 27.1417C7.43826 27.1417 4.63347 24.9423 3.86272 21.793C3.72846 21.2434 3.66026 20.6795 3.66026 20.1176C3.66026 19.5884 3.72167 19.0543 3.84266 18.5302C4.31545 16.4833 5.66851 14.77 7.5545 13.8293C7.69637 13.7588 7.83956 13.6925 7.98558 13.6312Z" fill="#A5CEE4" stroke="#A5CEE4" stroke-width="0.3"/>
<path d="M11.5118 24.4068V24.4067C11.5118 24.1055 11.4179 23.8369 11.2384 23.6421C11.0578 23.446 10.801 23.3363 10.5 23.3363C9.91189 23.3363 9.4877 23.7917 9.4877 24.4067C9.4877 24.9895 9.89422 25.463 10.4852 25.463H10.4852C10.7941 25.463 11.0539 25.3493 11.2359 25.154C11.4167 24.96 11.5117 24.6953 11.5118 24.4068Z" fill="#A5CEE4" stroke="#A5CEE4" stroke-width="0.3"/>
<path d="M12.0173 19.9169L12.06 19.8665L12.0599 19.8662C12.7395 19.0567 13.309 18.3111 13.309 17.2776C13.309 16.6885 13.1071 16.1113 12.6749 15.6811C12.2417 15.2499 11.5909 14.9799 10.7191 14.9799C9.92104 14.9799 9.07055 15.2193 8.54337 15.5915L8.44828 15.6586L8.4897 15.7674L8.8402 16.688L8.91152 16.8754L9.07113 16.7541C9.40526 16.5003 9.9557 16.3319 10.4548 16.3317C10.8889 16.3388 11.1954 16.4591 11.3924 16.6452C11.5883 16.8304 11.6942 17.098 11.6942 17.4384C11.6942 18.0356 11.3645 18.5678 10.7067 19.3428L10.7067 19.3428L10.7058 19.3439C9.95588 20.244 9.6734 21.1589 9.76594 21.982L9.79488 22.3589L9.80552 22.4974H9.94444H11.099H11.2615L11.2485 22.3354L11.2192 21.972C11.1787 21.2741 11.394 20.654 12.0173 19.9169Z" fill="#A5CEE4" stroke="#A5CEE4" stroke-width="0.3"/>
</svg>
