<svg width="273" height="300" viewBox="0 0 273 300" fill="none" xmlns="http://www.w3.org/2000/svg">
<path d="M234.071 120.713V235.665H38.7843V120.713C31.9252 121.367 24.4148 120.713 17.5586 118.101V286.609C17.5586 293.794 23.4356 299.999 30.9484 299.999H241.911C249.095 299.999 255.301 294.122 255.301 286.609L255.298 118.427C248.439 120.712 241.257 121.366 234.073 120.712L234.071 120.713Z" fill="#A5CEE4"/>
<path d="M269.663 67.6006L259.212 42.1283C255.619 33.3104 253.006 24.1665 251.048 15.0233C249.414 6.20536 241.904 0 232.76 0H39.7593C30.9414 0 23.105 6.20536 21.4721 15.0233C19.8388 24.4925 16.9003 33.6387 13.3079 42.4543L2.85663 67.9265C-0.409977 75.7647 -1.06148 84.5809 1.8771 92.7451C6.77467 106.461 19.5106 115.279 33.5541 115.279C43.3517 115.279 52.495 111.033 58.7004 103.848C65.2311 111.032 74.049 115.279 83.8466 115.279H85.8057C95.275 115.279 104.093 111.033 110.298 104.502C116.504 111.361 125.647 115.279 134.791 115.279H137.404C146.547 115.279 155.691 111.361 161.896 104.502C168.101 111.033 176.919 115.279 186.389 115.279H188.676C198.473 115.279 207.291 111.033 213.822 103.848C220.027 111.032 229.171 115.279 238.968 115.279C253.009 115.279 265.748 106.461 270.645 92.7451C273.582 84.2549 272.928 75.4393 269.663 67.6011L269.663 67.6006Z" fill="#A5CEE4"/>
<path d="M136.419 177.816C150.788 177.816 162.545 166.059 162.545 151.69C162.545 137.32 150.788 125.564 136.419 125.564C122.049 125.564 110.293 137.32 110.293 151.69C110.293 166.059 122.049 177.816 136.419 177.816Z" fill="#A5CEE4"/>
<path d="M93.3203 213.739V227.129H179.534V213.739C179.534 200.678 171.044 189.573 159.287 185.654C152.757 190.226 144.918 192.839 136.428 192.839C127.939 192.839 120.1 190.226 113.569 185.654C101.813 189.575 93.3203 200.678 93.3203 213.739V213.739Z" fill="#A5CEE4"/>
</svg>
