<svg width="302" height="301" viewBox="0 0 302 301" fill="none" xmlns="http://www.w3.org/2000/svg">
<path d="M160.047 1.98364C154.088 -0.661214 147.289 -0.661214 141.329 1.98364L27.8734 52.4064C23.8017 54.2179 20.3423 57.1714 17.9136 60.9057C15.4848 64.6427 14.1908 69.0015 14.1885 73.4578V106.787C14.198 112.893 16.6315 118.748 20.9501 123.064C25.2711 127.38 31.1257 129.809 37.2322 129.816H264.144C270.253 129.809 276.11 127.377 280.431 123.059C284.75 118.738 287.181 112.881 287.188 106.772V73.4432C287.185 68.9869 285.892 64.6278 283.463 60.8912C281.034 57.1566 277.575 54.203 273.503 52.3918L160.047 1.98364ZM193.234 87.2686H169.976C167.716 92.2306 163.632 96.1289 158.571 98.1565C153.511 100.184 147.866 100.184 142.806 98.1565C137.744 96.129 133.66 92.2306 131.4 87.2686H108.142C104.975 87.2686 102.05 85.5806 100.466 82.8384C98.8829 80.0962 98.8829 76.7155 100.466 73.9731C102.05 71.231 104.975 69.5429 108.142 69.5429H131.407C133.664 64.5809 137.746 60.6801 142.805 58.6526C147.864 56.6227 153.51 56.6227 158.57 58.6526C163.629 60.6801 167.71 64.5809 169.968 69.5429H193.233C196.4 69.5429 199.325 71.2309 200.908 73.9731C202.492 76.7153 202.492 80.096 200.908 82.8384C199.325 85.5805 196.4 87.2686 193.233 87.2686H193.234Z" fill="#A5CEE4"/>
<path d="M0.00451134 291.16C0.011634 293.508 0.947067 295.756 2.60901 297.413C4.27094 299.071 6.52165 300.001 8.86984 300.001H292.501C295.668 300.001 298.595 298.313 300.176 295.571C301.76 292.829 301.76 289.448 300.176 286.706C298.595 283.964 295.668 282.276 292.501 282.276H284.702L275.774 255.485C274.245 250.899 271.313 246.908 267.391 244.077C263.469 241.25 258.756 239.728 253.92 239.73H202.092V158.183H226.909V220.226H226.912C226.912 223.393 228.6 226.32 231.342 227.902C234.084 229.486 237.465 229.486 240.207 227.902C242.949 226.321 244.637 223.393 244.637 220.226V158.183H264.139C267.304 158.183 270.231 156.493 271.815 153.75C273.399 151.008 273.398 147.63 271.815 144.888C270.231 142.145 267.304 140.455 264.139 140.455H37.2269C34.0622 140.455 31.135 142.145 29.5511 144.888C27.9672 147.63 27.9676 151.008 29.5511 153.75C31.1347 156.493 34.0621 158.183 37.2269 158.183H56.7284V239.73H47.4457C42.6095 239.728 37.8943 241.247 33.9698 244.077C30.0476 246.905 27.1133 250.896 25.5841 255.485L16.6642 282.276H8.86505C6.50986 282.276 4.25205 283.211 2.59023 284.878C0.925921 286.544 -0.00472273 288.804 1.80237e-05 291.16L0.00451134 291.16ZM159.549 158.182H184.366L184.369 239.729H159.551L159.549 158.182ZM117.004 158.182H141.821L141.823 239.729H117.006L117.004 158.182ZM74.4587 158.182H99.2759L99.2783 239.729H74.461L74.4587 158.182Z" fill="#A5CEE4"/>
</svg>
