<svg width="300" height="300" viewBox="0 0 300 300" fill="none" xmlns="http://www.w3.org/2000/svg">
<path d="M186.547 50.0695L247.574 111.394L93.0987 266.604L32.1034 205.301L186.547 50.0695ZM293.881 35.2743L266.664 7.92713C261.613 2.85236 254.749 0 247.588 0C240.43 0 233.566 2.85231 228.515 7.92713L202.447 34.1252L263.469 95.4497L293.879 64.8924C297.798 60.9603 300 55.6346 300 50.0823C300 44.5301 297.799 39.2044 293.879 35.2722L293.881 35.2743ZM0.170014 291.507C-0.357323 293.85 0.36044 296.301 2.06801 297.99C3.77766 299.679 6.23644 300.367 8.572 299.811L76.5743 283.241L15.579 221.916L0.170014 291.507Z" fill="#A5CEE4"/>
</svg>
