<svg width="429" height="300" viewBox="0 0 429 300" fill="none" xmlns="http://www.w3.org/2000/svg">
<path d="M32.1444 0C14.3388 0 0 14.334 0 32.1444V267.856C0 285.661 14.334 300 32.1444 300H396.425C414.231 300 428.57 285.666 428.57 267.856V32.1444C428.57 14.3388 414.236 0 396.425 0H32.1444ZM57.5924 48.0482L57.5886 48.0444C60.8807 47.6782 64.1542 48.8516 66.4635 51.2244L199.051 181.306C207.347 189.444 220.867 189.448 229.185 181.306L362.107 51.2244H362.103C364.11 49.1618 366.864 47.9921 369.741 47.9809C372.619 47.9697 375.38 49.1132 377.405 51.1609C379.431 53.2087 380.544 55.9814 380.5 58.8588C380.459 61.7361 379.259 64.4752 377.17 66.4594L290.286 151.669L377.002 233.199H377.005C381.273 237.272 381.445 244.032 377.39 248.319C373.332 252.605 366.576 252.807 362.271 248.767L275.05 166.569L244.248 196.702C227.642 212.957 200.58 212.99 183.981 196.702L153.511 166.737L66.2897 248.767H66.2934C61.9887 252.807 55.233 252.605 51.1741 248.319C47.1196 244.033 47.2915 237.273 51.5589 233.199L138.111 151.669L51.3954 66.4594C48.3723 63.5895 47.2923 59.2287 48.619 55.2784C49.9492 51.3286 53.4469 48.5073 57.5873 48.044L57.5924 48.0482Z" fill="#A5CEE4"/>
</svg>
